<svg xmlns="http://www.w3.org/2000/svg" width="0" height="0"><symbol id="add-fill" fill="currentColor" viewBox="0 0 24 24"><path fill-rule="evenodd" d="M12 24c6.627 0 12-5.373 12-12S18.627 0 12 0 0 5.373 0 12s5.373 12 12 12M11 6v5H6a1 1 0 1 0 0 2h5v5a1 1 0 1 0 2 0v-5h5a1 1 0 1 0 0-2h-5V6a1 1 0 1 0-2 0" clip-rule="evenodd"/></symbol><symbol id="alarm-clock" fill="currentColor" viewBox="0 0 24 24"><path fill-rule="evenodd" d="m4.513 6.57.03.112a1 1 0 0 1-1.931.51 3.829 3.829 0 0 1 5.129-4.72 1 1 0 0 1-.778 1.843l-.148-.055a1.829 1.829 0 0 0-2.302 2.31m12.553-2.266.035-.016c.636-.257 1.417-.105 1.942.42.455.454.63 1.103.487 1.712l-.043.151a1 1 0 0 0 1.901.623 3.828 3.828 0 0 0-5.078-4.742l-.075.033a1 1 0 1 0 .83 1.82Zm-.16 14.516A7.97 7.97 0 0 1 12 20.5a7.97 7.97 0 0 1-4.906-1.68l-1.387 1.387a1 1 0 1 1-1.414-1.414l1.387-1.387a8 8 0 1 1 12.64 0l1.387 1.387a1 1 0 0 1-1.414 1.414zM12 18.5a6 6 0 1 1 0-12 6 6 0 0 1 0 12m.5-9.5v3h2a1 1 0 1 1 0 2h-3a1 1 0 0 1-1-1V9a1 1 0 1 1 2 0" clip-rule="evenodd"/></symbol><symbol id="archive" fill="currentColor" viewBox="0 0 24 25"><path fill-rule="evenodd" d="M17.563 3.385H6.437a2 2 0 0 0-1.537.72L3.464 5.827A2 2 0 0 0 3 7.109v12.277a2 2 0 0 0 2 2h14a2 2 0 0 0 2-2V7.109a2 2 0 0 0-.464-1.28L19.1 4.104a2 2 0 0 0-1.537-.72m.834 3H5.603l.834-1h11.126zM5 8.385h14v11H5zm3.793 5.293a1 1 0 0 1 1.414 0l.793.793v-3.586a1 1 0 1 1 2 0v3.586l.793-.793a1 1 0 1 1 1.414 1.414l-2.5 2.5-.007.006a1 1 0 0 1-1.4 0l-.008-.007-2.5-2.5a1 1 0 0 1 0-1.413" clip-rule="evenodd"/></symbol><symbol id="checkmark" fill="none" viewBox="0 0 24 25"><path fill="currentColor" d="M9 16.555 5.535 13.09a1 1 0 0 0-1.415 1.415l3.951 3.95a1.314 1.314 0 0 0 1.858 0L20.295 8.09a.997.997 0 0 0-1.41-1.41L9 16.554Z"/></symbol><symbol id="chevron-down" fill="currentColor" viewBox="0 0 24 24"><path d="m12 16-6-6 1.41-1.41L12 13.17l4.59-4.58L18 10z"/></symbol><symbol id="chevron-left" fill="currentColor" viewBox="0 0 24 24"><path d="M15.41 7.41 14 6l-6 6 6 6 1.41-1.41L10.83 12z"/></symbol><symbol id="chevron-right" fill="currentColor" viewBox="0 0 24 24"><path d="M8.59 16.59 10 18l6-6-6-6-1.41 1.41L13.17 12z"/></symbol><symbol id="chevron-up" fill="currentColor" viewBox="0 0 24 24"><path d="m12 8-6 6 1.41 1.41L12 10.83l4.59 4.58L18 14z"/></symbol><symbol id="clear" fill="currentColor" viewBox="0 0 24 24"><path fill-rule="evenodd" d="M12 22c5.523 0 10-4.477 10-10S17.523 2 12 2 2 6.477 2 12s4.477 10 10 10m0-2a8 8 0 1 1 0-16 8 8 0 0 1 0 16m4.207-10.793-7 7a1 1 0 0 1-1.414-1.414l7-7a1 1 0 1 1 1.414 1.414" clip-rule="evenodd"/></symbol><symbol id="clock" fill="currentColor" viewBox="0 0 24 24"><path fill-rule="evenodd" d="M11.99 2C6.47 2 2 6.48 2 12s4.47 10 9.99 10C17.52 22 22 17.52 22 12S17.52 2 11.99 2M12 20c-4.42 0-8-3.58-8-8s3.58-8 8-8 8 3.58 8 8-3.58 8-8 8M11 7h1.5v5.25l4.5 2.67-.75 1.23L11 13z" clip-rule="evenodd"/></symbol><symbol id="compose" fill="currentColor" viewBox="0 0 24 24"><path fill-rule="evenodd" d="M8.315 13.565 19.587 2.293a1 1 0 0 1 1.415 0l.707.707a1 1 0 0 1 0 1.414L20.053 6.07l-2.12-2.12-.708.707 2.12 2.12-8.908 8.91-2.517.394zM6 3h6v2H6a2 2 0 0 0-2 2v11a2 2 0 0 0 2 2h11a2 2 0 0 0 2-2v-6h2v6a4 4 0 0 1-4 4H6a4 4 0 0 1-4-4V7a4 4 0 0 1 4-4" clip-rule="evenodd"/></symbol><symbol id="content" fill="currentColor" viewBox="0 0 24 24"><path fill-rule="evenodd" d="M2 8V6h20v2zm0 5h20v-2H2zm0 5h12v-2H2z" clip-rule="evenodd"/></symbol><symbol id="copy" fill="currentColor" viewBox="0 0 24 24"><path fill-rule="evenodd" d="M16.696 1H4.174c-1.148 0-2.087.9-2.087 2v14h2.087V3h12.522zm-1.044 4H8.348C7.2 5 6.27 5.9 6.27 7l-.01 14c0 1.1.929 2 2.076 2h11.49c1.147 0 2.086-.9 2.086-2V11zM8.348 7v14h11.478v-9H14.61V7z" clip-rule="evenodd"/></symbol><symbol id="delete" fill="currentColor" viewBox="0 0 24 24"><path fill-rule="evenodd" d="M9.5 3h5l1 1H19v2H5V4h3.5zM18 7H6v12c0 1.1.9 2 2 2h8c1.1 0 2-.9 2-2zm-2 2v10H8V9z" clip-rule="evenodd"/></symbol><symbol id="duplicate" fill="currentColor" viewBox="0 0 24 24"><path fill-rule="evenodd" d="M20 4H9a1 1 0 0 1 0-2h11a2 2 0 0 1 2 2v11a1 1 0 1 1-2 0zM4 6h12a2 2 0 0 1 2 2v12a2 2 0 0 1-2 2H4a2 2 0 0 1-2-2V8a2 2 0 0 1 2-2m0 2v12h12V8zm6 2a1 1 0 0 0-1 1v2H7a1 1 0 1 0 0 2h2v2a1 1 0 1 0 2 0v-2h2a1 1 0 1 0 0-2h-2v-2a1 1 0 0 0-1-1" clip-rule="evenodd"/></symbol><symbol id="edit" fill="currentColor" viewBox="0 0 24 24"><path fill-rule="evenodd" d="m18.37 3.29 2.34 2.34c.39.39.39 1.02 0 1.41l-1.83 1.83-3.75-3.75 1.83-1.83c.19-.19.44-.29.7-.29s.51.09.71.29M3 17.25V21h3.75L17.81 9.94l-3.75-3.75zM5.92 19H5v-.92l9.06-9.06.92.92z" clip-rule="evenodd"/></symbol><symbol id="email" fill="currentColor" viewBox="0 0 24 24"><path fill-rule="evenodd" d="M20 4c1.05 0 1.918.82 1.994 1.851L22 6v12c0 1.05-.82 1.918-1.851 1.994L20 20H4c-1.05 0-1.918-.82-1.994-1.851L2 18l.01-12c0-1.05.81-1.918 1.841-1.994L4 4zM4 18h16V8l-8 5-7.992-4.995zm.01-11.994L12 11l8-5-15.99.002z" clip-rule="evenodd"/></symbol><symbol id="error" fill="currentColor" viewBox="0 0 24 24"><path fill-rule="evenodd" d="M12 21a9 9 0 1 1 0-18 9 9 0 0 1 0 18m-1.5-5.508c0-.85.55-1.34 1.494-1.34.945 0 1.502.49 1.502 1.34 0 .842-.557 1.333-1.502 1.333s-1.494-.49-1.494-1.333m2.9-8.742h-2.812l.234 6.354h2.344z" clip-rule="evenodd"/></symbol><symbol id="exit" fill="currentColor" viewBox="0 0 24 24"><path fill-rule="evenodd" d="M5 3h14a2 2 0 0 1 2 2v14a2 2 0 0 1-2 2H5a2 2 0 0 1-2-2v-4h2v4h14V5H5v4H3V5a2 2 0 0 1 2-2m10.706 9.708-3.499 3.5a1 1 0 0 1-1.414-1.415L12.586 13H3.5a1 1 0 1 1 0-2h9.086l-1.793-1.793a1 1 0 0 1 1.414-1.414l3.5 3.5.007.007a.997.997 0 0 1 0 1.4z" clip-rule="evenodd"/></symbol><symbol id="expand" fill="currentColor" viewBox="0 0 24 24"><path fill-rule="evenodd" d="M5 5v14h14v-7h2v7c0 1.1-.9 2-2 2H5a2 2 0 0 1-2-2V5a2 2 0 0 1 2-2h7v2zm9 0V3h7v7h-2V6.41l-9.83 9.83-1.41-1.41L17.59 5z" clip-rule="evenodd"/></symbol><symbol id="file-manager" fill="currentColor" viewBox="0 0 24 24"><path fill-rule="evenodd" d="m19 8.939-5.686-5.94L7 3a2 2 0 0 0-2 2v14a2 2 0 0 0 2 2h10a2 2 0 0 0 2-2zm-6.54-3.94L17 9.741V19H7V5zM9 12a1 1 0 0 1 1-1h4a1 1 0 1 1 0 2h-4a1 1 0 0 1-1-1m1 3a1 1 0 1 0 0 2h4a1 1 0 1 0 0-2z" clip-rule="evenodd"/></symbol><symbol id="filter-bars" fill="none" viewBox="0 0 24 24"><path fill="currentColor" d="M10 18h4v-2h-4zM3 6v2h18V6zm3 7h12v-2H6z"/></symbol><symbol id="filter" fill="currentColor" viewBox="0 0 24 24"><path d="M10 18h4v-2h-4zM3 6v2h18V6zm3 7h12v-2H6z"/></symbol><symbol id="flag" fill="currentColor" viewBox="0 0 24 24"><path fill-rule="evenodd" d="M4 4.75a1 1 0 0 1 .553-.894C5.708 3.278 7.19 3 9 3c1.157 0 1.88.14 3.275.538C13.505 3.89 14.073 4 15 4c1.523 0 2.708-.222 3.553-.644A1 1 0 0 1 20 4.25v9.5a1 1 0 0 1-.553.894c-1.155.578-2.637.856-4.447.856-1.157 0-1.88-.14-3.275-.539-1.23-.35-1.799-.461-2.725-.461-1.216 0-2.216.142-3 .413V20a1 1 0 1 1-2 0zm5 7.75q-1.69-.001-3 .329V5.413C6.784 5.142 7.784 5 9 5c.926 0 1.495.11 2.725.462C13.12 5.86 13.843 6 15 6q1.69.001 3-.329v7.416c-.784.271-1.784.413-3 .413-.927 0-1.495-.11-2.725-.461-1.395-.4-2.118-.539-3.275-.539" clip-rule="evenodd"/></symbol><symbol id="folder" fill="currentColor" viewBox="0 0 24 24"><path d="M4 20q-.824 0-1.413-.587A1.93 1.93 0 0 1 2 18V6q0-.824.587-1.412A1.93 1.93 0 0 1 4 4h6l2 2h8q.824 0 1.413.588Q22 7.175 22 8v10q0 .824-.587 1.413A1.93 1.93 0 0 1 20 20zm0-2h16V8h-8.825l-2-2H4z"/></symbol><symbol id="ghost" fill="currentColor" viewBox="0 0 24 24"><path fill-rule="evenodd" d="M4.653 8.25c0-4.007 3.284-7.25 7.33-7.25 4.044 0 7.328 3.243 7.328 7.25v.14c-.003 1.158.016 2.2.085 3.3.07 1.097.181 1.972.33 2.512q.396 1.442 1.698 3.178a2.86 2.86 0 0 1-.599 4.03 2.92 2.92 0 0 1-2.276.512q-.901-.173-1.496-.172c-.878 0-1.267.115-2.09.52-1.077.532-1.745.73-2.982.73-1.165 0-1.806-.192-2.662-.671l-.143-.08c-.662-.368-1.135-.499-2.277-.499a6 6 0 0 0-1.344.17c-1.555.36-3.113-.597-3.478-2.143a2.86 2.86 0 0 1 .424-2.272c.928-1.355 1.502-2.452 1.726-3.264.145-.525.257-1.429.33-2.577a59 59 0 0 0 .097-3.387V8.25Zm2 0v.025a60 60 0 0 1-.1 3.514c-.081 1.278-.206 2.29-.398 2.985-.293 1.062-.962 2.34-2.004 3.861a.86.86 0 0 0-.128.681.9.9 0 0 0 1.083.656 8 8 0 0 1 1.793-.222c1.493 0 2.3.222 3.25.751l.145.082c.577.322.893.417 1.687.417.882 0 1.272-.115 2.096-.522 1.075-.53 1.743-.728 2.976-.728q.803 0 1.874.208a.92.92 0 0 0 .715-.16.86.86 0 0 0 .184-1.215c-1.01-1.344-1.69-2.624-2.027-3.848-.195-.707-.321-1.695-.399-2.92a51 51 0 0 1-.09-3.43V8.25c0-2.897-2.382-5.25-5.328-5.25S6.653 5.353 6.653 8.25M14 12h-4v2h4zm0-2a1 1 0 1 1 0-2 1 1 0 0 1 0 2M9 9a1 1 0 1 0 2 0 1 1 0 0 0-2 0" clip-rule="evenodd"/></symbol><symbol id="globe" fill="currentColor" viewBox="0 0 24 24"><path fill-rule="evenodd" d="M12 2C6.48 2 2 6.48 2 12s4.48 10 10 10 10-4.48 10-10S17.52 2 12 2m-1 17.93c-3.95-.49-7-3.85-7-7.93 0-.62.08-1.21.21-1.79L9 15v1c0 1.1.9 2 2 2zM16 16c.9 0 1.64.58 1.9 1.39C19.2 15.97 20 14.08 20 12c0-3.35-2.07-6.22-5-7.41V5c0 1.1-.9 2-2 2h-2v2c0 .55-.45 1-1 1H8v2h6c.55 0 1 .45 1 1v3z" clip-rule="evenodd"/></symbol><symbol id="group-content" fill="currentColor" viewBox="0 0 24 24"><path d="M19 3c1.05 0 1.918.82 1.994 1.851L21 5v14c0 1.05-.82 1.918-1.851 1.994L19 21H5c-1.05 0-1.918-.82-1.994-1.851L3 19V5c0-1.05.82-1.918 1.851-1.994L5 3zm0 2H5v14h14zm-2.5 5.5a1 1 0 0 1 .993.883l.007.117v4a2 2 0 0 1-1.85 1.994l-.15.006h-4a1 1 0 0 1-.117-1.993l.117-.007h4v-4a1 1 0 0 1 1-1m-4-4a2 2 0 0 1 2 2v4a2 2 0 0 1-2 2h-4a2 2 0 0 1-2-2v-4a2 2 0 0 1 2-2zm0 2h-4v4h4z"/></symbol><symbol id="group" fill="currentColor" viewBox="0 0 24 24"><path fill-rule="evenodd" d="M9 12c2.21 0 4-1.79 4-4s-1.79-4-4-4-4 1.79-4 4 1.79 4 4 4m0-6c1.1 0 2 .9 2 2s-.9 2-2 2-2-.9-2-2 .9-2 2-2m10.33 2c0 2.21-1.79 4-4 4-.47 0-.91-.1-1.33-.24a5.98 5.98 0 0 0 0-7.52c.42-.14.86-.24 1.33-.24 2.21 0 4 1.79 4 4M19 17c0-1.68-.96-2.94-2.33-3.87 2.76.4 6.33 1.69 6.33 3.87v3h-4zM1 17c0-2.66 5.33-4 8-4s8 1.34 8 4v3H1zm2 .01V18h12v-1c-.2-.71-3.3-2-6-2s-5.8 1.29-6 2.01" clip-rule="evenodd"/></symbol><symbol id="hashtag" fill="currentColor" viewBox="0 0 24 24"><path fill-rule="evenodd" d="m10 17.5.136-1.5h3L13 17.5a1 1 0 1 0 2 0l.136-1.5h1.822c.576 0 1.042-.448 1.042-1s-.466-1-1.042-1h-1.64l.364-4h1.776c.576 0 1.042-.448 1.042-1s-.466-1-1.042-1h-1.594L16 6.5a1 1 0 1 0-2 0L13.864 8h-3L11 6.5a1 1 0 1 0-2 0L8.864 8H7.042C6.466 8 6 8.448 6 9s.466 1 1.042 1h1.64l-.364 4H6.542c-.576 0-1.042.448-1.042 1s.466 1 1.042 1h1.594L8 17.5a1 1 0 1 0 2 0m3.682-7.5h-3l-.364 4h3z" clip-rule="evenodd"/></symbol><symbol id="heart-strikethrough" fill="currentColor" viewBox="0 0 24 24"><path fill-rule="evenodd" d="m15.111 18.525 4.374 4.375 1.415-1.415L2.514 3.101 1.1 4.515l1.484 1.483A5.6 5.6 0 0 0 2 8.5c0 3.777 3.394 6.855 8.537 11.518l.013.012L12 21.35l1.45-1.31.04-.036q.843-.765 1.621-1.479M22 8.5c0 2.639-1.657 4.937-4.41 7.676L4.998 3.584A5.6 5.6 0 0 1 7.5 3c1.74 0 3.41.81 4.5 2.09C13.09 3.81 14.76 3 16.5 3 19.58 3 22 5.42 22 8.5" clip-rule="evenodd"/></symbol><symbol id="heart" fill="currentColor" viewBox="0 0 24 24"><path fill-rule="evenodd" d="M12 5.09C13.09 3.81 14.76 3 16.5 3 19.58 3 22 5.42 22 8.5c0 3.777-3.394 6.855-8.537 11.518l-.013.012L12 21.35l-1.45-1.31-.04-.036C5.384 15.344 2 12.27 2 8.5 2 5.42 4.42 3 7.5 3c1.74 0 3.41.81 4.5 2.09m0 13.56.1-.1C16.86 14.24 20 11.39 20 8.5c0-2-1.5-3.5-3.5-3.5-1.54 0-3.04.99-3.56 2.36h-1.87C10.54 5.99 9.04 5 7.5 5 5.5 5 4 6.5 4 8.5c0 2.89 3.14 5.74 7.9 10.05z" clip-rule="evenodd"/></symbol><symbol id="help" fill="currentColor" viewBox="0 0 24 24"><path fill-rule="evenodd" d="M22 12c0 5.523-4.477 10-10 10S2 17.523 2 12 6.477 2 12 2s10 4.477 10 10M4 12a8 8 0 1 0 16 0 8 8 0 0 0-16 0m9.4 4.85a1.4 1.4 0 1 1-2.8 0 1.4 1.4 0 0 1 2.8 0M12.25 6a3.75 3.75 0 0 1 .75 7.425v.225a1 1 0 1 1-2 0V12.5a1 1 0 0 1 1-1h.25a1.75 1.75 0 1 0-1.75-1.75 1 1 0 1 1-2 0A3.75 3.75 0 0 1 12.25 6" clip-rule="evenodd"/></symbol><symbol id="history" fill="currentColor" viewBox="0 0 24 24"><path fill-rule="evenodd" d="M4 12a9 9 0 1 1 9 9c-2.49 0-4.73-1.01-6.36-2.64l1.42-1.42A6.94 6.94 0 0 0 13 19c3.87 0 7-3.13 7-7s-3.13-7-7-7-7 3.13-7 7h3l-4.04 4.03-.07-.14L1 12zm8 1V8h1.5v4.25l3.5 2.08-.72 1.21z" clip-rule="evenodd"/></symbol><symbol id="inbox-team" fill="currentColor" viewBox="0 0 24 24"><path fill-rule="evenodd" d="m3.07 13.742 2.528-9.268A2 2 0 0 1 7.528 3h8.944a2 2 0 0 1 1.93 1.474l2.527 9.268q.07.258.071.526V19a2 2 0 0 1-2 2H5a2 2 0 0 1-2-2v-4.732a2 2 0 0 1 .07-.526m1.93.526V19h14v-4.732L16.472 5H7.528zM15.355 15a3.502 3.502 0 0 1-6.71 0H7.5a1 1 0 1 1 0-2h2a1 1 0 0 1 1 1 1.5 1.5 0 0 0 3 0 1 1 0 0 1 1-1h2a1 1 0 1 1 0 2zM9.5 12c-.276 0-.493-.227-.4-.488C9.31 10.921 9.965 10 12 10s2.69.92 2.9 1.512c.093.26-.124.488-.4.488zM12 9.5a1.5 1.5 0 1 0 0-3 1.5 1.5 0 0 0 0 3" clip-rule="evenodd"/></symbol><symbol id="inbox" fill="currentColor" viewBox="0 0 24 24"><path fill-rule="evenodd" d="M8.162 4h7.676a1 1 0 0 1 .948.684L20 14.324V18a2 2 0 0 1-2 2H6a2 2 0 0 1-2-2v-3.675l3.214-9.641A1 1 0 0 1 8.162 4m10.522.051L22 14v4a4 4 0 0 1-4 4H6a4 4 0 0 1-4-4v-4l3.316-9.949A3 3 0 0 1 8.162 2h7.676a3 3 0 0 1 2.846 2.051M15.355 15a3.502 3.502 0 0 1-6.71 0H7.5a1 1 0 1 1 0-2h2a1 1 0 0 1 1 1 1.5 1.5 0 0 0 3 0 1 1 0 0 1 1-1h2a1 1 0 1 1 0 2z" clip-rule="evenodd"/></symbol><symbol id="info" fill="currentColor" viewBox="0 0 24 24"><path fill-rule="evenodd" d="M22 12c0 5.523-4.477 10-10 10S2 17.523 2 12 6.477 2 12 2s10 4.477 10 10M4 12a8 8 0 1 0 16 0 8 8 0 0 0-16 0m5.5 4a1 1 0 0 1 1-1h.5v-3h-.5a1 1 0 1 1 0-2H12a1 1 0 0 1 1 1v4h.5a1 1 0 1 1 0 2h-3a1 1 0 0 1-1-1m2.3-6.8a1.4 1.4 0 1 0 0-2.8 1.4 1.4 0 0 0 0 2.8" clip-rule="evenodd"/></symbol><symbol id="integration-activate" fill="currentColor" viewBox="0 0 24 24"><path fill-rule="evenodd" d="M8 2h12c1.1 0 2 .9 2 2v12c0 1.1-.9 2-2 2H8c-1.1 0-2-.9-2-2V4c0-1.1.9-2 2-2M2 6h2v14h14v2H4c-1.1 0-2-.9-2-2zm18 10H8V4h12zm-9-2V6l6.5 4z" clip-rule="evenodd"/></symbol><symbol id="integration-pause" fill="currentColor" viewBox="0 0 24 24"><path fill-rule="evenodd" d="M20 2H8c-1.1 0-2 .9-2 2v12c0 1.1.9 2 2 2h12c1.1 0 2-.9 2-2V4c0-1.1-.9-2-2-2M4 6H2v14c0 1.1.9 2 2 2h14v-2H4zm4 10h12V4H8zm3-2h2V6h-2zm6 0h-2V6h2z" clip-rule="evenodd"/></symbol><symbol id="integration-remove" fill="currentColor" viewBox="0 0 24 24"><path fill-rule="evenodd" d="M8 2h12c1.1 0 2 .9 2 2v12c0 1.1-.9 2-2 2H8c-1.1 0-2-.9-2-2V4c0-1.1.9-2 2-2M2 6h2v14h14v2H4c-1.1 0-2-.9-2-2zm18-2v12H8V4zm-6 4.59L16.59 6 18 7.41 15.41 10 18 12.59 16.59 14 14 11.41 11.41 14 10 12.59 12.59 10 10 7.41 11.41 6z" clip-rule="evenodd"/></symbol><symbol id="label" fill="currentColor" viewBox="0 0 24 24"><path fill-rule="evenodd" d="M11.838 3h7.172a2 2 0 0 1 2 2v7.172a2 2 0 0 1-.586 1.414l-7 7a2 2 0 0 1-2.828 0l-7.172-7.172a2 2 0 0 1 0-2.828l7-7A2 2 0 0 1 11.838 3m0 2-7 7 7.172 7.172 7-7V5zm3.172 5.5a1.5 1.5 0 1 0 0-3 1.5 1.5 0 0 0 0 3" clip-rule="evenodd"/></symbol><symbol id="lightbulb" fill="currentColor" viewBox="0 0 24 24"><path fill-rule="evenodd" d="M15.057 1.919a1 1 0 1 1 1.848.765l-.766 1.848a1 1 0 1 1-1.847-.766zm-7.42-.541a1 1 0 0 0-.542 1.306l.766 1.848a1 1 0 0 0 1.848-.765l-.766-1.848a1 1 0 0 0-1.306-.541m-2.77 8.397a1 1 0 0 0-.54-1.306l-1.849-.766a1 1 0 1 0-.765 1.848l1.848.765a1 1 0 0 0 1.306-.54Zm16.641 6.402a1 1 0 0 1-.765 1.848l-1.848-.765a1 1 0 0 1 .765-1.848zM4.34 15.412a1 1 0 1 1 .765 1.847l-1.848.766a1 1 0 0 1-.765-1.848zm17.206-7.709a1 1 0 1 1 .766 1.848l-1.848.765a1 1 0 0 1-.765-1.847zM11.347 22a2 2 0 0 1-1.973-1.671l-.345-2.075c-.07-.174-.201-.39-.413-.675a50 50 0 0 0-.638-.813l-.226-.286C6.586 14.972 6 13.687 6 12a6 6 0 1 1 12 0c0 1.687-.587 2.972-1.752 4.48-.03.04-.117.149-.226.286-.224.282-.539.679-.638.813-.212.285-.343.501-.413.675l-.345 2.075A2 2 0 0 1 12.653 22zm0-2-.25-1.5h1.806l-.25 1.5zm2.43-3.612-.082.112h-3.39l-.082-.112c-.124-.168-.488-.626-.712-.908l-.177-.223C8.414 14.067 8 13.159 8 12a4 4 0 1 1 8 0c0 1.159-.414 2.067-1.334 3.257l-.176.222c-.225.282-.589.741-.713.91Z" clip-rule="evenodd"/></symbol><symbol id="lightning-bolt" fill="currentColor" viewBox="0 0 24 24"><path fill-rule="evenodd" d="m5.259 12.016.077-.126 5.998-8.993c1.181-1.771 3.944-.715 3.642 1.392L14.3 9l2.695.001c1.547 0 2.489 1.67 1.74 2.982l-.077.126-5.999 8.994c-1.18 1.77-3.942.714-3.641-1.392l.673-4.714H7c-1.546 0-2.488-1.67-1.74-2.982ZM12 11l1.002-7-6.001 9H12l-1 7 6.002-9z" clip-rule="evenodd"/></symbol><symbol id="link" fill="currentColor" viewBox="0 0 24 24"><path fill-rule="evenodd" d="m20.207 10.207-1.5 1.5a1 1 0 0 1-1.414-1.414l1.5-1.5c.99-.99.99-2.596 0-3.586a2.63 2.63 0 0 0-3.672-.05l-4.367 4.137a2.44 2.44 0 0 0-.093 3.452l.046.047a1 1 0 0 1-1.414 1.414l-.237-.256a4.44 4.44 0 0 1 .323-6.109l4.367-4.136a4.63 4.63 0 0 1 6.461.087 4.536 4.536 0 0 1 0 6.414M3.793 13.793l1.5-1.5a1 1 0 0 1 1.414 1.414l-1.5 1.5a2.536 2.536 0 0 0 3.586 3.586l4-4c.99-.99.99-2.596 0-3.586a1 1 0 0 1 1.414-1.414 4.536 4.536 0 0 1 0 6.414l-4 4a4.536 4.536 0 0 1-6.414-6.414" clip-rule="evenodd"/></symbol><symbol id="loading" fill="currentColor" viewBox="0 0 16 16"><path d="m7.015 4.123-.748-1.869a6 6 0 1 1-4.013 4.013l1.869.748a4 4 0 1 0 2.892-2.892"/></symbol><symbol id="lock" fill="currentColor" viewBox="0 0 24 25"><path fill-rule="evenodd" d="M17 8.385h1c1.1 0 2 .9 2 2v10c0 1.1-.9 2-2 2H6c-1.1 0-2-.9-2-2v-10c0-1.1.9-2 2-2h1v-2c0-2.76 2.24-5 5-5s5 2.24 5 5zm-5-5c-1.66 0-3 1.34-3 3v2h6v-2c0-1.66-1.34-3-3-3m-6 17v-10h12v10zm8-5c0 1.1-.9 2-2 2s-2-.9-2-2 .9-2 2-2 2 .9 2 2" clip-rule="evenodd"/></symbol><symbol id="mark-read" fill="currentColor" viewBox="0 0 24 24"><path fill-rule="evenodd" d="m16.182 5 1.508 1.507L5.638 18.56 4.13 17.052l.055-.056L1 13.812l1.507-1.508 3.185 3.185zM16 16v2h-6v-2zm4-4v2h-6v-2zm4-4v2h-6V8z" clip-rule="evenodd" opacity=".9"/></symbol><symbol id="mention" fill="currentColor" viewBox="0 0 24 24"><path fill-rule="evenodd" d="M2 12C2 6.48 6.48 2 12 2s10 4.48 10 10v1.43C22 15.4 20.47 17 18.5 17c-1.19 0-2.31-.58-2.96-1.47-.9.91-2.16 1.47-3.54 1.47-2.76 0-5-2.24-5-5s2.24-5 5-5 5 2.24 5 5v1.43c0 .79.71 1.57 1.5 1.57s1.5-.78 1.5-1.57V12c0-4.34-3.66-8-8-8s-8 3.66-8 8 3.66 8 8 8h4a1 1 0 1 1 0 2h-4C6.48 22 2 17.52 2 12m7 0c0 1.66 1.34 3 3 3s3-1.34 3-3-1.34-3-3-3-3 1.34-3 3" clip-rule="evenodd"/></symbol><symbol id="menu" fill="currentColor" viewBox="0 0 24 24"><path fill-rule="evenodd" d="M4 8a1 1 0 0 1 0-2h16a1 1 0 1 1 0 2zm-1 4a1 1 0 0 0 1 1h16a1 1 0 1 0 0-2H4a1 1 0 0 0-1 1m0 5a1 1 0 0 0 1 1h16a1 1 0 1 0 0-2H4a1 1 0 0 0-1 1" clip-rule="evenodd"/></symbol><symbol id="messages" fill="currentColor" viewBox="0 0 24 24"><path d="M20 2a2 2 0 0 1 1.994 1.852l.006.15v11.996c0 1.055-.818 1.92-1.851 1.996L20 18h-5.501l-1.604 3.219c-.473.947-1.228.986-1.724.123l-.066-.123L9.5 18H4a2 2 0 0 1-1.995-1.852L2 15.998V4.002c0-1.055.818-1.92 1.851-1.997L4 2zM4.074 3.999 4 4.002l-.001 11.923L4 16h6.737L12 18.531 13.261 16l6.665.001.074-.003.001-11.923L20 4zM16.5 8.5a1.5 1.5 0 1 1 0 3 1.5 1.5 0 0 1 0-3m-4.5 0a1.5 1.5 0 1 1 0 3 1.5 1.5 0 0 1 0-3m-4.5 0a1.5 1.5 0 1 1 0 3 1.5 1.5 0 0 1 0-3"/></symbol><symbol id="moon" fill="currentColor" viewBox="0 0 24 24"><path fill-rule="evenodd" d="m10.2 5.935-.003.003a6.003 6.003 0 0 0-1.474 8.356 6.003 6.003 0 0 0 8.357 1.474l.004-.003A9.93 9.93 0 0 1 12 12a9.93 9.93 0 0 1-1.8-6.065m.402-2.481c-.537.219-1.058.5-1.552.846a8.003 8.003 0 0 0-1.965 11.14 8.003 8.003 0 0 0 11.142 1.965c.494-.346.936-.74 1.326-1.17a8 8 0 0 0 1.331-2.009 8 8 0 0 1-2.215-.115 7.95 7.95 0 0 1-5.03-3.26 7.95 7.95 0 0 1-1.343-5.842c.117-.73.335-1.444.65-2.12a8 8 0 0 0-2.344.564Z" clip-rule="evenodd"/></symbol><symbol id="more-horizontal" fill="currentColor" viewBox="0 0 24 24"><path fill-rule="evenodd" d="M4 12c0-1.1.9-2 2-2s2 .9 2 2-.9 2-2 2-2-.9-2-2m8-2c-1.1 0-2 .9-2 2s.9 2 2 2 2-.9 2-2-.9-2-2-2m6 0c-1.1 0-2 .9-2 2s.9 2 2 2 2-.9 2-2-.9-2-2-2" clip-rule="evenodd"/></symbol><symbol id="more-vertical" fill="currentColor" viewBox="0 0 24 24"><path fill-rule="evenodd" d="M12 20c-1.1 0-2-.9-2-2s.9-2 2-2 2 .9 2 2-.9 2-2 2m-2-8c0 1.1.9 2 2 2s2-.9 2-2-.9-2-2-2-2 .9-2 2m0-6c0 1.1.9 2 2 2s2-.9 2-2-.9-2-2-2-2 .9-2 2" clip-rule="evenodd"/></symbol><symbol id="move-down" fill="currentColor" viewBox="0 0 24 24"><path fill-rule="evenodd" d="M22 12c0 5.523-4.477 10-10 10S2 17.523 2 12 6.477 2 12 2s10 4.477 10 10M4 12a8 8 0 1 0 16 0 8 8 0 0 0-16 0m5.207-.207a1 1 0 0 0-1.414 1.414l3.5 3.5.007.007a.996.996 0 0 0 1.4 0l.008-.008 3.5-3.499a1 1 0 0 0-1.415-1.414L13 13.586V8a1 1 0 1 0-2 0v5.586z" clip-rule="evenodd"/></symbol><symbol id="move-left" fill="currentColor" viewBox="0 0 24 24"><path fill-rule="evenodd" d="M12 2C6.477 2 2 6.477 2 12s4.477 10 10 10 10-4.477 10-10S17.523 2 12 2m0 18a8 8 0 1 1 0-16 8 8 0 0 1 0 16m.207-5.207a1 1 0 0 1-1.414 1.414l-3.5-3.5a.996.996 0 0 1 0-1.416l3.5-3.498a1 1 0 1 1 1.414 1.414L10.414 11H16a1 1 0 1 1 0 2h-5.586z" clip-rule="evenodd"/></symbol><symbol id="move-right" fill="currentColor" viewBox="0 0 24 24"><path fill-rule="evenodd" d="M12 2c5.523 0 10 4.477 10 10s-4.477 10-10 10S2 17.523 2 12 6.477 2 12 2m0 18a8 8 0 1 0 0-16 8 8 0 0 0 0 16m-.207-5.207a1 1 0 0 0 1.414 1.414l3.5-3.5.007-.007a.996.996 0 0 0 0-1.4l-.008-.008-3.499-3.5a1 1 0 1 0-1.414 1.415L13.586 11H8a1 1 0 1 0 0 2h5.586z" clip-rule="evenodd"/></symbol><symbol id="move-to-project" fill="currentColor" viewBox="0 0 24 24"><path fill-rule="evenodd" d="M4.5 7.5a1.5 1.5 0 1 0 0-3 1.5 1.5 0 0 0 0 3M8 6a1 1 0 0 1 1-1h11a1 1 0 1 1 0 2H9a1 1 0 0 1-1-1m-2 6a1.5 1.5 0 1 1-3 0 1.5 1.5 0 0 1 3 0m2 0a1 1 0 0 1 1-1h11a1 1 0 1 1 0 2H9a1 1 0 0 1-1-1m8.293 8.293a1 1 0 0 0 1.414 1.414l3-3a1 1 0 0 0 0-1.414l-3-3a1 1 0 0 0-1.414 1.414L17.586 17H9a1 1 0 1 0 0 2h8.586zM6 18a1.5 1.5 0 1 1-3 0 1.5 1.5 0 0 1 3 0" clip-rule="evenodd"/></symbol><symbol id="move-up" fill="currentColor" viewBox="0 0 24 24"><path fill-rule="evenodd" d="M22 12c0-5.523-4.477-10-10-10S2 6.477 2 12s4.477 10 10 10 10-4.477 10-10M4 12a8 8 0 1 1 16 0 8 8 0 0 1-16 0m5.207.207a1 1 0 0 1-1.414-1.414l3.5-3.5a.996.996 0 0 1 1.416 0l3.498 3.5a1 1 0 0 1-1.414 1.414L13 10.414V16a1 1 0 1 1-2 0v-5.586z" clip-rule="evenodd"/></symbol><symbol id="multiselect" fill="currentColor" viewBox="0 0 24 24"><path fill-rule="evenodd" d="M20.5 3.5h-8a1 1 0 1 1 0-2h8a2 2 0 0 1 2 2v8a1 1 0 1 1-2 0zm-13 3a1 1 0 0 0 1 1h8v8a1 1 0 1 0 2 0v-8a2 2 0 0 0-2-2h-8a1 1 0 0 0-1 1m5 3h-9a2 2 0 0 0-2 2v9a2 2 0 0 0 2 2h9a2 2 0 0 0 2-2v-9a2 2 0 0 0-2-2m0 11h-9v-9h9z" clip-rule="evenodd"/></symbol><symbol id="notifications-snoozed" fill="currentColor" viewBox="0 0 24 24"><path fill-rule="evenodd" d="M12.008 3a5 5 0 0 1 4.995 4.783l.005.217q0 3.81 2.217 6.812a2 2 0 0 1-1.46 3.182l-.15.006c-5.09.002-7.29.002-11.215 0a2 2 0 0 1-1.609-3.188q2.1-2.844 2.21-6.413L7.009 8a5 5 0 0 1 5-5ZM8.837 19a3.5 3.5 0 0 0 6.326 0zm2.863-5.8 2.8-3.4V8h-5v1.8h2.8l-2.8 3.4V15h5v-1.8z" clip-rule="evenodd"/></symbol><symbol id="notifications" fill="currentColor" viewBox="0 0 24 24"><path d="M12.008 3a5 5 0 0 1 4.995 4.783l.005.217q0 3.81 2.217 6.812a2 2 0 0 1-1.46 3.182l-.15.006h-2.143a3.5 3.5 0 0 1-6.929 0H6.4a2 2 0 0 1-1.609-3.188q2.1-2.844 2.21-6.413L7.009 8a5 5 0 0 1 5-5Zm1.5 15h-3c0 .5.5 1.2 1.5 1.2s1.5-.7 1.5-1.2m-1.5-13a3 3 0 0 0-3 3c0 2.83-.797 5.407-2.377 7.678a.204.204 0 0 0 .166.322h10.422a.204.204 0 0 0 .186-.286l-.02-.036c-1.58-2.27-2.377-4.848-2.377-7.678a3 3 0 0 0-3-3"/></symbol><symbol id="padlock" fill="currentColor" viewBox="0 0 24 24"><path fill-rule="evenodd" d="M17 8h1c1.1 0 2 .9 2 2v10c0 1.1-.9 2-2 2H6c-1.1 0-2-.9-2-2V10c0-1.1.9-2 2-2h1V6c0-2.76 2.24-5 5-5s5 2.24 5 5zm-5-5c-1.66 0-3 1.34-3 3v2h6V6c0-1.66-1.34-3-3-3M6 20V10h12v10zm8-5c0 1.1-.9 2-2 2s-2-.9-2-2 .9-2 2-2 2 .9 2 2" clip-rule="evenodd"/></symbol><symbol id="palette" fill="currentColor" viewBox="0 0 24 24"><path fill-rule="evenodd" d="M22 12c0 5.555-2.9 10-7 10-2.114 0-2.857-.834-3.196-2.704-.13-.723-.185-.952-.324-1.276-.198-.46-.511-.839-1.035-1.188-.438-.292-1.038-.281-2.048.03a20 20 0 0 0-.757.254c-2.038.716-2.779.855-3.803.311C2.537 16.737 2 15.025 2 12 2 6.477 6.477 2 12 2s10 4.477 10 10m-8.228 6.94C13.956 19.953 13.997 20 15 20c2.771 0 5-3.416 5-8a8 8 0 1 0-16 0c0 2.348.34 3.43.776 3.661.296.157.787.065 2.202-.432.366-.128.587-.203.83-.278 1.529-.472 2.683-.492 3.747.217.848.565 1.412 1.25 1.762 2.062.22.513.296.832.455 1.71M16.5 15.5a1 1 0 1 1-2 0 1 1 0 0 1 2 0M17 13a1 1 0 1 0 0-2 1 1 0 0 0 0 2m-.5-4.5a1 1 0 1 1-2 0 1 1 0 0 1 2 0M12 8a1 1 0 1 0 0-2 1 1 0 0 0 0 2m-2.5.5a1 1 0 1 1-2 0 1 1 0 0 1 2 0M7 13a1 1 0 1 0 0-2 1 1 0 0 0 0 2" clip-rule="evenodd"/></symbol><symbol id="parasol" fill="currentColor" viewBox="0 0 24 24"><path d="m4.433 20.995-1.428-1.427 6.442-6.442 1.428 1.43zm16.57-7.88c0-2.58-.98-5.16-2.95-7.14l-.01-.01c-3.95-3.95-10.36-3.95-14.31 0l14.31 14.3c1.97-1.97 2.96-4.56 2.96-7.15m-14.27-6.98a8.06 8.06 0 0 1 6.82-.68c-1.91.19-3.79.89-5.44 2.07zm2.84 2.84c2.05-1.35 4.5-1.86 6.83-1.38.12.58.18 1.16.18 1.75 0 1.8-.55 3.55-1.56 5.08zm8.97 1.47a8.06 8.06 0 0 1-.68 6.82l-1.39-1.39a11.25 11.25 0 0 0 2.07-5.43"/></symbol><symbol id="parent" fill="currentColor" viewBox="0 0 24 24"><path fill-rule="evenodd" d="M22 6H2v2h20zM5.997 11h16v2h-16zM6 16h16v2H6z" clip-rule="evenodd"/></symbol><symbol id="person-add" fill="currentColor" viewBox="0 0 24 24"><path fill-rule="evenodd" d="M15 12c2.21 0 4-1.79 4-4s-1.79-4-4-4-4 1.79-4 4 1.79 4 4 4m0 2c-2.67 0-8 1.34-8 4v2h16v-2c0-2.66-5.33-4-8-4M6 7v3h3v2H6v3H4v-3H1v-2h3V7z" clip-rule="evenodd"/></symbol><symbol id="person-circle" fill="currentColor" viewBox="0 0 24 24"><path fill-rule="evenodd" d="M18.951 19.19A9.97 9.97 0 0 0 22 12c0-5.523-4.477-10-10-10S2 6.477 2 12a9.97 9.97 0 0 0 3.049 7.19l-.01.035.068.02A9.97 9.97 0 0 0 12 22a9.97 9.97 0 0 0 6.893-2.755l.069-.02-.01-.036Zm-.954-1.895a8 8 0 1 0-11.994 0C7.206 15.765 9.243 15 12 15s4.794.765 5.997 2.295m-1.51 1.329C15.693 17.54 14.24 17 12 17s-3.692.54-4.487 1.624A7.96 7.96 0 0 0 12 20a7.96 7.96 0 0 0 4.488-1.376ZM12 14a4 4 0 1 0 0-8 4 4 0 0 0 0 8m-2-4a2 2 0 1 0 4 0 2 2 0 0 0-4 0" clip-rule="evenodd"/></symbol><symbol id="person-remove" fill="currentColor" viewBox="0 0 24 24"><path fill-rule="evenodd" d="M15 12c2.21 0 4-1.79 4-4s-1.79-4-4-4-4 1.79-4 4 1.79 4 4 4m0 2c-2.67 0-8 1.34-8 4v2h16v-2c0-2.66-5.33-4-8-4M4 10h5v2H1v-2z" clip-rule="evenodd"/></symbol><symbol id="person" fill="currentColor" viewBox="0 0 24 24"><path d="M12 6c1.1 0 2 .9 2 2s-.9 2-2 2-2-.9-2-2 .9-2 2-2m0 9c2.7 0 5.8 1.29 6 2v1H6v-.99c.2-.72 3.3-2.01 6-2.01m0-11C9.79 4 8 5.79 8 8s1.79 4 4 4 4-1.79 4-4-1.79-4-4-4m0 9c-2.67 0-8 1.34-8 4v3h16v-3c0-2.66-5.33-4-8-4"/></symbol><symbol id="phone" fill="currentColor" viewBox="0 0 24 24"><path d="M6.62 10.79c1.44 2.83 3.76 5.14 6.59 6.59l2.2-2.2c.27-.27.67-.36 1.02-.24 1.12.37 2.33.57 3.57.57.55 0 1 .45 1 1V20c0 .55-.45 1-1 1-9.39 0-17-7.61-17-17 0-.55.45-1 1-1h3.5c.55 0 1 .45 1 1 0 1.25.2 2.45.57 3.57.11.35.03.74-.25 1.02z"/></symbol><symbol id="photo-camera" fill="currentColor" viewBox="0 0 24 24"><path fill-rule="evenodd" d="M9 2h6l1.83 2H20c1.1 0 2 .9 2 2v12c0 1.1-.9 2-2 2H4c-1.1 0-2-.9-2-2V6c0-1.1.9-2 2-2h3.17zm6.95 4-1.83-2H9.88L8.05 6H4v12h16V6zM12 9c1.65 0 3 1.35 3 3s-1.35 3-3 3-3-1.35-3-3 1.35-3 3-3m-5 3c0-2.76 2.24-5 5-5s5 2.24 5 5-2.24 5-5 5-5-2.24-5-5" clip-rule="evenodd"/></symbol><symbol id="photo-library" fill="currentColor" viewBox="0 0 24 24"><path fill-rule="evenodd" d="M4 4a2 2 0 0 0-2 2v12a2 2 0 0 0 2 2h16a2 2 0 0 0 2-2V6a2 2 0 0 0-2-2zm4.5 6a1.5 1.5 0 1 0 0-3 1.5 1.5 0 0 0 0 3m5.286-1.143a.25.25 0 0 1 .428 0l4.657 7.764a.25.25 0 0 1-.215.379H12.56l-1.8-3.1zm-6 3.5a.25.25 0 0 1 .428 0l2.559 4.264a.25.25 0 0 1-.214.379H5.442a.25.25 0 0 1-.215-.379z" clip-rule="evenodd"/></symbol><symbol id="pin" fill="currentColor" viewBox="0 0 24 24"><path fill-rule="evenodd" d="M16.995 4.336A2.5 2.5 0 0 0 14.5 2h-5l-.164.005A2.5 2.5 0 0 0 7 4.5v5.833l-.008.13a1 1 0 0 1-.192.47l-2 2.667-.081.12A1.5 1.5 0 0 0 5.1 15.7l.134.09c.231.137.496.21.766.21h5v5a1 1 0 1 0 2 0v-5h5l.145-.007A1.5 1.5 0 0 0 19.2 13.6l-2-2.667-.07-.108a1 1 0 0 1-.13-.492V4.5zM9.5 4h5l.09.008A.5.5 0 0 1 15 4.5v5.833l.008.216.023.213a3 3 0 0 0 .569 1.371L17 14H6.999L8.4 12.133l.123-.177A3 3 0 0 0 9 10.333V4.5l.008-.09A.5.5 0 0 1 9.5 4" clip-rule="evenodd"/></symbol><symbol id="play" fill="currentColor" viewBox="0 0 24 24"><path d="M5 3v18l15.308-9z"/></symbol><symbol id="postpone" fill="currentColor" viewBox="0 0 24 24"><path d="M18.491 15.626A7.002 7.002 0 0 1 5 13a7 7 0 0 1 7-7h8a1 1 0 1 0 0-2h-8a9 9 0 1 0 8.345 12.376 1 1 0 0 0-1.854-.75"/><path d="M16.293 7.293a1 1 0 0 0 1.414 1.414l3-3a1 1 0 0 0 0-1.414l-3-3a1 1 0 1 0-1.414 1.414L18.586 5z"/></symbol><symbol id="productivity" fill="currentColor" viewBox="0 0 24 24"><path fill-rule="evenodd" d="M22 12c0 5.523-4.477 10-10 10S2 17.523 2 12 6.477 2 12 2s10 4.477 10 10M4 12q0 .745.132 1.454l2.66-2.661a1 1 0 0 1 1.415 0l2.293 2.293L13.586 10H12a1 1 0 1 1 0-2h4a1 1 0 0 1 1 1v4a1 1 0 1 1-2 0v-1.586l-3.793 3.793a1 1 0 0 1-1.414 0L7.5 12.914l-2.66 2.66A8 8 0 1 0 4 12" clip-rule="evenodd"/></symbol><symbol id="project-production-default" fill="currentColor" viewBox="0 0 24 24"><path fill-rule="evenodd" d="M4.5 7.5a1.5 1.5 0 1 0 0-3 1.5 1.5 0 0 0 0 3M8 6a1 1 0 0 1 1-1h11a1 1 0 1 1 0 2H9a1 1 0 0 1-1-1m-2 6a1.5 1.5 0 1 1-3 0 1.5 1.5 0 0 1 3 0m2 0a1 1 0 0 1 1-1h11a1 1 0 1 1 0 2H9a1 1 0 0 1-1-1m-2 6a1.5 1.5 0 1 1-3 0 1.5 1.5 0 0 1 3 0m3-1a1 1 0 1 0 0 2h11a1 1 0 1 0 0-2z" clip-rule="evenodd"/></symbol><symbol id="project-production-personal" fill="currentColor" viewBox="0 0 24 24"><circle cx="12" cy="12" r="6"/></symbol><symbol id="project-production-shared" fill="currentColor" viewBox="0 0 24 24"><path fill-rule="evenodd" d="M12 12a4 4 0 1 0 0-8 4 4 0 0 0 0 8m-7.615 6.047C4.018 19.089 4.895 20 6 20h12c1.105 0 1.982-.911 1.615-1.953C18.942 16.132 17.091 13.5 12 13.5s-6.942 2.632-7.615 4.547" clip-rule="evenodd"/></symbol><symbol id="radio" fill="currentColor" viewBox="0 0 24 24"><path fill-rule="evenodd" d="M2 12C2 6.48 6.48 2 12 2s10 4.48 10 10-4.48 10-10 10S2 17.52 2 12m2 0c0 4.42 3.58 8 8 8s8-3.58 8-8-3.58-8-8-8-8 3.58-8 8" clip-rule="evenodd"/></symbol><symbol id="reaction" fill="currentColor" viewBox="0 0 24 24"><path fill-rule="evenodd" d="M12 22C6.477 22 2 17.523 2 12S6.477 2 12 2s10 4.477 10 10-4.477 10-10 10m0-2.125a7.875 7.875 0 1 0 0-15.75 7.875 7.875 0 0 0 0 15.75m0-3.375a3.75 3.75 0 0 0 3.632-2.813H8.368A3.75 3.75 0 0 0 12 16.5m4.219-6.047a1.266 1.266 0 1 1-2.532 0 1.266 1.266 0 0 1 2.532 0M9.047 11.72a1.266 1.266 0 1 0 0-2.532 1.266 1.266 0 0 0 0 2.532" clip-rule="evenodd"/></symbol><symbol id="record-audio" fill="currentColor" viewBox="0 0 24 24"><path fill-rule="evenodd" d="M12 15c1.66 0 2.99-1.34 2.99-3L15 6c0-1.66-1.34-3-3-3S9 4.34 9 6v6c0 1.66 1.34 3 3 3m-1.2-9.1c0-.66.54-1.2 1.2-1.2s1.2.54 1.2 1.2l-.01 6.2c0 .66-.53 1.2-1.19 1.2s-1.2-.54-1.2-1.2zM12 17.1c2.76 0 5.3-2.1 5.3-5.1H19c0 3.42-2.72 6.24-6 6.72V22h-2v-3.28c-3.28-.49-6-3.31-6-6.72h1.7c0 3 2.54 5.1 5.3 5.1" clip-rule="evenodd"/></symbol><symbol id="refresh" fill="currentColor" viewBox="0 0 24 24"><path d="M17.65 6.35A7.96 7.96 0 0 0 12 4c-4.42 0-7.99 3.58-7.99 8s3.57 8 7.99 8c3.73 0 6.84-2.55 7.73-6h-2.08A5.99 5.99 0 0 1 12 18c-3.31 0-6-2.69-6-6s2.69-6 6-6c1.66 0 3.14.69 4.22 1.78L13 11h7V4z"/></symbol><symbol id="remove" fill="currentColor" viewBox="0 0 24 24"><path fill-rule="evenodd" d="M2 12C2 6.47 6.47 2 12 2s10 4.47 10 10-4.47 10-10 10S2 17.53 2 12m13.59 5L17 15.59 13.41 12 17 8.41 15.59 7 12 10.59 8.41 7 7 8.41 10.59 12 7 15.59 8.41 17 12 13.41z" clip-rule="evenodd"/></symbol><symbol id="repeat" fill="currentColor" viewBox="0 0 24 24"><path fill-rule="evenodd" d="M13 6H8a1 1 0 0 1 0-2h5a6 6 0 0 1 6 6v.586l1.293-1.293a1 1 0 1 1 1.414 1.414l-3 3a.997.997 0 0 1-1.415 0l-3-3a1 1 0 0 1 1.415-1.414L17 10.586V10a4 4 0 0 0-4-4m-3.293 7.707a1 1 0 0 1-1.414 0L7 12.414V14a4 4 0 0 0 4 4h5a1 1 0 1 1 0 2h-5a6 6 0 0 1-6-6v-1.586l-1.293 1.293a1 1 0 0 1-1.414-1.414l3-3a1 1 0 0 1 1.414 0l3 3a1 1 0 0 1 0 1.414" clip-rule="evenodd"/></symbol><symbol id="reply" fill="currentColor" viewBox="0 0 24 24"><path d="M10 9V5l-7 7 7 7v-4.1c5 0 8.5 1.6 11 5.1-1-5-4-10-11-11"/></symbol><symbol id="save-as-template" fill="currentColor" viewBox="0 0 24 25"><path fill-rule="evenodd" d="M8 1.385h4v2H8zm6 0h4v2h-4zm-12 12h2v4H2zm0-6h2v4H2zm2-6h2v2H4v2H2v-2a2 2 0 0 1 2-2m4 20v-14h12v14zm-2-14a2 2 0 0 1 2-2h12a2 2 0 0 1 2 2v14a2 2 0 0 1-2 2H8a2 2 0 0 1-2-2z" clip-rule="evenodd"/></symbol><symbol id="saved" fill="currentColor" viewBox="0 0 24 24"><path fill-rule="evenodd" d="M7 3h10c1.1 0 2 .9 2 2v16l-7-3-7 3V5c0-1.1.9-2 2-2m5 12.82L17 18V5H7v13z" clip-rule="evenodd"/></symbol><symbol id="scan" fill="currentColor" viewBox="0 0 24 24"><path fill-rule="evenodd" d="M5 8V5h3a1 1 0 0 0 0-2H5a2 2 0 0 0-2 2v3a1 1 0 0 0 2 0m11-3h3v3a1 1 0 1 0 2 0V5a2 2 0 0 0-2-2h-3a1 1 0 1 0 0 2M5 19v-3a1 1 0 1 0-2 0v3a2 2 0 0 0 2 2h3a1 1 0 1 0 0-2zm11 0h3v-3a1 1 0 1 1 2 0v3a2 2 0 0 1-2 2h-3a1 1 0 1 1 0-2m4-6a1 1 0 1 0 0-2H4a1 1 0 1 0 0 2z" clip-rule="evenodd"/></symbol><symbol id="search" fill="currentColor" viewBox="0 0 24 24"><path fill-rule="evenodd" d="M15.052 14.32h.813L21 19.468 19.467 21l-5.146-5.136v-.813l-.278-.288A6.66 6.66 0 0 1 9.69 16.38a6.69 6.69 0 1 1 6.69-6.69 6.66 6.66 0 0 1-1.617 4.354l.289.278ZM5.058 9.69a4.625 4.625 0 0 0 4.632 4.63 4.625 4.625 0 0 0 4.63-4.63 4.625 4.625 0 0 0-4.63-4.632A4.625 4.625 0 0 0 5.058 9.69" clip-rule="evenodd"/></symbol><symbol id="section-add" fill="currentColor" viewBox="0 0 24 24"><path fill-rule="evenodd" d="M20 3.5H4a1 1 0 0 1 0-2h16a1 1 0 1 1 0 2M19 5H5a2 2 0 0 0-2 2v10a2 2 0 0 0 2 2h14a2 2 0 0 0 2-2V7a2 2 0 0 0-2-2M4 22.5a1 1 0 1 1 0-2h16a1 1 0 1 1 0 2zM5 7v10h14V7zm9.5 6H13v1.5a1 1 0 1 1-2 0V13H9.5a1 1 0 1 1 0-2H11V9.5a1 1 0 1 1 2 0V11h1.5a1 1 0 1 1 0 2" clip-rule="evenodd"/></symbol><symbol id="send-filled" fill="currentColor" viewBox="0 0 24 24"><path fill-rule="evenodd" d="M5.427 4.174A1 1 0 0 0 4 5.078V10l12.268 1.752c.286.041.286.455 0 .495L4 14v4.922a1 1 0 0 0 1.427.904l14.658-6.922a1 1 0 0 0 0-1.808z" clip-rule="evenodd"/></symbol><symbol id="send" fill="currentColor" viewBox="0 0 24 24"><path fill-rule="evenodd" d="m5.427 4.174 14.658 6.922a1 1 0 0 1 0 1.808L5.427 19.826A1 1 0 0 1 4 18.922V5.078a1 1 0 0 1 1.427-.904M6 13.714v3.63l11.02-5.204zm11.02-1.854L6 10.286v-3.63z" clip-rule="evenodd"/></symbol><symbol id="settings" fill="currentColor" viewBox="0 0 24 24"><path fill-rule="evenodd" d="M10.447 2a1.5 1.5 0 0 0-1.49 1.334l-.18 1.616q-.67.307-1.27.735l-1.49-.653a1.5 1.5 0 0 0-1.901.624L2.564 8.344a1.5 1.5 0 0 0 .41 1.959l1.31.964a8 8 0 0 0 0 1.466l-1.31.964a1.5 1.5 0 0 0-.41 1.959l1.552 2.688a1.5 1.5 0 0 0 1.901.624l1.49-.652q.6.427 1.27.734l.18 1.616A1.5 1.5 0 0 0 10.447 22h3.106a1.5 1.5 0 0 0 1.49-1.334l.18-1.616q.67-.307 1.27-.735l1.49.653a1.5 1.5 0 0 0 1.901-.623l1.552-2.69a1.5 1.5 0 0 0-.41-1.958l-1.31-.964a8 8 0 0 0 0-1.466l1.31-.964a1.5 1.5 0 0 0 .41-1.959l-1.552-2.688a1.5 1.5 0 0 0-1.901-.624l-1.49.653a7.7 7.7 0 0 0-1.27-.735l-.18-1.616A1.5 1.5 0 0 0 13.553 2zm.184 4.379L10.895 4h2.21l.264 2.379.586.211a5.7 5.7 0 0 1 1.75 1.013l.476.402 2.195-.962 1.105 1.914-1.928 1.418.108.612a5.8 5.8 0 0 1 0 2.026l-.108.612 1.928 1.418-1.105 1.914-2.195-.962-.476.402a5.7 5.7 0 0 1-1.75 1.013l-.586.211L13.105 20h-2.21l-.264-2.379-.586-.211a5.7 5.7 0 0 1-1.75-1.013l-.476-.401-2.195.96-1.105-1.913 1.928-1.418-.108-.612a5.8 5.8 0 0 1 0-2.026l.108-.612L4.52 8.957l1.105-1.914 2.195.962.476-.402a5.7 5.7 0 0 1 1.75-1.013zM12 15.5a3.5 3.5 0 1 0 0-7 3.5 3.5 0 0 0 0 7M10.5 12a1.5 1.5 0 1 0 3 0 1.5 1.5 0 0 0-3 0" clip-rule="evenodd"/></symbol><symbol id="setups" fill="currentColor" viewBox="0 0 24 25"><mask id="path-1-inside-1_751_4186" fill="currentColor"><path fill-rule="evenodd" d="M19 5.385H5v14h14zm-14-2a2 2 0 0 0-2 2v14a2 2 0 0 0 2 2h14a2 2 0 0 0 2-2v-14a2 2 0 0 0-2-2zm6 13a1 1 0 0 1 1-1h4a1 1 0 1 1 0 2h-4a1 1 0 0 1-1-1m1-5a1 1 0 1 0 0 2h4a1 1 0 1 0 0-2zm-1-3a1 1 0 0 1 1-1h4a1 1 0 1 1 0 2h-4a1 1 0 0 1-1-1m-3-1.5a1 1 0 0 0-1 1v9a1 1 0 0 0 2 0v-9a1 1 0 0 0-1-1" clip-rule="evenodd"/></mask><path fill-rule="evenodd" d="M19 5.385H5v14h14zm-14-2a2 2 0 0 0-2 2v14a2 2 0 0 0 2 2h14a2 2 0 0 0 2-2v-14a2 2 0 0 0-2-2zm6 13a1 1 0 0 1 1-1h4a1 1 0 1 1 0 2h-4a1 1 0 0 1-1-1m1-5a1 1 0 1 0 0 2h4a1 1 0 1 0 0-2zm-1-3a1 1 0 0 1 1-1h4a1 1 0 1 1 0 2h-4a1 1 0 0 1-1-1m-3-1.5a1 1 0 0 0-1 1v9a1 1 0 0 0 2 0v-9a1 1 0 0 0-1-1" clip-rule="evenodd"/><path d="M5 5.385v-2H3v2zm14 0h2v-2h-2zm-14 14H3v2h2zm14 0v2h2v-2zm-14-12h14v-4H5zm2 12v-14H3v14zm12-2H5v4h14zm-2-12v14h4v-14zm-12 0v-4a4 4 0 0 0-4 4zm0 14v-14H1v14zm0 0H1a4 4 0 0 0 4 4zm14 0H5v4h14zm0 0v4a4 4 0 0 0 4-4zm0-14v14h4v-14zm0 0h4a4 4 0 0 0-4-4zm-14 0h14v-4H5zm7 8a3 3 0 0 0-3 3h4a1 1 0 0 1-1 1zm4 0h-4v4h4zm3 3a3 3 0 0 0-3-3v4a1 1 0 0 1-1-1zm-3 3a3 3 0 0 0 3-3h-4a1 1 0 0 1 1-1zm-4 0h4v-4h-4zm-3-3a3 3 0 0 0 3 3v-4a1 1 0 0 1 1 1zm4-4a1 1 0 0 1-1 1v-4a3 3 0 0 0-3 3zm-1-1a1 1 0 0 1 1 1H9a3 3 0 0 0 3 3zm4 0h-4v4h4zm-1 1a1 1 0 0 1 1-1v4a3 3 0 0 0 3-3zm1 1a1 1 0 0 1-1-1h4a3 3 0 0 0-3-3zm-4 0h4v-4h-4zm0-8a3 3 0 0 0-3 3h4a1 1 0 0 1-1 1zm4 0h-4v4h4zm3 3a3 3 0 0 0-3-3v4a1 1 0 0 1-1-1zm-3 3a3 3 0 0 0 3-3h-4a1 1 0 0 1 1-1zm-4 0h4v-4h-4zm-3-3a3 3 0 0 0 3 3v-4a1 1 0 0 1 1 1zm0-.5a1 1 0 0 1-1 1v-4a3 3 0 0 0-3 3zm0 9v-9H5v9zm-1-1a1 1 0 0 1 1 1H5a3 3 0 0 0 3 3zm-1 1a1 1 0 0 1 1-1v4a3 3 0 0 0 3-3zm0-9v9h4v-9zm1 1a1 1 0 0 1-1-1h4a3 3 0 0 0-3-3z" mask="url(#path-1-inside-1_751_4186)"/></symbol><symbol id="share" fill="currentColor" viewBox="0 0 24 24"><path d="M16.801 15.516c-.648 0-1.229.256-1.672.657l-6.085-3.541c.042-.197.076-.393.076-.598s-.034-.401-.076-.597l6.016-3.508a2.55 2.55 0 0 0 1.741.691 2.557 2.557 0 0 0 2.56-2.56 2.557 2.557 0 0 0-2.56-2.56 2.557 2.557 0 0 0-2.56 2.56c0 .205.034.401.077.598L8.3 10.165a2.55 2.55 0 0 0-1.74-.691A2.557 2.557 0 0 0 4 12.034a2.557 2.557 0 0 0 2.56 2.56 2.55 2.55 0 0 0 1.741-.69l6.076 3.55a2.4 2.4 0 0 0-.068.554 2.495 2.495 0 0 0 2.492 2.492 2.495 2.495 0 0 0 2.492-2.492 2.495 2.495 0 0 0-2.492-2.492"/></symbol><symbol id="single-selection-emphasis" fill="currentColor" viewBox="0 0 24 24"><path fill-rule="evenodd" d="M24 12c0-6.627-5.373-12-12-12S0 5.373 0 12s5.373 12 12 12 12-5.373 12-12M3 12a9 9 0 1 1 18 0 9 9 0 0 1-18 0" clip-rule="evenodd"/></symbol><symbol id="single-selection-selected" fill="currentColor" viewBox="0 0 24 24"><path fill-rule="evenodd" d="M12 23C5.925 23 1 18.075 1 12S5.925 1 12 1s11 4.925 11 11-4.925 11-11 11m0-2a9 9 0 1 0 0-18 9 9 0 0 0 0 18m-3.793-9.707 2.293 2.293 5.293-5.293a1 1 0 1 1 1.414 1.414l-6 6a1 1 0 0 1-1.414 0l-3-3a1 1 0 1 1 1.414-1.414" clip-rule="evenodd"/></symbol><symbol id="smart-schedule-empty" fill="currentColor" viewBox="0 0 24 24"><path fill-rule="evenodd" d="M10.975 3.002a1 1 0 0 1-.754 1.196A8 8 0 0 0 4 12a8 8 0 0 0 8 8 8 8 0 0 0 7.545-5.333 1 1 0 1 1 1.885.667A10 10 0 0 1 12 22C6.477 22 2 17.523 2 12c0-4.694 3.26-8.727 7.779-9.752a1 1 0 0 1 1.196.754M18.8 4.668a9.98 9.98 0 0 1 3.14 6.222 1 1 0 0 1-1.989.22 7.98 7.98 0 0 0-2.511-4.976 1 1 0 1 1 1.36-1.466m-4.578-2.42a1 1 0 0 0-.442 1.95q.294.068.582.156a1 1 0 0 0 .59-1.911 10 10 0 0 0-.73-.195" clip-rule="evenodd"/></symbol><symbol id="smart-schedule-error" fill="currentColor" viewBox="0 0 24 24"><path fill-rule="evenodd" d="M10.975 3.002a1 1 0 0 1-.754 1.196A8 8 0 0 0 4 12a8 8 0 0 0 8 8 8 8 0 0 0 7.545-5.333 1 1 0 1 1 1.885.667A10 10 0 0 1 12 22C6.477 22 2 17.523 2 12c0-4.694 3.26-8.727 7.779-9.752a1 1 0 0 1 1.196.754M18.8 4.668a9.98 9.98 0 0 1 3.14 6.222 1 1 0 0 1-1.989.22 7.98 7.98 0 0 0-2.511-4.976 1 1 0 1 1 1.36-1.466m-4.578-2.42a1 1 0 0 0-.442 1.95q.294.068.582.156a1 1 0 0 0 .59-1.911 10 10 0 0 0-.73-.195M13.25 15.5a1.25 1.25 0 1 1-2.5 0 1.25 1.25 0 0 1 2.5 0m-.046-7.296C13.204 7.539 12.664 7 12 7h-.038l-.038.002a1.204 1.204 0 0 0-1.125 1.278l.277 4.353a.926.926 0 0 0 1.848 0l.277-4.353.002-.038v-.038Z" clip-rule="evenodd"/></symbol><symbol id="smart-schedule" fill="currentColor" viewBox="0 0 24 24"><path fill-rule="evenodd" d="M10.221 4.198a1 1 0 1 0-.442-1.95A10 10 0 0 0 2 12c0 5.523 4.477 10 10 10a10 10 0 0 0 9.43-6.666 1 1 0 1 0-1.885-.667A8 8 0 0 1 12 20a8 8 0 0 1-8-8 8 8 0 0 1 6.221-7.802M21.94 10.89a9.98 9.98 0 0 0-3.14-6.222 1 1 0 1 0-1.36 1.466 7.98 7.98 0 0 1 2.512 4.976 1 1 0 1 0 1.988-.22m-8.913-7.888a1 1 0 0 1 1.196-.754q.37.083.73.195a1 1 0 0 1-.59 1.911 8 8 0 0 0-.582-.156 1 1 0 0 1-.754-1.196m-1.352 14.263c-.293.469-1.017.186-.915-.357l.639-3.408H9a.5.5 0 0 1-.424-.765l3.75-6c.293-.469 1.017-.186.915.357l-.639 3.408H15a.5.5 0 0 1 .424.765l-3.75 6Z" clip-rule="evenodd"/></symbol><symbol id="sort" fill="currentColor" viewBox="0 0 24 24"><path fill-rule="evenodd" d="M3.41 14.59 2 16l5 5 5-5-1.42-1.42L8 17.17V5H6v12.17zm17.18-5.18L22 8l-5-5-5 5 1.42 1.42L16 6.83V19h2V6.83z" clip-rule="evenodd"/></symbol><symbol id="sound-mute" fill="currentColor" viewBox="0 0 24 24"><path fill-rule="evenodd" d="M2.808 2.808a1 1 0 0 0 0 1.414L6.586 8H5a1 1 0 0 0-1 1v6a1 1 0 0 0 1 1h3.63a1 1 0 0 1 .65.24l5.07 4.345a1 1 0 0 0 1.65-.76v-2.41l3.778 3.777a1 1 0 0 0 1.414-1.414L4.222 2.808a1 1 0 0 0-1.414 0M14 15.414 8.586 10 6 9.999v4L8.63 14a3 3 0 0 1 1.785.589l.167.133L14 17.652zm0-9.067v4.239l2 2V4.174a1 1 0 0 0-1.65-.76L10.3 6.887l1.418 1.418z" clip-rule="evenodd"/></symbol><symbol id="sound" fill="currentColor" viewBox="0 0 24 24"><path fill-rule="evenodd" d="M1.808 3.038a1 1 0 0 0 0 1.414L5.586 8.23H3a1 1 0 0 0-1 1v6a1 1 0 0 0 1 1h3.63a1 1 0 0 1 .65.241l5.07 4.344a1 1 0 0 0 .65.241l.117-.007a1 1 0 0 0 .883-.993v-3.411l4.778 4.778a1 1 0 0 0 1.414-1.414L3.222 3.038a1 1 0 0 0-1.414 0M12 14.645 7.467 10.11q-.304.09-.623.112l-.214.007H4v4h2.63a3 3 0 0 1 1.785.59l.167.133L12 17.883zm0-8.068v3.24l2 2V4.404a1 1 0 0 0-.865-.991l-.117-.01-.118.006a1 1 0 0 0-.55.235l-3.512 3.01 1.418 1.418zm4.092 7.332 1.495 1.494a7 7 0 0 0 .99-3.602c0-1.55-.5-2.98-1.34-4.14a.95.95 0 0 0-.774-.393l-.111.006a1 1 0 0 0-.605.287l-.101.111a1.01 1.01 0 0 0-.01 1.209c.57.83.92 1.84.92 2.92a5 5 0 0 1-.464 2.107Zm2.937 2.936 1.429 1.43a10.96 10.96 0 0 0 2.119-6.474c0-2.62-.93-5.03-2.47-6.92a1 1 0 0 0-1.49-.08c-.36.36-.39.93-.07 1.32a8.9 8.9 0 0 1 2.03 5.68 8.96 8.96 0 0 1-1.548 5.044" clip-rule="evenodd"/></symbol><symbol id="star" fill="currentColor" viewBox="0 0 24 24"><path fill-rule="evenodd" d="M7.484 21.004 12 18.63l4.516 2.374a1.5 1.5 0 0 0 2.176-1.582l-.862-5.028 3.653-3.561a1.5 1.5 0 0 0-.831-2.559l-5.049-.733-2.258-4.575a1.5 1.5 0 0 0-2.69 0L8.397 7.54l-5.049.733a1.5 1.5 0 0 0-.831 2.559l3.653 3.561-.862 5.028a1.5 1.5 0 0 0 2.176 1.582Zm9.066-2.242L12 16.37l-4.55 2.392.87-5.066-3.682-3.588 5.087-.74L12 4.76l2.275 4.61 5.087.739-3.681 3.588.869 5.066Z" clip-rule="evenodd"/></symbol><symbol id="subtask" fill="currentColor" viewBox="0 0 24 24"><path fill-rule="evenodd" d="M11 7a4 4 0 0 1-3 3.874V13a3 3 0 0 0 3 3h2.126A4.002 4.002 0 0 1 21 17a4 4 0 0 1-7.874 1H11a5 5 0 0 1-5-5v-2.126A4.002 4.002 0 0 1 7 3a4 4 0 0 1 4 4m6 12a2 2 0 1 1 0-4 2 2 0 0 1 0 4M5 7a2 2 0 1 0 4 0 2 2 0 0 0-4 0" clip-rule="evenodd"/></symbol><symbol id="sun" fill="currentColor" viewBox="0 0 24 24"><path fill-rule="evenodd" d="M7.251 20.858a1 1 0 0 0 1.848.766l.765-1.848a1 1 0 0 0-1.847-.765zm6.889-16.63a1 1 0 0 0 1.847.766l.766-1.848a1 1 0 0 0-1.848-.765zm2.613 16.63-.765-1.848a1 1 0 0 0-1.848.766l.765 1.848a1 1 0 0 0 1.848-.766M9.323 5.535a1 1 0 0 0 .542-1.307l-.766-1.847a1 1 0 0 0-1.848.765l.766 1.848a1 1 0 0 0 1.306.541M17.5 12a5.5 5.5 0 1 1-11 0 5.5 5.5 0 0 1 11 0m-9 0a3.5 3.5 0 1 0 7 0 3.5 3.5 0 0 0-7 0m13.665-4.207a1 1 0 0 0-1.307-.542l-1.848.766a1 1 0 0 0 .766 1.848l1.848-.766a1 1 0 0 0 .54-1.306ZM5.535 14.68a1 1 0 0 0-1.307-.541l-1.847.765a1 1 0 1 0 .765 1.848l1.848-.765a1 1 0 0 0 .54-1.307Zm13.475 1.307 1.848.765a1 1 0 0 0 .765-1.848l-1.847-.765a1 1 0 1 0-.766 1.848M4.228 9.864a1 1 0 0 0 .766-1.848L3.146 7.25A1 1 0 0 0 2.38 9.1l1.847.766Z" clip-rule="evenodd"/></symbol><symbol id="sync-error" fill="currentColor" viewBox="0 0 24 24"><path fill-rule="evenodd" d="M20 5.998A10.003 10.003 0 0 0 2.248 9.779a1 1 0 0 0 1.95.442A8.003 8.003 0 0 1 18.93 8H16.5a1 1 0 1 0 0 2H21a1 1 0 0 0 1-1V4.5a1 1 0 1 0-2 0zm.998 7.028a1 1 0 0 0-1.196.754A8.003 8.003 0 0 1 5.07 16H7.5a1 1 0 1 0 0-2H3a1 1 0 0 0-1 1v4.5a1 1 0 1 0 2 0v-1.498a10.003 10.003 0 0 0 17.752-3.78 1 1 0 0 0-.754-1.196M13.25 15.5a1.25 1.25 0 1 1-2.5 0 1.25 1.25 0 0 1 2.5 0m-.046-7.296C13.204 7.539 12.664 7 12 7h-.038l-.038.002a1.204 1.204 0 0 0-1.125 1.278l.277 4.353a.926.926 0 0 0 1.848 0l.277-4.353z" clip-rule="evenodd"/></symbol><symbol id="sync-success" fill="currentColor" viewBox="0 0 24 24"><path fill-rule="evenodd" d="M20 5.998A10.003 10.003 0 0 0 2.248 9.779a1 1 0 0 0 1.95.442A8.003 8.003 0 0 1 18.93 8H16.5a1 1 0 1 0 0 2H21a1 1 0 0 0 1-1V4.5a1 1 0 1 0-2 0zm.998 7.028a1 1 0 0 0-1.196.754A8.003 8.003 0 0 1 5.07 16H7.5a1 1 0 1 0 0-2H3a1 1 0 0 0-1 1v4.5a1 1 0 1 0 2 0v-1.498a10.003 10.003 0 0 0 17.752-3.78 1 1 0 0 0-.754-1.196" clip-rule="evenodd"/></symbol><symbol id="template" fill="currentColor" viewBox="0 0 24 24"><path fill-rule="evenodd" d="M14.06 2.498h-4.01V4.5h4.006v4.443l2.003 2.848V4.5a2 2 0 0 0-2-2.003Zm7.588 3.594-3.285-2.295-1.147 1.634 3.282 2.293-3.61 5.128 1.23 1.752 4.02-5.734a1.99 1.99 0 0 0-.49-2.778M11.544 19l3.282-2.293L6.784 5.248 3.503 7.54zm1.15 1.637a2.006 2.006 0 0 1-2.79-.491L1.862 8.686a1.996 1.996 0 0 1 .492-2.783l3.282-2.292a2.006 2.006 0 0 1 2.789.49l8.041 11.46c.635.904.415 2.15-.491 2.783zm-.64-3.37a1 1 0 1 1 1.002-.999 1 1 0 0 1-1.002 1Z" clip-rule="evenodd"/></symbol><symbol id="thread-reference" fill="currentColor" viewBox="0 0 24 25"><path fill-rule="evenodd" d="M8 2.385h12a2 2 0 0 1 2 2v9a2 2 0 0 1-2 2v-11H6a2 2 0 0 1 2-2m8 4H4a2 2 0 0 0-2 2v9l.005.149A2 2 0 0 0 4 19.384h3v1l.006.156c.12 1.677 2.185 2.482 3.408 1.259l2.414-2.414H16a2 2 0 0 0 2-2v-9a2 2 0 0 0-2-2m0 2v9h-4l-3 3v-3H4v-9z" clip-rule="evenodd"/></symbol><symbol id="timeline" fill="currentColor" viewBox="0 0 24 25"><path d="M23 8.385c0 1.1-.9 2-2 2a1.7 1.7 0 0 1-.51-.07l-3.56 3.55c.05.16.07.34.07.52 0 1.1-.9 2-2 2s-2-.9-2-2c0-.18.02-.36.07-.52l-2.55-2.55c-.16.05-.34.07-.52.07s-.36-.02-.52-.07l-4.55 4.56c.05.16.07.33.07.51 0 1.1-.9 2-2 2s-2-.9-2-2 .9-2 2-2c.18 0 .35.02.51.07l4.56-4.55c-.05-.16-.07-.34-.07-.52 0-1.1.9-2 2-2s2 .9 2 2c0 .18-.02.36-.07.52l2.55 2.55c.16-.05.34-.07.52-.07s.36.02.52.07l3.55-3.56a1.7 1.7 0 0 1-.07-.51c0-1.1.9-2 2-2s2 .9 2 2"/></symbol><symbol id="timezone" fill="currentColor" viewBox="0 0 24 24"><path d="M12 2C6.48 2 2 6.48 2 12s4.48 10 10 10 10-4.48 10-10S17.52 2 12 2m-1 17.93c-3.95-.49-7-3.85-7-7.93 0-.62.08-1.21.21-1.79L9 15v1c0 1.1.9 2 2 2zm6.9-2.54c-.26-.81-1-1.39-1.9-1.39h-1v-3c0-.55-.45-1-1-1H8v-2h2c.55 0 1-.45 1-1V7h2c1.1 0 2-.9 2-2v-.41c2.93 1.19 5 4.06 5 7.41 0 2.08-.8 3.97-2.1 5.39"/></symbol><symbol id="todoist" fill="currentColor" viewBox="0 0 24 24"><path fill-rule="evenodd" d="M5 2a3 3 0 0 0-3 3v14a3 3 0 0 0 3 3h14a3 3 0 0 0 3-3V5a3 3 0 0 0-3-3zM4 5a1 1 0 0 1 1-1h14a1 1 0 0 1 1 1v14a1 1 0 0 1-1 1H5a1 1 0 0 1-1-1zm7.869 4.22.044-.025 3.94-2.267c.166-.096.175-.39-.011-.496l-.13-.074-.54-.31a.61.61 0 0 0-.598.007c-.093.054-6.291 3.618-6.498 3.735a.81.81 0 0 1-.802 0L4 7.89v1.616l.034.02c.818.476 2.75 1.602 3.224 1.87.287.16.561.157.837-.002zm.045 3.205-3.819 2.198a.79.79 0 0 1-.837.002 562 562 0 0 1-3.224-1.87L4 12.735V11.12l3.274 1.902a.81.81 0 0 0 .801 0c.208-.118 6.406-3.682 6.499-3.735a.61.61 0 0 1 .597-.007l.54.309.13.074c.187.106.178.4.012.496l-3.94 2.268Zm-.005 3.232-3.814 2.195a.79.79 0 0 1-.837.002 564 564 0 0 1-3.223-1.868l-.001-.001-.034-.02v-1.617s3.078 1.79 3.274 1.902a.81.81 0 0 0 .801 0c.208-.117 6.406-3.681 6.499-3.735a.61.61 0 0 1 .597-.007l.54.31.13.074c.187.106.178.4.012.496l-3.898 2.243-.043.025-.003.002Z" clip-rule="evenodd"/></symbol><symbol id="unarchive" fill="currentColor" viewBox="0 0 24 25"><path fill-rule="evenodd" d="M17.563 3.385H6.437a2 2 0 0 0-1.537.72L3.464 5.827A2 2 0 0 0 3 7.109v12.277a2 2 0 0 0 2 2h14a2 2 0 0 0 2-2V7.109a2 2 0 0 0-.464-1.28L19.1 4.104a2 2 0 0 0-1.537-.72Zm.834 3H5.603l.834-1h11.126zM5 8.385h14v11H5zm8 8.5v-3.586l.793.793a1 1 0 0 0 1.414-1.414l-2.5-2.5L13 13.3l-.295-3.123a.997.997 0 0 0-1.412.002l-2.5 2.5a1 1 0 1 0 1.414 1.414L11 13.3v3.586a1 1 0 0 0 2 0Z" clip-rule="evenodd"/></symbol><symbol id="unpin" fill="currentColor" viewBox="0 0 25 25"><path fill-rule="evenodd" d="M2.293 2.293a1 1 0 0 0 0 1.414l4.9 4.9v1.919l-.009.129a1 1 0 0 1-.192.47l-2 2.667-.08.12a1.5 1.5 0 0 0 .38 1.98l.135.09c.23.137.495.21.765.21h5v5a1 1 0 1 0 2 0v-5h1.586l5.9 5.9a1 1 0 0 0 1.414-1.414L3.707 2.293a1 1 0 0 0-1.414 0m10.485 11.9-3.587-3.588a3 3 0 0 1-.475 1.544l-.124.177-1.4 1.866zm3.014-1.867.158.21 3.26 3.26a1.496 1.496 0 0 0 .182-2.004l-2-2.666-.07-.108a1 1 0 0 1-.13-.492V4.692l-.005-.164a2.5 2.5 0 0 0-2.495-2.336h-5l-.164.006a2.5 2.5 0 0 0-2.209 1.707l1.873 1.873V4.692l.008-.09a.5.5 0 0 1 .492-.41h5l.09.008a.5.5 0 0 1 .41.492v5.834l.008.215.023.214a3 3 0 0 0 .57 1.37Z" clip-rule="evenodd"/></symbol><symbol id="view-board" fill="currentColor" viewBox="0 0 24 24"><path fill-rule="evenodd" d="M5 3h14a2 2 0 0 1 2 2v14a2 2 0 0 1-2 2H5a2 2 0 0 1-2-2V5a2 2 0 0 1 2-2m0 2v14h14V5zm6 10.5v-7a1 1 0 1 1 2 0v7a1 1 0 1 1-2 0m4-7v7a1 1 0 1 0 2 0v-7a1 1 0 1 0-2 0m-8 7v-7a1 1 0 0 1 2 0v7a1 1 0 1 1-2 0" clip-rule="evenodd"/></symbol><symbol id="view-list" fill="currentColor" viewBox="0 0 24 24"><path fill-rule="evenodd" d="M3 19V5a2 2 0 0 1 2-2h14a2 2 0 0 1 2 2v14a2 2 0 0 1-2 2H5a2 2 0 0 1-2-2m2 0h14V5H5zm10.5-6h-7a1 1 0 1 1 0-2h7a1 1 0 1 1 0 2m-7-4h7a1 1 0 1 0 0-2h-7a1 1 0 1 0 0 2m7 8h-7a1 1 0 1 1 0-2h7a1 1 0 1 1 0 2" clip-rule="evenodd"/></symbol><symbol id="view-options" fill="currentColor" viewBox="0 0 24 24"><path d="M15 15c1.306 0 2.418.835 2.83 2H20a1 1 0 1 1 0 2h-2.171a3.001 3.001 0 0 1-5.658 0H4a1 1 0 1 1 0-2h8.17A3 3 0 0 1 15 15m0 2a1 1 0 0 0-.117 1.993L15 19a1 1 0 1 0 0-2M9 9c1.306 0 2.418.835 2.83 2H20a1 1 0 1 1 0 2h-8.171a3.001 3.001 0 0 1-5.658 0H4a1 1 0 1 1 0-2h2.17A3 3 0 0 1 9 9m0 2a1 1 0 0 0-.117 1.993L9 13a1 1 0 1 0 0-2m6-8c1.306 0 2.418.835 2.83 2H20a1 1 0 1 1 0 2h-2.171a3.001 3.001 0 0 1-5.658 0H4a1 1 0 0 1 0-2h8.17A3 3 0 0 1 15 3m0 2a1 1 0 0 0-.117 1.993L15 7a1 1 0 0 0 .117-1.993z"/></symbol><symbol id="views" fill="currentColor" viewBox="0 0 24 24"><path fill-rule="evenodd" d="M6 9V6h3v3zM4.778 4h5.444c.43 0 .778.348.778.778v5.444c0 .43-.348.778-.778.778H4.778A.78.78 0 0 1 4 10.222V4.778c0-.43.348-.778.778-.778M6 18v-3h3v3zm-1.222-5h5.444c.43 0 .778.348.778.778v5.444c0 .43-.348.778-.778.778H4.778A.78.78 0 0 1 4 19.222v-5.444c0-.43.348-.778.778-.778M15 6v3h3V6zm4.222-2h-5.444a.78.78 0 0 0-.778.778v5.444c0 .43.348.778.778.778h5.444c.43 0 .778-.348.778-.778V4.778A.78.78 0 0 0 19.222 4M15 18v-3h3v3zm-1.222-5h5.444c.43 0 .778.348.778.778v5.444c0 .43-.348.778-.778.778h-5.444a.78.78 0 0 1-.778-.778v-5.444c0-.43.348-.778.778-.778" clip-rule="evenodd"/></symbol><symbol id="visibility-strikethrough" fill="currentColor" viewBox="0 0 24 24"><path fill-rule="evenodd" d="M4.28 6.55 2 4.27 3.27 3 21 20.73 19.73 22l-2.93-2.92-.42-.42c-1.35.54-2.83.84-4.38.84-5 0-9.27-3.11-11-7.5.78-1.98 2.08-3.7 3.74-4.99zM17 12c0-2.76-2.24-5-5-5-.65 0-1.26.13-1.83.36L8.01 5.2c1.24-.45 2.58-.7 3.98-.7 5 0 9.27 3.11 11 7.5-.73 1.86-1.92 3.49-3.43 4.75l-2.92-2.92c.23-.57.36-1.18.36-1.83M7.53 9.8l1.55 1.55c-.05.21-.08.43-.08.65 0 1.66 1.34 3 3 3 .22 0 .44-.03.65-.08l1.55 1.55c-.67.33-1.41.53-2.2.53-2.76 0-5-2.24-5-5 0-.79.2-1.53.53-2.2m7.46 2.37-3.15-3.15.17-.01c1.66 0 3 1.34 3 3z" clip-rule="evenodd"/></symbol><symbol id="visibility" fill="currentColor" viewBox="0 0 24 24"><path fill-rule="evenodd" d="M12 4C7 4 2.73 7.11 1 11.5 2.73 15.89 7 19 12 19s9.27-3.11 11-7.5C21.27 7.11 17 4 12 4m0 12.5c-2.76 0-5-2.24-5-5s2.24-5 5-5 5 2.24 5 5-2.24 5-5 5m-3-5c0-1.66 1.34-3 3-3s3 1.34 3 3-1.34 3-3 3-3-1.34-3-3" clip-rule="evenodd"/></symbol><symbol id="weekend" fill="currentColor" viewBox="0 0 24 24"><path fill-rule="evenodd" d="M21 9V7c0-1.65-1.35-3-3-3H6C4.35 4 3 5.35 3 7v2c-1.65 0-3 1.35-3 3v5c0 1.65 1.35 3 3 3h1v1a1 1 0 1 0 2 0v-1h12v1a1 1 0 1 0 2 0v-1h1c1.65 0 3-1.35 3-3v-5c0-1.65-1.35-3-3-3m-2 9h2c.55 0 1-.45 1-1v-5c0-.55-.45-1-1-1s-1 .45-1 1v4H4v-4c0-.55-.45-1-1-1s-1 .45-1 1v5c0 .55.45 1 1 1zM5 7c0-.55.45-1 1-1h12c.55 0 1 .45 1 1v2.78c-.61.55-1 1.34-1 2.22v2H6v-2c0-.88-.39-1.67-1-2.22z" clip-rule="evenodd"/></symbol><symbol id="widget-add" fill="currentColor" viewBox="0 0 24 24"><path fill-rule="evenodd" d="M11 11V5.143C11 4.512 11.448 4 12 4s1 .512 1 1.143V11h5.857c.631 0 1.143.448 1.143 1s-.512 1-1.143 1H13v5.857c0 .631-.448 1.143-1 1.143s-1-.512-1-1.143V13H5.143C4.512 13 4 12.552 4 12s.512-1 1.143-1z" clip-rule="evenodd"/></symbol><symbol id="widget-settings" fill="currentColor" viewBox="0 0 24 24"><path fill-rule="evenodd" d="M10.568 4a1.15 1.15 0 0 0-1.146 1.055l-.118 1.416q-.387.19-.744.43l-1.286-.606a1.15 1.15 0 0 0-1.486.465L4.356 9.24a1.15 1.15 0 0 0 .34 1.52l1.169.81a6 6 0 0 0 0 .86l-1.168.81a1.15 1.15 0 0 0-.341 1.52l1.432 2.48c.299.518.945.72 1.486.465l1.286-.607q.357.242.744.431l.118 1.416A1.15 1.15 0 0 0 10.568 20h2.864a1.15 1.15 0 0 0 1.146-1.055l.117-1.416q.388-.19.745-.43l1.286.606a1.15 1.15 0 0 0 1.486-.465l1.432-2.48a1.15 1.15 0 0 0-.34-1.52l-1.169-.81a6 6 0 0 0 0-.86l1.168-.81a1.15 1.15 0 0 0 .341-1.52l-1.432-2.48a1.15 1.15 0 0 0-1.486-.465l-1.286.607a6 6 0 0 0-.745-.431l-.117-1.416A1.15 1.15 0 0 0 13.432 4zm.156 3.503L10.89 5.5h2.22l.128 1.539.038.464.433.171c.425.168.823.399 1.181.683l.365.29 1.82-.858 1.109 1.922-1.27.88-.382.265.068.46a4.7 4.7 0 0 1 0 1.367l-.068.46 1.652 1.146-1.11 1.922-1.397-.66-.421-.198-.366.29a4.6 4.6 0 0 1-1.18.683l-.434.171-.166 2.003h-2.22l-.128-1.539-.038-.464-.433-.171a4.6 4.6 0 0 1-1.181-.683l-.366-.29-1.818.858-1.11-1.922 1.27-.88.381-.265-.067-.46a4.7 4.7 0 0 1 0-1.368l.068-.46L5.816 9.71l1.11-1.922 1.397.66.421.198.366-.29a4.6 4.6 0 0 1 1.18-.683zM12 14.75a2.75 2.75 0 1 0 0-5.5 2.75 2.75 0 0 0 0 5.5M10.75 12a1.25 1.25 0 1 0 2.5 0 1.25 1.25 0 0 0-2.5 0" clip-rule="evenodd"/></symbol></svg>