<svg xmlns="http://www.w3.org/2000/svg" width="0" height="0"><symbol id="activity-log" fill="currentColor" viewBox="0 0 24 24"><path fill-rule="evenodd" d="M19 3a2 2 0 0 1 2 2v14a2 2 0 0 1-2 2H5a2 2 0 0 1-2-2V5a2 2 0 0 1 2-2zm-3.478 5.45-3.05 8.715a.501.501 0 0 1-.92.059l-3.127-6.258-2.017 2.825A.5.5 0 0 1 6 14l-2-.001V19a1 1 0 0 0 1 1h14a1 1 0 0 0 1-1v-5.001L18 14a.5.5 0 0 1-.428-.242l-.039-.079zM19 4H5a1 1 0 0 0-1 1v7.999L5.743 13l2.35-3.29a.5.5 0 0 1 .854.066l2.973 5.944 3.11-8.884a.5.5 0 0 1 .938-.014L18.343 13 20 12.999V5a1 1 0 0 0-1-1" clip-rule="evenodd"/></symbol><symbol id="add-person" fill="currentColor" viewBox="0 0 24 24"><path fill-rule="evenodd" d="M10 13.5c3.323 0 5.803.697 7.427 2.119A2.5 2.5 0 0 1 15.78 20H4.22a2.5 2.5 0 0 1-1.647-4.381C4.197 14.197 6.677 13.5 10 13.5m0 1c-3.102 0-5.353.633-6.768 1.871A1.5 1.5 0 0 0 4.22 19h11.56a1.5 1.5 0 0 0 .988-2.629C15.353 15.133 13.102 14.5 10 14.5M19.5 6a.5.5 0 0 1 .5.5V9h2.5a.5.5 0 1 1 0 1H20v2.5a.5.5 0 0 1-1 0V10h-2.5a.5.5 0 0 1 0-1H19V6.5a.5.5 0 0 1 .5-.5M10 4a4 4 0 1 1 0 8 4 4 0 0 1 0-8m0 1a3 3 0 1 0 0 6 3 3 0 0 0 0-6" clip-rule="evenodd"/></symbol><symbol id="add" fill="none" viewBox="0 0 33 32"><path fill="currentColor" fill-rule="evenodd" d="m17.167 5.333-.002 10h10.002v1.334H17.165l.002 10h-1.334l-.001-10H5.833v-1.334h9.999l.001-10z" clip-rule="evenodd"/></symbol><symbol id="arrow-left" fill="currentColor" viewBox="0 0 24 24"><path d="m5.293 12.733 4.94 5.115a.487.487 0 0 0 .706 0 .53.53 0 0 0 0-.732s-4.457-4.602-4.455-4.602H18.5a.51.51 0 0 0 .5-.518.51.51 0 0 0-.5-.518H6.484l4.455-4.594a.53.53 0 0 0 0-.733.49.49 0 0 0-.707 0l-4.94 5.117c-.39.404-.39 1.06 0 1.465z"/></symbol><symbol id="arrow-right" fill="currentColor" viewBox="0 0 24 24"><path d="m18.707 11.267-4.94-5.115a.487.487 0 0 0-.706 0 .53.53 0 0 0 0 .732s4.457 4.602 4.455 4.602H5.5a.51.51 0 0 0-.5.518.51.51 0 0 0 .5.518h12.016l-4.455 4.594a.53.53 0 0 0 0 .733.49.49 0 0 0 .707 0l4.94-5.117c.39-.404.39-1.06 0-1.465z"/></symbol><symbol id="article" fill="currentColor" viewBox="0 0 24 24"><path fill-rule="evenodd" d="M4.4 3a1.9 1.9 0 0 0-1.344.557C2.715 3.899 2.5 4.474 2.5 5v14c0 .504.2.987.557 1.343.396.396.886.657 1.343.657h13.685a2.83 2.83 0 0 1-.585-1.699V5c0-.525-.214-1.101-.556-1.443C16.6 3.214 16.024 3 15.5 3zm0-1a2.9 2.9 0 0 0-2.05.85C1.79 3.406 1.5 4.251 1.5 5v14a2.9 2.9 0 0 0 .85 2.05c.504.505 1.234.95 2.05.95h15.46c.358 0 .677-.043.983-.172s.558-.327.808-.577c.569-.57.849-1.523.849-2.251V8a2.9 2.9 0 0 0-.85-2.05C21.129 5.425 20.297 5 19.5 5h-1c0-.748-.291-1.593-.85-2.15-.556-.56-1.401-.85-2.15-.85zm14.1 4v13.301c0 .46.194.895.481 1.216.296.33.635.483.878.483.279 0 .453-.034.594-.093.143-.06.29-.164.49-.363.331-.331.557-1 .557-1.544V8a1.9 1.9 0 0 0-.556-1.343C20.566 6.279 19.977 6 19.5 6zm-12 .5A.5.5 0 0 1 7 6h6a.5.5 0 0 1 .5.5v5a.5.5 0 0 1-.5.5H7a.5.5 0 0 1-.5-.5zm1 .5v4h5V7zm-1 9.5A.5.5 0 0 1 7 16h6a.5.5 0 0 1 0 1H7a.5.5 0 0 1-.5-.5" clip-rule="evenodd"/></symbol><symbol id="baby-carriage" fill="currentColor" viewBox="0 0 24 24"><g fill-rule="evenodd" clip-rule="evenodd"><path d="M13.192 2.635a.5.5 0 0 1 .374-.134c4.393.29 7.934 3.479 7.934 8.043a1 1 0 0 1-.007.083c-.504 3-1.28 4.796-2.707 5.789-1.4.973-3.314 1.084-5.786 1.084s-4.386-.11-5.785-1.084c-1.428-.993-2.204-2.789-2.708-5.789A.5.5 0 0 1 5 10.044h8.033V3a.5.5 0 0 1 .159-.365m.841 7.41h6.45c-.233-3.522-2.929-6.046-6.45-6.495zm6.37 1H5.597c.492 2.564 1.188 3.855 2.188 4.55 1.1.766 2.686.905 5.214.905s4.114-.14 5.215-.905c1-.695 1.695-1.986 2.187-4.55z"/><path d="M6.402 14.51a.5.5 0 0 1 .588.392l.7 3.5a.5.5 0 0 1-.98.196l-.7-3.5a.5.5 0 0 1 .392-.588m11.72 1.505a.5.5 0 0 1 .363.606l-.5 2a.5.5 0 0 1-.97-.242l.5-2a.5.5 0 0 1 .606-.364zM8.5 19.517a.5.5 0 0 1 .5-.5h7a.5.5 0 1 1 0 1H9a.5.5 0 0 1-.5-.5"/><path d="M17.5 19a1 1 0 1 0 0 2 1 1 0 0 0 0-2m-2 1a2 2 0 1 1 4 0 2 2 0 0 1-4 0m-8-.983a1 1 0 1 0 0 2 1 1 0 0 0 0-2m-2 1a2 2 0 1 1 4 0 2 2 0 0 1-4 0M1.5 8.5A.5.5 0 0 1 2 8h2a1.5 1.5 0 0 1 1.5 1.5v1a.5.5 0 0 1-1 0v-1A.5.5 0 0 0 4 9H2a.5.5 0 0 1-.5-.5"/></g></symbol><symbol id="bell-off" fill="currentColor" viewBox="0 0 24 24"><path d="M17.75 8.5c0 3.24.682 5.875 2.03 7.927a1.5 1.5 0 0 1-1.255 2.323H14.5a2.5 2.5 0 0 1-5 0H7.12l1-1h10.405a.5.5 0 0 0 .418-.774q-2.06-3.14-2.185-7.864l.98-.978q.012.18.012.366m3.104-5.604a.5.5 0 0 1 0 .708l-17 17a.5.5 0 0 1-.708-.708l17-17a.5.5 0 0 1 .708 0M13.5 18.75h-3a1.5 1.5 0 0 0 3 0m-1.5-16c1.876 0 3.542.898 4.591 2.288l-.715.716A4.75 4.75 0 0 0 7.25 8.5q0 4.41-1.618 7.498L4.018 17.61a1.5 1.5 0 0 1 .203-1.183C5.568 14.375 6.25 11.739 6.25 8.5A5.75 5.75 0 0 1 12 2.75"/></symbol><symbol id="bell" fill="currentColor" viewBox="0 0 24 24"><path d="M12 3a5.75 5.75 0 0 1 5.75 5.75c0 3.24.682 5.875 2.03 7.927A1.5 1.5 0 0 1 18.524 19H14.5a2.5 2.5 0 0 1-5 0H5.475a1.5 1.5 0 0 1-1.254-2.323C5.568 14.625 6.25 11.989 6.25 8.75A5.75 5.75 0 0 1 12 3m1.5 16h-3a1.5 1.5 0 1 0 3 0M12 4a4.75 4.75 0 0 0-4.75 4.75q0 5.134-2.193 8.476a.5.5 0 0 0 .418.774h13.05a.5.5 0 0 0 .418-.774Q16.75 13.885 16.75 8.75A4.75 4.75 0 0 0 12 4"/></symbol><symbol id="boards" fill="currentColor" viewBox="0 0 24 24"><path fill-rule="evenodd" d="M7.5 7a.5.5 0 0 1 .5.5v9a.5.5 0 0 1-1 0v-9a.5.5 0 0 1 .5-.5M12 7a.5.5 0 0 1 .5.5v9a.5.5 0 0 1-1 0v-9A.5.5 0 0 1 12 7m4.5 0a.5.5 0 0 1 .5.5v9a.5.5 0 0 1-1 0v-9a.5.5 0 0 1 .5-.5M20 3H4a1 1 0 0 0-1 1v16a1 1 0 0 0 1 1h16a1 1 0 0 0 1-1V4a1 1 0 0 0-1-1M4 2a2 2 0 0 0-2 2v16a2 2 0 0 0 2 2h16a2 2 0 0 0 2-2V4a2 2 0 0 0-2-2z" clip-rule="evenodd"/></symbol><symbol id="bookmark" fill="currentColor" viewBox="0 0 24 24"><path fill-rule="evenodd" d="M6.643 3a1.66 1.66 0 0 0-1.164.475A1.6 1.6 0 0 0 5 4.61v16.085l6.78-3.339a.5.5 0 0 1 .44 0l6.78 3.34V4.61a1.6 1.6 0 0 0-.479-1.136A1.66 1.66 0 0 0 17.357 3zm-1.866-.238A2.66 2.66 0 0 1 6.643 2h10.714c.699 0 1.37.273 1.866.762.497.49.777 1.154.777 1.85V21.5a.5.5 0 0 1-.72.448L12 18.363l-7.28 3.585A.5.5 0 0 1 4 21.5V4.611c0-.695.28-1.36.777-1.849" clip-rule="evenodd"/></symbol><symbol id="briefcase" fill="currentColor" viewBox="0 0 24 24"><path fill-rule="evenodd" d="M7.765 2.765A2.6 2.6 0 0 1 9.61 2h4.778A2.61 2.61 0 0 1 17 4.611v1.611h2.389A2.61 2.61 0 0 1 22 8.833V19.39A2.61 2.61 0 0 1 19.389 22H4.61A2.61 2.61 0 0 1 2 19.389V8.833a2.61 2.61 0 0 1 2.611-2.61H7V4.61c0-.692.275-1.357.765-1.846zM8 6.222h8v-1.61A1.61 1.61 0 0 0 14.389 3H9.61A1.61 1.61 0 0 0 8 4.611zm-3.389 1A1.61 1.61 0 0 0 3 8.833v5.208a24.8 24.8 0 0 0 9 1.681c3.08.004 6.132-.567 9-1.681V8.833a1.61 1.61 0 0 0-1.611-1.61H4.61zM21 15.11a25.8 25.8 0 0 1-9 1.612 25.8 25.8 0 0 1-9-1.611v4.278A1.61 1.61 0 0 0 4.611 21H19.39A1.61 1.61 0 0 0 21 19.389z" clip-rule="evenodd"/><path d="M12.707 12.293a1 1 0 1 0-1.414 1.414 1 1 0 0 0 1.414-1.414"/></symbol><symbol id="building" fill="currentColor" viewBox="0 0 24 24"><path fill-rule="evenodd" d="M4.876 2.765A2.6 2.6 0 0 1 6.722 2h10.556a2.61 2.61 0 0 1 2.61 2.611V21H21.5a.5.5 0 0 1 0 1h-19a.5.5 0 0 1 0-1h1.611V4.611c0-.692.275-1.357.765-1.846M5.11 21V4.611A1.61 1.61 0 0 1 6.722 3h10.556a1.61 1.61 0 0 1 1.61 1.611V21H15v-4.444A1.556 1.556 0 0 0 13.444 15H10.5a1.556 1.556 0 0 0-1.556 1.556V21zm4.833 0H14v-4.444a.556.556 0 0 0-.556-.556H10.5a.555.555 0 0 0-.556.556zM8.334 6.5a.5.5 0 0 1 .5-.5h1.055a.5.5 0 0 1 0 1H8.833a.5.5 0 0 1-.5-.5zm5.277 0a.5.5 0 0 1 .5-.5h1.056a.5.5 0 0 1 0 1H14.11a.5.5 0 0 1-.5-.5zm-5.278 4a.5.5 0 0 1 .5-.5H9.89a.5.5 0 0 1 0 1H8.833a.5.5 0 0 1-.5-.5m5.278 0a.5.5 0 0 1 .5-.5h1.056a.5.5 0 0 1 0 1H14.11a.5.5 0 0 1-.5-.5z" clip-rule="evenodd"/></symbol><symbol id="calendar-number" fill="currentColor" viewBox="0 0 25 24"><path d="M18.5 4a2 2 0 0 1 2 2v12a2 2 0 0 1-2 2h-12a2 2 0 0 1-2-2V6a2 2 0 0 1 2-2zm0 1h-12a1 1 0 0 0-1 1v12a1 1 0 0 0 1 1h12a1 1 0 0 0 1-1V6a1 1 0 0 0-1-1m-8.14 5.505c1.182 0 2.052.751 2.052 1.797v.013c0 .721-.334 1.275-1.485 2.417l-1.345 1.34v.089h2.931V17H8.242v-.668l2.105-2.21c.839-.875 1.08-1.2 1.08-1.714v-.013c0-.62-.425-1.077-1.12-1.077-.712 0-1.186.466-1.186 1.16l-.005.013h-.923l-.008-.009c.004-1.16.9-1.977 2.175-1.977m5.976.154V17h-.984v-5.326h-.075l-1.595 1.138v-.967l1.67-1.186zM17.5 8a.5.5 0 0 1 0 1h-10a.5.5 0 0 1 0-1z"/></symbol><symbol id="calendar" fill="currentColor" viewBox="0 0 24 24"><path fill-rule="evenodd" d="M20 3H4a1 1 0 0 0-1 1v16a1 1 0 0 0 1 1h16a1 1 0 0 0 1-1V4a1 1 0 0 0-1-1M4 2a2 2 0 0 0-2 2v16a2 2 0 0 0 2 2h16a2 2 0 0 0 2-2V4a2 2 0 0 0-2-2z" clip-rule="evenodd"/><path fill-rule="evenodd" d="M5.5 6.5A.5.5 0 0 1 6 6h12a.5.5 0 0 1 0 1H6a.5.5 0 0 1-.5-.5" clip-rule="evenodd"/><path d="M7.707 11.293a1 1 0 1 0-1.414 1.414 1 1 0 0 0 1.414-1.414m0 5a1 1 0 1 0-1.414 1.414 1 1 0 0 0 1.414-1.414m5-5a1 1 0 1 0-1.414 1.414 1 1 0 0 0 1.414-1.414m0 5a1 1 0 1 0-1.414 1.414 1 1 0 0 0 1.414-1.414m5-5a1 1 0 1 0-1.414 1.414 1 1 0 0 0 1.414-1.414m0 5a1 1 0 1 0-1.414 1.414 1 1 0 0 0 1.414-1.414"/></symbol><symbol id="channels" fill="currentColor" viewBox="0 0 24 24"><g fill-rule="evenodd" clip-rule="evenodd"><path d="M20 3H4a1 1 0 0 0-1 1v16a1 1 0 0 0 1 1h16a1 1 0 0 0 1-1V4a1 1 0 0 0-1-1M4 2a2 2 0 0 0-2 2v16a2 2 0 0 0 2 2h16a2 2 0 0 0 2-2V4a2 2 0 0 0-2-2z"/><path d="M14 15h-4v2.5a.5.5 0 0 1-1 0V15H6.5a.5.5 0 0 1 0-1H9v-4H6.5a.5.5 0 0 1 0-1H9V6.5a.5.5 0 0 1 1 0V9h4V6.5a.5.5 0 0 1 1 0V9h2.5a.5.5 0 0 1 0 1H15v4h2.5a.5.5 0 0 1 0 1H15v2.5a.5.5 0 0 1-1 0zm0-5v4h-4v-4z"/></g></symbol><symbol id="check-heavy" fill="currentColor" viewBox="0 0 24 24"><path d="M8.457 11.793a1 1 0 0 0-1.414 1.414l2.5 2.5a1 1 0 0 0 1.414 0l6-6a1 1 0 0 0-1.414-1.414l-5.293 5.293z"/></symbol><symbol id="check" fill="currentColor" viewBox="0 0 24 24"><g fill-rule="evenodd" clip-rule="evenodd"><path d="M12 3a9 9 0 1 0 0 18 9 9 0 0 0 0-18M2 12C2 6.477 6.477 2 12 2s10 4.477 10 10-4.477 10-10 10S2 17.523 2 12"/><path d="M16.721 9.066a.5.5 0 0 1 0 .707l-5.662 5.661a.5.5 0 0 1-.707 0L7.78 12.861a.5.5 0 1 1 .707-.707l2.22 2.22 5.308-5.308a.5.5 0 0 1 .707 0z"/></g></symbol><symbol id="checkmark" fill="none" viewBox="0 0 18 18"><path fill="currentColor" fill-rule="evenodd" d="M9 0a9 9 0 1 1 0 18.001A9 9 0 0 1 9 0m0 1a8 8 0 1 0 0 16A8 8 0 0 0 9 1m4.604 4.646a.5.5 0 0 1 0 .708l-6 6a.5.5 0 0 1-.708 0l-2.5-2.5a.5.5 0 1 1 .708-.708l2.146 2.147 5.646-5.647a.5.5 0 0 1 .708 0" clip-rule="evenodd"/></symbol><symbol id="chevron-down" fill="currentColor" viewBox="0 0 24 24"><path fill-rule="evenodd" d="M4.646 8.646a.5.5 0 0 1 .708 0L12 15.293l6.646-6.647a.5.5 0 0 1 .708.708l-7 7a.5.5 0 0 1-.708 0l-7-7a.5.5 0 0 1 0-.708" clip-rule="evenodd"/></symbol><symbol id="chevron-left-circle" fill="none" viewBox="0 0 48 48"><circle cx="24" cy="24" r="24" fill="currentColor" fill-opacity=".06"/><path stroke="currentColor" stroke-linecap="round" stroke-linejoin="round" d="m27.333 34-10-10 10-10"/></symbol><symbol id="chevron-left" fill="currentColor" viewBox="0 0 24 24"><path fill-rule="evenodd" d="M15.354 4.646a.5.5 0 0 1 0 .708L8.707 12l6.647 6.646a.5.5 0 0 1-.708.708l-7-7a.5.5 0 0 1 0-.708l7-7a.5.5 0 0 1 .708 0" clip-rule="evenodd"/></symbol><symbol id="chevron-right" fill="currentColor" viewBox="0 0 24 24"><path fill-rule="evenodd" d="M8.646 4.646a.5.5 0 0 1 .708 0l7 7a.5.5 0 0 1 0 .708l-7 7a.5.5 0 0 1-.708-.708L15.293 12 8.646 5.354a.5.5 0 0 1 0-.708" clip-rule="evenodd"/></symbol><symbol id="chevron-up" fill="currentColor" viewBox="0 0 24 24"><path fill-rule="evenodd" d="M11.646 7.646a.5.5 0 0 1 .708 0l7 7a.5.5 0 0 1-.708.708L12 8.707l-6.646 6.647a.5.5 0 0 1-.708-.708z" clip-rule="evenodd"/></symbol><symbol id="close" fill="currentColor" viewBox="0 0 24 24"><path fill-rule="evenodd" d="M5.646 5.646a.5.5 0 0 1 .708 0L12 11.293l5.646-5.647a.5.5 0 0 1 .708.708L12.707 12l5.647 5.646a.5.5 0 0 1-.708.708L12 12.707l-5.646 5.647a.5.5 0 0 1-.708-.708L11.293 12 5.646 6.354a.5.5 0 0 1 0-.708" clip-rule="evenodd"/></symbol><symbol id="cloud-backup" fill="currentColor" viewBox="0 0 24 24"><g fill-rule="evenodd" clip-rule="evenodd"><path d="m18.996 10.213-.031.739.698.245A3.502 3.502 0 0 1 18.5 18h-3a.5.5 0 0 0 0 1h3a4.5 4.5 0 0 0 1.495-8.746A6 6 0 0 0 9.239 6.348 4.5 4.5 0 0 0 3.332 12.2 3.5 3.5 0 0 0 4.5 19h5a.5.5 0 1 0 0-.999h-5a2.5 2.5 0 0 1-.834-4.858l.988-.35-.396-.97A3.5 3.5 0 0 1 8.852 7.27l.71.297.47-.61a5 5 0 0 1 8.964 3.255z"/><path d="M12.5 11.441a.5.5 0 0 1 .5.5V22a.5.5 0 1 1-1 0V11.941a.5.5 0 0 1 .5-.5"/><path d="M12.5 10.912a.5.5 0 0 1 .364.156l2.5 2.648a.5.5 0 1 1-.728.686L12.5 12.14l-2.136 2.262a.5.5 0 1 1-.728-.686l2.5-2.647a.5.5 0 0 1 .364-.157"/></g></symbol><symbol id="cloud" fill="none" viewBox="0 0 39 33"><path fill="currentColor" fill-rule="evenodd" d="m21.708 10.375 5 5a1.001 1.001 0 1 1-1.416 1.415L22 13.496v17.586a1 1 0 1 1-2 0V13.496l-3.292 3.294a1.001 1.001 0 1 1-1.416-1.415l5-5a1 1 0 0 1 1.416 0M23 .082a11 11 0 0 1 10.992 11.423A7.504 7.504 0 0 1 31.5 26.084H24v-2h7.5a5.5 5.5 0 0 0 1.828-10.69l-1.39-.49.056-1.473.006-.348a9 9 0 0 0-16.662-4.721l-.794 1.282-1.452-.41a4.004 4.004 0 0 0-5.082 4.133l.106 1.52-1.44.504A5.502 5.502 0 0 0 8.5 24.082H18v2H8.5a7.5 7.5 0 0 1-2.486-14.58 6 6 0 0 1 7.62-6.195A11 11 0 0 1 23 .083" clip-rule="evenodd"/></symbol><symbol id="comments" fill="currentColor" viewBox="0 0 24 24"><path fill-rule="evenodd" d="M19 4a2 2 0 0 1 2 2v10a2 2 0 0 1-2 2h-4.5l-2.793 2.793A1 1 0 0 1 10 20.086V18H5a2 2 0 0 1-2-2V6a2 2 0 0 1 2-2zm0 1H5a1 1 0 0 0-1 1v10a1 1 0 0 0 1 1h6v3.086L14.086 17H19a1 1 0 0 0 1-1V6a1 1 0 0 0-1-1" clip-rule="evenodd"/></symbol><symbol id="communication" fill="currentColor" viewBox="0 0 24 24"><path d="M10 13.5c3.323 0 5.803.697 7.427 2.119A2.5 2.5 0 0 1 15.78 20H4.22a2.5 2.5 0 0 1-1.647-4.381C4.197 14.197 6.677 13.5 10 13.5m0 1c-3.102 0-5.353.633-6.768 1.871A1.5 1.5 0 0 0 4.22 19h11.56a1.5 1.5 0 0 0 .988-2.629C15.353 15.133 13.102 14.5 10 14.5M10 4a4 4 0 1 1 0 8 4 4 0 0 1 0-8m11.5 0A1.5 1.5 0 0 1 23 5.5v3a1.5 1.5 0 0 1-1.5 1.5H19l-1.293 1.293A1 1 0 0 1 16 10.586V5.5A1.5 1.5 0 0 1 17.5 4zM10 5a3 3 0 1 0 0 6 3 3 0 0 0 0-6m11.5 0h-4a.5.5 0 0 0-.5.5v5.086l1.293-1.293A1 1 0 0 1 19 9h2.5a.5.5 0 0 0 .5-.5v-3a.5.5 0 0 0-.5-.5"/></symbol><symbol id="credit-card" fill="currentColor" viewBox="0 0 24 24"><g fill-rule="evenodd" clip-rule="evenodd"><path d="M21 5H3a1 1 0 0 0-1 1v12a1 1 0 0 0 1 1h18a1 1 0 0 0 1-1V6a1 1 0 0 0-1-1M3 4a2 2 0 0 0-2 2v12a2 2 0 0 0 2 2h18a2 2 0 0 0 2-2V6a2 2 0 0 0-2-2z"/><path d="M22.5 10h-21V9h21zm-17 5.5A.5.5 0 0 1 6 15h1a.5.5 0 0 1 0 1H6a.5.5 0 0 1-.5-.5m5 0a.5.5 0 0 1 .5-.5h1a.5.5 0 0 1 0 1h-1a.5.5 0 0 1-.5-.5"/></g></symbol><symbol id="currency" fill="currentColor" viewBox="0 0 24 24"><path fill-rule="evenodd" d="M12 2c.276 0 .5.236.5.526v2.07c.813.042 1.481.189 2.068.447.705.31 1.258.766 1.786 1.322a.546.546 0 0 1 0 .744.483.483 0 0 1-.707 0c-.473-.497-.92-.855-1.465-1.095-.446-.196-.981-.324-1.682-.364v5.836c1.107.058 2.145.316 2.952.86.958.648 1.548 1.677 1.548 3.099 0 1.468-.752 2.484-1.743 3.107-.824.518-1.824.778-2.757.846v2.076c0 .29-.224.526-.5.526a.514.514 0 0 1-.5-.526v-2.07c-.815-.042-1.486-.189-2.115-.44-.745-.299-1.41-.735-2.162-1.263a.544.544 0 0 1-.139-.73.485.485 0 0 1 .693-.146c.748.525 1.333.902 1.963 1.154.507.203 1.058.33 1.76.37v-5.834c-1.1-.053-2.14-.289-2.948-.823C7.586 11.053 7 10.02 7 8.555c0-1.51.747-2.53 1.748-3.146.825-.507 1.825-.747 2.752-.809V2.526c0-.29.224-.526.5-.526m-.5 3.655c-.796.061-1.609.27-2.248.663C8.502 6.779 8 7.482 8 8.555c0 1.119.422 1.808 1.084 2.246.6.396 1.432.608 2.416.66zm1 6.885v5.803c.79-.067 1.603-.291 2.244-.695.758-.477 1.256-1.183 1.256-2.203 0-1.065-.418-1.76-1.088-2.212-.601-.407-1.434-.636-2.412-.693" clip-rule="evenodd"/></symbol><symbol id="desktop" fill="currentColor" viewBox="0 0 24 24"><g fill-rule="evenodd" clip-rule="evenodd"><path d="M2 13.5a.5.5 0 0 1 .5-.5h19a.5.5 0 0 1 0 1h-19a.5.5 0 0 1-.5-.5m7.142 3.872A.5.5 0 0 1 9.625 17h4.75a.5.5 0 0 1 .483.372l.756 2.863.952.902a.5.5 0 0 1-.344.863H7.778a.5.5 0 0 1-.344-.863l.952-.902zm.868.628-.693 2.628a.5.5 0 0 1-.14.235L9.033 21h5.934l-.144-.137a.5.5 0 0 1-.14-.235L13.99 18z"/><path d="M20 3H4a1 1 0 0 0-1 1v12a1 1 0 0 0 1 1h16a1 1 0 0 0 1-1V4a1 1 0 0 0-1-1M4 2a2 2 0 0 0-2 2v12a2 2 0 0 0 2 2h16a2 2 0 0 0 2-2V4a2 2 0 0 0-2-2z"/></g></symbol><symbol id="document" fill="none" viewBox="0 0 21 26"><clipPath><path d="M.533 0h19.934v26H.533z"/></clipPath><g fill="currentColor" clip-path="url(#a)"><path d="M1.364 1.726v22.548c0 .47.375.86.835.86h16.603c.46 0 .834-.39.834-.871V8.043c0-.254-.176-.71-.344-.892l-5.489-5.925c-.162-.174-.579-.36-.812-.36H2.19c-.456 0-.826.386-.826.86m-.83 0C.533.773 1.275 0 2.19 0H12.99c.46 0 1.092.281 1.41.624l5.488 5.924c.319.345.578 1.018.578 1.495v16.22c0 .96-.745 1.737-1.665 1.737H2.199c-.92 0-1.666-.778-1.666-1.726z"/><path d="M1.364 1.726v22.548c0 .47.375.86.835.86h16.603c.46 0 .834-.39.834-.872V8.042c0-.253-.176-.71-.344-.891l-5.489-5.925c-.161-.175-.579-.36-.812-.36H2.19c-.456 0-.826.386-.826.86"/><path d="M7.178 13c.459 0 .83-.388.83-.866s-.371-.867-.83-.867-.83.388-.83.867.371.866.83.866m0 .867c-.917 0-1.661-.776-1.661-1.733S6.26 10.4 7.178 10.4s1.661.776 1.661 1.734-.744 1.733-1.661 1.733"/><path d="M7.178 13c.459 0 .83-.388.83-.867 0-.478-.371-.866-.83-.866s-.83.388-.83.866c0 .479.371.867.83.867M12.708 14.547a.202.202 0 0 0-.339.005l-3.53 5.381h7.232a.2.2 0 0 0 .123-.041.223.223 0 0 0 .045-.303z"/><path d="m7.626 16.283-2.249 3.65H10.1zm.678-.5 3.4 5.017H4.998a.637.637 0 0 1-.623-.65.67.67 0 0 1 .099-.351l2.454-3.985a.81.81 0 0 1 1.377-.032"/><path d="M12.708 14.547a.202.202 0 0 0-.339.005l-3.53 5.381h7.232a.2.2 0 0 0 .123-.042.223.223 0 0 0 .045-.302zm.67-.511 3.532 5.041c.338.483.237 1.161-.226 1.514a1 1 0 0 1-.613.209H7.264l4.42-6.737c.324-.494.97-.62 1.443-.282q.146.106.252.255"/><path d="m7.626 16.283-2.25 3.65H10.1z"/></g></symbol><symbol id="doist" fill="none" viewBox="0 0 59 33"><clipPath><path d="M0 .18h59v32H0z"/></clipPath><g fill="currentColor" fill-rule="evenodd" clip-path="url(#a)" clip-rule="evenodd"><path d="M3.63 19.265q0 .774.263 1.492.262.72.773 1.273.513.554 1.231.885.72.33 1.631.33.912 0 1.632-.33.718-.331 1.23-.884.51-.554.774-1.274.261-.717.261-1.492-.001-.774-.26-1.494a3.77 3.77 0 0 0-2.005-2.155 3.9 3.9 0 0 0-1.632-.334q-.912.001-1.63.334-.72.33-1.232.884-.511.554-.773 1.271-.264.72-.264 1.494m7.852 4.644h-.057q-.717 1.218-1.934 1.771a6.3 6.3 0 0 1-2.626.551q-1.548.002-2.752-.538a6.16 6.16 0 0 1-3.36-3.692 8.3 8.3 0 0 1-.44-2.736q-.001-1.465.47-2.738a6.8 6.8 0 0 1 1.312-2.212 6.1 6.1 0 0 1 2.031-1.478 6.2 6.2 0 0 1 2.6-.54q.94 0 1.66.193.718.194 1.271.5.553.304.94.648.386.347.635.677h.083V7.004c0-.33.263-.722.724-.722h1.873c.434 0 .722.365.722.722v18.174c0 .461-.391.722-.722.722h-1.705a.73.73 0 0 1-.725-.721zM20.157 19.261q0 .775.264 1.492.262.721.774 1.274a3.9 3.9 0 0 0 1.23.884q.72.33 1.632.33t1.631-.33q.72-.331 1.23-.884.511-.553.775-1.274.26-.717.26-1.492 0-.773-.26-1.494a3.77 3.77 0 0 0-2.005-2.155 3.9 3.9 0 0 0-1.631-.333q-.912 0-1.631.333-.72.33-1.231.884t-.774 1.271q-.264.722-.264 1.494m-3.316 0q0-1.576.567-2.862a6.7 6.7 0 0 1 1.534-2.198 6.8 6.8 0 0 1 2.293-1.41 8 8 0 0 1 2.822-.498 8 8 0 0 1 2.819.497 6.8 6.8 0 0 1 2.295 1.411 6.7 6.7 0 0 1 1.535 2.198q.566 1.285.567 2.862 0 1.576-.567 2.862a6.7 6.7 0 0 1-1.535 2.199 6.8 6.8 0 0 1-2.295 1.408 7.9 7.9 0 0 1-2.82.497 8 8 0 0 1-2.82-.497 6.7 6.7 0 0 1-2.294-1.408 6.7 6.7 0 0 1-1.534-2.199q-.567-1.285-.567-2.862M32.945 8.12q0-.802.594-1.398.597-.594 1.507-.594.912 0 1.535.567t.623 1.424c.001.857-.21 1.046-.623 1.425q-.622.567-1.535.567-.91 0-1.507-.597-.594-.593-.594-1.395M46.64 16.302c-.33 0-.575-.25-.616-.36-.276-.722-1.155-.994-1.865-.994-1.119 0-1.997.519-1.997 1.41 0 .864.85 1.04 1.375 1.199.576.174 1.677.414 2.284.557a7.4 7.4 0 0 1 1.728.637c1.761.914 2.012 2.353 2.012 3.22 0 3.196-3.167 4.256-5.366 4.256-1.695 0-4.88-.256-5.578-3.488-.069-.314.21-.798.721-.798h1.832c.36 0 .603.263.674.47.235.649.983 1.14 2.245 1.14 1.353 0 2.153-.537 2.153-1.251 0-.461-.262-.872-.603-1.103-1.026-.696-3.564-.775-4.942-1.508-.528-.281-1.852-.922-1.852-3.11 0-3.015 2.74-4.286 5.149-4.286 3.55 0 4.854 2.244 5.001 3.075.081.459-.176.934-.692.934zM49.833 14.66v-1.372c0-.328.258-.722.716-.722h1.77v-3.37c0-.36.244-.58.43-.66l1.889-.824c.552-.227 1 .227 1 .666v4.188h2.927c.452 0 .722.395.722.722v1.374a.746.746 0 0 1-.722.723h-2.928v5.808c0 .663-.018 1.182.235 1.565.232.352.574.482 1.257.482.196 0 .371-.033.519-.083a.706.706 0 0 1 .868.318c.216.418.463.877.636 1.205.19.362.037.825-.31.994-.563.273-1.34.494-2.407.494-.884 0-1.385-.097-1.945-.29a3.35 3.35 0 0 1-1.418-1c-.323-.397-.484-.927-.603-1.516-.122-.59-.15-1.305-.15-2.081v-5.896h-1.765c-.463 0-.721-.4-.721-.725M34.116 25.9h1.875a.724.724 0 0 0 .721-.721V13.288a.724.724 0 0 0-.721-.722h-1.876a.724.724 0 0 0-.721.722v11.891c0 .397.325.722.722.722"/></g></symbol><symbol id="double-arrows" fill="currentColor" viewBox="0 0 24 24"><path fill-rule="evenodd" d="M12 4.5a.5.5 0 0 1 .4.2l3 4a.5.5 0 0 1-.8.6L12 5.833 9.4 9.3a.5.5 0 0 1-.8-.6l3-4a.5.5 0 0 1 .4-.2M8.7 14.6a.5.5 0 0 1 .7.1l2.6 3.467 2.6-3.467a.5.5 0 0 1 .8.6l-3 4a.5.5 0 0 1-.8 0l-3-4a.5.5 0 0 1 .1-.7" clip-rule="evenodd"/></symbol><symbol id="download" fill="currentColor" viewBox="0 0 24 24"><path d="m12.733 16.707 5.115-4.94a.487.487 0 0 0 0-.706.53.53 0 0 0-.732 0l-4.602 4.455V3.5a.51.51 0 0 0-.518-.5.51.51 0 0 0-.518.5v12.016L6.884 11.06a.53.53 0 0 0-.733 0 .49.49 0 0 0 0 .707l5.117 4.94c.404.39 1.06.39 1.465 0"/><path fill-rule="evenodd" d="M4.5 20a.5.5 0 0 1 .5-.5h14a.5.5 0 0 1 0 1H5a.5.5 0 0 1-.5-.5" clip-rule="evenodd"/></symbol><symbol id="earth" fill="currentColor" viewBox="0 0 24 24"><path fill-rule="evenodd" d="M7.278 4.338a9 9 0 0 0-4.143 6.106h1.476a2.61 2.61 0 0 1 2.611 2.612v1.055a1.61 1.61 0 0 0 1.611 1.611 2.61 2.61 0 0 1 2.611 2.611v2.65a9 9 0 0 0 3.222-.387v-2.263a2.61 2.61 0 0 1 2.612-2.61h2.916a9 9 0 0 0 0-7.444h-.805a1.61 1.61 0 0 0-1.611 1.61 2.611 2.611 0 0 1-5.222 0 1.61 1.61 0 0 0-1.612-1.611h-.527a3.14 3.14 0 0 1-3.14-3.14v-.8zm.232-1.273a9.997 9.997 0 0 0-4.75 12.762 10 10 0 0 0 12.52 5.62.5.5 0 0 0 .103-.037A10 10 0 1 0 7.51 3.065m.768.74V5.14a2.14 2.14 0 0 0 2.139 2.139h.527a2.61 2.61 0 0 1 2.612 2.61 1.611 1.611 0 1 0 3.222 0 2.61 2.61 0 0 1 2.61-2.61h.274A9 9 0 0 0 8.278 3.806zm11.384 12.917h-2.384a1.61 1.61 0 0 0-1.611 1.611v1.886a9 9 0 0 0 3.995-3.497m-9.218 4.143v-2.532a1.61 1.61 0 0 0-1.61-1.61 2.61 2.61 0 0 1-2.612-2.612v-1.055a1.61 1.61 0 0 0-1.61-1.612H3.016a9 9 0 0 0 2.619 6.92 9 9 0 0 0 4.808 2.5z" clip-rule="evenodd"/></symbol><symbol id="email" fill="currentColor" viewBox="0 0 24 24"><g fill-rule="evenodd" clip-rule="evenodd"><path d="M21.925 7.737a.5.5 0 0 0-.688-.163l-8.328 5.14a1.59 1.59 0 0 1-1.818 0l-8.328-5.14a.5.5 0 0 0-.526.851l8.32 5.135a2.59 2.59 0 0 0 2.886 0l8.32-5.135a.5.5 0 0 0 .162-.688"/><path d="M20 5H4a1 1 0 0 0-1 1v12a1 1 0 0 0 1 1h16a1 1 0 0 0 1-1V6a1 1 0 0 0-1-1M4 4a2 2 0 0 0-2 2v12a2 2 0 0 0 2 2h16a2 2 0 0 0 2-2V6a2 2 0 0 0-2-2z"/></g></symbol><symbol id="error-info" fill="none" viewBox="0 0 14 14"><path fill="currentColor" fill-rule="evenodd" d="M6.999 3.5a.5.5 0 0 1 .501.499l.01 3.5a.5.5 0 1 1-1 .002l-.01-3.5a.5.5 0 0 1 .499-.501" clip-rule="evenodd"/><g stroke="currentColor"><circle cx="7" cy="7" r="6.5"/><path d="M6.5 10c0-.276.222-.5.495-.5h.01c.273 0 .495.224.495.5s-.222.5-.495.5h-.01A.5.5 0 0 1 6.5 10" style="fill-rule:evenodd;clip-rule:evenodd;fill:#d1453b;stroke-width:.25;stroke-linecap:round;stroke-linejoin:round"/></g></symbol><symbol id="eye" fill="currentColor" viewBox="0 0 24 24"><g fill-rule="evenodd" clip-rule="evenodd"><path d="M12 9a3 3 0 1 0 0 6 3 3 0 0 0 0-6m-2.828.172a4 4 0 1 1 5.656 5.656 4 4 0 0 1-5.656-5.656"/><path d="m2.157 12 .323.381C5.083 15.455 7.662 18.5 12 18.5c2.33 0 4.133-.882 5.719-2.176 1.275-1.04 2.386-2.325 3.516-3.632q.298-.346.6-.692-.302-.345-.6-.692c-1.13-1.307-2.24-2.591-3.516-3.632C16.133 6.382 14.33 5.5 12 5.5c-4.338 0-6.917 3.045-9.52 6.119zm-.405-1.07C4.296 7.914 7.177 4.5 12 4.5c2.62 0 4.638 1.003 6.351 2.401 1.35 1.102 2.534 2.472 3.67 3.787q.43.499.854.98a.5.5 0 0 1 0 .663q-.424.482-.854.981c-1.136 1.315-2.32 2.685-3.67 3.787C16.638 18.497 14.62 19.5 12 19.5c-4.823 0-7.704-3.414-10.248-6.43l-.632-.745a.5.5 0 0 1 0-.65q.314-.366.632-.745"/></g></symbol><symbol id="facebook" fill="none" viewBox="0 0 24 24"><g fill="currentColor"><path d="M22.5 21.45c0 .636-.32 1.05-.968 1.05h-5.449v-7.946h2.771l.42-3.405h-3.19V9.378c0-.908.25-1.635 1.592-1.635h1.907V5.036c-.583-.04-1.487-.125-2.671-.125-2.462 0-4.329 1.464-4.329 4.155v2.083H9.667v3.405h2.916V22.5H2.48c-.653 0-.98-.414-.98-1.05V2.913c0-.635.327-1.413.98-1.413h19.052c.647 0 .968.778.968 1.413z"/><path d="M22.5 21.45c0 .636-.32 1.05-.968 1.05h-5.449v-7.946h2.771l.42-3.405h-3.19V9.378c0-.908.25-1.635 1.592-1.635h1.907V5.036c-.583-.04-1.487-.125-2.671-.125-2.462 0-4.329 1.464-4.329 4.155v2.083H9.667v3.405h2.916V22.5H2.48c-.653 0-.98-.414-.98-1.05V2.913c0-.635.327-1.413.98-1.413h19.052c.647 0 .968.778.968 1.413z"/></g></symbol><symbol id="filter" fill="currentColor" viewBox="0 0 24 24"><path fill-rule="evenodd" d="M12 21c.788 0 1.568-.16 2.296-.471a6 6 0 0 0 1.947-1.341 6.2 6.2 0 0 0 1.3-2.008c.302-.75.457-1.555.457-2.367 0-1.418-.428-2.612-1.316-4.008-.342-.54-1.694-2.426-1.876-2.692-1.07-1.578-1.783-2.984-2.285-4.712a.56.56 0 0 0-.197-.29.534.534 0 0 0-.652 0 .56.56 0 0 0-.197.29c-.501 1.728-1.216 3.134-2.286 4.712-.181.266-1.533 2.152-1.876 2.692C6.429 12.2 6 13.395 6 14.813c0 .812.155 1.617.457 2.367a6.2 6.2 0 0 0 1.3 2.008A5.9 5.9 0 0 0 12 21m1.916-12.243c.066.1.866 1.229.977 1.387l.022.03c.436.622.733 1.051.857 1.247.808 1.27 1.137 2.252 1.137 3.392 0 1.342-.517 2.63-1.438 3.58A4.84 4.84 0 0 1 12 19.874a4.84 4.84 0 0 1-3.471-1.483 5.14 5.14 0 0 1-1.438-3.58c0-1.139.33-2.12 1.137-3.391.124-.196.42-.625.857-1.246l.022-.03c.111-.158.91-1.289.977-1.388.83-1.223 1.444-2.334 1.916-3.512.472 1.178 1.085 2.29 1.916 3.512z" clip-rule="evenodd"/></symbol><symbol id="form-error" fill="none" viewBox="0 0 12 12"><path fill="currentColor" fill-rule="evenodd" d="M5.995 1.406a4.594 4.594 0 1 0 0 9.188 4.594 4.594 0 0 0 0-9.188m-4.176.418a5.906 5.906 0 1 1 8.352 8.352A5.906 5.906 0 0 1 1.82 1.824m3.52 1.843c0-.363.293-.657.656-.657H6a.656.656 0 0 1 0 1.313h-.006a.656.656 0 0 1-.656-.656m.656 1.677c.362 0 .656.294.656.656v2.333a.656.656 0 1 1-1.312 0V6c0-.362.293-.656.656-.656" clip-rule="evenodd"/></symbol><symbol id="globe-large" fill="currentColor" viewBox="0 0 24 24"><path fill-rule="evenodd" d="M10.195 3.183A9 9 0 0 0 3.014 11.5h5.324c.041-2.465.392-4.705.948-6.375.254-.762.558-1.426.909-1.942M12 2a10 10 0 1 0 0 20 10 10 0 0 0 0-20m1.805 1.183a9 9 0 0 1 7.181 8.317h-5.324c-.042-2.465-.392-4.705-.948-6.375-.254-.762-.558-1.426-.909-1.942m.857 8.317c-.042-2.383-.381-4.51-.897-6.06-.277-.83-.596-1.466-.925-1.884C12.506 3.132 12.218 3 12 3s-.506.132-.84.556c-.33.418-.648 1.054-.925 1.885-.516 1.548-.855 3.676-.897 6.059zm-5.324 1h5.324c-.042 2.383-.381 4.51-.897 6.06-.277.83-.596 1.466-.925 1.884-.334.424-.622.556-.84.556s-.506-.132-.84-.556c-.33-.418-.648-1.054-.925-1.885-.516-1.548-.855-3.676-.897-6.059m-1 0H3.014a9 9 0 0 0 7.181 8.317c-.351-.516-.655-1.18-.909-1.942-.556-1.67-.907-3.91-.948-6.375m5.467 8.317c.351-.516.655-1.18.909-1.942.556-1.67.906-3.91.948-6.375h5.324a9 9 0 0 1-7.181 8.317" clip-rule="evenodd"/></symbol><symbol id="globe" fill="none" viewBox="0 0 14 15"><path fill="currentColor" fill-opacity=".45" fill-rule="evenodd" d="M7.438 14.114v.013h-.875v-.013a6.99 6.99 0 0 1-5.025-2.608l-.16-.207A6.96 6.96 0 0 1 .014 7.565H0v-.876h.013A6.96 6.96 0 0 1 1.1 3.36l.125-.188q.09-.132.186-.259A6.99 6.99 0 0 1 6.563.14V.127h.875V.14a6.99 6.99 0 0 1 5.016 2.599l.167.216a6.96 6.96 0 0 1 1.366 3.735H14v.874l-.013.001a6.96 6.96 0 0 1-1.072 3.306l-.14.213q-.092.135-.191.265l-.16.203-.22.256a6.98 6.98 0 0 1-4.766 2.306m-3.043-3.252-.136.027c.57 1.249 1.402 2.1 2.304 2.312v-2.568c-.646.02-1.26.08-1.831.17zm3.043 2.339v-2.568l.352.015c.696.037 1.353.121 1.95.241-.568 1.248-1.4 2.1-2.302 2.312m-4.042-2.105-.105.03q-.38.113-.71.242a6.2 6.2 0 0 0 1.709 1.253 6.8 6.8 0 0 1-.894-1.525m7.15.132.059-.132q.439.124.813.273a6.2 6.2 0 0 1-1.707 1.253c.316-.4.598-.87.835-1.394M2.633 7.565H.89a6.1 6.1 0 0 0 1.114 3.106q.496-.223 1.086-.397a10.4 10.4 0 0 1-.457-2.709m8.734 0h1.743a6.1 6.1 0 0 1-1.113 3.105 9 9 0 0 0-1.088-.395c.26-.823.42-1.74.458-2.71m-4.805 0H3.51c.038.904.191 1.748.43 2.494.801-.17 1.687-.276 2.623-.301zm.875 0h3.054a9.5 9.5 0 0 1-.43 2.494c-.801-.17-1.687-.276-2.622-.301zm-5.434-3.98-.046.064A6.1 6.1 0 0 0 .89 6.69h1.743c.038-.97.199-1.886.458-2.71a9 9 0 0 1-1.088-.395m1.887.77.05-.16c.8.17 1.686.276 2.622.301V6.69H3.51c.035-.84.17-1.627.38-2.333m8.106-.772-.115.052q-.45.191-.972.345c.26.823.42 1.74.458 2.71h1.743a6.1 6.1 0 0 0-1.114-3.107m-2.187.662.251-.05c.24.746.393 1.59.43 2.495H7.438l.002-2.194c.838-.023 1.637-.11 2.37-.25m-5.455-1.08-.095.2c.698.14 1.476.231 2.304.256V1.053c-.853.2-1.644.973-2.209 2.112m3.084.456V1.053c.901.212 1.734 1.064 2.303 2.312a14 14 0 0 1-2.303.256M9.71 1.633l.055.068c.32.42.603.91.84 1.457q.44-.125.814-.272A6.2 6.2 0 0 0 9.71 1.633m-5.448.013.027-.014a6.8 6.8 0 0 0-.894 1.526 9 9 0 0 1-.813-.273 6.1 6.1 0 0 1 1.68-1.239" clip-rule="evenodd"/></symbol><symbol id="grid-add" fill="currentColor" viewBox="0 0 24 24"><path fill-rule="evenodd" d="M8.5 4h-3A1.5 1.5 0 0 0 4 5.5v3A1.5 1.5 0 0 0 5.5 10h3A1.5 1.5 0 0 0 10 8.5v-3A1.5 1.5 0 0 0 8.5 4m-3-1A2.5 2.5 0 0 0 3 5.5v3A2.5 2.5 0 0 0 5.5 11h3A2.5 2.5 0 0 0 11 8.5v-3A2.5 2.5 0 0 0 8.5 3zm13 1h-3A1.5 1.5 0 0 0 14 5.5v3a1.5 1.5 0 0 0 1.5 1.5h3A1.5 1.5 0 0 0 20 8.5v-3A1.5 1.5 0 0 0 18.5 4m-3-1A2.5 2.5 0 0 0 13 5.5v3a2.5 2.5 0 0 0 2.5 2.5h3A2.5 2.5 0 0 0 21 8.5v-3A2.5 2.5 0 0 0 18.5 3zm-7 11h-3A1.5 1.5 0 0 0 4 15.5v3A1.5 1.5 0 0 0 5.5 20h3a1.5 1.5 0 0 0 1.5-1.5v-3A1.5 1.5 0 0 0 8.5 14m-3-1A2.5 2.5 0 0 0 3 15.5v3A2.5 2.5 0 0 0 5.5 21h3a2.5 2.5 0 0 0 2.5-2.5v-3A2.5 2.5 0 0 0 8.5 13zM17 13a.5.5 0 0 1 .5.5v3h3a.5.5 0 0 1 0 1h-3v3a.5.5 0 0 1-1 0v-3h-3a.5.5 0 0 1 0-1h3v-3a.5.5 0 0 1 .5-.5" clip-rule="evenodd"/></symbol><symbol id="heart" fill="currentColor" viewBox="0 0 24 24"><g fill-rule="evenodd" clip-rule="evenodd"><path d="M14.134 4.182c.844-.496 1.694-.682 2.666-.682 2.053 0 4.7 1.915 4.7 5.071 0 1.578-.665 3.254-2.128 5.162-1.463 1.906-3.75 4.079-7.065 6.661a.5.5 0 0 1-.614-.788c3.285-2.56 5.498-4.673 6.885-6.482 1.387-1.806 1.922-3.273 1.922-4.553 0-2.558-2.153-4.071-3.7-4.071-.828 0-1.496.154-2.16.544-.68.398-1.385 1.06-2.252 2.128a.5.5 0 1 1-.776-.63c.898-1.107 1.692-1.874 2.522-2.36"/><path d="M9.866 4.182C9.022 3.686 8.172 3.5 7.2 3.5c-2.053 0-4.7 1.915-4.7 5.071 0 1.578.664 3.254 2.128 5.162 1.463 1.906 3.75 4.079 7.065 6.661a.5.5 0 0 0 .614-.788c-3.285-2.56-5.498-4.673-6.885-6.482C4.036 11.318 3.5 9.851 3.5 8.571 3.5 6.013 5.653 4.5 7.2 4.5c.828 0 1.496.154 2.16.544.68.398 1.385 1.06 2.252 2.128a.5.5 0 1 0 .776-.63c-.898-1.107-1.692-1.874-2.522-2.36"/></g></symbol><symbol id="inbox" fill="currentColor" viewBox="0 0 24 24"><path fill-rule="evenodd" d="M4.949 4.394A2.5 2.5 0 0 1 7.374 2.5h9.252a2.5 2.5 0 0 1 2.425 1.894l2.449 9.794V19a2.5 2.5 0 0 1-2.5 2.5H5A2.5 2.5 0 0 1 2.5 19v-4.812zM7.374 3.5A1.5 1.5 0 0 0 5.92 4.636L3.5 14.312V19A1.5 1.5 0 0 0 5 20.5h14a1.5 1.5 0 0 0 1.5-1.5v-4.688l-2.419-9.676A1.5 1.5 0 0 0 16.626 3.5zM5.5 15a.5.5 0 0 1 .5-.5h3a.5.5 0 0 1 .49.4v.002l.003.013.016.061a3.3 3.3 0 0 0 .463.987C10.34 16.488 10.95 17 12 17s1.66-.512 2.028-1.037a3.3 3.3 0 0 0 .479-1.048l.003-.013A.5.5 0 0 1 15 14.5h3a.5.5 0 0 1 0 1h-2.625l-.023.063a4.3 4.3 0 0 1-.505.974C14.34 17.262 13.45 18 12 18s-2.34-.738-2.847-1.463a4.3 4.3 0 0 1-.528-1.037H6a.5.5 0 0 1-.5-.5" clip-rule="evenodd"/></symbol><symbol id="instagram" fill="none" viewBox="0 0 24 25"><g fill="currentColor"><path fill-rule="evenodd" d="M6.608 12.18a5.392 5.392 0 1 1 10.784 0 5.392 5.392 0 0 1-10.784 0M12 15.68a3.5 3.5 0 1 1 0-7 3.5 3.5 0 0 1 0 7" clip-rule="evenodd"/><path d="M17.605 7.835a1.26 1.26 0 1 0 0-2.52 1.26 1.26 0 0 0 0 2.52"/><path fill-rule="evenodd" d="M12 1.68c-2.852 0-3.21.012-4.33.063-1.117.05-1.88.228-2.548.488a5.15 5.15 0 0 0-1.86 1.211 5.15 5.15 0 0 0-1.21 1.86c-.26.668-.438 1.431-.489 2.549-.05 1.12-.063 1.477-.063 4.329s.012 3.209.063 4.329c.051 1.117.229 1.88.488 2.549.269.69.628 1.276 1.211 1.86.584.583 1.17.942 1.86 1.21.668.26 1.431.438 2.549.489 1.12.05 1.477.063 4.329.063s3.21-.012 4.33-.063c1.117-.051 1.88-.229 2.548-.488a5.15 5.15 0 0 0 1.86-1.212 5.15 5.15 0 0 0 1.21-1.86c.26-.667.438-1.43.489-2.548.05-1.12.063-1.478.063-4.33 0-2.85-.012-3.209-.063-4.328-.051-1.118-.229-1.881-.488-2.55a5.15 5.15 0 0 0-1.211-1.859 5.15 5.15 0 0 0-1.86-1.211c-.668-.26-1.431-.437-2.549-.488-1.12-.051-1.477-.063-4.329-.063m0 1.892c2.804 0 3.136.01 4.243.06 1.024.047 1.58.219 1.95.362.49.19.84.418 1.207.786.367.367.595.717.785 1.207.144.37.315.926.362 1.95.05 1.107.061 1.44.061 4.243s-.01 3.135-.061 4.243c-.047 1.023-.218 1.58-.362 1.95-.19.49-.418.84-.785 1.207s-.717.595-1.207.785c-.37.144-.926.315-1.95.362-1.107.05-1.44.06-4.243.06s-3.136-.01-4.243-.06c-1.024-.047-1.58-.218-1.95-.362-.49-.19-.84-.418-1.207-.785a3.25 3.25 0 0 1-.785-1.208c-.144-.37-.315-.926-.362-1.95-.05-1.107-.061-1.439-.061-4.242s.01-3.136.061-4.243c.047-1.024.218-1.58.362-1.95.19-.49.418-.84.785-1.207a3.25 3.25 0 0 1 1.207-.786c.37-.143.926-.315 1.95-.361 1.107-.05 1.44-.061 4.243-.061" clip-rule="evenodd"/><path fill-rule="evenodd" d="M6.608 12.18a5.392 5.392 0 1 1 10.784 0 5.392 5.392 0 0 1-10.784 0M12 15.68a3.5 3.5 0 1 1 0-7 3.5 3.5 0 0 1 0 7" clip-rule="evenodd"/><path d="M17.605 7.835a1.26 1.26 0 1 0 0-2.52 1.26 1.26 0 0 0 0 2.52"/><path fill-rule="evenodd" d="M12 1.68c-2.852 0-3.21.012-4.33.063-1.117.05-1.88.228-2.548.488a5.15 5.15 0 0 0-1.86 1.211 5.15 5.15 0 0 0-1.21 1.86c-.26.668-.438 1.431-.489 2.549-.05 1.12-.063 1.477-.063 4.329s.012 3.209.063 4.329c.051 1.117.229 1.88.488 2.549.269.69.628 1.276 1.211 1.86.584.583 1.17.942 1.86 1.21.668.26 1.431.438 2.549.489 1.12.05 1.477.063 4.329.063s3.21-.012 4.33-.063c1.117-.051 1.88-.229 2.548-.488a5.15 5.15 0 0 0 1.86-1.212 5.15 5.15 0 0 0 1.21-1.86c.26-.667.438-1.43.489-2.548.05-1.12.063-1.478.063-4.33 0-2.85-.012-3.209-.063-4.328-.051-1.118-.229-1.881-.488-2.55a5.15 5.15 0 0 0-1.211-1.859 5.15 5.15 0 0 0-1.86-1.211c-.668-.26-1.431-.437-2.549-.488-1.12-.051-1.477-.063-4.329-.063m0 1.892c2.804 0 3.136.01 4.243.06 1.024.047 1.58.219 1.95.362.49.19.84.418 1.207.786.367.367.595.717.785 1.207.144.37.315.926.362 1.95.05 1.107.061 1.44.061 4.243s-.01 3.135-.061 4.243c-.047 1.023-.218 1.58-.362 1.95-.19.49-.418.84-.785 1.207s-.717.595-1.207.785c-.37.144-.926.315-1.95.362-1.107.05-1.44.06-4.243.06s-3.136-.01-4.243-.06c-1.024-.047-1.58-.218-1.95-.362-.49-.19-.84-.418-1.207-.785a3.25 3.25 0 0 1-.785-1.208c-.144-.37-.315-.926-.362-1.95-.05-1.107-.061-1.439-.061-4.242s.01-3.136.061-4.243c.047-1.024.218-1.58.362-1.95.19-.49.418-.84.785-1.207a3.25 3.25 0 0 1 1.207-.786c.37-.143.926-.315 1.95-.361 1.107-.05 1.44-.061 4.243-.061" clip-rule="evenodd"/></g></symbol><symbol id="karma" fill="currentColor" viewBox="0 0 24 24"><g fill-rule="evenodd" clip-rule="evenodd"><path d="M12 21a9 9 0 1 0 0-18 9 9 0 0 0 0 18m0 1c5.523 0 10-4.477 10-10S17.523 2 12 2 2 6.477 2 12s4.477 10 10 10"/><path d="m13 18.227 1.664-1.48c.217-.192.46-.504.672-.8.23-.318.48-.701.711-1.093.232-.39.455-.804.625-1.187.148-.334.328-.798.328-1.223 0-1.474.032-2.82.8-3.844a1 1 0 0 0-1.084-1.559l-1.21.359A3.5 3.5 0 0 0 13 10.756v7.47zm2-3.576c.512-.818 1-1.768 1-2.207 0-1.003 0-2.152.36-3.211.145-.431.35-.847.64-1.233l-1.21.359A2.5 2.5 0 0 0 14 10.756V16c.215-.19.614-.732 1-1.349m-4 3.576-1.664-1.48c-.217-.192-.46-.504-.672-.8-.23-.318-.48-.701-.711-1.093a12 12 0 0 1-.625-1.187C7.18 13.333 7 12.87 7 12.444c0-1.474-.032-2.82-.8-3.844a1 1 0 0 1 1.084-1.559l1.21.359A3.5 3.5 0 0 1 11 10.756v7.47zM9 14.65c-.512-.818-1-1.768-1-2.207 0-1.003 0-2.152-.36-3.211A4.4 4.4 0 0 0 7 8l1.21.359A2.5 2.5 0 0 1 10 10.756V16c-.215-.19-.614-.732-1-1.349z"/></g></symbol><symbol id="label" fill="currentColor" viewBox="0 0 24 24"><path fill-rule="evenodd" d="M11.689 4c-.325 0-.636.129-.865.358l-7.466 7.466a1.22 1.22 0 0 0-.358.865c0 .313.12.625.358.864l7.089 7.089a1.221 1.221 0 0 0 1.729 0l7.466-7.466c.23-.23.358-.54.358-.865V5.223c0-.338-.136-.643-.358-.865A1.22 1.22 0 0 0 18.777 4zm-1.572-.349A2.22 2.22 0 0 1 11.689 3h7.088A2.22 2.22 0 0 1 21 5.223v7.088c0 .59-.234 1.155-.651 1.572l-7.466 7.466a2.22 2.22 0 0 1-1.572.651 2.22 2.22 0 0 1-1.571-.651L2.65 14.26A2.22 2.22 0 0 1 2 12.69c0-.569.217-1.138.651-1.572z" clip-rule="evenodd"/><path d="M14.75 10.5a1.25 1.25 0 1 0 0-2.5 1.25 1.25 0 0 0 0 2.5"/></symbol><symbol id="lightbulb" fill="currentColor" viewBox="0 0 24 24"><path d="M12 7c3.052 0 5.5 2.448 5.5 5.5 0 1.32-.392 2.274-1.266 3.561-.093.137-.412.597-.425.616-.588.856-.891 1.411-1.078 2.02l-.468 2.338a1.2 1.2 0 0 1-1.177.965h-2.172a1.2 1.2 0 0 1-1.177-.965l-.458-2.29c-.21-.68-.512-1.23-1.088-2.068-.013-.019-.332-.479-.425-.616C6.893 14.774 6.5 13.82 6.5 12.5 6.5 9.448 8.948 7 12 7m1.65 12h-3.3l.368 1.84a.2.2 0 0 0 .196.16h2.172a.2.2 0 0 0 .196-.16zM12 8c-2.5 0-4.5 2-4.5 4.5 0 2.326 1.73 3.353 2.576 5.498h3.848c.845-2.145 2.576-3.172 2.576-5.498 0-2.5-2-4.5-4.5-4.5m7.582 7.1 1.848.765a.5.5 0 1 1-.383.924l-1.847-.766a.5.5 0 1 1 .382-.923m-14.511.27a.5.5 0 0 1-.27.653l-1.848.766a.5.5 0 1 1-.383-.924l1.848-.765a.5.5 0 0 1 .653.27M21.7 8.482a.5.5 0 0 1-.27.653l-1.849.766a.5.5 0 0 1-.382-.924l1.848-.766a.5.5 0 0 1 .653.27zm-18.748-.27 1.847.765a.5.5 0 0 1-.382.924L2.57 9.135a.5.5 0 1 1 .383-.924zm13.065-5.413a.5.5 0 0 1 .27.654L15.524 5.3a.5.5 0 0 1-.923-.382l.765-1.848a.5.5 0 0 1 .653-.27zm-7.383.27.766 1.85a.5.5 0 0 1-.923.382L7.71 3.453a.5.5 0 0 1 .924-.383z"/></symbol><symbol id="lightning-bolt" fill="currentColor" viewBox="0 0 24 24"><path fill-rule="evenodd" d="M10 20a1 1 0 0 0 1.82.572l7-10A1 1 0 0 0 18 9h-4V4a1 1 0 0 0-.696-.953h-.007a1 1 0 0 0-.595 0h-.003a1 1 0 0 0-.518.38l-7 10A1 1 0 0 0 6 15h4zm-4-6h5v6l7-10h-5V4z" clip-rule="evenodd"/></symbol><symbol id="link" fill="currentColor" viewBox="0 0 24 24"><path fill-rule="evenodd" d="M13.775 4.197a4.263 4.263 0 0 1 6.028 6.028l-.005.006-3.79 3.79a4.263 4.263 0 0 1-6.028 0 .474.474 0 1 1 .67-.67 3.316 3.316 0 0 0 4.688 0l3.787-3.787a3.315 3.315 0 0 0-4.689-4.689l-1.039 1.04a.474.474 0 1 1-.67-.67zm-5.69 5.69a4.263 4.263 0 0 1 6.028 0 .474.474 0 0 1-.67.67 3.316 3.316 0 0 0-4.688 0L4.96 14.352a3.316 3.316 0 1 0 4.688 4.688l.006-.006 1.044-1.043a.474.474 0 1 1 .67.67l-1.041 1.04a4.264 4.264 0 1 1-6.029-6.028z" clip-rule="evenodd"/></symbol><symbol id="lock-box" fill="currentColor" viewBox="0 0 24 24"><path fill-rule="evenodd" d="M20 3H4a1 1 0 0 0-1 1v16a1 1 0 0 0 1 1h16a1 1 0 0 0 1-1V4a1 1 0 0 0-1-1M4 2a2 2 0 0 0-2 2v16a2 2 0 0 0 2 2h16a2 2 0 0 0 2-2V4a2 2 0 0 0-2-2z" clip-rule="evenodd"/><path fill-rule="evenodd" d="M7 11a1 1 0 0 1 1-1h1V9a3 3 0 1 1 6 0v1h1a1 1 0 0 1 1 1v6a1 1 0 0 1-1 1H8a1 1 0 0 1-1-1zm2 0H8v6h8v-6zm1-2a2 2 0 1 1 4 0v1h-4z" clip-rule="evenodd"/><path d="M13 14a1 1 0 1 1-2 0 1 1 0 0 1 2 0"/></symbol><symbol id="lock" fill="currentColor" viewBox="0 0 24 24"><path fill-rule="evenodd" d="M8.642 3.382A4.76 4.76 0 0 1 12 2c1.259 0 2.466.497 3.358 1.382a4.7 4.7 0 0 1 1.392 3.34V10h1.625c.695 0 1.363.274 1.855.764.493.489.77 1.154.77 1.847v6.778a2.6 2.6 0 0 1-.77 1.847c-.492.49-1.16.764-1.855.764H5.625a2.63 2.63 0 0 1-1.855-.764A2.6 2.6 0 0 1 3 19.39v-6.78a2.6 2.6 0 0 1 .77-1.847A2.63 2.63 0 0 1 5.625 10H7.25V6.722c0-1.253.501-2.455 1.392-3.34M8.25 10h7.5V6.722c0-.986-.394-1.932-1.097-2.63A3.76 3.76 0 0 0 12 3c-.996 0-1.95.393-2.653 1.091A3.7 3.7 0 0 0 8.25 6.722zm-2.625 1c-.432 0-.846.17-1.15.473A1.6 1.6 0 0 0 4 12.611v6.778c0 .426.17.836.475 1.138s.718.473 1.15.473h12.75c.432 0 .846-.17 1.15-.473.305-.302.475-.712.475-1.138V12.61c0-.426-.17-.836-.475-1.138a1.63 1.63 0 0 0-1.15-.473H5.625zM12 14.5a.5.5 0 0 1 .5.5v2a.5.5 0 0 1-1 0v-2a.5.5 0 0 1 .5-.5" clip-rule="evenodd"/></symbol><symbol id="magnifying-glass" fill="none" viewBox="0 0 14 14"><path fill="currentColor" fill-rule="evenodd" d="M6.417 1.969a4.448 4.448 0 1 0 0 8.896 4.448 4.448 0 0 0 0-8.896m-4.074.374A5.76 5.76 0 0 1 10.927 10l2.662 2.662a.656.656 0 1 1-.928.928l-2.662-2.662a5.76 5.76 0 0 1-7.656-8.584m4.074 1.23c.362 0 .656.294.656.656V5.76h1.531a.656.656 0 0 1 0 1.313H7.073v1.531a.656.656 0 0 1-1.313 0V7.073H4.23a.656.656 0 0 1 0-1.313h1.53V4.23c0-.363.294-.657.657-.657" clip-rule="evenodd"/></symbol><symbol id="message" fill="currentColor" viewBox="0 0 24 24"><path d="M8.5 19c.28 0 .531.116.79.344.268.236.511.564.765.937.24.351.503.768.776 1.08.267.305.65.639 1.169.639v-1c-.064 0-.192-.041-.417-.298-.22-.251-.43-.584-.7-.983-.257-.377-.56-.799-.931-1.125C9.572 18.259 9.095 18 8.5 18zm3.5 3c.519 0 .902-.334 1.17-.64.272-.31.536-.728.775-1.079.254-.373.497-.701.765-.937.259-.229.51-.344.79-.344v-1c-.595 0-1.073.26-1.452.594-.37.326-.674.748-.93 1.125-.272.399-.482.732-.701.983-.225.257-.353.298-.417.298z"/><circle cx="12" cy="11" r="1"/><circle cx="17" cy="11" r="1"/><circle cx="7" cy="11" r="1"/><path fill-rule="evenodd" d="M4 4h16a1 1 0 0 1 1 1v12a1 1 0 0 1-1 1h-4.5v1H20a2 2 0 0 0 2-2V5a2 2 0 0 0-2-2H4a2 2 0 0 0-2 2v12a2 2 0 0 0 2 2h4.5v-1H4a1 1 0 0 1-1-1V5a1 1 0 0 1 1-1" clip-rule="evenodd"/></symbol><symbol id="microphone" fill="currentColor" viewBox="0 0 24 24"><path fill-rule="evenodd" d="M12 2.5A2.5 2.5 0 0 0 9.5 5v6a2.5 2.5 0 0 0 5 0V5A2.5 2.5 0 0 0 12 2.5m-2.475.025A3.5 3.5 0 0 1 15.5 5v6a3.5 3.5 0 1 1-7 0V5a3.5 3.5 0 0 1 1.025-2.475M5 10.5a.5.5 0 0 1 .5.5 6.5 6.5 0 0 0 13 0 .5.5 0 0 1 1 0 7.5 7.5 0 0 1-7 7.483V21.5H16a.5.5 0 0 1 0 1H8a.5.5 0 0 1 0-1h3.5v-3.017A7.5 7.5 0 0 1 4.5 11a.5.5 0 0 1 .5-.5" clip-rule="evenodd"/></symbol><symbol id="multiple-communication" fill="currentColor" viewBox="0 0 24 24"><path d="M4.918 4.315a.455.455 0 1 0-.381.826l5.909 2.727a.45.45 0 0 0 .38 0l5.91-2.727a.455.455 0 0 0-.381-.826l-5.719 2.64z"/><path fill-rule="evenodd" d="M18.607 2.666A2.27 2.27 0 0 0 17 2H4.273A2.27 2.27 0 0 0 2 4.273v8.184a2.273 2.273 0 0 0 2.273 2.273h1.363v3.646a1.82 1.82 0 0 0 1.819 1.818H12v1.897a.91.91 0 0 0 1.552.643l2.539-2.54h4.09A1.82 1.82 0 0 0 22 18.376V11.01a1.82 1.82 0 0 0-1.818-1.819h-.91V4.273c0-.603-.239-1.18-.665-1.607M5.637 11.01v2.81H4.272a1.364 1.364 0 0 1-1.364-1.364V4.273A1.364 1.364 0 0 1 4.273 2.91H17a1.363 1.363 0 0 1 1.364 1.364v4.92H7.454a1.82 1.82 0 0 0-1.818 1.818zm14.545-.91H7.455a.91.91 0 0 0-.91.91v7.365a.91.91 0 0 0 .91.909h5.454v2.806l2.805-2.806h4.468a.91.91 0 0 0 .909-.91V11.01a.91.91 0 0 0-.91-.91z" clip-rule="evenodd"/></symbol><symbol id="new-tab" fill="currentColor" viewBox="0 0 24 24"><path fill-rule="evenodd" d="M20 3H7a1 1 0 0 0-1 1v13a1 1 0 0 0 1 1h13a1 1 0 0 0 1-1V4a1 1 0 0 0-1-1M7 2a2 2 0 0 0-2 2v1H4a2 2 0 0 0-2 2v13a2 2 0 0 0 2 2h13a2 2 0 0 0 2-2v-1h1a2 2 0 0 0 2-2V4a2 2 0 0 0-2-2zM4 6h1v11a2 2 0 0 0 2 2h11v1a1 1 0 0 1-1 1H4a1 1 0 0 1-1-1V7a1 1 0 0 1 1-1m7.5 0a.5.5 0 0 0 0 1h4.793l-7.147 7.146a.5.5 0 1 0 .708.707L17 7.708V12.5a.5.5 0 0 0 1 0v-6a.5.5 0 0 0-.5-.5z" clip-rule="evenodd"/></symbol><symbol id="person" fill="currentColor" viewBox="0 0 24 24"><path fill-rule="evenodd" d="M12 14.5c-3.66 0-6.251.777-7.877 2.23a1.89 1.89 0 0 0-.623 1.406c0 1.04.822 1.864 1.814 1.864h13.372c.52 0 1.016-.229 1.361-.632a1.9 1.9 0 0 0-.17-2.637C18.251 15.277 15.661 14.5 12 14.5m-8.544 1.485C5.346 14.295 8.23 13.5 12 13.5s6.654.795 8.544 2.485a2.9 2.9 0 0 1 .263 4.034 2.8 2.8 0 0 1-2.12.981H5.313C3.75 21 2.5 19.708 2.5 18.136c0-.821.347-1.606.956-2.15zM12 11a3.5 3.5 0 1 0 0-7 3.5 3.5 0 0 0 0 7m4.5-3.5a4.5 4.5 0 1 1-9 0 4.5 4.5 0 0 1 9 0" clip-rule="evenodd"/></symbol><symbol id="play" fill="currentColor" viewBox="0 0 24 24"><g fill-rule="evenodd" clip-rule="evenodd"><path d="M12 3a9 9 0 1 0 0 18 9 9 0 0 0 0-18M4.929 4.929A10 10 0 1 1 19.07 19.07 10 10 0 0 1 4.93 4.93z"/><path d="M10.008 9.051a.04.04 0 0 0-.008.026v5.846q0 .015.008.026a.1.1 0 0 0 .042.034.15.15 0 0 0 .15-.005l4.76-2.923a.1.1 0 0 0 .034-.032.05.05 0 0 0 0-.046.1.1 0 0 0-.034-.032L10.2 9.022a.15.15 0 0 0-.15-.005.1.1 0 0 0-.043.034zM9 9.077c0-.911 1.031-1.331 1.722-.907l4.761 2.923c.69.423.69 1.391 0 1.814l-4.76 2.923c-.692.424-1.723.005-1.723-.907z"/></g></symbol><symbol id="plus" fill="currentColor" viewBox="0 0 24 24"><path fill-rule="evenodd" d="M12 5a.5.5 0 0 1 .5.5v6h6a.5.5 0 0 1 0 1h-6v6a.5.5 0 0 1-1 0v-6h-6a.5.5 0 0 1 0-1h6v-6A.5.5 0 0 1 12 5" clip-rule="evenodd"/></symbol><symbol id="priority" fill="currentColor" viewBox="0 0 24 24"><path fill-rule="evenodd" d="M8.5 3.5c1.113 0 1.92.196 3.658.776C13.796 4.82 14.53 5 15.5 5c1.575 0 2.813-.31 3.723-.916A.5.5 0 0 1 20 4.5V13a.5.5 0 0 1-.223.416c-1.09.727-2.519 1.084-4.277 1.084-1.113 0-1.92-.196-3.658-.776C10.204 13.18 9.47 13 8.5 13c-1.45 0-2.615.262-3.5.777V19.5a.5.5 0 0 1-.992.09L4 19.5V5a.5.5 0 0 1 .223-.416C5.313 3.857 6.742 3.5 8.5 3.5m0 1c-1.45 0-2.614.262-3.5.777v7.377q1.449-.655 3.5-.654c1.113 0 1.92.196 3.658.776 1.638.545 2.371.724 3.342.724 1.45 0 2.614-.262 3.5-.777V5.346q-1.448.656-3.5.654c-1.113 0-1.92-.196-3.658-.776C10.204 4.68 9.47 4.5 8.5 4.5" clip-rule="evenodd"/></symbol><symbol id="question" fill="currentColor" viewBox="0 0 24 24"><path fill-rule="evenodd" d="M12 22C6.477 22 2 17.523 2 12S6.477 2 12 2s10 4.477 10 10-4.477 10-10 10m0-1a9 9 0 1 0 0-18 9 9 0 0 0 0 18" clip-rule="evenodd"/><path d="M11.277 13.896q.011-.697.159-1.102.145-.404.597-.896l.768-.791q.492-.557.492-1.195 0-.615-.322-.961-.323-.352-.938-.352-.597 0-.96.317-.364.316-.364.85H9.625q.011-.95.674-1.53.667-.585 1.734-.586 1.108 0 1.723.598.621.591.621 1.629 0 1.025-.95 2.021l-.638.633q-.428.474-.428 1.365zm-.046 1.857a.63.63 0 0 1 .158-.439q.164-.182.48-.182.317 0 .48.182.165.176.165.44a.62.62 0 0 1-.164.439q-.165.17-.48.17-.318 0-.481-.17a.63.63 0 0 1-.159-.44z"/></symbol><symbol id="recurring-task" fill="currentColor" viewBox="0 0 24 24"><path fill-rule="evenodd" d="M5.146 10.146a.5.5 0 0 1 .708 0l3 3a.5.5 0 1 1-.708.708L6 11.707V14a5 5 0 0 0 4.783 4.995L11 19h4.5a.5.5 0 0 1 .09.992L15.5 20H11a6 6 0 0 1-5.996-5.775L5 14v-2.293l-2.146 2.147a.5.5 0 0 1-.638.057l-.07-.057a.5.5 0 0 1 0-.708zM13 4a6 6 0 0 1 5.996 5.775L19 10v2.292l2.146-2.146a.5.5 0 0 1 .638-.057l.07.057a.5.5 0 0 1 .057.638l-.057.07-3 3a.5.5 0 0 1-.638.057l-.07-.057-3-3a.5.5 0 0 1 .638-.765l.07.057L18 12.292V10a5 5 0 0 0-4.783-4.995L13 5H8.5a.5.5 0 0 1-.09-.992L8.5 4z" clip-rule="evenodd"/></symbol><symbol id="reminder" fill="currentColor" viewBox="0 0 24 24"><path fill-rule="evenodd" d="M12 5a7.5 7.5 0 0 1 5.645 12.438l1.709 1.708a.5.5 0 0 1-.638.765l-.07-.057-1.708-1.709A7.48 7.48 0 0 1 12 20c-1.89 0-3.619-.7-4.938-1.855l-1.708 1.709a.5.5 0 0 1-.765-.638l.057-.07 1.709-1.708A7.5 7.5 0 0 1 12 5m0 1a6.5 6.5 0 1 0 0 13 6.5 6.5 0 0 0 0-13m-.5 1.5a.5.5 0 0 1 .492.41L12 8v4h2.5a.5.5 0 0 1 .09.992L14.5 13h-3a.5.5 0 0 1-.492-.41L11 12.5V8a.5.5 0 0 1 .5-.5M4.232 4.06a2.5 2.5 0 0 1 3.536 0l.337.338a.5.5 0 0 1-.707.707l-.337-.337a1.5 1.5 0 0 0-2.122 0l-.671.671a1.5 1.5 0 0 0 0 2.122l.337.337a.5.5 0 0 1-.707.707l-.337-.337a2.5 2.5 0 0 1 0-3.536zm15.405-.121.13.122.672.671a2.5 2.5 0 0 1 .122 3.405l-.122.13-.335.337a.5.5 0 0 1-.765-.638l.057-.07.336-.335a1.5 1.5 0 0 0 .103-2.008l-.103-.114-.671-.671a1.5 1.5 0 0 0-2.008-.103l-.114.103-.335.336a.5.5 0 0 1-.765-.638l.057-.07.336-.335a2.5 2.5 0 0 1 3.405-.122" clip-rule="evenodd"/></symbol><symbol id="rss" fill="currentColor" viewBox="0 0 24 24"><path fill-rule="evenodd" d="M5.273.96A4.773 4.773 0 0 0 .5 5.731v11.455a4.773 4.773 0 0 0 4.773 4.772h11.454a4.773 4.773 0 0 0 4.773-4.773V5.732A4.773 4.773 0 0 0 16.727.959zm2.863 15.75a2.386 2.386 0 1 1-4.772 0 2.386 2.386 0 0 1 4.772 0M5.648 6.685q-.618 0-1.216.073a.955.955 0 0 1-.227-1.896q.71-.086 1.443-.086c6.646 0 12.034 5.388 12.034 12.035q-.001.731-.086 1.442a.955.955 0 0 1-1.895-.226q.071-.598.072-1.216c0-5.592-4.533-10.126-10.125-10.126m-1.162 4.86q.475-.086.978-.087a5.536 5.536 0 0 1 5.45 6.515.955.955 0 0 0 1.88.334q.114-.64.115-1.312a7.445 7.445 0 0 0-8.758-7.33.955.955 0 1 0 .335 1.88" clip-rule="evenodd"/></symbol><symbol id="safety" fill="currentColor" viewBox="0 0 24 24"><g fill-rule="evenodd" clip-rule="evenodd"><path d="M12 15.5a3.5 3.5 0 1 0 0-7 3.5 3.5 0 0 0 0 7m0 1a4.5 4.5 0 1 0 0-9 4.5 4.5 0 0 0 0 9"/><path d="M12 21a9 9 0 1 0 0-18 9 9 0 0 0 0 18m0 1c5.523 0 10-4.477 10-10S17.523 2 12 2 2 6.477 2 12s4.477 10 10 10"/><path d="m5.354 4.646 4 4-.708.708-4-4zm14 .708-4 4-.708-.708 4-4zm-9.5 9.5-4.5 4.5-.708-.708 4.5-4.5zm8.792 4.5-4-4 .708-.708 4 4z"/></g></symbol><symbol id="search" fill="currentColor" viewBox="0 0 24 24"><path fill-rule="evenodd" d="M10 3.5a6.5 6.5 0 1 0 0 13 6.5 6.5 0 0 0 0-13M4.697 4.697a7.5 7.5 0 0 1 10.948 10.24l5.709 5.71a.5.5 0 0 1-.708.707l-5.708-5.709A7.5 7.5 0 0 1 4.697 4.697" clip-rule="evenodd"/></symbol><symbol id="section-todoist" fill="currentColor" viewBox="0 0 24 24"><path fill-rule="evenodd" d="M4 3.5a.5.5 0 0 0 .5.5h15a.5.5 0 0 0 0-1h-15a.5.5 0 0 0-.5.5M18 6H6a2 2 0 0 0-2 2v8a2 2 0 0 0 2 2h12a2 2 0 0 0 2-2V8a2 2 0 0 0-2-2M4 20.5a.5.5 0 0 0 .5.5h15a.5.5 0 0 0 0-1h-15a.5.5 0 0 0-.5.5M6 7a1 1 0 0 0-1 1v8a1 1 0 0 0 1 1h12a1 1 0 0 0 1-1V8a1 1 0 0 0-1-1z" clip-rule="evenodd"/></symbol><symbol id="section" fill="currentColor" viewBox="0 0 24 24"><path fill-rule="evenodd" d="M5.75 16.25a1.25 1.25 0 1 1 0 2.5 1.25 1.25 0 0 1 0-2.5M19.5 17a.5.5 0 0 1 0 1h-9a.5.5 0 0 1 0-1zM5.75 10.25a1.25 1.25 0 1 1 0 2.5 1.25 1.25 0 0 1 0-2.5M19.5 11a.5.5 0 0 1 0 1h-9a.5.5 0 0 1 0-1zM5.75 4.25a1.25 1.25 0 1 1 0 2.5 1.25 1.25 0 0 1 0-2.5M19.5 5a.5.5 0 0 1 0 1h-9a.5.5 0 0 1 0-1z" clip-rule="evenodd"/></symbol><symbol id="select-arrows" viewBox="0 0 6 12"><path fill="currentColor" d="m3 0 3 5H0zm0 12L0 7h6z"/></symbol><symbol id="social-facebook" fill="currentColor" viewBox="0 0 24 24"><path d="M23 12.067C23 5.955 18.075 1 12 1S1 5.955 1 12.067C1 17.591 5.023 22.17 10.281 23v-7.734H7.488v-3.199h2.793V9.63c0-2.774 1.643-4.306 4.155-4.306 1.203 0 2.462.216 2.462.216v2.724h-1.387c-1.366 0-1.792.853-1.792 1.73v2.074h3.05l-.487 3.2h-2.563V23C18.977 22.17 23 17.591 23 12.067"/></symbol><symbol id="social-instagram" fill="currentColor" viewBox="0 0 24 24"><path fill-rule="evenodd" d="M6.608 12a5.392 5.392 0 1 1 10.784 0 5.392 5.392 0 0 1-10.784 0M12 15.5a3.5 3.5 0 1 1 0-7 3.5 3.5 0 0 1 0 7" clip-rule="evenodd"/><path d="M17.605 7.655a1.26 1.26 0 1 0 0-2.52 1.26 1.26 0 0 0 0 2.52"/><path fill-rule="evenodd" d="M12 1.5c-2.852 0-3.21.012-4.33.063-1.117.051-1.88.229-2.548.488a5.15 5.15 0 0 0-1.86 1.211 5.15 5.15 0 0 0-1.21 1.86c-.26.668-.438 1.431-.489 2.549C1.513 8.79 1.5 9.148 1.5 12s.012 3.21.063 4.33c.051 1.117.229 1.88.488 2.548.269.69.628 1.276 1.211 1.86.584.583 1.17.942 1.86 1.21.668.26 1.431.438 2.549.489 1.12.05 1.477.063 4.329.063s3.21-.012 4.33-.063c1.117-.051 1.88-.229 2.548-.488a5.15 5.15 0 0 0 1.86-1.211 5.15 5.15 0 0 0 1.21-1.86c.26-.668.438-1.431.489-2.549.05-1.12.063-1.477.063-4.329s-.012-3.21-.063-4.33c-.051-1.117-.229-1.88-.488-2.548a5.15 5.15 0 0 0-1.211-1.86 5.15 5.15 0 0 0-1.86-1.21c-.668-.26-1.431-.438-2.549-.489C15.21 1.513 14.852 1.5 12 1.5m0 1.892c2.804 0 3.136.01 4.243.061 1.024.047 1.58.218 1.95.362.49.19.84.418 1.207.785s.595.717.785 1.207c.144.37.315.926.362 1.95.05 1.107.061 1.44.061 4.243s-.01 3.136-.061 4.243c-.047 1.024-.218 1.58-.362 1.95-.19.49-.418.84-.785 1.207a3.25 3.25 0 0 1-1.207.785c-.37.144-.926.315-1.95.362-1.107.05-1.44.061-4.243.061s-3.136-.01-4.243-.061c-1.024-.047-1.58-.218-1.95-.362-.49-.19-.84-.418-1.207-.785a3.25 3.25 0 0 1-.785-1.207c-.144-.37-.315-.926-.362-1.95-.05-1.107-.061-1.44-.061-4.243s.01-3.136.061-4.243c.047-1.024.218-1.58.362-1.95.19-.49.418-.84.785-1.207a3.25 3.25 0 0 1 1.207-.785c.37-.144.926-.315 1.95-.362 1.107-.05 1.44-.061 4.243-.061" clip-rule="evenodd"/></symbol><symbol id="social-linkedin" fill="currentColor" viewBox="0 0 24 24"><path d="M20.951 1.5H3.05c-.85 0-1.55.674-1.55 1.505v17.99c0 .831.7 1.505 1.549 1.505H20.95c.858 0 1.549-.674 1.549-1.505V3.005c0-.831-.7-1.505-1.549-1.505zM7.861 19.087H4.694V9.585H7.86zM6.286 8.29H6.26c-1.067 0-1.75-.726-1.75-1.636 0-.928.7-1.636 1.794-1.636 1.085 0 1.75.7 1.767 1.636 0 .91-.682 1.636-1.793 1.636zm13.012 10.797H16.12v-5.075c0-1.268-.455-2.143-1.601-2.143-.875 0-1.4.586-1.636 1.155-.088.201-.097.481-.097.77v5.293H9.62s.044-8.592 0-9.485h3.176v1.348a3.15 3.15 0 0 1 2.853-1.575c2.091 0 3.657 1.365 3.657 4.279v5.433h-.009z"/></symbol><symbol id="social-twitter" fill="currentColor" viewBox="0 0 24 24"><path d="M22.393 3.339a8.9 8.9 0 0 1-2.868 1.121A4.45 4.45 0 0 0 16.23 3c-2.49 0-4.512 2.072-4.512 4.628q0 .545.116 1.054c-3.75-.193-7.076-2.034-9.304-4.837a4.7 4.7 0 0 0-.61 2.329c0 1.605.796 3.022 2.008 3.852a4.4 4.4 0 0 1-2.046-.577v.056c0 2.244 1.556 4.115 3.622 4.539a4.3 4.3 0 0 1-1.19.162q-.436 0-.849-.081c.575 1.838 2.24 3.177 4.216 3.212A8.9 8.9 0 0 1 1 19.256a12.56 12.56 0 0 0 6.919 2.077c8.303 0 12.842-7.05 12.842-13.167q0-.304-.011-.6A9.3 9.3 0 0 0 23 5.17a8.8 8.8 0 0 1-2.592.729 4.62 4.62 0 0 0 1.985-2.56"/></symbol><symbol id="social-youtube" fill="currentColor" viewBox="0 0 24 24"><path fill-rule="evenodd" d="M3.598 4.242C6.958 4 11.995 4 11.995 4h.01s5.038 0 8.396.242l.155.016c.515.05 1.427.138 2.25.995.72.725.954 2.371.954 2.371S24 9.557 24 11.49v1.812c0 1.933-.24 3.866-.24 3.866s-.234 1.646-.954 2.371c-.823.858-1.735.946-2.25.996q-.085.007-.155.016C17.043 20.792 12 20.8 12 20.8s-6.24-.057-8.16-.24q-.138-.024-.327-.045c-.609-.073-1.562-.187-2.32-.976-.719-.725-.953-2.37-.953-2.37S0 15.234 0 13.301V11.49c0-1.933.24-3.866.24-3.866s.234-1.646.954-2.37c.823-.858 1.735-.947 2.25-.996q.085-.008.154-.016m12.408 7.912L9.521 8.787l.001 6.711z" clip-rule="evenodd"/></symbol><symbol id="sort" fill="none" viewBox="0 0 24 24"><path fill="currentColor" fill-rule="evenodd" d="M7.5 5a.5.5 0 0 0-.5.5v11.793l-2.146-2.147a.5.5 0 0 0-.708.708l3 3a.5.5 0 0 0 .708 0l3-3a.5.5 0 0 0-.708-.708L8 17.293V5.5a.5.5 0 0 0-.5-.5m5.646 3.854a.5.5 0 0 0 .708 0L16 6.707V18.5a.5.5 0 0 0 1 0V6.707l2.146 2.147a.5.5 0 0 0 .708-.708l-3-3a.5.5 0 0 0-.708 0l-3 3a.5.5 0 0 0 0 .708" clip-rule="evenodd"/></symbol><symbol id="star" fill="currentColor" viewBox="0 0 24 24"><path d="M17.139 21.36c-.31 0-.61-.1-.88-.29l-3.98-2.89a.53.53 0 0 0-.59 0l-3.98 2.89c-.53.39-1.23.39-1.76 0-.54-.39-.75-1.05-.55-1.68l1.52-4.67a.52.52 0 0 0-.18-.56l-3.97-2.89a1.48 1.48 0 0 1-.54-1.68c.21-.63.76-1.03 1.42-1.03h4.91c.21 0 .41-.15.48-.35l1.52-4.67c.21-.63.77-1.04 1.43-1.04s1.22.41 1.42 1.04l1.52 4.67c.06.2.27.35.48.35h4.91c.66 0 1.22.41 1.43 1.04s-.01 1.29-.54 1.68l-3.98 2.89c-.17.12-.25.36-.18.56l1.52 4.67c.21.63-.01 1.29-.54 1.68-.28.18-.58.28-.89.28m-5.15-4.27c.31 0 .62.09.88.28l3.98 2.89c.27.2.52.05.59 0s.29-.24.18-.56l-1.52-4.67c-.2-.61.03-1.3.54-1.68l3.98-2.89c.27-.2.21-.48.18-.56s-.14-.35-.48-.35h-4.91c-.64 0-1.23-.43-1.43-1.04l-1.52-4.67a.49.49 0 0 0-.47-.34c-.09 0-.37.03-.48.35l-1.52 4.67c-.2.61-.79 1.04-1.43 1.04h-4.91c-.34 0-.45.26-.48.35s-.08.35.19.55l3.98 2.89c.52.38.74 1.07.54 1.68l-1.52 4.67c-.1.32.11.51.18.56s.31.2.59 0l3.98-2.89c.26-.19.57-.28.88-.28"/></symbol><symbol id="sun" fill="currentColor" viewBox="0 0 24 24"><path fill-rule="evenodd" d="M15.536 15.536a5 5 0 1 0-7.071-7.072 5 5 0 0 0 7.07 7.072zM18 12a6 6 0 1 1-12 0 6 6 0 0 1 12 0M16.292 1.639a.5.5 0 0 1 .27.653L15.7 4.376a.5.5 0 0 1-.924-.383l.864-2.084a.5.5 0 0 1 .653-.27zM1.639 7.709a.5.5 0 0 1 .653-.271l2.084.863a.5.5 0 1 1-.383.924L1.91 8.36a.5.5 0 0 1-.27-.653zm17.715 7.337a.5.5 0 0 1 .653-.27l2.084.863a.5.5 0 1 1-.383.923l-2.084-.863a.5.5 0 0 1-.27-.653m-10.4 4.308a.5.5 0 0 1 .27.653l-.863 2.084a.5.5 0 1 1-.923-.383l.863-2.084a.5.5 0 0 1 .653-.27M22.361 7.708a.5.5 0 0 1-.27.653l-2.084.864a.5.5 0 0 1-.383-.924l2.084-.863a.5.5 0 0 1 .653.27M7.708 1.638a.5.5 0 0 1 .653.271l.864 2.084a.5.5 0 1 1-.924.383l-.863-2.084a.5.5 0 0 1 .27-.653zm7.338 17.715a.5.5 0 0 1 .653.271l.863 2.084a.5.5 0 1 1-.923.383l-.864-2.084a.5.5 0 0 1 .27-.654zm-10.4-4.307a.5.5 0 0 1-.27.653l-2.084.863a.5.5 0 1 1-.383-.923l2.084-.864a.5.5 0 0 1 .654.27z" clip-rule="evenodd"/></symbol><symbol id="sync" fill="currentColor" viewBox="0 0 24 24"><path fill-rule="evenodd" d="M12 4a8 8 0 0 1 7 4.1V5.5a.5.5 0 0 1 1 0v4c0 .3-.2.5-.5.5h-4a.5.5 0 0 1 0-1h2.8a7 7 0 1 0 .3 5.3.539.539 0 1 1 1 .4A8 8 0 1 1 12 4" clip-rule="evenodd"/></symbol><symbol id="task-view" fill="currentColor" viewBox="0 0 24 24"><path fill-rule="evenodd" d="M15.444 3.685a9 9 0 1 0-6.888 16.631 9 9 0 0 0 6.888-16.63zM12 2a10 10 0 1 1 0 20 10 10 0 0 1 0-20" clip-rule="evenodd"/><path d="M12.002 17.002a.556.556 0 0 1-.558-.554l-.01-5.445a.556.556 0 0 1 1.11-.003l.011 5.445a.555.555 0 0 1-.553.557"/><path fill-rule="evenodd" d="M12.694 7.694a.69.69 0 0 1-.689.695h-.01a.69.69 0 0 1-.69-.695c0-.382.308-.694.69-.694h.01c.382 0 .69.312.69.694z" clip-rule="evenodd"/></symbol><symbol id="team" fill="currentColor" viewBox="0 0 24 24"><path d="M8 13c3.778 0 7 1.837 7 4.25 0 1.132-.742 1.75-2 1.75H3c-1.258 0-2-.618-2-1.75C1 14.837 4.222 13 8 13m8 0c3.778 0 7 1.837 7 4.25 0 1.132-.742 1.75-2 1.75h-5.575c.23-.281.396-.617.49-1H21c.742 0 1-.215 1-.75 0-1.71-2.701-3.25-6-3.25q-.796.002-1.531.113a6.8 6.8 0 0 0-1.114-.799A11 11 0 0 1 16 13m-8 1c-3.299 0-6 1.54-6 3.25 0 .535.258.75 1 .75h10c.742 0 1-.215 1-.75C14 15.54 11.299 14 8 14m0-9a3.5 3.5 0 1 1 0 7 3.5 3.5 0 0 1 0-7m8 0a3.5 3.5 0 1 1 0 7 3.5 3.5 0 0 1 0-7M8 6a2.5 2.5 0 1 0 0 5 2.5 2.5 0 0 0 0-5m8 0a2.5 2.5 0 1 0 0 5 2.5 2.5 0 0 0 0-5"/></symbol><symbol id="template" fill="currentColor" viewBox="0 0 24 24"><path fill-rule="evenodd" d="M19 2H5a1 1 0 0 0-1 1v18a1 1 0 0 0 1 1h14a1 1 0 0 0 1-1V3a1 1 0 0 0-1-1M5 1a2 2 0 0 0-2 2v18a2 2 0 0 0 2 2h14a2 2 0 0 0 2-2V3a2 2 0 0 0-2-2z" clip-rule="evenodd"/><path d="M8 14.5a1 1 0 1 1-2 0 1 1 0 0 1 2 0m2 0a.5.5 0 0 1 .5-.5h7a.5.5 0 0 1 0 1h-7a.5.5 0 0 1-.5-.5m-2-4a1 1 0 1 1-2 0 1 1 0 0 1 2 0m2 0a.5.5 0 0 1 .5-.5h7a.5.5 0 0 1 0 1h-7a.5.5 0 0 1-.5-.5m-2-4a1 1 0 1 1-2 0 1 1 0 0 1 2 0m2 0a.5.5 0 0 1 .5-.5h7a.5.5 0 0 1 0 1h-7a.5.5 0 0 1-.5-.5"/></symbol><symbol id="theme" fill="currentColor" viewBox="0 0 24 24"><path fill-rule="evenodd" d="M12 3c4.97 0 9 4 9 9s-2 9-5 9-2-4.5-5-4.5S3 22 3 12a9 9 0 0 1 9-9m0 1a8 8 0 0 0-8 8c0 3 .453 4.489 1.109 4.882.434.26 1.144.138 2.622-.453l.252-.102c1.558-.63 2.182-.827 3.017-.827 1.784 0 2.515.822 3.414 2.844C15.015 19.697 15.284 20 16 20c2.204 0 4-3.336 4-8 0-4.437-3.571-8-8-8m5 10.5a1 1 0 1 1 0 2 1 1 0 0 1 0-2m.5-4a1 1 0 1 1 0 2 1 1 0 0 1 0-2m-11 0a1 1 0 1 1 0 2 1 1 0 0 1 0-2M15.75 7a1 1 0 1 1 0 2 1 1 0 0 1 0-2m-7.5 0a1 1 0 1 1 0 2 1 1 0 0 1 0-2M12 5.5a1 1 0 1 1 0 2 1 1 0 0 1 0-2" clip-rule="evenodd"/></symbol><symbol id="threads" fill="currentColor" viewBox="0 0 24 24"><path fill-rule="evenodd" d="M20 3H4a1 1 0 0 0-1 1v16a1 1 0 0 0 1 1h16a1 1 0 0 0 1-1V4a1 1 0 0 0-1-1M4 2a2 2 0 0 0-2 2v16a2 2 0 0 0 2 2h16a2 2 0 0 0 2-2V4a2 2 0 0 0-2-2z" clip-rule="evenodd"/><path d="M8 17a1 1 0 1 1-2 0 1 1 0 0 1 2 0m0-5a1 1 0 1 1-2 0 1 1 0 0 1 2 0m0-5a1 1 0 1 1-2 0 1 1 0 0 1 2 0m2 0a.5.5 0 0 1 .5-.5h7a.5.5 0 0 1 0 1h-7A.5.5 0 0 1 10 7m0 5a.5.5 0 0 1 .5-.5h7a.5.5 0 0 1 0 1h-7a.5.5 0 0 1-.5-.5m0 5a.5.5 0 0 1 .5-.5h7a.5.5 0 0 1 0 1h-7a.5.5 0 0 1-.5-.5"/></symbol><symbol id="ticket" fill="currentColor" viewBox="0 0 24 24"><path fill-rule="evenodd" d="M3.232 5.232A2.5 2.5 0 0 1 5 4.5h14A2.5 2.5 0 0 1 21.5 7v3a.5.5 0 0 1-.5.5 1.5 1.5 0 1 0 0 3 .5.5 0 0 1 .5.5v3a2.5 2.5 0 0 1-2.5 2.5H5A2.5 2.5 0 0 1 2.5 17v-3a.5.5 0 0 1 .5-.5 1.5 1.5 0 1 0 0-3 .5.5 0 0 1-.5-.5V7a2.5 2.5 0 0 1 .732-1.768M15.5 18.5V17a.5.5 0 0 0-1 0v1.5H5A1.5 1.5 0 0 1 3.5 17v-2.55a2.5 2.5 0 0 0 0-4.9V7A1.5 1.5 0 0 1 5 5.5h9.5V7a.5.5 0 0 0 1 0V5.5H19A1.5 1.5 0 0 1 20.5 7v2.55a2.5 2.5 0 0 0 0 4.9V17a1.5 1.5 0 0 1-1.5 1.5zm-.5-8a.5.5 0 0 1 .5.5v2a.5.5 0 0 1-1 0v-2a.5.5 0 0 1 .5-.5" clip-rule="evenodd"/></symbol><symbol id="todoist-monochrome" fill="none" viewBox="0 0 32 32"><clipPath><path d="M0 0h32v32H0z"/></clipPath><g clip-path="url(#a)"><path fill="currentColor" fill-rule="evenodd" d="M4 0h24c2.2 0 4 1.8 4 4v24c0 2.2-1.8 4-4 4H4c-2.2 0-4-1.8-4-4v-5.374l.057.033c1.365.795 4.592 2.674 5.382 3.12.478.27.936.264 1.397-.002.276-.16 3.302-1.9 6.36-3.66l.015-.01.06-.034 6.515-3.75c.277-.16.291-.65-.019-.827l-.218-.124-.001-.001c-.317-.18-.726-.413-.9-.516a1.02 1.02 0 0 0-.998.012L6.803 23.102a1.35 1.35 0 0 1-1.338 0L0 19.927v-2.693l.057.033c1.365.795 4.592 2.674 5.382 3.12.478.27.936.264 1.397-.002.276-.16 3.307-1.903 6.367-3.664l.024-.014.019-.011.01-.006 6.53-3.758c.277-.16.291-.651-.019-.828l-.218-.124c-.316-.18-.726-.414-.901-.517a1.02 1.02 0 0 0-.998.012L6.803 17.71a1.35 1.35 0 0 1-1.338 0L0 14.536v-2.693l.056.032c1.365.795 4.592 2.674 5.383 3.12.478.27.936.264 1.397-.002l6.374-3.668.008-.005c3.2-1.84 6.426-3.698 6.568-3.78.277-.16.291-.65-.019-.828l-.218-.124c-.317-.18-.727-.414-.901-.516a1.02 1.02 0 0 0-.998.012c-.154.089-10.5 6.038-10.847 6.235a1.35 1.35 0 0 1-1.338 0L0 9.143V4c0-2.2 1.8-4 4-4" clip-rule="evenodd"/></g></symbol><symbol id="todoist" fill="none" viewBox="0 0 32 32"><path fill="currentColor" fill-rule="evenodd" d="M4 0h24c2.2 0 4 1.8 4 4v24c0 2.2-1.8 4-4 4H4c-2.2 0-4-1.8-4-4v-5.374l.057.033c1.365.795 4.592 2.674 5.382 3.12.478.27.936.263 1.397-.002.275-.159 3.28-1.889 6.328-3.642l.012-.007.035-.02 6.575-3.784c.277-.16.291-.651-.02-.829l-.217-.124c-.316-.18-.727-.413-.901-.516a1.02 1.02 0 0 0-.998.012c-.154.09-10.5 6.039-10.847 6.235a1.35 1.35 0 0 1-1.338 0L0 19.927v-2.693l.057.033c1.365.795 4.592 2.674 5.382 3.12.478.27.936.264 1.397-.002.276-.16 3.307-1.903 6.367-3.664l.024-.014 6.559-3.775c.277-.16.291-.651-.02-.828l-.217-.124c-.316-.18-.727-.414-.901-.517a1.02 1.02 0 0 0-.998.012c-.154.09-10.5 6.039-10.847 6.235a1.35 1.35 0 0 1-1.338 0L0 14.535v-2.693l.056.033a943 943 0 0 0 5.383 3.12c.478.27.936.264 1.397-.002l6.374-3.668.008-.005c3.2-1.84 6.426-3.698 6.568-3.78.277-.16.291-.65-.02-.828l-.217-.124c-.317-.18-.727-.414-.901-.516a1.02 1.02 0 0 0-.998.012c-.154.089-10.5 6.038-10.847 6.235a1.35 1.35 0 0 1-1.338 0L0 9.143V4c0-2.2 1.8-4 4-4" clip-rule="evenodd"/></symbol><symbol id="translate" fill="currentColor" viewBox="0 0 24 24"><path fill-rule="evenodd" d="M9 2.5a.5.5 0 0 1 .5.5v1.5H15a.5.5 0 0 1 0 1h-1.83a18.4 18.4 0 0 1-3.527 7.808q.367.434.765.845a.5.5 0 1 1-.72.694A19 19 0 0 1 9 14.094a18.6 18.6 0 0 1-5.778 4.483.5.5 0 0 1-.444-.896 17.6 17.6 0 0 0 5.579-4.373A18.5 18.5 0 0 1 5.95 9.195a.5.5 0 1 1 .921-.39A17.5 17.5 0 0 0 9 12.502 17.4 17.4 0 0 0 12.15 5.5H3a.5.5 0 0 1 0-1h5.5V3a.5.5 0 0 1 .5-.5m7 8a.5.5 0 0 1 .447.276l3.496 6.991.009.02 1.495 2.99a.5.5 0 1 1-.894.447L19.19 18.5h-6.382l-1.362 2.724a.5.5 0 1 1-.894-.448l1.495-2.99.01-.019 3.495-6.99A.5.5 0 0 1 16 10.5m-2.691 7h5.382L16 12.118z" clip-rule="evenodd"/></symbol><symbol id="twist-monochrome" viewBox="0 0 32 32"><g fill="currentColor" fill-rule="evenodd"><path d="M28 0H4a4 4 0 0 0-4 4v24a4 4 0 0 0 4 4h24a4 4 0 0 0 4-4V4a4 4 0 0 0-4-4"/><path d="M9.71 9C9.57 8.96 0 6.4 0 6.4v2.88h9.799c.082 0 .129-.006.129-.113 0-.078-.067-.127-.218-.168m-2.847 6.464c0-.603.08-.91.577-1.087l10.465-3.135a.04.04 0 0 0 .029-.04v-.874c0-.26-.113-.407-.294-.407-.102 0-.322.039-.36.044 0 0-12.306 1.76-12.745 1.827a.783.783 0 0 0-.692.806v4.99c0 .439.342.722.767.638l2.22-.436a.04.04 0 0 0 .033-.04zm4.672 2.161c-.466.265-.647.647-.647 1.101v5.432c0 .41.42.603.742.404l5.175-3.183.006.004.003.003 2.363 1.604a.17.17 0 0 0 .093.031c.074 0 .131-.04.154-.118l1.11-3.817.009-.006 2.868-1.764c.378-.232.608-.64.608-1.078v-4.811c0-.358-.203-.546-.466-.546-.15 0-.228.047-.296.086z"/></g></symbol><symbol id="twist-upload" fill="none" viewBox="0 0 24 24"><g fill="currentColor" fill-opacity=".64" fill-rule="evenodd" clip-rule="evenodd"><path d="M11.206 2.205c.439-.44 1.151-.44 1.59 0l4.5 4.5a1.125 1.125 0 1 1-1.59 1.59l-2.58-2.579V15a1.125 1.125 0 0 1-2.25 0V5.716l-2.58 2.58a1.125 1.125 0 1 1-1.59-1.591z"/><path d="M1.501 15.375c.621 0 1.125.504 1.125 1.125V18c0 1.036.84 1.875 1.875 1.875h15c1.036 0 1.875-.84 1.875-1.875v-1.5a1.125 1.125 0 0 1 2.25 0V18a4.125 4.125 0 0 1-4.125 4.125h-15A4.125 4.125 0 0 1 .376 18v-1.5c0-.621.504-1.125 1.125-1.125"/></g></symbol><symbol id="twist" fill="none" viewBox="0 0 32 32"><path fill="currentColor" fill-rule="evenodd" d="M4 0h24a4 4 0 0 1 4 4v24a4 4 0 0 1-4 4H4a4 4 0 0 1-4-4V9.045h9.87c.083 0 .13-.005.13-.107 0-.075-.067-.121-.22-.16C9.64 8.74 0 6.3 0 6.3V4a4 4 0 0 1 4-4m3 15.495c0-.593.08-.895.572-1.069l10.4-3.083a.04.04 0 0 0 .028-.039v-.86c0-.255-.112-.4-.292-.4-.084 0-.25.026-.325.038l-.033.006s-12.227 1.73-12.664 1.796a.773.773 0 0 0-.687.792v4.907c0 .432.34.71.762.629l2.206-.43A.04.04 0 0 0 7 17.745zm4.636 2.124c-.46.267-.64.652-.64 1.109v5.467c0 .414.415.607.735.407l5.126-3.204.006.005.003.002 2.34 1.615a.16.16 0 0 0 .093.031c.073 0 .13-.04.152-.119l1.099-3.842 2.85-1.782a1.28 1.28 0 0 0 .602-1.085V11.38c0-.36-.2-.549-.461-.549-.146 0-.223.045-.29.084l-.004.002c-.032.019-5.743 3.316-9.148 5.28z" clip-rule="evenodd"/><g fill="currentColor"><path d="M9.78 8.782 0 6.305V9.05h9.87c.083 0 .13-.006.13-.108 0-.075-.067-.12-.22-.16M7 15.5c0-.593.08-.895.572-1.07l10.4-3.083A.04.04 0 0 0 18 11.31v-.86c0-.256-.112-.4-.292-.4-.084 0-.25.026-.325.038l-.033.005S5.123 11.822 4.686 11.89A.77.77 0 0 0 4 12.68v4.907c0 .432.34.71.762.628l2.206-.429A.04.04 0 0 0 7 17.748zM10.996 18.733c0-.458.18-.843.64-1.109l2.463-1.421 9.148-5.281.004-.003a.5.5 0 0 1 .29-.083c.26 0 .46.19.46.55v4.842c0 .44-.227.851-.6 1.085l-2.851 1.782-1.1 3.842c-.022.078-.078.12-.152.12a.16.16 0 0 1-.092-.032l-2.34-1.616-.003-.002-.006-.004-5.126 3.204c-.32.2-.735.006-.735-.407z"/></g></symbol><symbol id="twitter" fill="none" viewBox="0 0 22 19"><g fill="currentColor"><path d="M21.393.519a8.9 8.9 0 0 1-2.868 1.121A4.45 4.45 0 0 0 15.23.18c-2.49 0-4.512 2.072-4.512 4.628q0 .544.116 1.054c-3.75-.194-7.076-2.034-9.304-4.838a4.7 4.7 0 0 0-.61 2.33c0 1.605.796 3.022 2.008 3.852a4.4 4.4 0 0 1-2.046-.578v.057c0 2.243 1.556 4.115 3.622 4.538a4.3 4.3 0 0 1-1.19.163q-.436 0-.849-.081c.575 1.838 2.24 3.176 4.216 3.211A8.9 8.9 0 0 1 0 16.436a12.56 12.56 0 0 0 6.919 2.077c8.303 0 12.842-7.051 12.842-13.168q0-.302-.011-.6A9.3 9.3 0 0 0 22 2.35a8.8 8.8 0 0 1-2.592.729 4.62 4.62 0 0 0 1.985-2.56"/><path d="M21.393.519a8.9 8.9 0 0 1-2.868 1.121A4.45 4.45 0 0 0 15.23.18c-2.49 0-4.512 2.072-4.512 4.628q0 .544.116 1.054c-3.75-.194-7.076-2.034-9.304-4.838a4.7 4.7 0 0 0-.61 2.33c0 1.605.796 3.022 2.008 3.852a4.4 4.4 0 0 1-2.046-.578v.057c0 2.243 1.556 4.115 3.622 4.538a4.3 4.3 0 0 1-1.19.163q-.436 0-.849-.081c.575 1.838 2.24 3.176 4.216 3.211A8.9 8.9 0 0 1 0 16.436a12.56 12.56 0 0 0 6.919 2.077c8.303 0 12.842-7.051 12.842-13.168q0-.302-.011-.6A9.3 9.3 0 0 0 22 2.35a8.8 8.8 0 0 1-2.592.729 4.62 4.62 0 0 0 1.985-2.56"/></g></symbol><symbol id="umbrella" fill="currentColor" viewBox="0 0 24 24"><path d="M11 3c5.523 0 10 4.477 10 10a9.97 9.97 0 0 1-2.929 7.071.5.5 0 0 1-.707 0L11 13.707l-7.146 7.147a.5.5 0 0 1-.708-.708L10.293 13 3.929 6.636a.5.5 0 0 1 0-.707A9.97 9.97 0 0 1 11 3m7.567 5.125c-.3 1.988-1.9 4.759-4.388 7.346l3.529 3.53A8.97 8.97 0 0 0 20 13c0-1.797-.526-3.47-1.433-4.875m-9.331 2.404 4.235 4.235c3.307-3.45 4.854-7.167 3.893-8.128s-4.678.586-8.128 3.893M11 4a8.96 8.96 0 0 0-6 2.292l3.529 3.53c2.587-2.488 5.358-4.089 7.346-4.389A8.96 8.96 0 0 0 11 4"/></symbol><symbol id="upload-doc" fill="none" viewBox="0 0 30 30"><path fill="currentColor" d="M4 1.992v26.016c0 .543.451.992 1.005.992h19.99C25.55 29 26 28.55 26 27.995V9.28c0-.293-.212-.82-.415-1.03l-6.608-6.835C18.782 1.214 18.28 1 17.999 1H4.994A.994.994 0 0 0 4 1.992"/><path fill="currentColor" fill-opacity=".64" fill-rule="evenodd" d="M4.994 0C3.894 0 3 .892 3 1.992v26.016C3 29.102 3.898 30 5.005 30h19.99A2.004 2.004 0 0 0 27 27.995V9.28c0-.55-.312-1.326-.696-1.724L19.696.72C19.314.324 18.552 0 17.999 0zM4 28.008V1.992C4 1.445 4.446 1 4.994 1H18c.28 0 .783.214.978.415l6.608 6.836c.203.21.415.736.415 1.03v18.714C26 28.55 25.55 29 24.995 29H5.005A1 1 0 0 1 4 28.008" clip-rule="evenodd"/><path fill="currentColor" d="m11.329 23-2.314-9.295h1.768l1.612 6.825 1.807-6.825h1.43l1.846 6.864 1.664-6.864h1.612L18.427 23h-1.73l-1.832-6.773L12.98 23z"/></symbol><symbol id="upload-image" fill="none" viewBox="0 0 30 30"><path fill="currentColor" d="M4 1.992v26.016c0 .543.451.992 1.005.992h19.99C25.55 29 26 28.55 26 27.995V9.28c0-.293-.212-.82-.415-1.03l-6.608-6.835C18.782 1.214 18.28 1 17.999 1H4.994A.994.994 0 0 0 4 1.992"/><g fill="currentColor" fill-opacity=".64" fill-rule="evenodd" clip-rule="evenodd"><path d="M4.994 0C3.894 0 3 .892 3 1.992v26.016C3 29.102 3.898 30 5.005 30h19.99A2.004 2.004 0 0 0 27 27.995V9.28c0-.55-.312-1.326-.696-1.724L19.696.72C19.314.324 18.552 0 17.999 0zM4 28.008V1.992C4 1.445 4.446 1 4.994 1H18c.28 0 .783.214.978.415l6.608 6.836c.203.21.415.736.415 1.03v18.714C26 28.55 25.55 29 24.995 29H5.005A1 1 0 0 1 4 28.008"/><path d="M11 15a1 1 0 1 0 0-2 1 1 0 0 0 0 2m6.658 1.785a.25.25 0 0 0-.408.007l-3.503 5.117-2.208-3.121L8.832 23h12.875a.25.25 0 0 0 .202-.398z" opacity=".1"/><path d="M11 16a2 2 0 1 1 0-4 2 2 0 0 1 0 4m0-1a1 1 0 1 0 0-2 1 1 0 0 0 0 2m7.465 1.195 4.251 5.817A1.25 1.25 0 0 1 21.708 24H8.374a.75.75 0 0 1-.631-1.156l2.955-4.597a1 1 0 0 1 1.658-.037l1.377 1.948 2.692-3.931a1.25 1.25 0 0 1 2.04-.032M21.707 23h-5.964l-1.394-1.971 2.9-4.237a.25.25 0 0 1 .409-.007l4.251 5.817a.25.25 0 0 1-.202.398M8.831 23l2.708-4.212L14.518 23z"/></g></symbol><symbol id="upload-pdf" fill="none" viewBox="0 0 30 30"><path fill="currentColor" d="M4 1.992v26.016c0 .543.451.992 1.005.992h19.99C25.55 29 26 28.55 26 27.995V9.28c0-.293-.212-.82-.415-1.03l-6.608-6.835C18.782 1.214 18.28 1 17.999 1H4.994A.994.994 0 0 0 4 1.992"/><g fill="currentColor" fill-rule="evenodd" clip-rule="evenodd"><path fill-opacity=".64" d="M4.994 0C3.894 0 3 .892 3 1.992v26.016C3 29.102 3.898 30 5.005 30h19.99A2.004 2.004 0 0 0 27 27.995V9.28c0-.55-.312-1.326-.696-1.724L19.696.72C19.314.324 18.552 0 17.999 0zM4 28.008V1.992C4 1.445 4.446 1 4.994 1H18c.28 0 .783.214.978.415l6.608 6.836c.203.21.415.736.415 1.03v18.714C26 28.55 25.55 29 24.995 29H5.005A1 1 0 0 1 4 28.008"/><path d="M15.406 11.64c.141.384.154.924.066 1.62a15 15 0 0 1-.348 1.733c.311.577.69 1.178 1.11 1.761.45.625.922 1.193 1.38 1.663.522-.086 1-.137 1.414-.148.66-.018 1.164.062 1.507.279.491.31.59.852.299 1.416-.522 1.014-1.541 1-2.661.247a7.4 7.4 0 0 1-.889-.717c-.725.143-1.527.35-2.34.607-.716.226-1.404.479-2.028.744-.298.59-.598 1.12-.89 1.563-.944 1.44-1.853 2.082-2.633 1.297-.834-.839-.306-1.807 1.014-2.682.485-.32 1.09-.643 1.775-.95.37-.76.735-1.617 1.07-2.507.32-.852.594-1.69.805-2.455-.242-.481-.439-.944-.578-1.368-.439-1.342-.32-2.357.62-2.693.59-.218 1.098.019 1.307.59m-.927 1.494c.07-.55.06-.953-.013-1.151l-.001-.006c.015-.01.013-.02.007-.022s-.013.003-.007.022l-.022.011-.007.003c-.243.086-.298.551-.007 1.441l.004.013a9 9 0 0 0 .046-.311m-.29 4.784a33 33 0 0 1-.653 1.607 25 25 0 0 1 2.928-.878c-.352-.398-.703-.839-1.042-1.308-.24-.335-.47-.676-.681-1.016-.164.518-.35 1.054-.553 1.595m-3.23 3.939c-.866.574-1.063.936-.856 1.143.076.078.472-.201 1.088-1.14q.076-.116.154-.242-.206.12-.385.239m8.985-2.35c-.177.344-.522.34-1.214-.126l-.123-.086q.237-.021.447-.027c.479-.012.812.04.946.125l.007.003.002.001q.001 0-.004.006c-.007.01-.025.034-.061.104"/></g></symbol><symbol id="upload-video" fill="none" viewBox="0 0 30 30"><path fill="currentColor" d="M4 1.992v26.016c0 .543.451.992 1.005.992h19.99C25.55 29 26 28.55 26 27.995V9.28c0-.293-.212-.82-.415-1.03l-6.608-6.835C18.782 1.214 18.28 1 17.999 1H4.994A.994.994 0 0 0 4 1.992"/><path fill="currentColor" fill-opacity=".64" fill-rule="evenodd" d="M4.994 0C3.894 0 3 .892 3 1.992v26.016C3 29.102 3.898 30 5.005 30h19.99A2.004 2.004 0 0 0 27 27.995V9.28c0-.55-.312-1.326-.696-1.724L19.696.72C19.314.324 18.552 0 17.999 0zM4 28.008V1.992C4 1.445 4.446 1 4.994 1H18c.28 0 .783.214.978.415l6.608 6.836c.203.21.415.736.415 1.03v18.714C26 28.55 25.55 29 24.995 29H5.005A1 1 0 0 1 4 28.008" clip-rule="evenodd"/><g fill="currentColor"><path d="M12 14.019v7.962c0 .336-.06.301.223.137l6.858-3.981c.288-.167.288-.107 0-.274l-6.858-3.98c-.283-.165-.223-.2-.223.136" opacity=".1"/><path fill-rule="evenodd" d="M12.725 13.018c-.95-.552-1.725-.105-1.725 1.001v7.962c0 1.104.773 1.555 1.725 1.002l6.858-3.981c.95-.552.953-1.45 0-2.003zM12 21.98V14.02c0-.169-.015-.244.006-.256s.077.038.217.12l6.858 3.98c.144.084.216.11.216.137s-.072.053-.216.137l-6.858 3.98c-.14.083-.196.132-.217.12S12 22.15 12 21.981" clip-rule="evenodd"/></g></symbol><symbol id="video" fill="currentColor" viewBox="0 0 24 24"><path fill-rule="evenodd" d="M10.01 16.068A1.65 1.65 0 0 1 9 14.55V9.648a1.65 1.65 0 0 1 1.003-1.516 1.66 1.66 0 0 1 1.569.143l3.69 2.45a1.65 1.65 0 0 1 .738 1.37zm.334-.947a.66.66 0 0 0 .675-.032l3.69-2.451a.65.65 0 0 0 .291-.54v-.002a.65.65 0 0 0-.29-.536l-3.691-2.452a.66.66 0 0 0-.927.207.65.65 0 0 0-.092.333v4.931a.65.65 0 0 0 .344.542" clip-rule="evenodd"/><path d="M11.572 15.922a1.66 1.66 0 0 1-1.562.146zm0 0L16 12.095a1.66 1.66 0 0 1-.738 1.377z"/><path fill-rule="evenodd" d="M0 12c0-4.326 0-6.49 1.25-7.907q.207-.236.443-.444C3.111 2.4 5.273 2.4 9.6 2.4h4.8c4.326 0 6.49 0 7.907 1.25q.235.207.444.443C24 5.511 24 7.673 24 12c0 4.326 0 6.49-1.25 7.907a5 5 0 0 1-.443.444C20.889 21.6 18.727 21.6 14.4 21.6H9.6c-4.326 0-6.49 0-7.907-1.25a5 5 0 0 1-.444-.443C0 18.489 0 16.327 0 12m9.6-8.6h4.8c2.189 0 3.738.002 4.921.149 1.159.143 1.827.413 2.324.85q.19.167.355.356c.438.497.708 1.165.851 2.324C22.998 8.262 23 9.811 23 12s-.002 3.738-.149 4.921c-.143 1.159-.413 1.827-.85 2.324q-.167.19-.356.355c-.497.438-1.165.708-2.324.851-1.183.147-2.732.149-4.921.149H9.6c-2.189 0-3.738-.002-4.921-.149-1.159-.143-1.827-.413-2.324-.85A4 4 0 0 1 2 19.244c-.438-.497-.708-1.166-.851-2.324C1.002 15.738 1 14.189 1 12s.002-3.738.149-4.921c.143-1.159.413-1.827.85-2.324a4 4 0 0 1 .356-.355c.497-.438 1.165-.708 2.324-.851C5.862 3.402 7.411 3.4 9.6 3.4" clip-rule="evenodd"/><path d="m16 12.095-5.99 3.973 1.562-.146z"/></symbol><symbol id="visualization" fill="currentColor" viewBox="0 0 24 24"><path fill-rule="evenodd" d="M2.5 12a.5.5 0 0 1 .5.5V20H2v-7.5a.5.5 0 0 1 .5-.5m4-5a.5.5 0 0 1 .5.5V20H6V7.5a.5.5 0 0 1 .5-.5m4 8a.5.5 0 0 1 .5.5V20h-1v-4.5a.5.5 0 0 1 .5-.5m4-3a.5.5 0 0 1 .5.5V20h-1v-7.5a.5.5 0 0 1 .5-.5m4-5a.5.5 0 0 1 .5.5V20h-1V7.5a.5.5 0 0 1 .5-.5m4 8a.5.5 0 0 1 .5.5V20h-1v-4.5a.5.5 0 0 1 .5-.5" clip-rule="evenodd"/></symbol><symbol id="warning" fill="currentColor" viewBox="0 0 24 24"><g fill-rule="evenodd" clip-rule="evenodd"><path d="M9.725 4.312c1.011-1.75 3.539-1.75 4.55 0l7.37 12.75C22.657 18.812 21.39 21 19.369 21H4.631c-2.022 0-3.288-2.187-2.276-3.938zm.866.5-7.37 12.75C2.595 18.646 3.377 20 4.631 20h14.738c1.254 0 2.036-1.355 1.41-2.437l-7.37-12.75a1.63 1.63 0 0 0-2.819 0z"/><path d="M12 9a.5.5 0 0 1 .5.5v4a.5.5 0 0 1-1 0v-4A.5.5 0 0 1 12 9m-.5 7.5a.5.5 0 0 1 .5-.5h.01a.5.5 0 1 1 0 1H12a.5.5 0 0 1-.5-.5"/></g></symbol><symbol id="youtube" fill="currentColor" viewBox="0 0 24 24"><path fill-rule="evenodd" d="M3.598 4.242C6.958 4 11.995 4 11.995 4h.01s5.038 0 8.396.242l.155.016c.515.05 1.427.138 2.25.995.72.725.954 2.371.954 2.371S24 9.557 24 11.49v1.812c0 1.933-.24 3.866-.24 3.866s-.234 1.646-.954 2.371c-.823.858-1.735.946-2.25.996q-.085.007-.155.016C17.043 20.792 12 20.8 12 20.8s-6.24-.057-8.16-.24q-.138-.024-.327-.045c-.609-.073-1.562-.187-2.32-.976-.719-.725-.953-2.37-.953-2.37S0 15.234 0 13.301V11.49c0-1.933.24-3.866.24-3.866s.234-1.646.954-2.37c.823-.858 1.735-.947 2.25-.996q.085-.008.154-.016m12.408 7.912L9.521 8.787l.001 6.711z"/></symbol></svg>