<svg xmlns="http://www.w3.org/2000/svg" width="0" height="0"><symbol id="activity" fill="none" viewBox="0 0 16 17"><path fill="currentColor" fill-rule="evenodd" d="M.75 4.001A2.25 2.25 0 0 1 3 1.751h10a2.25 2.25 0 0 1 2.25 2.25v8a2.25 2.25 0 0 1-2.25 2.25H3a2.25 2.25 0 0 1-2.25-2.25zm6.946 1.22a.75.75 0 0 0-1.32-.137L4.599 7.75H2.25V4.001a.75.75 0 0 1 .75-.75h10a.75.75 0 0 1 .75.75V6.75H11a.75.75 0 0 0-.624.334l-1.21 1.814zm3.705 3.029-1.777 2.666a.75.75 0 0 1-1.32-.137l-1.47-3.677-1.21 1.814A.75.75 0 0 1 5 9.25H2.25v2.751c0 .414.336.75.75.75h10a.75.75 0 0 0 .75-.75V8.25z" clip-rule="evenodd"/></symbol><symbol id="alarm-clock-large" fill="currentColor" viewBox="0 0 28 25"><path fill-rule="evenodd" d="M.931 3.277a2 2 0 0 0-.24 2.54l.823 1.209A1 1 0 0 0 3.168 5.9l-.823-1.21 2.467-2.466 1.21.823a1 1 0 0 0 1.124-1.654L5.936.571a2 2 0 0 0-2.539.24zM4.75 13.37a9 9 0 1 1 18 0 9 9 0 0 1-18 0m9-11c-6.075 0-11 4.925-11 11 0 2.422.782 4.66 2.108 6.478l-2.815 2.815a1 1 0 1 0 1.414 1.414l2.725-2.724a10.96 10.96 0 0 0 7.568 3.017c2.932 0 5.596-1.147 7.568-3.017l2.725 2.724a1 1 0 0 0 1.414-1.414l-2.815-2.815a10.95 10.95 0 0 0 2.108-6.478c0-6.075-4.925-11-11-11m13.058 3.446a2 2 0 0 0-.24-2.539L24.104.811a2 2 0 0 0-2.54-.24l-1.209.823a1 1 0 1 0 1.125 1.654l1.21-.823 2.466 2.467-.823 1.21a1 1 0 0 0 1.654 1.124zM14.25 9.373a1 1 0 0 0-2 0v5a1 1 0 0 0 1 1h3.5a1 1 0 0 0 0-2h-2.5z" clip-rule="evenodd"/></symbol><symbol id="alarm-clock" fill="currentColor" viewBox="0 0 16 16"><path d="M1 4.7c-.48-.69-.39-1.62.2-2.22l.65-.64c.6-.6 1.53-.69 2.23-.21l.26.18a.75.75 0 0 1-.84 1.24l-.27-.18a.25.25 0 0 0-.31.03l-.65.64a.25.25 0 0 0-.03.32l.18.26a.75.75 0 0 1-1.24.85zm14 0c.48-.69.39-1.62-.2-2.22l-.65-.64c-.6-.6-1.53-.69-2.23-.21l-.26.18a.75.75 0 1 0 .84 1.24l.27-.18c.1-.07.23-.06.32.03l.64.64c.09.09.1.22.03.32l-.18.26a.75.75 0 0 0 1.24.85z"/><path fill-rule="evenodd" d="M8 2.25a5.75 5.75 0 0 0-4.77 8.96l-1.26 1.26a.75.75 0 1 0 1.06 1.06l1.2-1.2a5.73 5.73 0 0 0 7.55 0l1.19 1.2a.75.75 0 1 0 1.06-1.06l-1.26-1.26A5.75 5.75 0 0 0 8 2.25m0 1.5a4.25 4.25 0 1 0 0 8.5 4.25 4.25 0 0 0 0-8.5" clip-rule="evenodd"/><path d="M8.5 6A.75.75 0 0 0 7 6v2.5c0 .42.34.75.75.75H9.5a.75.75 0 1 0 0-1.5h-1z"/></symbol><symbol id="android" fill="none" viewBox="0 0 16 17"><path fill="currentColor" fill-rule="evenodd" d="M0 12.017h16c-.22-2.618-1.661-4.85-3.789-6.127l1.223-2.14a.5.5 0 0 0-.868-.497L11.322 5.43A8.2 8.2 0 0 0 8 4.743a8.2 8.2 0 0 0-3.322.687L3.434 3.253a.5.5 0 1 0-.868.497l1.223 2.14C1.66 7.167.219 9.4 0 12.017m11.312-2.392a.667.667 0 1 0 .74-1.109.667.667 0 0 0-.74 1.109m-7.364 0a.666.666 0 1 0 .74-1.108.666.666 0 0 0-.74 1.108" clip-rule="evenodd"/></symbol><symbol id="apple" fill="none" viewBox="0 0 16 17"><clipPath><path d="M0 .001h16v16H0z"/></clipPath><g clip-path="url(#a)"><path fill="currentColor" d="M13.712 10.912a7.6 7.6 0 0 1-.753 1.353q-.594.846-.97 1.172-.579.534-1.245.548-.48.001-1.151-.274-.674-.275-1.24-.274-.593-.001-1.274.274-.682.276-1.101.289-.639.027-1.274-.563-.406-.354-1.014-1.214a8.4 8.4 0 0 1-1.073-2.13q-.45-1.31-.45-2.539 0-1.407.609-2.425.478-.817 1.275-1.29a3.43 3.43 0 0 1 1.723-.486q.507 0 1.334.31.825.31 1.057.31.175 0 1.173-.365.943-.34 1.594-.283 1.768.142 2.651 1.395-1.58.959-1.564 2.68.015 1.34.97 2.226.434.41.97.637-.117.338-.247.648M11.011.281q0 1.05-.766 1.958c-.615.72-1.36 1.135-2.167 1.07a2 2 0 0 1-.016-.266c0-.672.293-1.391.812-1.98q.39-.446.99-.742.6-.293 1.132-.32.015.14.015.28"/></g></symbol><symbol id="arrow-right" fill="currentColor" viewBox="0 0 16 16"><path fill-rule="evenodd" d="M7.68 13.54a.75.75 0 0 0 1.061-.021l4.8-5a.75.75 0 0 0 0-1.039l-4.8-5a.75.75 0 1 0-1.082 1.04l3.581 3.73H3a.75.75 0 0 0 0 1.5h8.24l-3.58 3.73a.75.75 0 0 0 .022 1.06Z" clip-rule="evenodd"/></symbol><symbol id="article" fill="currentColor" viewBox="0 0 16 17"><path d="M8.13 6.27a.75.75 0 0 1 .75-.75h5.495a.75.75 0 0 1 0 1.5H8.879a.75.75 0 0 1-.75-.75Zm0 3.516a.75.75 0 0 1 .75-.75h5.495a.75.75 0 0 1 0 1.5H8.879a.75.75 0 0 1-.75-.75ZM.875 13.304a.75.75 0 0 1 .75-.75h12.75a.75.75 0 0 1 0 1.5H1.625a.75.75 0 0 1-.75-.75m0-10.552a.75.75 0 0 1 .75-.75h12.75a.75.75 0 0 1 0 1.5H1.625a.75.75 0 0 1-.75-.75m.22 3.518a.75.75 0 0 1 .75-.75h3.517a.75.75 0 0 1 .75.75v3.516a.75.75 0 0 1-.75.75H1.845a.75.75 0 0 1-.75-.75zm1.5.75v2.016h2.017V7.02z"/></symbol><symbol id="assign" fill="none" viewBox="0 0 16 17"><clipPath><path d="M0 .001h16v16H0z"/></clipPath><g fill="currentColor" fill-rule="evenodd" clip-path="url(#a)" clip-rule="evenodd"><path d="M6.328 6.001a1.5 1.5 0 1 0 0-3 1.5 1.5 0 0 0 0 3m3-1.5a3 3 0 1 1-6 0 3 3 0 0 1 6 0M6.328 8.251c-2.97 0-5.022.851-6.036 2.642a2.25 2.25 0 0 0 1.958 3.358h8.156a2.25 2.25 0 0 0 1.959-3.358C11.35 9.102 9.298 8.251 6.328 8.251m0 1.5c-2.572 0-4.053.684-4.73 1.88a.75.75 0 0 0 .652 1.12h8.156a.75.75 0 0 0 .653-1.12c-.677-1.196-2.158-1.88-4.73-1.88M13 2.751a.75.75 0 0 1 .75.75v1.5h1.5a.75.75 0 0 1 0 1.5h-1.5v1.5a.75.75 0 0 1-1.5 0v-1.5h-1.5a.75.75 0 0 1 0-1.5h1.5v-1.5a.75.75 0 0 1 .75-.75"/></g></symbol><symbol id="at" fill="currentColor" viewBox="0 0 16 16"><path d="M6.683 1.381a6.75 6.75 0 0 1 8.067 6.62v1a2.417 2.417 0 0 1-4.358 1.44 3.417 3.417 0 0 1-4.808-.024 3.417 3.417 0 0 1 4.832-4.832 3.42 3.42 0 0 1 1 2.416v1a.917.917 0 1 0 1.834 0v-1a5.25 5.25 0 0 0-6.274-5.149A5.25 5.25 0 0 0 8 13.252a5.2 5.2 0 0 0 2.624-.704.75.75 0 1 1 .752 1.298 6.7 6.7 0 0 1-3.377.905l.001-.75v.75a6.75 6.75 0 0 1-6.236-4.167 6.75 6.75 0 0 1 4.92-9.203m3.234 6.62a1.917 1.917 0 1 0-3.834 0 1.917 1.917 0 0 0 3.834 0"/></symbol><symbol id="beaker" fill="currentColor" viewBox="0 0 16 16"><path d="M4.64 2.38a.75.75 0 0 1 .7-.46h5.33a.75.75 0 0 1 .53 1.28l-.45.45v3.13c0 .16.06.3.17.41l2.56 2.56.77.78a2.08 2.08 0 0 1-1.47 3.55H3.22a2.08 2.08 0 0 1-1.47-3.55l.55-.55 2.78-2.79c.1-.1.17-.25.17-.4V3.64L4.8 3.2a.75.75 0 0 1-.16-.82m2.11 1.04v3.36c0 .55-.22 1.08-.61 1.48L4.85 9.54l.62.12c.7.15 1.44.05 2.09-.28l.21-.1a4.8 4.8 0 0 1 2.64-.48l-.55-.54c-.4-.4-.61-.93-.61-1.48V3.42zm5.67 7.4a.6.6 0 0 0-.3-.16l-1.59-.32a3.25 3.25 0 0 0-2.09.28l-.21.1c-.95.48-2.02.62-3.06.41l-1.28-.25a.58.58 0 0 0-.53.16l-.55.55c-.37.37-.11 1 .4 1h9.57c.52 0 .78-.63.41-1z"/></symbol><symbol id="board" fill="none" viewBox="0 0 16 17"><g fill="currentColor" fill-rule="evenodd" clip-rule="evenodd"><path d="M4.037 2.751c-.291.006-.46.026-.567.05a.8.8 0 0 0-.24.09.8.8 0 0 0-.34.34.9.9 0 0 0-.095.267 4 4 0 0 0-.045.7l.001 7.765c.006.291.026.46.05.567.02.096.046.159.09.24q.118.221.34.34a.9.9 0 0 0 .267.095c.132.026.338.045.7.045h7.604c.362 0 .569-.02.7-.045a.9.9 0 0 0 .267-.095.8.8 0 0 0 .34-.34.9.9 0 0 0 .096-.268c.026-.131.045-.338.045-.7V4.198c0-.362-.02-.568-.045-.7a.9.9 0 0 0-.095-.267.8.8 0 0 0-.34-.34.9.9 0 0 0-.268-.096 4 4 0 0 0-.7-.045zm-.007-1.5 7.772-.001c.825 0 1.242.086 1.675.318.41.219.736.545.955.955.232.433.318.85.318 1.675v7.604c0 .825-.086 1.242-.318 1.675-.219.41-.545.736-.955.955-.433.232-.85.318-1.675.318H4.198c-.825 0-1.242-.086-1.675-.318a2.3 2.3 0 0 1-.955-.955c-.212-.397-.304-.78-.316-1.494v-.013L1.25 4.198c0-.825.086-1.242.318-1.675.219-.41.545-.736.955-.955.397-.212.78-.304 1.493-.316z"/><path d="M5 4.251a.75.75 0 0 1 .75.75v6a.75.75 0 0 1-1.5 0v-6a.75.75 0 0 1 .75-.75M8 4.251a.75.75 0 0 1 .75.75v6a.75.75 0 0 1-1.5 0v-6a.75.75 0 0 1 .75-.75M11 4.251a.75.75 0 0 1 .75.75v6a.75.75 0 0 1-1.5 0v-6a.75.75 0 0 1 .75-.75"/></g></symbol><symbol id="book-base" fill="none" viewBox="0 0 16 17"><path fill="currentColor" fill-rule="evenodd" d="M1.585 3.545c.915-.608 2.12-.96 3.415-.96 1.107 0 2.149.257 3 .712.851-.455 1.893-.713 3-.713 1.295 0 2.5.353 3.415.961a.75.75 0 0 1 .335.625v8.667a.75.75 0 0 1-1.165.624c-.642-.426-1.55-.71-2.585-.71s-1.943.284-2.585.71a.75.75 0 0 1-.83 0c-.642-.426-1.551-.71-2.585-.71s-1.943.284-2.585.71a.75.75 0 0 1-1.165-.624V4.17a.75.75 0 0 1 .335-.625M7.25 4.598c-.607-.315-1.385-.514-2.25-.514s-1.643.199-2.25.514v7.034c.684-.246 1.45-.38 2.25-.38s1.566.134 2.25.38zm1.5 7.034a6.7 6.7 0 0 1 2.25-.38c.8 0 1.566.134 2.25.38V4.598c-.607-.315-1.384-.514-2.25-.514-.865 0-1.643.199-2.25.514z" clip-rule="evenodd"/></symbol><symbol id="book-large" fill="none" viewBox="0 0 32 33"><path fill="currentColor" fill-rule="evenodd" d="M3.447 7.506C5.187 6.35 7.498 5.668 10 5.668c2.245 0 4.337.55 6 1.497 1.663-.947 3.755-1.497 6-1.497 2.503 0 4.814.682 6.553 1.838A1 1 0 0 1 29 8.34v17.333a1 1 0 0 1-1.553.833c-1.375-.913-3.291-1.503-5.447-1.503-2.154 0-4.072.59-5.447 1.503a1 1 0 0 1-1.106 0c-1.375-.913-3.293-1.503-5.447-1.503s-4.072.59-5.447 1.503A1 1 0 0 1 3 25.673V8.339a1 1 0 0 1 .447-.833M15 8.898c-1.33-.756-3.07-1.23-5-1.23s-3.67.474-5 1.23V24c1.47-.64 3.185-.998 5-.998s3.53.359 5 .997zM17 24c1.47-.64 3.185-.998 5-.998 1.816 0 3.531.359 5 .997V8.898c-1.33-.756-3.069-1.23-5-1.23-1.93 0-3.67.474-5 1.23z" clip-rule="evenodd"/></symbol><symbol id="calendar-base" fill="none" viewBox="0 0 16 17"><g fill="currentColor"><path fill-rule="evenodd" d="M4 5.501a.75.75 0 0 1 .75-.75h6.5a.75.75 0 0 1 0 1.5h-6.5a.75.75 0 0 1-.75-.75" clip-rule="evenodd"/><path d="M12 10.75a.75.75 0 1 1-1.5 0 .75.75 0 0 1 1.5 0"/><path fill-rule="evenodd" d="M4.036 2.753c-.29.005-.458.025-.567.049a.8.8 0 0 0-.239.09.8.8 0 0 0-.34.34.9.9 0 0 0-.095.267 4 4 0 0 0-.045.7l.001 7.766c.006.29.026.458.05.567.02.095.046.158.09.239q.117.221.34.34a.9.9 0 0 0 .266.095c.132.026.338.045.7.045h7.605c.362 0 .568-.02.7-.045a.9.9 0 0 0 .267-.095.8.8 0 0 0 .34-.34.8.8 0 0 0 .096-.268c.025-.131.045-.337.045-.7V4.2c0-.362-.02-.568-.045-.7a.8.8 0 0 0-.096-.267.8.8 0 0 0-.34-.34.9.9 0 0 0-.267-.096 4 4 0 0 0-.7-.045zm-.007-1.5 7.773-.002c.825 0 1.242.087 1.675.318.41.22.736.545.955.956.231.432.318.849.318 1.674v7.605c0 .824-.086 1.241-.318 1.674-.22.41-.546.736-.956.956-.432.23-.849.317-1.674.317H4.197c-.825 0-1.241-.086-1.674-.317a2.3 2.3 0 0 1-.956-.956c-.212-.396-.303-.78-.316-1.493v-.013L1.25 4.199c0-.825.086-1.242.317-1.674.22-.41.546-.737.956-.956.396-.212.78-.304 1.493-.316z" clip-rule="evenodd"/></g></symbol><symbol id="calendar-date" fill="none" viewBox="0 0 20 20"><path fill="currentColor" fill-rule="evenodd" d="M5.046 3.44a4 4 0 0 0-.709.06c-.12.027-.198.06-.299.113q-.277.149-.425.425a1 1 0 0 0-.12.334c-.031.165-.055.422-.055.875l.001 9.707c.007.364.032.574.062.709.026.12.058.198.112.299q.149.278.425.425c.106.057.192.092.334.12.165.031.422.055.875.055h9.506c.453 0 .71-.024.875-.056.143-.027.228-.062.334-.119q.278-.149.425-.425c.057-.106.092-.191.12-.334.031-.165.055-.422.055-.875V5.247c0-.453-.024-.71-.056-.875a1 1 0 0 0-.119-.334 1 1 0 0 0-.425-.425 1 1 0 0 0-.334-.12c-.165-.031-.422-.055-.875-.055zm-.01-1.876 9.717-.002c1.031 0 1.552.108 2.093.398.513.274.92.682 1.195 1.194.289.54.397 1.062.397 2.093v9.506c0 1.031-.108 1.552-.397 2.093-.275.513-.682.92-1.195 1.195-.54.289-1.062.397-2.093.397H5.247c-1.031 0-1.552-.108-2.093-.397a2.9 2.9 0 0 1-1.194-1.195c-.265-.496-.38-.976-.396-1.867v-.016l-.001-9.716c0-1.031.107-1.552.397-2.093.274-.512.682-.92 1.194-1.194.496-.265.976-.38 1.867-.396zm-.036 4.684c0-.517.42-.937.938-.937h8.125a.937.937 0 1 1 0 1.875H5.938A.937.937 0 0 1 5 6.248m8.448 8.676c-.368 0-.62-.248-.62-.624v-4.263h-.024l-.871.606a.5.5 0 0 1-.33.112.425.425 0 0 1-.438-.446c0-.19.075-.33.269-.466l1.18-.818c.289-.198.487-.235.743-.235.442 0 .706.268.706.698V14.3c0 .376-.248.624-.615.624m-7.416-1.032c.281.586.979 1.077 2.114 1.077 1.382 0 2.32-.718 2.32-1.8 0-.821-.574-1.341-1.462-1.424v-.025c.702-.144 1.243-.64 1.243-1.395 0-.953-.85-1.576-2.11-1.576-1.052 0-1.729.487-1.993 1.069a.94.94 0 0 0-.09.4c0 .301.177.504.523.504.28 0 .425-.104.562-.384.194-.421.5-.632 1.003-.632.602 0 .924.318.924.797 0 .487-.404.825-1.028.825h-.243c-.301 0-.475.182-.475.442 0 .268.174.446.475.446h.26c.722 0 1.147.322 1.143.9 0 .495-.42.85-1.032.85-.619 0-.94-.248-1.151-.665-.124-.227-.28-.326-.529-.326-.342 0-.548.202-.548.524 0 .124.028.256.094.393" clip-rule="evenodd"/></symbol><symbol id="calendar-large" fill="currentColor" viewBox="0 0 32 32"><path fill-rule="evenodd" d="M6.225 5.34c.33-.177.67-.316 1.843-.337L23.605 5c1.447 0 1.814.15 2.169.34q.576.309.886.886c.19.354.34.722.34 2.17v15.209c0 1.447-.15 1.815-.34 2.17q-.31.576-.886.886c-.355.19-.722.34-2.17.34H8.394c-1.447 0-1.814-.15-2.169-.34a2.1 2.1 0 0 1-.886-.886c-.176-.33-.315-.67-.337-1.843L5 8.395c0-1.447.15-1.815.34-2.17q.308-.577.885-.885m20.492-1.764C25.954 3.168 25.213 3 23.604 3L8.05 3.003h-.009c-1.376.024-2.059.199-2.76.573a4.1 4.1 0 0 0-1.705 1.707C3.168 6.046 3 6.786 3 8.396l.002 15.554v.009c.025 1.376.2 2.058.574 2.759a4.1 4.1 0 0 0 1.706 1.706c.763.408 1.503.576 3.113.576h15.21c1.609 0 2.35-.168 3.112-.576a4.1 4.1 0 0 0 1.706-1.706c.408-.763.577-1.504.577-3.113V8.395c0-1.609-.169-2.35-.577-3.112a4.1 4.1 0 0 0-1.706-1.707m-6.79 12.175v6.958c0 .651.352 1.038.953 1.038.608 0 .96-.38.96-1.038v-7.68c0-.724-.466-1.203-1.16-1.203-.401 0-.81.143-1.325.493l-1.281.895c-.365.244-.551.508-.551.81a.67.67 0 0 0 .687.686c.207 0 .386-.064.694-.265l.98-.694zM9.188 21.6c0-.451.322-.78.759-.78.315 0 .55.15.816.536.415.659 1.052 1.01 1.854 1.01 1.073 0 1.768-.58 1.768-1.468s-.709-1.489-1.761-1.489h-.702c-.43 0-.744-.322-.744-.766 0-.43.308-.751.744-.751h.666c.88 0 1.525-.573 1.525-1.36s-.63-1.325-1.54-1.325c-.708 0-1.26.33-1.639.974-.214.357-.465.508-.801.508-.458 0-.788-.322-.788-.788 0-1.145 1.396-2.197 3.265-2.197 1.975 0 3.364 1.066 3.364 2.591 0 1.06-.795 2.033-1.783 2.176v.122c1.189.114 2.084 1.131 2.084 2.37 0 1.71-1.518 2.906-3.673 2.906-1.933 0-3.414-1.088-3.414-2.27M9 8.497a1 1 0 1 0 0 2h14a1 1 0 1 0 0-2z" clip-rule="evenodd"/></symbol><symbol id="calendar-upcoming" fill="none" viewBox="0 0 16 17"><g fill="currentColor"><path fill-rule="evenodd" d="M4 5.501a.75.75 0 0 1 .75-.75h6.5a.75.75 0 0 1 0 1.5h-6.5a.75.75 0 0 1-.75-.75" clip-rule="evenodd"/><path d="M11.5 11a.75.75 0 1 1-1.5 0 .75.75 0 0 1 1.5 0M11.5 8.501a.75.75 0 1 1-1.5 0 .75.75 0 0 1 1.5 0M8.75 11a.75.75 0 1 1-1.5 0 .75.75 0 0 1 1.5 0M8.75 8.501a.75.75 0 1 1-1.5 0 .75.75 0 0 1 1.5 0M6 11a.75.75 0 1 1-1.5 0A.75.75 0 0 1 6 11M6 8.501a.75.75 0 1 1-1.5 0 .75.75 0 0 1 1.5 0"/><path fill-rule="evenodd" d="M4.036 2.753c-.29.005-.458.025-.567.049a.8.8 0 0 0-.239.09.8.8 0 0 0-.34.34.9.9 0 0 0-.095.267 4 4 0 0 0-.045.7l.001 7.766c.006.29.026.458.05.567.02.095.046.158.09.239q.117.221.34.34a.9.9 0 0 0 .266.095c.132.026.338.045.7.045h7.605c.362 0 .568-.02.7-.045a.9.9 0 0 0 .267-.095.8.8 0 0 0 .34-.34.8.8 0 0 0 .096-.268c.025-.131.045-.337.045-.7V4.2c0-.362-.02-.568-.045-.7a.8.8 0 0 0-.096-.267.8.8 0 0 0-.34-.34.9.9 0 0 0-.267-.096 4 4 0 0 0-.7-.045zm-.007-1.5 7.773-.002c.825 0 1.242.087 1.675.318.41.22.736.545.955.956.231.432.318.849.318 1.674v7.605c0 .824-.086 1.241-.318 1.674-.22.41-.546.736-.956.956-.432.23-.849.317-1.674.317H4.197c-.825 0-1.241-.086-1.674-.317a2.3 2.3 0 0 1-.956-.956c-.212-.396-.303-.78-.316-1.493v-.013L1.25 4.199c0-.825.086-1.242.317-1.674.22-.41.546-.737.956-.956.396-.212.78-.304 1.493-.316z" clip-rule="evenodd"/></g></symbol><symbol id="check" fill="currentColor" viewBox="0 0 16 16"><path d="M13.53 4.47c.3.29.3.76 0 1.06l-6.87 7a.75.75 0 0 1-1.07 0L2.46 9.34A.75.75 0 0 1 3.54 8.3l2.58 2.64 6.34-6.45c.3-.3.77-.3 1.07-.01Z"/></symbol><symbol id="checkbox-large" fill="currentColor" viewBox="0 0 32 32"><path fill-rule="evenodd" d="M16 5a11 11 0 1 0 0 22 11 11 0 0 0 0-22M6.808 6.808a13 13 0 1 1 18.384 18.385A13 13 0 0 1 6.808 6.808m13.9 5.819a1 1 0 0 1 0 1.414l-5.334 5.333a1 1 0 0 1-1.414 0l-2.667-2.667a1 1 0 0 1 1.414-1.414l1.96 1.96 4.626-4.626a1 1 0 0 1 1.414 0" clip-rule="evenodd"/></symbol><symbol id="checkbox" fill="currentColor" viewBox="0 0 16 16"><path d="M8 2.751a5.25 5.25 0 1 0 0 10.5 5.25 5.25 0 0 0 0-10.5m-4.773.477a6.75 6.75 0 1 1 9.546 9.546 6.75 6.75 0 0 1-9.546-9.546m7.303 2.91a.75.75 0 0 1 0 1.06L7.864 9.865a.75.75 0 0 1-1.061 0L5.47 8.532A.75.75 0 0 1 6.53 7.47l.803.803L9.47 6.138a.75.75 0 0 1 1.06 0"/></symbol><symbol id="chevron-down" fill="currentColor" viewBox="0 0 16 16"><path fill-rule="evenodd" d="M3.47 6.47a.75.75 0 0 1 1.06 0L8 9.94l3.47-3.47a.75.75 0 1 1 1.06 1.06l-4 4a.75.75 0 0 1-1.06 0l-4-4a.75.75 0 0 1 0-1.06" clip-rule="evenodd"/></symbol><symbol id="chevron-left" fill="currentColor" viewBox="0 0 16 16"><path fill-rule="evenodd" d="M9.53 3.47a.75.75 0 0 1 0 1.06L6.06 8l3.47 3.47a.75.75 0 1 1-1.06 1.06l-4-4a.75.75 0 0 1 0-1.06l4-4a.75.75 0 0 1 1.06 0" clip-rule="evenodd"/></symbol><symbol id="chevron-right" fill="currentColor" viewBox="0 0 16 16"><path fill-rule="evenodd" d="M6.47 3.47a.75.75 0 0 0 0 1.06L9.94 8l-3.47 3.47a.75.75 0 1 0 1.06 1.06l4-4a.75.75 0 0 0 0-1.06l-4-4a.75.75 0 0 0-1.06 0" clip-rule="evenodd"/></symbol><symbol id="chevron-up" fill="currentColor" viewBox="0 0 16 16"><path fill-rule="evenodd" d="M3.47 10.53a.75.75 0 0 0 1.06 0L8 7.062l3.47 3.47a.75.75 0 1 0 1.06-1.06l-4-4a.75.75 0 0 0-1.06 0l-4 4a.75.75 0 0 0 0 1.06z" clip-rule="evenodd"/></symbol><symbol id="code" fill="currentColor" viewBox="0 0 16 16"><path d="M9.35 2.6c.4.1.64.51.54.92l-2.33 9.33a.75.75 0 1 1-1.45-.36l2.33-9.34c.1-.4.5-.64.9-.54ZM5.03 5.15c.3.29.3.77 0 1.06L3.23 8l1.8 1.8a.75.75 0 0 1-1.06 1.06L1.64 8.53a.75.75 0 0 1 0-1.06l2.33-2.33c.3-.3.77-.3 1.06 0Zm5.94 0c.3-.3.77-.3 1.06 0l2.33 2.33a.75.75 0 0 1 0 1.06l-2.33 2.33a.75.75 0 1 1-1.06-1.06l1.8-1.8-1.8-1.8a.75.75 0 0 1 0-1.06"/></symbol><symbol id="comment-large" fill="currentColor" viewBox="0 0 32 32"><path fill-rule="evenodd" d="M3 8a4 4 0 0 1 4-4h18a4 4 0 0 1 4 4v11a4 4 0 0 1-4 4h-7.154L11.7 28.732A1 1 0 0 1 10.018 28v-5H7a4 4 0 0 1-4-4zm4-2a2 2 0 0 0-2 2v11a2 2 0 0 0 2 2h4.018a1 1 0 0 1 1 1v3.7l4.464-4.163A2 2 0 0 1 17.846 21H25a2 2 0 0 0 2-2V8a2 2 0 0 0-2-2z" clip-rule="evenodd"/></symbol><symbol id="comment" fill="none" viewBox="0 0 16 17"><path fill="currentColor" fill-rule="evenodd" d="M1.25 4.501A2.75 2.75 0 0 1 4 1.751h8a2.75 2.75 0 0 1 2.75 2.75v5a2.75 2.75 0 0 1-2.75 2.75h-1.785l-3.818 2.386a.75.75 0 0 1-1.147-.636v-1.75H4a2.75 2.75 0 0 1-2.75-2.75zM4 3.251c-.69 0-1.25.56-1.25 1.25v5c0 .69.56 1.25 1.25 1.25h2a.75.75 0 0 1 .75.75v1.147l2.853-1.783a.75.75 0 0 1 .397-.114h2c.69 0 1.25-.56 1.25-1.25v-5c0-.69-.56-1.25-1.25-1.25z" clip-rule="evenodd"/></symbol><symbol id="complete" fill="none" viewBox="0 0 16 17"><g fill="currentColor" fill-rule="evenodd" clip-rule="evenodd"><path d="M7 4.75a4.25 4.25 0 1 0 0 8.5 4.25 4.25 0 0 0 0-8.5m-4.066.184a5.75 5.75 0 1 1 8.132 8.132 5.75 5.75 0 0 1-8.132-8.132M9.197 7.36a.75.75 0 0 1 0 1.06l-2.222 2.222a.75.75 0 0 1-1.06 0l-1.112-1.11a.75.75 0 0 1 1.06-1.061l.581.58L8.136 7.36a.75.75 0 0 1 1.061 0"/><path d="M6.75 2.251c-.128 0-.167-.172-.046-.212a5.748 5.748 0 0 1 7.108 7.663c-.017.041-.078.026-.075-.02q.013-.215.013-.43a7 7 0 0 0-7-7"/><path d="M8.25.751c-.128 0-.167-.172-.046-.212a5.748 5.748 0 0 1 7.547 5.462 5.8 5.8 0 0 1-.438 2.2c-.017.043-.08.027-.076-.019q.013-.215.013-.43a7 7 0 0 0-7-7"/></g></symbol><symbol id="copy-to-clipboard" fill="currentColor" viewBox="0 0 16 16"><path d="M7.25 2.75a.58.58 0 0 0 0 1.17h1.33a.58.58 0 1 0 0-1.17zm-1.47-.89c.39-.39.92-.6 1.47-.6h1.33a2.08 2.08 0 0 1 1.95 1.32h.72a2.08 2.08 0 0 1 2.08 2.09v2a.75.75 0 0 1-1.5 0v-2a.58.58 0 0 0-.58-.59h-.72a2.08 2.08 0 0 1-1.95 1.34H7.25a2.08 2.08 0 0 1-1.94-1.34h-.73a.58.58 0 0 0-.58.59v8a.58.58 0 0 0 .58.58h6.67a.58.58 0 0 0 .58-.58V12a.75.75 0 0 1 1.5 0v.67a2.08 2.08 0 0 1-2.08 2.08H4.58a2.08 2.08 0 0 1-2.08-2.08v-8a2.08 2.08 0 0 1 2.08-2.09h.73c.1-.26.26-.51.47-.72m4 4.94c.3.3.3.77 0 1.06l-.72.72h4.86a.75.75 0 0 1 0 1.5H9.06l.72.72a.75.75 0 0 1-1.06 1.06l-2-2a.75.75 0 0 1 0-1.06l2-2c.3-.29.77-.29 1.06 0"/></symbol><symbol id="copy" fill="none" viewBox="0 0 16 17"><g fill="currentColor" fill-rule="evenodd" clip-rule="evenodd"><path d="M1 5.75A2.25 2.25 0 0 1 3.25 3.5h7a2.25 2.25 0 0 1 2.25 2.25v7A2.25 2.25 0 0 1 10.25 15h-7A2.25 2.25 0 0 1 1 12.75zM3.25 5a.75.75 0 0 0-.75.75v7c0 .414.336.75.75.75h7a.75.75 0 0 0 .75-.75v-7a.75.75 0 0 0-.75-.75z"/><path d="M3.5 2.505c0-.83.673-1.503 1.502-1.503h7.748A2.25 2.25 0 0 1 15 3.252v7.75a1.5 1.5 0 0 1-1.5 1.5v-9.25a.75.75 0 0 0-.75-.75H5.002l-.001.001L5 2.504z"/><path d="M6.75 6.001a.75.75 0 0 1 .75.75v1.75h1.75a.75.75 0 0 1 0 1.5H7.5v1.75a.75.75 0 0 1-1.5 0v-1.75H4.25a.75.75 0 1 1 0-1.5H6v-1.75a.75.75 0 0 1 .75-.75"/></g></symbol><symbol id="credit-card-base" fill="none" viewBox="0 0 16 17"><path fill="currentColor" fill-rule="evenodd" d="M1.25 4.501a2.25 2.25 0 0 1 2.25-2.25h9a2.25 2.25 0 0 1 2.25 2.25v7a2.25 2.25 0 0 1-2.25 2.25h-9a2.25 2.25 0 0 1-2.25-2.25zm1.5 2.916v4.084c0 .415.336.75.75.75h9a.75.75 0 0 0 .75-.75V7.418zm10.5-1.5H2.75V4.501a.75.75 0 0 1 .75-.75h9a.75.75 0 0 1 .75.75zm-9.333 4.084a.75.75 0 0 1 .75-.75h.666a.75.75 0 1 1 0 1.5h-.666a.75.75 0 0 1-.75-.75m3.333 0A.75.75 0 0 1 8 9.25h.667a.75.75 0 0 1 0 1.5H8a.75.75 0 0 1-.75-.75" clip-rule="evenodd"/></symbol><symbol id="credit-card-large" fill="none" viewBox="0 0 32 33"><g fill="currentColor" fill-rule="evenodd" clip-rule="evenodd"><path d="M8.333 20a1 1 0 0 1 1-1h1.334a1 1 0 1 1 0 2H9.333a1 1 0 0 1-1-1M15 20a1 1 0 0 1 1-1h1.333a1 1 0 1 1 0 2H16a1 1 0 0 1-1-1"/><path d="M3 9.002a4 4 0 0 1 4-4h18a4 4 0 0 1 4 4v14a4 4 0 0 1-4 4H7a4 4 0 0 1-4-4zm2 0a2 2 0 0 1 2-2h18a2 2 0 0 1 2 2v3.332H5zm0 14a2 2 0 0 0 2 2h18a2 2 0 0 0 2-2v-8.668H5zm4.333-4.001a1 1 0 1 0 0 2h1.334a1 1 0 1 0 0-2zM16 19a1 1 0 1 0 0 2h1.333a1 1 0 1 0 0-2z"/></g></symbol><symbol id="description" fill="none" viewBox="0 0 16 17"><g fill="currentColor" fill-rule="evenodd" clip-rule="evenodd"><path d="M1.75 3.501a.75.75 0 0 1 .75-.75h11a.75.75 0 0 1 0 1.5h-11a.75.75 0 0 1-.75-.75M1.75 8.001a.75.75 0 0 1 .75-.75h11a.75.75 0 0 1 0 1.5h-11a.75.75 0 0 1-.75-.75M1.75 12.501a.75.75 0 0 1 .75-.75h7a.75.75 0 0 1 0 1.5h-7a.75.75 0 0 1-.75-.75"/></g></symbol><symbol id="desktop" fill="none" viewBox="0 0 16 17"><path fill="currentColor" fill-rule="evenodd" d="M.25 3.501a2.25 2.25 0 0 1 2.25-2.25h11a2.25 2.25 0 0 1 2.25 2.25v6a2.25 2.25 0 0 1-2.25 2.25H9.25v1.5H12a.75.75 0 0 1 0 1.5H4a.75.75 0 0 1 0-1.5h2.75v-1.5H2.5a2.25 2.25 0 0 1-2.25-2.25zm2.25-.75a.75.75 0 0 0-.75.75v6c0 .414.336.75.75.75h11a.75.75 0 0 0 .75-.75v-6a.75.75 0 0 0-.75-.75z" clip-rule="evenodd"/></symbol><symbol id="double-arrows" fill="currentColor" viewBox="0 0 16 16"><path d="M8 2.25c.21 0 .41.1.55.25l2.75 3a.75.75 0 0 1-1.1 1L8 4.12l-2.2 2.4A.75.75 0 0 1 4.7 5.5l2.75-3A.75.75 0 0 1 8 2.25m-3.26 7.2a.75.75 0 0 1 1.06.05L8 11.9l2.2-2.4a.75.75 0 0 1 1.1 1l-2.75 3a.75.75 0 0 1-1.1 0l-2.75-3a.75.75 0 0 1 .04-1.05"/></symbol><symbol id="download" fill="currentColor" viewBox="0 0 16 16"><path d="M7.47 10.53c.3.3.77.3 1.06 0l3-3a.75.75 0 1 0-1.06-1.06L8.75 8.2V2a.75.75 0 1 0-1.5 0v6.2L5.53 6.46a.75.75 0 0 0-1.06 1.06l3 3Z"/><path d="M1 10.25c.41 0 .75.34.75.75v1c0 .7.56 1.25 1.25 1.25h10c.7 0 1.25-.56 1.25-1.25v-1a.75.75 0 0 1 1.5 0v1A2.75 2.75 0 0 1 13 14.75H3A2.75 2.75 0 0 1 .25 12v-1c0-.41.34-.75.75-.75"/></symbol><symbol id="extension-base" fill="none" viewBox="0 0 16 17"><path fill="currentColor" fill-rule="evenodd" d="M1.25 4c0-.966.784-1.75 1.75-1.75h7c.967 0 1.75.784 1.75 1.75v2.001a2.5 2.5 0 1 1 0 4V12A1.75 1.75 0 0 1 10 13.75H3A1.75 1.75 0 0 1 1.25 12V9.534c0-.71.575-1.284 1.284-1.284.437 0 .78.22.996.445a1 1 0 1 0 .001-1.389 1.4 1.4 0 0 1-.996.444c-.71 0-1.285-.576-1.285-1.285zM3 3.75a.25.25 0 0 0-.25.25v2.001a2.5 2.5 0 1 1 0 4V12c0 .138.112.25.25.25h7a.25.25 0 0 0 .25-.25V9.534c0-.71.575-1.284 1.284-1.284.437 0 .78.22.996.445a1 1 0 1 0 .001-1.389 1.4 1.4 0 0 1-.995.444c-.71 0-1.286-.576-1.286-1.285V4a.25.25 0 0 0-.25-.25z" clip-rule="evenodd"/></symbol><symbol id="extension-large" fill="none" viewBox="0 0 32 33"><path fill="currentColor" fill-rule="evenodd" d="M3 8a3 3 0 0 1 3-3h14a3 3 0 0 1 3 3v4.93c0 .038.032.07.07.07.002 0 .019 0 .054-.017a.5.5 0 0 0 .14-.108 4.5 4.5 0 1 1-.006 6.25.5.5 0 0 0-.138-.108C23.085 19 23.069 19 23.068 19a.07.07 0 0 0-.068.068V24a3 3 0 0 1-3 3H6a3 3 0 0 1-3-3v-4.932C3 17.926 3.926 17 5.068 17c.699 0 1.262.354 1.631.737a2.5 2.5 0 1 0 .003-3.472c-.369.382-.932.735-1.631.735A2.07 2.07 0 0 1 3 12.93zm3-1a1 1 0 0 0-1 1v4.93c0 .038.032.07.07.07.002 0 .02 0 .054-.017a.5.5 0 0 0 .14-.108 4.5 4.5 0 1 1-.006 6.25.5.5 0 0 0-.138-.108C5.085 19 5.07 19 5.068 19a.07.07 0 0 0-.068.068V24a1 1 0 0 0 1 1h14a1 1 0 0 0 1-1v-4.932c0-1.142.926-2.068 2.068-2.068.699 0 1.263.354 1.631.737a2.5 2.5 0 1 0 .003-3.472c-.369.382-.932.735-1.631.735A2.07 2.07 0 0 1 21 12.93V8a1 1 0 0 0-1-1z" clip-rule="evenodd"/></symbol><symbol id="external-link" fill="currentColor" viewBox="0 0 16 16"><path fill-rule="evenodd" d="M8.667 2.667c0-.369.298-.667.667-.667h4c.368 0 .666.298.666.667v4a.667.667 0 1 1-1.333 0v-2.39L7.138 9.804a.667.667 0 1 1-.942-.943l5.528-5.529h-2.39a.667.667 0 0 1-.667-.666ZM2.586 3.919A2 2 0 0 1 4 3.333h2.667a.667.667 0 0 1 0 1.334H4a.667.667 0 0 0-.666.666V12a.667.667 0 0 0 .666.667h6.667a.667.667 0 0 0 .667-.667V9.333a.667.667 0 0 1 1.333 0V12a2 2 0 0 1-2 2H4a2 2 0 0 1-2-2V5.333a2 2 0 0 1 .586-1.414" clip-rule="evenodd"/></symbol><symbol id="eye-large" fill="none" viewBox="0 0 32 32"><path fill="currentColor" fill-rule="evenodd" d="M4.33 16c1.661 4.85 6.26 8.334 11.67 8.334S26.01 20.849 27.67 16C26.01 11.151 21.41 7.667 16 7.667S5.991 11.15 4.33 16m-2.007-.3C4.15 9.887 9.581 5.668 16 5.668c6.42 0 11.851 4.22 13.677 10.034.061.195.061.404 0 .599C27.851 22.114 22.42 26.334 16 26.334S4.15 22.114 2.323 16.3a1 1 0 0 1 0-.6M16 13a3 3 0 1 0 0 6 3 3 0 0 0 0-6m-5 3a5 5 0 1 1 10 0 5 5 0 0 1-10 0" clip-rule="evenodd"/></symbol><symbol id="eye" fill="currentColor" viewBox="0 0 16 16"><path d="M2.43 8a5.92 5.92 0 0 0 11.14 0A5.92 5.92 0 0 0 2.43 8m-1.5-.22a7.42 7.42 0 0 1 14.15 0c.04.14.04.3 0 .45a7.42 7.42 0 0 1-14.16 0 .75.75 0 0 1 0-.45ZM8 6.75a1.25 1.25 0 1 0 0 2.5 1.25 1.25 0 0 0 0-2.5M5.25 8a2.75 2.75 0 1 1 5.5 0 2.75 2.75 0 0 1-5.5 0"/></symbol><symbol id="facebook" fill="none" viewBox="0 0 16 17"><clipPath><path d="M0 .001h16v16H0z"/></clipPath><g clip-path="url(#a)"><path fill="currentColor" d="M15.5 8a7.5 7.5 0 1 0-8.672 7.409v-5.241H4.924V8h1.904V6.348c0-1.88 1.12-2.918 2.833-2.918.82 0 1.679.146 1.679.146v1.846h-.946c-.932 0-1.222.578-1.222 1.171V8h2.08l-.333 2.168H9.172v5.24A7.5 7.5 0 0 0 15.5 8"/></g></symbol><symbol id="filter" fill="none" viewBox="0 0 16 17"><path fill="currentColor" fill-rule="evenodd" d="M6.909 2.038c.35-1.049 1.833-1.049 2.182 0 .314.943.727 1.713 1.309 2.52a45 45 0 0 0 .67.877c.278.358.577.745.694.913.638.914.986 1.779.986 2.853a4.75 4.75 0 1 1-9.5 0c0-1.074.348-1.94.986-2.853.117-.168.416-.555.694-.913l.052-.068c.272-.351.521-.673.618-.808.582-.808.995-1.578 1.309-2.521M8 3.382c-.317.732-.705 1.39-1.183 2.053-.113.158-.376.497-.634.831l-.067.087c-.293.378-.56.725-.65.854-.513.734-.716 1.305-.716 1.994a3.25 3.25 0 0 0 6.5 0c0-.69-.203-1.26-.716-1.994-.09-.13-.357-.476-.65-.854l-.067-.087a43 43 0 0 1-.634-.83A11 11 0 0 1 8 3.381" clip-rule="evenodd"/></symbol><symbol id="folder-large" fill="currentColor" viewBox="0 0 32 32"><path fill-rule="evenodd" d="M7 7.182a2 2 0 0 0-2 2v13.636a2 2 0 0 0 2 2h18a2 2 0 0 0 2-2V12.736a2 2 0 0 0-2-2h-9.105a2 2 0 0 1-1.762-1.054l-.777-1.446a2 2 0 0 0-1.762-1.054zm-4 2a4 4 0 0 1 4-4h4.594a4 4 0 0 1 3.524 2.107l.777 1.447H25a4 4 0 0 1 4 4v10.082a4 4 0 0 1-4 4H7a4 4 0 0 1-4-4z" clip-rule="evenodd"/></symbol><symbol id="folder" fill="none" viewBox="0 0 20 20"><path fill="currentColor" fill-rule="evenodd" d="M4.545 4.8c-.611 0-1.108.496-1.108 1.108v8.182c0 .612.497 1.108 1.108 1.108h10.91c.611 0 1.107-.496 1.107-1.108V8.635c0-.612-.496-1.108-1.108-1.108H9.898l-.903-2.063A1.11 1.11 0 0 0 7.98 4.8zM1.562 5.908a2.983 2.983 0 0 1 2.983-2.983H7.98c1.186 0 2.258.701 2.733 1.787l.412.94h4.33a2.983 2.983 0 0 1 2.983 2.983v5.455a2.983 2.983 0 0 1-2.983 2.983H4.544a2.983 2.983 0 0 1-2.983-2.983z" clip-rule="evenodd"/></symbol><symbol id="full-screen" fill="none" viewBox="0 0 16 17"><path fill="currentColor" fill-rule="evenodd" d="M10 2.75a.75.75 0 1 1 0-1.5h4a.75.75 0 0 1 .75.75v4a.75.75 0 0 1-1.5 0V3.812l-2.72 2.72a.75.75 0 1 1-1.06-1.06l2.72-2.72zm-8 6.5a.75.75 0 0 1 .75.75v2.19l2.72-2.72a.75.75 0 1 1 1.06 1.061l-2.72 2.72H6a.75.75 0 0 1 0 1.5H2a.75.75 0 0 1-.75-.75v-4A.75.75 0 0 1 2 9.25" clip-rule="evenodd"/></symbol><symbol id="funnel" fill="currentColor" viewBox="0 0 16 16"><path d="M2.75 3.25v1.6L7 9.12c.27.26.42.62.42 1v2.58l1.16-1.17v-1.41c0-.38.15-.74.42-1l4.25-4.25V3.25zM1.66 2.16c.27-.26.63-.41 1-.41h10.67a1.42 1.42 0 0 1 1.42 1.42v1.72c0 .38-.15.74-.42 1l-4.25 4.25v1.7c0 .2-.08.38-.22.52L7.2 15.03a.75.75 0 0 1-1.28-.53v-4.36L1.67 5.9a1.42 1.42 0 0 1-.42-1V3.17c0-.38.15-.74.41-1z"/></symbol><symbol id="gear-base" fill="none" viewBox="0 0 16 17"><g fill="currentColor" fill-rule="evenodd" clip-rule="evenodd"><path d="M9.846 2.703c-.47-1.935-3.222-1.935-3.692 0a.4.4 0 0 1-.595.246c-1.7-1.035-3.647.91-2.61 2.61a.4.4 0 0 1-.248.597c-1.935.469-1.935 3.221 0 3.69a.4.4 0 0 1 .246.596c-1.035 1.701.911 3.647 2.611 2.611a.4.4 0 0 1 .596.247c.47 1.935 3.222 1.935 3.691 0a.4.4 0 0 1 .596-.246c1.7 1.035 3.646-.91 2.61-2.611a.4.4 0 0 1 .248-.596c1.934-.47 1.935-3.222 0-3.691a.4.4 0 0 1-.246-.596c1.035-1.7-.911-3.646-2.611-2.61a.4.4 0 0 1-.596-.247m-1.458.353c-.099-.406-.677-.406-.776 0A1.898 1.898 0 0 1 4.78 4.23c-.358-.218-.768.192-.55.549a1.9 1.9 0 0 1-1.174 2.834c-.407.099-.406.678 0 .776a1.9 1.9 0 0 1 1.174 2.834c-.218.358.191.767.549.55a1.9 1.9 0 0 1 2.834 1.173c.099.407.677.406.776 0a1.9 1.9 0 0 1 2.833-1.173c.358.218.768-.192.55-.55a1.9 1.9 0 0 1 1.174-2.834c.407-.099.406-.677 0-.776A1.9 1.9 0 0 1 11.77 4.78c.218-.358-.191-.767-.549-.55a1.9 1.9 0 0 1-2.834-1.174"/><path d="M9.945 9.946a2.75 2.75 0 1 0-3.89-3.89 2.75 2.75 0 0 0 3.89 3.89m-1.061-1.06a1.25 1.25 0 1 0-1.768-1.769 1.25 1.25 0 0 0 1.768 1.768"/></g></symbol><symbol id="gear-large" fill="none" viewBox="0 0 32 33"><g fill="currentColor" fill-rule="evenodd" clip-rule="evenodd"><path d="M19.205 5.523c-.815-3.36-5.594-3.36-6.41 0l-.304.571a1.3 1.3 0 0 1-1.633.23C7.903 4.526 4.524 7.906 6.322 10.86a1.3 1.3 0 0 1-.802 1.938c-3.36.815-3.36 5.595 0 6.41a1.3 1.3 0 0 1 .8 1.938c-1.797 2.954 1.583 6.333 4.536 4.534a1.3 1.3 0 0 1 1.938.803c.815 3.36 5.594 3.36 6.41 0a1.298 1.298 0 0 1 1.938-.801c2.954 1.798 6.332-1.583 4.534-4.535a1.298 1.298 0 0 1 .803-1.938c3.36-.816 3.36-5.595 0-6.41a1.3 1.3 0 0 1-.802-1.938c1.798-2.954-1.582-6.333-4.535-4.534a1.3 1.3 0 0 1-1.938-.803m-6.41 18.217a3.3 3.3 0 0 1 1.944 2.27c.32 1.323 2.202 1.322 2.523 0a3.3 3.3 0 0 1 4.92-2.038c1.164.709 2.494-.623 1.787-1.785a3.3 3.3 0 0 1 2.04-4.923c1.322-.321 1.321-2.202-.001-2.523A3.298 3.298 0 0 1 23.97 9.82c.708-1.164-.624-2.494-1.786-1.786a3.3 3.3 0 0 1-4.923-2.04c-.32-1.322-2.202-1.322-2.523 0a3.3 3.3 0 0 1-3.527 2.507 3.3 3.3 0 0 1-1.394-.469c-1.163-.708-2.494.624-1.786 1.786a3.298 3.298 0 0 1-2.04 4.923c-1.321.32-1.321 2.202 0 2.523a3.3 3.3 0 0 1 2.04 4.921c-.71 1.164.622 2.494 1.784 1.786a3.3 3.3 0 0 1 2.98-.23"/><path d="M16 13.002a3 3 0 1 0 0 6 3 3 0 0 0 0-6m-3.535-.535a5 5 0 1 1 7.07 7.07 5 5 0 0 1-7.07-7.07"/></g></symbol><symbol id="gift" fill="none" viewBox="0 0 16 16"><g clip-path="url(#a)"><path fill="currentColor" fill-rule="evenodd" d="M13 14.75c.97 0 1.75-.78 1.75-1.75V8.58c.6-.28 1-.88 1-1.58V6c0-.97-.78-1.75-1.75-1.75h-1.55A2.75 2.75 0 0 0 8 1.11a2.74 2.74 0 0 0-4.75 1.9c0 .44.1.87.3 1.24H2C1.03 4.25.25 5.03.25 6v1c0 .7.4 1.3 1 1.58V13c0 .97.78 1.75 1.75 1.75zm-10.25-6V13c0 .14.11.25.25.25h4.25v-4.5zm6 0v4.5H13c.14 0 .25-.11.25-.25V8.75zM2 5.75a.25.25 0 0 0-.25.25v1c0 .14.11.25.25.25h5.25v-1.5zm6.75 0v1.5H14c.14 0 .25-.11.25-.25V6a.25.25 0 0 0-.25-.25zm1.25-4c-.69 0-1.25.56-1.25 1.25v1.25H10a1.25 1.25 0 1 0 0-2.5m-4 0c.69 0 1.25.56 1.25 1.25v1.25H6a1.25 1.25 0 1 1 0-2.5" clip-rule="evenodd"/></g><defs><clipPath><path fill="currentColor" d="M0 0h16v16H0z"/></clipPath></defs></symbol><symbol id="globe-lines-large" fill="currentColor" viewBox="0 0 32 32"><path fill-rule="evenodd" d="M12.957 5.429a11 11 0 0 0-7.911 9.57h5.967c.08-3 .52-5.73 1.21-7.8.214-.644.458-1.24.734-1.77M16 2.999a13 13 0 1 0 0 26 13 13 0 0 0 0-26m3.043 2.43a11 11 0 0 1 7.912 9.57h-5.968c-.08-3-.52-5.73-1.21-7.8a12 12 0 0 0-.734-1.77m-.057 9.57c-.08-2.828-.496-5.337-1.106-7.169-.343-1.027-.729-1.787-1.108-2.269C16.382 5.068 16.115 5 16 5s-.383.069-.772.562c-.38.482-.765 1.242-1.108 2.27-.61 1.831-1.026 4.34-1.106 7.168zm-5.972 2h5.972c-.08 2.829-.496 5.338-1.106 7.17-.343 1.027-.729 1.786-1.108 2.268-.39.493-.657.562-.772.562s-.383-.069-.772-.562c-.38-.482-.765-1.241-1.108-2.269-.61-1.831-1.026-4.34-1.106-7.169m-2 0H5.045a11 11 0 0 0 7.91 9.57c-.275-.529-.519-1.125-.733-1.768-.69-2.071-1.13-4.802-1.21-7.802m8.03 9.57c.275-.529.519-1.125.733-1.768.69-2.071 1.13-4.802 1.21-7.802h5.968a11 11 0 0 1-7.912 9.57" clip-rule="evenodd"/></symbol><symbol id="globe-lines" fill="currentColor" viewBox="0 0 16 16"><path fill-rule="evenodd" d="M6.012 3.14a5.25 5.25 0 0 0-3.208 4.11h2.46c.058-1.424.275-2.723.61-3.73q.065-.194.138-.38M8 1.25a6.75 6.75 0 1 0 0 13.5 6.75 6.75 0 0 0 0-13.5m0 1.505a.65.65 0 0 0-.19.18c-.165.21-.346.56-.513 1.06-.277.832-.475 1.965-.53 3.255h2.467c-.056-1.29-.254-2.423-.531-3.256-.167-.5-.348-.849-.514-1.059A.65.65 0 0 0 8 2.755m2.735 4.495c-.057-1.424-.274-2.723-.61-3.73a8 8 0 0 0-.137-.38 5.25 5.25 0 0 1 3.208 4.11h-2.46Zm-1.501 1.5H6.766c.056 1.289.254 2.422.531 3.255.167.5.348.849.514 1.059.096.122.16.166.189.18a.65.65 0 0 0 .19-.18c.165-.21.346-.56.513-1.06.277-.832.475-1.965.53-3.254Zm-3.222 4.108a8 8 0 0 1-.138-.379c-.335-1.006-.552-2.306-.61-3.73h-2.46a5.25 5.25 0 0 0 3.208 4.11Zm3.976 0q.074-.185.138-.379c.335-1.006.552-2.306.61-3.73h2.46a5.25 5.25 0 0 1-3.208 4.11Z" clip-rule="evenodd"/></symbol><symbol id="globe" fill="none" viewBox="0 0 16 17"><path fill="currentColor" fill-rule="evenodd" d="M8 1.335A6.67 6.67 0 0 0 1.333 8 6.67 6.67 0 0 0 8 14.668 6.67 6.67 0 0 0 14.666 8 6.67 6.67 0 0 0 8 1.335m-.667 11.953A5.326 5.326 0 0 1 2.666 8c0-.413.054-.806.14-1.193L6 10v.667C6 11.4 6.6 12 7.333 12zm3.333-2.62c.6 0 1.094.387 1.267.927A5.3 5.3 0 0 0 13.333 8 5.34 5.34 0 0 0 10 3.061v.274c0 .733-.6 1.333-1.334 1.333H7.333V6c0 .367-.3.667-.667.667H5.333V8h4c.367 0 .667.3.667.667v2z" clip-rule="evenodd"/></symbol><symbol id="group-large" fill="currentColor" viewBox="0 0 32 32"><path fill-rule="evenodd" d="M7 10a3 3 0 1 1 6 0 3 3 0 0 1-6 0m3-5a5 5 0 1 0 0 10 5 5 0 0 0 0-10m0 12c-2.56 0-4.948.62-6.71 1.663-1.688.933-2.957 2.332-2.957 4.334 0 .834.278 1.518.822 1.988.538.463 1.293.682 2.183.682h13.324c.89 0 1.645-.219 2.183-.682.544-.47.822-1.154.822-1.988 0-2.002-1.269-3.401-2.957-4.334C14.948 17.619 12.56 17 10 17m-5.702 3.39C5.702 19.556 7.73 19 10 19s4.298.555 5.702 1.39l.014.01.015.007c1.353.744 1.936 1.597 1.936 2.59 0 .195-.031.308-.056.367a.26.26 0 0 1-.073.106c-.06.052-.289.197-.876.197H3.338c-.587 0-.816-.145-.876-.197l-.59.684.59-.684a.26.26 0 0 1-.073-.106 1 1 0 0 1-.056-.367c0-.993.583-1.846 1.936-2.59l.014-.008z" clip-rule="evenodd"/><path fill-rule="evenodd" d="M19 9.998a3 3 0 1 1 6 0 3 3 0 0 1-6 0m3-5a5 5 0 1 0 0 10 5 5 0 0 0 0-10M17.83 17.58A14.9 14.9 0 0 1 22 17c2.56 0 4.948.62 6.71 1.663 1.688.933 2.957 2.332 2.957 4.334 0 .834-.278 1.518-.823 1.988-.537.463-1.293.682-2.183.682H20.27c.477-.579.751-1.269.852-2h7.54c.588 0 .817-.145.877-.197a.26.26 0 0 0 .073-.106 1 1 0 0 0 .056-.367c0-.993-.583-1.846-1.936-2.59l-.015-.008-.014-.008C26.298 19.555 24.27 19 22 19c-.785 0-1.54.066-2.25.187a8 8 0 0 0-1.92-1.608" clip-rule="evenodd"/></symbol><symbol id="group" fill="none" viewBox="0 0 22 20"><g fill="currentColor" fill-rule="evenodd" clip-rule="evenodd"><path d="M5.687 6.25a1.562 1.562 0 1 1 3.125 0 1.562 1.562 0 0 1-3.125 0M7.25 2.813a3.437 3.437 0 1 0 0 6.875 3.437 3.437 0 0 0 0-6.875m0 7.5c-1.645 0-3.192.396-4.35 1.08-1.106.613-2.004 1.573-2.004 2.98 0 .594.2 1.115.622 1.479.41.354.965.502 1.568.502h8.327c.604 0 1.158-.148 1.569-.502.422-.364.622-.885.622-1.479 0-1.407-.898-2.367-2.005-2.98-1.157-.684-2.705-1.08-4.35-1.08m-3.404 2.7c.821-.49 2.031-.825 3.404-.825s2.582.336 3.404.825l.013.008.014.007c.792.436 1.048.883 1.048 1.345l-.004.069a1 1 0 0 1-.312.037H3.086c-.167 0-.263-.021-.312-.037l-.003-.069c0-.462.255-.91 1.047-1.345l.014-.007z"/><path d="M13.187 6.249a1.562 1.562 0 1 1 3.125 0 1.562 1.562 0 0 1-3.125 0M14.75 2.81a3.437 3.437 0 1 0 0 6.875 3.437 3.437 0 0 0 0-6.875m-2.562 7.839a9.7 9.7 0 0 1 2.562-.337c1.644 0 3.192.396 4.349 1.08 1.107.613 2.005 1.573 2.005 2.98 0 .594-.2 1.115-.622 1.479-.411.354-.965.502-1.569.502H13.81c.487-.525.71-1.193.73-1.875h4.374c.167 0 .264-.021.312-.037l.004-.069c0-.462-.256-.91-1.048-1.345l-.014-.007-.013-.008c-.822-.49-2.032-.826-3.404-.826q-.432 0-.839.043c-.443-.679-1.07-1.199-1.723-1.58"/></g></symbol><symbol id="hash" fill="currentColor" viewBox="0 0 16 16"><path d="M7.52 1.94c.4.1.64.5.54.91l-.6 2.4h2.45l.7-2.76a.75.75 0 0 1 1.45.36l-.6 2.4h1.87a.75.75 0 0 1 0 1.5H11.1l-.63 2.5H12a.75.75 0 1 1 0 1.5h-1.91l-.7 2.77a.75.75 0 0 1-1.45-.37l.6-2.4H6.09l-.7 2.77a.75.75 0 0 1-1.45-.37l.6-2.4H2.67a.75.75 0 1 1 0-1.5H4.9l.63-2.5H4a.75.75 0 0 1 0-1.5h1.91l.7-2.76c.1-.4.5-.65.9-.55ZM6.46 9.25h2.45l.63-2.5H7.09z"/></symbol><symbol id="help" fill="currentColor" viewBox="0 0 16 16"><path fill-rule="evenodd" d="m4.856 3.795 1.317 1.317a3.42 3.42 0 0 1 3.654 0l1.317-1.317a5.25 5.25 0 0 0-6.288 0m7.349 1.06-1.318 1.318a3.42 3.42 0 0 1 0 3.653l1.318 1.317a5.25 5.25 0 0 0 0-6.287Zm-1.061 7.35-1.317-1.318a3.42 3.42 0 0 1-3.654 0l-1.317 1.317a5.25 5.25 0 0 0 6.288 0Zm-7.349-1.062a5.25 5.25 0 0 1 0-6.287l1.318 1.317a3.42 3.42 0 0 0 0 3.653zM6.63 6.66a1.917 1.917 0 1 0 2.74 2.68 1.917 1.917 0 0 0-2.74-2.68m-3.409 6.108.012.011a6.75 6.75 0 0 0 9.534 0l.006-.005.006-.006a6.75 6.75 0 1 0-9.558 0" clip-rule="evenodd"/></symbol><symbol id="image" fill="none" viewBox="0 0 16 16"><path fill="currentColor" fill-rule="evenodd" d="M4.03 1.25h7.77c.83 0 1.24.09 1.68.32.4.22.73.54.95.95.23.44.32.85.32 1.68v7.6a3.2 3.2 0 0 1-.32 1.68 2.3 2.3 0 0 1-.95.95 3.2 3.2 0 0 1-1.68.32H4.2a3.2 3.2 0 0 1-1.68-.32 2.3 2.3 0 0 1-.95-.95c-.21-.4-.3-.78-.32-1.5V4.2c0-.83.09-1.24.32-1.68.22-.4.54-.73.95-.95.4-.21.78-.3 1.5-.32zm6.43 7.14-2 3.02a.75.75 0 0 1-1.22.03L6.09 9.9l-2.34 3.35.45.01h7.6c.36 0 .57-.02.7-.04a.9.9 0 0 0 .27-.1.8.8 0 0 0 .39-.44l-2.7-4.28Zm.65-1.79a.75.75 0 0 0-1.26-.01l-2.04 3.1-1.13-1.53a.75.75 0 0 0-1.21.01l-2.72 3.88V4.2c0-.36.02-.57.04-.7a.9.9 0 0 1 .1-.27.8.8 0 0 1 .34-.34.8.8 0 0 1 .24-.09c.1-.02.28-.04.57-.05h7.76c.36 0 .57.02.7.05.12.02.18.05.27.1.15.07.26.18.34.33.04.09.07.15.1.27.02.13.04.34.04.7V10l-2.13-3.4Z" clip-rule="evenodd"/><path fill="currentColor" d="M6 5a1 1 0 1 1-2 0 1 1 0 0 1 2 0"/></symbol><symbol id="info-circle" fill="currentColor" viewBox="0 0 16 16"><path d="M8 2.751a5.25 5.25 0 1 0 0 10.5 5.25 5.25 0 0 0 0-10.5m-4.773.477a6.75 6.75 0 1 1 9.546 9.546 6.75 6.75 0 0 1-9.546-9.546M7.25 5.334a.75.75 0 0 1 .75-.75h.007a.75.75 0 0 1 0 1.5H8a.75.75 0 0 1-.75-.75M8 7.251a.75.75 0 0 1 .75.75v2.667a.75.75 0 1 1-1.5 0V8A.75.75 0 0 1 8 7.25Z"/></symbol><symbol id="instagram" fill="none" viewBox="0 0 16 17"><g fill="currentColor"><path fill-rule="evenodd" d="M4.405 8.001a3.595 3.595 0 1 1 7.19 0 3.595 3.595 0 0 1-7.19 0M8 10.335a2.333 2.333 0 1 1 0-4.667 2.333 2.333 0 0 1 0 4.667" clip-rule="evenodd"/><path d="M12.577 4.265a.84.84 0 1 1-1.68 0 .84.84 0 0 1 1.68 0"/><path fill-rule="evenodd" d="M5.114 1.043c.747-.034.985-.042 2.886-.042s2.14.008 2.886.042c.745.034 1.254.153 1.7.326.46.179.85.418 1.24.807.388.39.628.78.806 1.24.173.445.292.954.326 1.7S15 6.1 15 8s-.008 2.14-.042 2.886c-.034.745-.153 1.254-.326 1.7-.178.46-.418.85-.807 1.24-.389.388-.78.628-1.24.807-.445.173-.954.291-1.699.325-.747.034-.985.042-2.886.042s-2.14-.008-2.886-.042c-.745-.034-1.254-.152-1.7-.325a3.4 3.4 0 0 1-1.24-.808c-.388-.389-.628-.78-.807-1.24-.173-.445-.29-.954-.325-1.699C1.008 10.141 1 9.902 1 8.001c0-1.9.008-2.14.042-2.886.034-.745.152-1.254.325-1.7.18-.46.419-.85.808-1.239s.78-.628 1.24-.807c.445-.173.954-.292 1.699-.326M8 2.263c1.87 0 2.09.007 2.829.04.682.031 1.053.145 1.3.241.326.127.56.279.804.524.245.245.397.478.524.805.096.246.21.617.24 1.3.035.738.042.96.042 2.828 0 1.87-.007 2.09-.041 2.829-.031.682-.145 1.053-.241 1.3a2.2 2.2 0 0 1-.524.804 2.2 2.2 0 0 1-.805.524c-.246.096-.617.21-1.3.241-.737.034-.959.041-2.828.041-1.87 0-2.09-.007-2.829-.04-.682-.032-1.053-.146-1.3-.242a2.2 2.2 0 0 1-.804-.524 2.2 2.2 0 0 1-.524-.804c-.096-.247-.21-.618-.24-1.3-.035-.738-.042-.96-.042-2.829s.007-2.09.041-2.828c.031-.683.145-1.054.241-1.3.127-.327.279-.56.524-.805s.478-.397.805-.524c.246-.096.617-.21 1.3-.24.738-.034.959-.042 2.828-.042" clip-rule="evenodd"/></g></symbol><symbol id="karma" fill="none" viewBox="0 0 16 17"><g fill="currentColor" fill-rule="evenodd" clip-rule="evenodd"><path d="M2.942 3.752h.708c.673 0 1.112.251 1.426.754.348.56.573 1.494.573 2.895l-.009 5.095c-1.13-1.181-1.767-2.7-1.902-4.59-.096-1.34-.25-2.38-.461-3.18a6 6 0 0 0-.335-.974M1.68 2.525c.274-.217.601-.273.869-.273h1.1c1.16 0 2.096.493 2.699 1.461.567.911.8 2.178.8 3.688l-.011 6.49a.86.86 0 0 1-1.362.697c-2.159-1.554-3.334-3.775-3.534-6.575-.092-1.29-.238-2.23-.416-2.904a4.4 4.4 0 0 0-.315-.873v-.001c-.01-.019-.113-.219-.133-.262a1.2 1.2 0 0 1-.128-.53c0-.336.127-.68.43-.918M10.923 4.506c-.349.56-.573 1.494-.573 2.895v5.097c1.137-1.182 1.776-2.7 1.91-4.592.097-1.34.252-2.38.462-3.18a6 6 0 0 1 .335-.974h-.708c-.673 0-1.112.251-1.426.754m1.426-2.254c-1.16 0-2.096.493-2.699 1.461-.567.911-.8 2.177-.8 3.688v6.489a.86.86 0 0 0 1.361.699c2.166-1.553 3.346-3.775 3.546-6.576.092-1.29.238-2.23.416-2.904a4.4 4.4 0 0 1 .315-.873v-.001l.133-.262a1.2 1.2 0 0 0 .128-.53c0-.336-.127-.68-.43-.918-.276-.217-.602-.273-.87-.273z"/></g></symbol><symbol id="label" fill="none" viewBox="0 0 16 17"><g fill="currentColor"><path d="M10.749 6.78a1 1 0 1 1-1.415-1.413A1 1 0 0 1 10.75 6.78"/><path fill-rule="evenodd" d="M12.932 3.933a.75.75 0 0 0-.75-.75H7.939a.75.75 0 0 0-.53.22L3.252 7.56a.75.75 0 0 0 0 1.06l4.243 4.243a.75.75 0 0 0 1.06 0l4.157-4.157a.75.75 0 0 0 .22-.53zm-.75-2.25a2.25 2.25 0 0 1 2.25 2.25v4.243a2.25 2.25 0 0 1-.659 1.59l-4.157 4.158a2.25 2.25 0 0 1-3.182 0L2.191 9.68a2.25 2.25 0 0 1 0-3.182l4.157-4.157a2.25 2.25 0 0 1 1.591-.659z" clip-rule="evenodd"/></g></symbol><symbol id="light-bulb-base" fill="none" viewBox="0 0 16 17"><path fill="currentColor" fill-rule="evenodd" d="M8 1.251a.75.75 0 0 1 .75.75v.667a.75.75 0 1 1-1.5 0v-.667a.75.75 0 0 1 .75-.75M3.227 3.23a.75.75 0 0 1 1.06 0l.472.47A.75.75 0 0 1 3.7 4.762l-.472-.472a.75.75 0 0 1 0-1.06m9.547 0a.75.75 0 0 1 0 1.06l-.472.472a.75.75 0 1 1-1.06-1.061l.47-.471a.75.75 0 0 1 1.062 0M8 5.419a2.584 2.584 0 0 0-1.827 4.41l.365.364q.183.183.33.392h2.264q.148-.21.33-.391l.365-.365A2.585 2.585 0 0 0 8 5.419m.592 6.666H7.408q.009.114.009.23v.354a.583.583 0 0 0 1.167 0v-.354q0-.116.008-.23m-2.834-.443.018.039a1.5 1.5 0 0 1 .14.634v.354a2.083 2.083 0 1 0 4.168 0v-.354a1.5 1.5 0 0 1 .438-1.06l.366-.365a4.09 4.09 0 0 0 .885-4.45 4.083 4.083 0 1 0-6.66 4.45l.365.364q.172.174.28.388M1.25 8.002a.75.75 0 0 1 .75-.75h.667a.75.75 0 0 1 0 1.5H2a.75.75 0 0 1-.75-.75m11.334 0a.75.75 0 0 1 .75-.75H14a.75.75 0 1 1 0 1.5h-.667a.75.75 0 0 1-.75-.75" clip-rule="evenodd"/></symbol><symbol id="light-bulb-large" fill="none" viewBox="0 0 32 33"><path fill="currentColor" fill-rule="evenodd" d="M16 3.003a1 1 0 0 1 1 1v1.334a1 1 0 1 1-2 0V4.003a1 1 0 0 1 1-1m9.193 3.808a1 1 0 0 1 0 1.414l-.943.943a1 1 0 1 1-1.414-1.415l.943-.942a1 1 0 0 1 1.414 0m-18.385 0a1 1 0 0 1 1.414 0l.943.942A1 1 0 1 1 7.75 9.168l-.942-.943a1 1 0 0 1 0-1.414M16 10.338a5.666 5.666 0 0 0-4.008 9.672m0 0 .73.73a5.5 5.5 0 0 1 .748.93h5.06q.323-.504.747-.93l.73-.73h.002A5.667 5.667 0 0 0 16 10.338m1.751 13.332h-3.502q.085.472.085.959v.708a1.667 1.667 0 0 0 3.333 0v-.708q0-.484.084-.96m-6.01-14.04a7.666 7.666 0 0 1 9.681 11.795l-.73.73a3.5 3.5 0 0 0-1.025 2.473v.708a3.667 3.667 0 1 1-7.333 0v-.707a3.5 3.5 0 0 0-1.025-2.475l-.73-.728v-.001A7.667 7.667 0 0 1 11.74 9.63m-8.74 6.373a1 1 0 0 1 1-1h1.333a1 1 0 1 1 0 2H4a1 1 0 0 1-1-1m22.666 0a1 1 0 0 1 1-1H28a1 1 0 1 1 0 2h-1.333a1 1 0 0 1-1-1" clip-rule="evenodd"/></symbol><symbol id="lightning-bolt-base" fill="none" viewBox="0 0 16 17"><clipPath><path d="M0 .001h16v16H0z"/></clipPath><g clip-path="url(#a)"><path fill="currentColor" fill-rule="evenodd" d="M8.996.292a.75.75 0 0 1 .504.709v4.694H14a.75.75 0 0 1 .552 1.258L6.677 15.51a.75.75 0 0 1-1.286-.66l.938-4.543H2a.75.75 0 0 1-.589-1.214L8.161.536a.75.75 0 0 1 .835-.244M3.547 8.806H7.25a.75.75 0 0 1 .734.902L7.408 12.5l4.882-5.305H8.75a.75.75 0 0 1-.75-.75V3.162z" clip-rule="evenodd"/></g></symbol><symbol id="lightning-bolt-large" fill="none" viewBox="0 0 32 33"><path fill="currentColor" fill-rule="evenodd" d="M17.828 1.058a1 1 0 0 1 .672.944v9.89H28a1 1 0 0 1 .736 1.677l-15.75 17.11a1 1 0 0 1-1.715-.879l2.001-9.686H4a1 1 0 0 1-.785-1.62l13.5-17.111a1 1 0 0 1 1.113-.325M6.063 18.114H14.5a1 1 0 0 1 .98 1.202l-1.52 7.352L25.72 13.89H17.5a1 1 0 0 1-1-1V4.884z" clip-rule="evenodd"/></symbol><symbol id="lightning-bolt" fill="currentColor" viewBox="0 0 16 16"><path fill-rule="evenodd" d="M8.996.29A.75.75 0 0 1 9.5 1v4.694H14a.75.75 0 0 1 .552 1.258l-7.875 8.555a.75.75 0 0 1-1.286-.66l.938-4.542H2a.75.75 0 0 1-.589-1.214L8.161.535A.75.75 0 0 1 8.996.29M3.547 8.806H7.25a.75.75 0 0 1 .734.902L7.408 12.5l4.882-5.305H8.75a.75.75 0 0 1-.75-.75V3.16z" clip-rule="evenodd"/></symbol><symbol id="link" fill="currentColor" viewBox="0 0 16 16"><path d="M8.927 2.243a3.417 3.417 0 0 1 4.831 4.83l-.009.01-2.667 2.667a3.417 3.417 0 0 1-4.83 0 .75.75 0 1 1 1.06-1.061 1.917 1.917 0 0 0 2.71 0l2.661-2.662a1.917 1.917 0 0 0-2.71-2.71l-.728.729a.75.75 0 0 1-1.06-1.061zm-4.01 4.009a3.417 3.417 0 0 1 4.832 0 .75.75 0 1 1-1.06 1.06 1.917 1.917 0 0 0-2.71 0L3.302 9.988a1.916 1.916 0 1 0 2.71 2.71l.009-.01.735-.733a.75.75 0 1 1 1.06 1.06l-.73.73a3.42 3.42 0 0 1-5.615-1.084 3.42 3.42 0 0 1 .783-3.747z"/></symbol><symbol id="linkedin" fill="none" viewBox="0 0 16 17"><path fill="currentColor" d="M13.968 1.001H2.031C1.467 1.001 1 1.451 1 2.005v11.993C1 14.552 1.467 15 2.032 15h11.936c.571 0 1.032-.449 1.032-1.003V2.005C15 1.45 14.533 1 13.968 1M5.24 12.726H3.129V6.391h2.112zM4.19 5.528h-.018c-.711 0-1.166-.484-1.166-1.09 0-.62.466-1.092 1.195-1.092.724 0 1.167.467 1.179 1.091 0 .607-.455 1.09-1.196 1.09zm8.674 7.198h-2.118V9.343c0-.846-.303-1.43-1.067-1.43-.583 0-.933.392-1.09.77-.06.135-.065.322-.065.514v3.53H6.413s.03-5.73 0-6.324h2.118V7.3a2.1 2.1 0 0 1 1.901-1.05c1.395 0 2.439.91 2.439 2.853v3.622z"/></symbol><symbol id="list" fill="none" viewBox="0 0 16 17"><g fill="currentColor" fill-rule="evenodd" clip-rule="evenodd"><path d="M4.037 2.751c-.291.006-.46.026-.567.05a.8.8 0 0 0-.24.09.8.8 0 0 0-.34.34.9.9 0 0 0-.095.267 4 4 0 0 0-.045.7l.001 7.765c.006.291.026.46.05.567.02.096.046.159.09.24q.118.221.34.34a.9.9 0 0 0 .267.095c.132.026.338.045.7.045h7.604c.362 0 .569-.02.7-.045a.9.9 0 0 0 .267-.095.8.8 0 0 0 .34-.34.9.9 0 0 0 .096-.268c.026-.131.045-.338.045-.7V4.198c0-.362-.02-.568-.045-.7a.9.9 0 0 0-.095-.267.8.8 0 0 0-.34-.34.9.9 0 0 0-.268-.096 4 4 0 0 0-.7-.045zm-.007-1.5 7.772-.001c.825 0 1.242.086 1.675.318.41.219.736.545.955.955.232.433.318.85.318 1.675v7.604c0 .825-.086 1.242-.318 1.675-.219.41-.545.736-.955.955-.433.232-.85.318-1.675.318H4.198c-.825 0-1.242-.086-1.675-.318a2.3 2.3 0 0 1-.955-.955c-.212-.397-.304-.78-.316-1.494v-.013L1.25 4.198c0-.825.086-1.242.318-1.675.219-.41.545-.736.955-.955.397-.212.78-.304 1.493-.316z"/><path d="M11.75 5.001a.75.75 0 0 1-.75.75H5a.75.75 0 0 1 0-1.5h6a.75.75 0 0 1 .75.75M11.75 8.001a.75.75 0 0 1-.75.75H5a.75.75 0 0 1 0-1.5h6a.75.75 0 0 1 .75.75M11.75 11.001a.75.75 0 0 1-.75.75H5a.75.75 0 0 1 0-1.5h6a.75.75 0 0 1 .75.75"/></g></symbol><symbol id="lock" fill="currentColor" viewBox="0 0 16 16"><path fill-rule="evenodd" d="M5.685 2.268A3.17 3.17 0 0 1 8 1.25c.878 0 1.71.372 2.315 1.018a3.5 3.5 0 0 1 .935 2.398v1.917h.5c.547 0 1.06.232 1.431.627.37.394.569.919.569 1.456v4c0 .538-.2 1.062-.569 1.456a1.96 1.96 0 0 1-1.431.627h-7.5c-.547 0-1.06-.232-1.431-.627a2.13 2.13 0 0 1-.569-1.456v-4c0-.537.2-1.062.569-1.456a1.96 1.96 0 0 1 1.431-.627h.5V4.666c0-.89.331-1.754.935-2.398m.565 4.315h3.5V4.666a2 2 0 0 0-.53-1.372A1.67 1.67 0 0 0 8 2.75a1.67 1.67 0 0 0-1.22.544 2 2 0 0 0-.53 1.372zm-2 1.5a.46.46 0 0 0-.337.153.63.63 0 0 0-.163.43v4c0 .17.064.324.163.43a.46.46 0 0 0 .337.153h7.5a.46.46 0 0 0 .337-.153.63.63 0 0 0 .163-.43v-4a.63.63 0 0 0-.163-.43.46.46 0 0 0-.337-.153zM8 9.25a.75.75 0 0 1 .75.75v1.333a.75.75 0 1 1-1.5 0V10A.75.75 0 0 1 8 9.25" clip-rule="evenodd"/></symbol><symbol id="magnifying-glass" fill="currentColor" viewBox="0 0 14 14"><path fill-rule="evenodd" d="M6.417 1.969a4.448 4.448 0 1 0 0 8.896 4.448 4.448 0 0 0 0-8.896m-4.074.374A5.76 5.76 0 0 1 10.927 10l2.662 2.662a.656.656 0 1 1-.928.928l-2.662-2.662a5.76 5.76 0 0 1-7.656-8.584m4.074 1.23c.362 0 .656.294.656.656V5.76h1.531a.656.656 0 0 1 0 1.313H7.073v1.531a.656.656 0 0 1-1.313 0V7.073H4.23a.656.656 0 0 1 0-1.313h1.53V4.23c0-.363.294-.657.657-.657" clip-rule="evenodd"/></symbol><symbol id="mail-large" fill="currentColor" viewBox="0 0 32 32"><path fill-rule="evenodd" d="M3 9.646v12.688a4 4 0 0 0 4 4h18a4 4 0 0 0 4-4V9.63a3.964 3.964 0 0 0-3.964-3.964H6.964A3.964 3.964 0 0 0 3 9.646m2 2.39v10.298a2 2 0 0 0 2 2h18a2 2 0 0 0 2-2V12.037l-9.323 6.288a3 3 0 0 1-3.354 0zm20-4.37a2 2 0 0 1 2 1.959l-10.44 7.042a1 1 0 0 1-1.12 0L5 9.625a2 2 0 0 1 2-1.958z" clip-rule="evenodd"/></symbol><symbol id="mail" fill="currentColor" viewBox="0 0 16 16"><path fill-rule="evenodd" d="M1.86 3.193c.391-.39.92-.61 1.473-.61h9.334a2.083 2.083 0 0 1 2.083 2.084v6.666a2.083 2.083 0 0 1-2.083 2.084H3.333a2.083 2.083 0 0 1-2.083-2.084V4.667c0-.553.22-1.083.61-1.474m.89 3.542v4.598a.583.583 0 0 0 .583.584h9.334a.583.583 0 0 0 .583-.584V6.735L9.156 9.464a2.08 2.08 0 0 1-2.312 0L2.75 6.734Zm10.5-1.803L8.324 8.216a.58.58 0 0 1-.648 0L2.75 4.932v-.265a.583.583 0 0 1 .583-.584h9.334a.583.583 0 0 1 .583.584z" clip-rule="evenodd"/></symbol><symbol id="menu" fill="currentColor" viewBox="0 0 16 16"><path fill-rule="evenodd" d="M0 2a.75.75 0 0 1 .75-.75h14.5a.75.75 0 0 1 0 1.5H.75A.75.75 0 0 1 0 2m0 6a.75.75 0 0 1 .75-.75h14.5a.75.75 0 0 1 0 1.5H.75A.75.75 0 0 1 0 8m0 6a.75.75 0 0 1 .75-.75h14.5a.75.75 0 0 1 0 1.5H.75A.75.75 0 0 1 0 14" clip-rule="evenodd"/></symbol><symbol id="microsoft" fill="none" viewBox="0 0 16 17"><path fill="currentColor" fill-rule="evenodd" d="M7.5 2.001H2v5.5h5.5zm0 6.5H2v5.5h5.5zm1-6.5H14v5.5H8.5zm5.5 6.5H8.5v5.5H14z" clip-rule="evenodd"/></symbol><symbol id="more-large" fill="currentColor" viewBox="0 0 30 8"><path fill-rule="evenodd" d="M4 2a2 2 0 1 0 0 4 2 2 0 0 0 0-4M0 4a4 4 0 1 1 8 0 4 4 0 0 1-8 0M26 2a2 2 0 1 0 0 4 2 2 0 0 0 0-4m-4 2a4 4 0 1 1 8 0 4 4 0 0 1-8 0M15 2a2 2 0 1 0 0 4 2 2 0 0 0 0-4m-4 2a4 4 0 1 1 8 0 4 4 0 0 1-8 0" clip-rule="evenodd"/></symbol><symbol id="more" fill="none" viewBox="0 0 16 17"><g fill="currentColor" fill-rule="evenodd" clip-rule="evenodd"><path d="M2.5 7.251a.75.75 0 1 0 0 1.5.75.75 0 0 0 0-1.5m-2.25.75a2.25 2.25 0 1 1 4.5 0 2.25 2.25 0 0 1-4.5 0M13.5 7.251a.75.75 0 1 0 0 1.5.75.75 0 0 0 0-1.5m-2.25.75a2.25 2.25 0 1 1 4.5 0 2.25 2.25 0 0 1-4.5 0M8 7.251a.75.75 0 1 0 0 1.5.75.75 0 0 0 0-1.5m-2.25.75a2.25 2.25 0 1 1 4.5 0 2.25 2.25 0 0 1-4.5 0"/></g></symbol><symbol id="padlock" fill="none" viewBox="0 0 16 17"><g fill="currentColor" fill-rule="evenodd" clip-rule="evenodd"><path d="M8 9.227a.605.605 0 1 0 0 1.21.605.605 0 0 0 0-1.21m-2.105.605a2.105 2.105 0 1 1 4.21 0 2.105 2.105 0 0 1-4.21 0"/><path d="M3.484 5.017a2.105 2.105 0 0 0-2.105 2.105v5.42c0 1.162.942 2.104 2.105 2.104h9.032a2.105 2.105 0 0 0 2.105-2.105V7.123a2.105 2.105 0 0 0-2.105-2.105h-.605V3.51A3.01 3.01 0 0 0 8.903.501H7.097A3.01 3.01 0 0 0 4.089 3.51v1.508zm0 1.5a.605.605 0 0 0-.605.605v5.42c0 .334.27.604.605.604h9.032c.334 0 .605-.27.605-.604v-5.42a.605.605 0 0 0-.605-.605zM10.41 3.51c0-.833-.675-1.508-1.508-1.508H7.097c-.833 0-1.508.675-1.508 1.508v1.508h4.822z"/></g></symbol><symbol id="pause" fill="none" viewBox="0 0 16 16"><path fill="currentColor" fill-rule="evenodd" d="M4.058 3.059a.63.63 0 0 1 .442-.184h1c.345 0 .625.28.625.625v9a.625.625 0 0 1-.625.626h-1a.625.625 0 0 1-.625-.625v-9c0-.166.066-.325.183-.442m6 0a.63.63 0 0 1 .442-.184h1c.345 0 .625.28.625.625v9c0 .346-.28.626-.625.626h-1a.625.625 0 0 1-.625-.625v-9c0-.166.066-.325.183-.442" clip-rule="evenodd"/></symbol><symbol id="person-large" fill="currentColor" viewBox="0 0 32 32"><path fill-rule="evenodd" d="M3.492 21.538C5.65 17.727 9.982 16 16 16s10.351 1.727 12.508 5.538A5 5 0 0 1 24.156 29H7.844a5 5 0 0 1-4.352-7.462M16 18c-5.704 0-9.128 1.627-10.767 4.523A3 3 0 0 0 7.844 27h16.312a3 3 0 0 0 2.61-4.477C25.129 19.627 21.705 18 16 18M16 12.434a3.434 3.434 0 1 0 0-6.868 3.434 3.434 0 0 0 0 6.868M21.434 9a5.434 5.434 0 1 1-10.868 0 5.434 5.434 0 0 1 10.868 0" clip-rule="evenodd"/></symbol><symbol id="person" fill="none" viewBox="0 0 16 16"><path fill="currentColor" fill-rule="evenodd" d="M8 6a1.5 1.5 0 1 0 0-3 1.5 1.5 0 0 0 0 3m3-1.5a3 3 0 1 1-6 0 3 3 0 0 1 6 0M8 8.25c-2.97 0-5.02.85-6.04 2.64a2.25 2.25 0 0 0 1.96 3.36h8.16a2.25 2.25 0 0 0 1.96-3.36C13.02 9.1 10.97 8.25 8 8.25m0 1.5c-2.57 0-4.05.68-4.73 1.88a.75.75 0 0 0 .65 1.12h8.16a.75.75 0 0 0 .65-1.12c-.68-1.2-2.16-1.88-4.73-1.88" clip-rule="evenodd"/></symbol><symbol id="phone" fill="currentColor" viewBox="0 0 16 16"><path fill-rule="evenodd" d="M4.5.25A2.25 2.25 0 0 0 2.25 2.5v11a2.25 2.25 0 0 0 2.25 2.25h6a2.25 2.25 0 0 0 2.25-2.25v-11A2.25 2.25 0 0 0 10.5.25zM3.75 2.5a.75.75 0 0 1 .75-.75h6a.75.75 0 0 1 .75.75v11a.75.75 0 0 1-.75.75h-6a.75.75 0 0 1-.75-.75zm1.75.25a.75.75 0 1 0 0 1.5.75.75 0 0 0 0-1.5m0 9.25a.75.75 0 1 0 0 1.5.75.75 0 0 0 0-1.5m4 0a.75.75 0 1 0 0 1.5.75.75 0 0 0 0-1.5m-2.75.75a.75.75 0 1 1 1.5 0 .75.75 0 0 1-1.5 0m2-9.25a.75.75 0 1 1 1.5 0 .75.75 0 0 1-1.5 0M7.5 2.75a.75.75 0 1 0 0 1.5.75.75 0 0 0 0-1.5M4.75 5.5a.75.75 0 1 1 1.5 0 .75.75 0 0 1-1.5 0m.75 1.25a.75.75 0 1 0 0 1.5.75.75 0 0 0 0-1.5M6.75 5.5a.75.75 0 1 1 1.5 0 .75.75 0 0 1-1.5 0" clip-rule="evenodd"/></symbol><symbol id="play" fill="none" viewBox="0 0 16 16"><path fill="currentColor" fill-rule="evenodd" d="M4 3.743a.733.733 0 0 1 1.09-.651l7.533 4.257a.75.75 0 0 1 0 1.302L5.09 12.908a.733.733 0 0 1-1.09-.65z" clip-rule="evenodd"/></symbol><symbol id="plus-sm-base" fill="none" viewBox="0 0 16 17"><path fill="currentColor" fill-rule="evenodd" d="M8 2.251a.75.75 0 0 1 .75.75v4.25H13a.75.75 0 0 1 0 1.5H8.75v4.25a.75.75 0 0 1-1.5 0v-4.25H3a.75.75 0 0 1 0-1.5h4.25v-4.25a.75.75 0 0 1 .75-.75" clip-rule="evenodd"/></symbol><symbol id="plus-sm-large" fill="none" viewBox="0 0 32 33"><path fill="currentColor" fill-rule="evenodd" d="M16 5.002a1 1 0 0 1 1 1v9h9a1 1 0 0 1 0 2h-9v9a1 1 0 1 1-2 0v-9H6a1 1 0 1 1 0-2h9v-9a1 1 0 0 1 1-1" clip-rule="evenodd"/></symbol><symbol id="plus" fill="currentColor" viewBox="0 0 16 16"><path fill-rule="evenodd" d="M8 1.25a.75.75 0 0 1 .75.75v5.25H14a.75.75 0 0 1 0 1.5H8.75V14a.75.75 0 1 1-1.5 0V8.75H2a.75.75 0 0 1 0-1.5h5.25V2A.75.75 0 0 1 8 1.25" clip-rule="evenodd"/></symbol><symbol id="priority" fill="currentColor" viewBox="0 0 16 16"><path fill-rule="evenodd" d="M3.25 3.54v4.94a8.1 8.1 0 0 1 5.03.32 6.6 6.6 0 0 0 4.47.16V4.02a8.1 8.1 0 0 1-5.03-.32 6.6 6.6 0 0 0-4.47-.16m0 6.5a6.6 6.6 0 0 1 4.47.16 8.1 8.1 0 0 0 5.57.16l.45-.15c.3-.1.51-.39.51-.71V3a.75.75 0 0 0-.99-.71l-.44.15a6.6 6.6 0 0 1-4.54-.14 8.1 8.1 0 0 0-5.57-.16l-.45.15c-.3.1-.51.39-.51.71v10.5a.75.75 0 0 0 1.5 0z" clip-rule="evenodd"/></symbol><symbol id="productivity" fill="none" viewBox="0 0 16 17"><path fill="currentColor" fill-rule="evenodd" d="M8 2.751a5.25 5.25 0 0 0-5.181 6.096l1.643-1.695a.75.75 0 0 1 1.068-.008L7 8.614l2.19-2.19H8a.75.75 0 0 1 0-1.5h3a.75.75 0 0 1 .75.75v2.997a.75.75 0 0 1-1.5 0V7.485l-2.72 2.72a.75.75 0 0 1-1.06 0L5.008 8.743l-1.653 1.705a5.249 5.249 0 0 0 9.895-2.447A5.25 5.25 0 0 0 8 2.751m-4.773.477a6.75 6.75 0 1 1 9.546 9.546 6.75 6.75 0 0 1-9.546-9.546" clip-rule="evenodd"/></symbol><symbol id="project" fill="currentColor" viewBox="0 0 16 16"><path d="M6 3.42c0-.41.34-.75.75-.75h7a.75.75 0 0 1 0 1.5h-7A.75.75 0 0 1 6 3.42M1.5 3.5a1.25 1.25 0 1 1 2.5 0 1.25 1.25 0 0 1-2.5 0M6 12.58c0-.41.34-.75.75-.75h7a.75.75 0 0 1 0 1.5h-7a.75.75 0 0 1-.75-.75M1.5 12.5a1.25 1.25 0 1 1 2.5 0 1.25 1.25 0 0 1-2.5 0M6 8c0-.41.34-.75.75-.75h7a.75.75 0 0 1 0 1.5h-7A.75.75 0 0 1 6 8M1.5 8A1.25 1.25 0 1 1 4 8a1.25 1.25 0 0 1-2.5 0"/></symbol><symbol id="question-circle" fill="currentColor" viewBox="0 0 16 16"><path d="M8 2.751a5.25 5.25 0 1 0 0 10.5 5.25 5.25 0 0 0 0-10.5m-4.773.477a6.75 6.75 0 1 1 9.546 9.546 6.75 6.75 0 0 1-9.546-9.546M8 5.418c-.959 0-1.628.46-1.836.903a.75.75 0 1 1-1.357-.64C5.33 4.572 6.637 3.919 8 3.919c.883 0 1.711.267 2.336.736s1.08 1.173 1.08 2.014c0 1.436-1.269 2.416-2.612 2.674a.14.14 0 0 0-.055.024.75.75 0 0 1-1.499-.031c0-.812.645-1.345 1.271-1.466.961-.184 1.396-.77 1.396-1.201 0-.264-.14-.56-.481-.814-.34-.256-.846-.436-1.436-.436Zm-.75 5.917a.75.75 0 0 1 .75-.75h.007a.75.75 0 1 1 0 1.5H8a.75.75 0 0 1-.75-.75"/></symbol><symbol id="question-mark" fill="currentColor" viewBox="0 0 16 16"><path d="M7.897 3.751c-1.323 0-2.35.703-2.707 1.543a.75.75 0 0 1-1.38-.586c.632-1.49 2.273-2.457 4.087-2.457 2.27 0 4.353 1.556 4.353 3.75 0 1.848-1.5 3.256-3.301 3.64a.38.38 0 0 0-.302.36.75.75 0 0 1-1.5 0c0-.938.687-1.655 1.49-1.826C9.946 7.895 10.75 6.953 10.75 6c0-1.12-1.142-2.25-2.853-2.25Zm-.75 9.25a.75.75 0 0 1 .75-.75h.01a.75.75 0 0 1 0 1.5h-.01a.75.75 0 0 1-.75-.75"/></symbol><symbol id="receipt-large" fill="currentColor" viewBox="0 0 32 32"><path fill-rule="evenodd" d="M5.667 6.667A3.667 3.667 0 0 1 9.333 3h13.334a3.667 3.667 0 0 1 3.666 3.667V28a1 1 0 0 1-1.496.869l-4.17-2.384-4.17 2.384a1 1 0 0 1-.993 0l-4.17-2.384-4.171 2.384A1 1 0 0 1 5.667 28zM9.333 5c-.92 0-1.666.746-1.666 1.667v19.61l3.17-1.812a1 1 0 0 1 .992 0L16 26.85l4.17-2.384a1 1 0 0 1 .993 0l3.17 1.812V6.667c0-.92-.746-1.667-1.666-1.667zm11.374 4.96a1 1 0 0 1 0 1.414l-8 8a1 1 0 0 1-1.414-1.414l8-8a1 1 0 0 1 1.414 0m-6.754 1.368a1.28 1.28 0 1 1-2.562 0 1.28 1.28 0 0 1 2.562 0m5.386 7.956a1.28 1.28 0 1 0 0-2.56 1.28 1.28 0 0 0 0 2.56" clip-rule="evenodd"/></symbol><symbol id="receipt" fill="currentColor" viewBox="0 0 16 16"><path d="M2.58 3.33c0-1.15.94-2.08 2.09-2.08h6.66c1.15 0 2.09.93 2.09 2.08V14a.75.75 0 0 1-1.13.65l-1.96-1.12-1.96 1.12a.75.75 0 0 1-.74 0l-1.96-1.12-1.96 1.12A.75.75 0 0 1 2.58 14zm2.09-.58a.58.58 0 0 0-.59.58v9.38L5.3 12a.75.75 0 0 1 .75 0L8 13.15l1.96-1.12a.75.75 0 0 1 .75 0l1.2.69V3.33a.58.58 0 0 0-.58-.58zm.58 2.92a1.08 1.08 0 1 1 2.17 0 1.08 1.08 0 0 1-2.17 0m5.28-.87c.3.3.3.77 0 1.06l-4 4A.75.75 0 1 1 5.47 8.8l4-4c.3-.29.77-.29 1.06 0M8.58 9a1.08 1.08 0 1 1 2.17 0 1.08 1.08 0 0 1-2.17 0"/></symbol><symbol id="repeat-large" fill="currentColor" viewBox="0 0 29 24"><g fill-rule="evenodd" clip-rule="evenodd"><path d="M7.34 1.36a1 1 0 0 1 1-1h10.637a4.545 4.545 0 0 1 4.546 4.545v7.04l3.02-3.02a1 1 0 1 1 1.414 1.415l-4.727 4.727a1 1 0 0 1-1.414 0l-4.728-4.727a1 1 0 0 1 1.415-1.414l3.02 3.02v-7.04a2.545 2.545 0 0 0-2.546-2.546H8.341a1 1 0 0 1-1-1M21.16 22.636a1 1 0 0 1-1 1H9.522a4.545 4.545 0 0 1-4.546-4.546v-6.012l-3.054 2.777a1 1 0 1 1-1.346-1.48l4.728-4.297a1 1 0 0 1 1.345 0l4.727 4.297a1 1 0 0 1-1.345 1.48l-3.055-2.777v6.012a2.545 2.545 0 0 0 2.546 2.546h10.636a1 1 0 0 1 1 1"/></g></symbol><symbol id="repeat" fill="none" viewBox="0 0 16 17"><path fill="currentColor" fill-rule="evenodd" d="M4.295 2.681a.75.75 0 0 1 .75-.75h3.546a4.296 4.296 0 0 1 4.295 4.296V7.37l1.084-1.084a.75.75 0 1 1 1.06 1.06l-2.363 2.365a.75.75 0 0 1-1.061 0L9.242 7.348a.75.75 0 1 1 1.061-1.06l1.083 1.083V6.227A2.795 2.795 0 0 0 8.591 3.43H5.045a.75.75 0 0 1-.75-.75M3.36 6.855a.75.75 0 0 1 1.01 0l2.363 2.149a.75.75 0 1 1-1.01 1.11L4.615 9.105v.669a2.795 2.795 0 0 0 2.795 2.795h3.545a.75.75 0 1 1 0 1.5H7.41a4.295 4.295 0 0 1-4.295-4.295v-.669l-1.11 1.009a.75.75 0 1 1-1.009-1.11z" clip-rule="evenodd"/></symbol><symbol id="reply" fill="currentColor" viewBox="0 0 16 16"><path d="M6.7 2.72c.29.3.29.77 0 1.06L4.3 6.17h4.3a5.64 5.64 0 0 1 5.64 5.64v1.22a.75.75 0 0 1-1.5 0V11.8A4.14 4.14 0 0 0 8.6 7.66H4.3l2.39 2.38a.75.75 0 0 1-1.06 1.06L1.97 7.45a.75.75 0 0 1 0-1.06l3.67-3.67c.29-.3.76-.3 1.06 0"/></symbol><symbol id="search-base" fill="none" viewBox="0 0 16 17"><clipPath><path d="M0 .001h16v16H0z"/></clipPath><g clip-path="url(#a)"><path fill="currentColor" fill-rule="evenodd" d="m4.963 12.096-.04.043-3.392 3.392a.75.75 0 0 1-1.06-1.06l3.391-3.392.044-.04a6.5 6.5 0 1 1 1.057 1.057M9 12A5 5 0 1 0 9 2a5 5 0 0 0 0 10" clip-rule="evenodd"/></g></symbol><symbol id="search-large" fill="none" viewBox="0 0 32 33"><path fill="currentColor" fill-rule="evenodd" d="M1.294 30.709a1 1 0 0 1 0-1.414l7.544-7.544A11.96 11.96 0 0 1 6 14.001c0-6.627 5.373-12 12-12s12 5.373 12 12c0 6.628-5.373 12-12 12a11.96 11.96 0 0 1-7.748-2.836L2.709 30.71a1 1 0 0 1-1.415 0m10.377-8.964A9.96 9.96 0 0 0 18 24.002c5.523 0 10-4.477 10-10s-4.477-10-10-10-10 4.477-10 10a9.96 9.96 0 0 0 2.928 7.07l.002.002q.354.354.741.67" clip-rule="evenodd"/></symbol><symbol id="search" fill="currentColor" viewBox="0 0 16 16"><path fill-rule="evenodd" d="m4.963 12.094-.04.044-3.392 3.392a.75.75 0 0 1-1.06-1.06l3.391-3.393.044-.04a6.5 6.5 0 1 1 1.057 1.057M9 12A5 5 0 1 0 9 2a5 5 0 0 0 0 10" clip-rule="evenodd"/></symbol><symbol id="section" fill="none" viewBox="0 0 16 17"><g fill="currentColor" fill-rule="evenodd" clip-rule="evenodd"><path d="M2.25 6.001a2.25 2.25 0 0 1 2.25-2.25h7a2.25 2.25 0 0 1 2.25 2.25v4a2.25 2.25 0 0 1-2.25 2.25h-7a2.25 2.25 0 0 1-2.25-2.25zm2.25-.75a.75.75 0 0 0-.75.75v4c0 .414.336.75.75.75h7a.75.75 0 0 0 .75-.75v-4a.75.75 0 0 0-.75-.75zM2.25 1.5A.75.75 0 0 1 3 .75h10a.75.75 0 0 1 0 1.5H3a.75.75 0 0 1-.75-.75M2.25 14.501a.75.75 0 0 1 .75-.75h10a.75.75 0 0 1 0 1.5H3a.75.75 0 0 1-.75-.75"/></g></symbol><symbol id="setup" fill="none" viewBox="0 0 16 16"><path stroke="currentColor" stroke-width="1.5" d="M4.03 2.001 11.802 2c.765 0 1.042.08 1.321.229.28.15.499.369.648.648.15.28.229.556.229 1.32v7.605c0 .765-.08 1.042-.229 1.321-.15.28-.369.499-.648.648-.28.15-.556.229-1.32.229H4.197c-.765 0-1.042-.08-1.321-.229a1.56 1.56 0 0 1-.648-.648c-.138-.258-.216-.514-.228-1.153L2 4.198c0-.765.08-1.042.229-1.321.15-.28.369-.499.648-.648.258-.138.514-.216 1.153-.228Z"/><path stroke="currentColor" stroke-linecap="round" stroke-width="1.5" d="M5 5.001v6M11 11.001H8M11 8.001H8M11 5.001H8"/></symbol><symbol id="share" fill="currentColor" viewBox="0 0 16 16"><path d="M12 2.75a1.25 1.25 0 1 0 0 2.5 1.25 1.25 0 0 0 0-2.5M9.25 4a2.75 2.75 0 1 1 .72 1.86L6.7 7.49a2.8 2.8 0 0 1 0 1.02l3.27 1.64A2.74 2.74 0 0 1 14.75 12a2.75 2.75 0 1 1-5.45-.51L6.03 9.86A2.74 2.74 0 0 1 1.25 8a2.75 2.75 0 0 1 4.78-1.85L9.3 4.5a3 3 0 0 1-.05-.5M4 6.75a1.25 1.25 0 1 0 0 2.5 1.25 1.25 0 0 0 0-2.5m8 4a1.25 1.25 0 1 0 0 2.5 1.25 1.25 0 0 0 0-2.5"/></symbol><symbol id="star-base" fill="none" viewBox="0 0 16 17"><path fill="currentColor" fill-rule="evenodd" d="M6.954 1.794c.33-1.014 1.763-1.014 2.092 0l1.183 3.64h3.827c1.065 0 1.508 1.363.646 1.99l-3.096 2.249 1.183 3.64c.33 1.013-.83 1.856-1.693 1.23L8 12.292l-3.096 2.25c-.862.625-2.022-.217-1.693-1.23l1.183-3.64-3.096-2.25c-.862-.626-.42-1.99.646-1.99h3.827zM8 3.428l-.892 2.745a1.1 1.1 0 0 1-1.046.76H3.175L5.511 8.63a1.1 1.1 0 0 1 .4 1.23l-.893 2.745 2.335-1.697a1.1 1.1 0 0 1 1.294 0l2.335 1.697-.892-2.745a1.1 1.1 0 0 1 .4-1.23l2.335-1.697H9.938a1.1 1.1 0 0 1-1.046-.76z" clip-rule="evenodd"/></symbol><symbol id="star-large" fill="currentColor" viewBox="0 0 32 33"><path fill-rule="evenodd" d="M14.383 3.742c.51-1.566 2.725-1.566 3.234 0l2.478 7.625h8.017c1.647 0 2.332 2.108 1 3.075l-6.487 4.713 2.477 7.625c.51 1.566-1.283 2.869-2.616 1.9L16 23.969l-6.486 4.713c-1.332.968-3.125-.335-2.616-1.901l2.477-7.625-6.486-4.713c-1.332-.968-.647-3.075 1-3.075h8.017zM16 5.238l-2.26 6.954a1.7 1.7 0 0 1-1.616 1.175H4.812l5.915 4.298a1.7 1.7 0 0 1 .618 1.9l-2.26 6.955 5.916-4.298a1.7 1.7 0 0 1 1.998 0l5.916 4.298-2.26-6.954a1.7 1.7 0 0 1 .618-1.901l5.916-4.298h-7.312a1.7 1.7 0 0 1-1.617-1.175z" clip-rule="evenodd"/></symbol><symbol id="star" fill="currentColor" viewBox="0 0 16 16"><path fill-rule="evenodd" d="M6.953 1.792c.33-1.013 1.764-1.013 2.093 0l1.182 3.64h3.827c1.066 0 1.509 1.364.647 1.99l-3.096 2.25 1.183 3.64c.329 1.013-.831 1.855-1.693 1.229L8 12.291l-3.096 2.25c-.863.626-2.022-.216-1.693-1.23l1.182-3.64-3.096-2.249c-.862-.626-.419-1.99.647-1.99H5.77l1.182-3.64ZM8 3.427l-.892 2.745a1.1 1.1 0 0 1-1.047.76H3.175L5.51 8.63a1.1 1.1 0 0 1 .4 1.23l-.892 2.745 2.335-1.697a1.1 1.1 0 0 1 1.293 0l2.335 1.697-.892-2.745a1.1 1.1 0 0 1 .4-1.23l2.335-1.697H9.938a1.1 1.1 0 0 1-1.046-.76z" clip-rule="evenodd"/></symbol><symbol id="subtask" fill="currentColor" viewBox="0 0 16 16"><path fill-rule="evenodd" d="M4 2.33a2.67 2.67 0 0 0-.67 5.25V9A3.67 3.67 0 0 0 7 12.67h2.42a2.67 2.67 0 1 0 0-1.34H7A2.33 2.33 0 0 1 4.67 9V7.58A2.67 2.67 0 0 0 4 2.33m0 1.34a1.33 1.33 0 1 0 0 2.66 1.33 1.33 0 0 0 0-2.66m8 7a1.33 1.33 0 1 0 0 2.66 1.33 1.33 0 0 0 0-2.66" clip-rule="evenodd"/></symbol><symbol id="swatchbook-base" fill="none" viewBox="0 0 16 16"><path fill="currentColor" fill-rule="evenodd" d="M9.14.936H7.434a3 3 0 0 0-2.71 1.713 3 3 0 0 0-2.346.673L1.072 4.418a3 3 0 0 0-.37 4.226l4.658 5.552a3.853 3.853 0 0 0 6.764-1.919l3.012-3.224a3 3 0 0 0-.144-4.24l-1.246-1.165a3 3 0 0 0-1.81-.798A3 3 0 0 0 9.14.936m1.266 2.196c.148.233.234.508.234.804V8.5L6.604 3.691a3 3 0 0 0-.49-.466 1.5 1.5 0 0 1 1.32-.789H9.14c.532 0 1 .278 1.266.696m1.734 1.275c.21.064.41.177.582.337l1.246 1.165a1.5 1.5 0 0 1 .072 2.12l-1.9 2.034zm-1.477 7.237a2.341 2.341 0 0 0-.55-1.436L5.935 5.226l-.479-.571a1.5 1.5 0 0 0-1.02-.53 1.5 1.5 0 0 0-1.093.345L2.036 5.567A1.5 1.5 0 0 0 1.85 7.68l2.583 3.079 2.075 2.473a2.353 2.353 0 0 0 4.122-1.119q.04-.233.032-.47m-2.376 1.112a.925.925 0 1 1 0-1.85.925.925 0 0 1 0 1.85" clip-rule="evenodd"/></symbol><symbol id="swatchbook-lg" fill="none" viewBox="0 0 32 32"><path d="M0 .001h32v32H0z"/><g fill="currentColor" fill-rule="evenodd" clip-rule="evenodd"><path d="M13.733 3.026h4.58a4 4 0 0 1 3.932 3.26 4 4 0 0 1 3.89.706l3.524 2.945a4 4 0 0 1 .505 5.634l-8.862 10.607a6.3 6.3 0 0 1-1.783 1.76 6.3 6.3 0 0 1-1.632.794l.056-.05c-2.34.726-4.99.04-6.67-1.948L1.85 15.583a4 4 0 0 1 .474-5.638L5.822 6.99A4 4 0 0 1 9.8 6.296a4 4 0 0 1 3.933-3.27m8.58 18.823V8.506a2 2 0 0 1 2.54.02l3.524 2.946a2 2 0 0 1 .252 2.817zm-10.58-14.06 8.58 10.153V7.026a2 2 0 0 0-2-2h-4.58a2 2 0 0 0-2 2zm8.58 14.206a4.27 4.27 0 0 0-.96-2.09L9.931 8.755a2 2 0 0 0-2.818-.237l-3.498 2.956a2 2 0 0 0-.237 2.818l9.422 11.15a4.29 4.29 0 0 0 5.87.65c.43-.37.77-.81 1.016-1.289a4.27 4.27 0 0 0 .627-2.234zm-4.203 2.896a1.687 1.687 0 1 1 0-3.373 1.687 1.687 0 0 1 0 3.373"/><path d="M13.733 3.026h4.58a4 4 0 0 1 3.932 3.26 4 4 0 0 1 3.89.706l3.524 2.945a4 4 0 0 1 .505 5.634l-8.862 10.607a6.3 6.3 0 0 1-1.783 1.76 6.3 6.3 0 0 1-1.632.794l.056-.05c-2.34.726-4.99.04-6.67-1.948L1.85 15.583a4 4 0 0 1 .474-5.638L5.822 6.99A4 4 0 0 1 9.8 6.296a4 4 0 0 1 3.933-3.27m8.58 18.823V8.506a2 2 0 0 1 2.54.02l3.524 2.946a2 2 0 0 1 .252 2.817zm-10.58-14.06 8.58 10.153V7.026a2 2 0 0 0-2-2h-4.58a2 2 0 0 0-2 2zm8.58 14.206a4.27 4.27 0 0 0-.96-2.09L9.931 8.755a2 2 0 0 0-2.818-.237l-3.498 2.956a2 2 0 0 0-.237 2.818l9.422 11.15a4.29 4.29 0 0 0 5.87.65c.43-.37.77-.81 1.016-1.289a4.27 4.27 0 0 0 .627-2.234zm-4.203 2.896a1.687 1.687 0 1 1 0-3.373 1.687 1.687 0 0 1 0 3.373"/></g></symbol><symbol id="theme" fill="none" viewBox="0 0 16 17"><g fill="currentColor"><path fill-rule="evenodd" d="M1 8.001c0-3.694 2.88-7 7-7 2.221 0 3.988.827 5.195 2.202 1.195 1.361 1.79 3.2 1.805 5.16.012 1.68-.38 3.281-1.051 4.488-.656 1.177-1.688 2.15-3.008 2.15-.734 0-1.255-.35-1.615-.793-.317-.39-.536-.882-.707-1.266l-.018-.04c-.194-.439-.34-.752-.516-.969-.145-.177-.268-.24-.453-.24-.946 0-1.474.226-2.03.482l-.09.042c-.575.267-1.247.578-2.291.578-.317 0-.656-.082-.97-.302-.308-.215-.545-.53-.722-.915C1.183 10.83 1 9.685 1 8.001m7-5.5c-3.234 0-5.5 2.576-5.5 5.5 0 1.625.185 2.503.39 2.949.098.212.184.289.22.314a.17.17 0 0 0 .11.031c.71 0 1.124-.19 1.688-.452l.066-.03c.64-.295 1.398-.62 2.658-.62.735 0 1.255.35 1.616.793.317.389.535.881.706 1.265l.018.041c.195.438.34.751.516.969.145.177.268.24.453.24.518 0 1.152-.4 1.697-1.38.529-.949.873-2.289.862-3.747-.013-1.673-.52-3.142-1.433-4.182-.9-1.026-2.245-1.69-4.067-1.69" clip-rule="evenodd"/><path d="M5.083 7.668a.75.75 0 1 1-1.5 0 .75.75 0 0 1 1.5 0M12.417 7.668a.75.75 0 1 1-1.5 0 .75.75 0 0 1 1.5 0M6.25 5.334a.75.75 0 1 1-1.5 0 .75.75 0 0 1 1.5 0M8.75 4.335a.75.75 0 1 1-1.5 0 .75.75 0 0 1 1.5 0M11.25 5.334a.75.75 0 1 1-1.5 0 .75.75 0 0 1 1.5 0M12.083 10.335a.75.75 0 1 1-1.5 0 .75.75 0 0 1 1.5 0"/></g></symbol><symbol id="thumb-up" fill="currentColor" viewBox="0 0 16 16"><path d="M6.58 2.6c0-.74.6-1.35 1.36-1.35H8a2.08 2.08 0 0 1 2.08 2.08v2.59h2.43a2.08 2.08 0 0 1 1.86 3.01l-2.33 4.67a2.08 2.08 0 0 1-1.86 1.15H7.5a2 2 0 0 1-.5-.06l-2.43-.6H3.33A2.08 2.08 0 0 1 1.25 12V8a2.08 2.08 0 0 1 2.08-2.08h1.38l1.6-2.4c.18-.27.27-.59.27-.92M3.92 7.42h-.59a.58.58 0 0 0-.58.58v4a.58.58 0 0 0 .58.58h.59zm1.5 5.33 1.94.48c.04.02.09.02.14.02h2.68a.58.58 0 0 0 .52-.32l2.33-4.67a.58.58 0 0 0-.52-.84H9.33a.75.75 0 0 1-.75-.75V3.33a.58.58 0 0 0-.5-.57c-.03.57-.2 1.12-.53 1.6l-2.13 3.2z"/></symbol><symbol id="todoist" fill="none" viewBox="0 0 16 17"><clipPath><path d="M0 .001h16v16H0z"/></clipPath><g clip-path="url(#a)"><path fill="currentColor" d="M.75 4.463c0-1.3 0-1.949.253-2.445a2.32 2.32 0 0 1 1.014-1.014C2.513.751 3.163.751 4.462.751h7.076c1.3 0 1.949 0 2.445.253a2.32 2.32 0 0 1 1.014 1.014c.253.496.253 1.146.253 2.445v7.076c0 1.3 0 1.95-.253 2.446a2.32 2.32 0 0 1-1.014 1.013c-.496.253-1.146.253-2.445.253H4.462c-1.3 0-1.949 0-2.445-.253a2.32 2.32 0 0 1-1.014-1.013C.75 13.488.75 12.839.75 11.539v-.535l.026.015c.618.36 2.08 1.211 2.438 1.413a.64.64 0 0 0 .317.09q.158 0 .317-.09l2.888-1.663.043-.025 2.937-1.69c.125-.072.132-.295-.01-.375l-.044-.026-.054-.03-.408-.234a.46.46 0 0 0-.452.005L3.833 11.22a.62.62 0 0 1-.607 0L.75 9.781V8.56l.026.014c.618.36 2.08 1.212 2.438 1.414a.64.64 0 0 0 .317.09q.158 0 .317-.09l2.736-1.576.219-.125L9.716 6.61c.125-.073.132-.295-.01-.375l-.098-.056-.408-.234a.46.46 0 0 0-.452.005L3.833 8.776a.62.62 0 0 1-.607 0L.75 7.338v-1.22l.025.014c.619.36 2.081 1.212 2.44 1.414a.64.64 0 0 0 .316.09q.158 0 .317-.091c.124-.071 1.475-.85 2.85-1.64l.042-.024 2.976-1.713c.125-.073.132-.295-.01-.375l-.098-.057-.408-.233a.46.46 0 0 0-.452.005L3.833 6.333a.62.62 0 0 1-.607 0L.75 4.895z"/></g></symbol><symbol id="trending-up" fill="currentColor" viewBox="0 0 16 16"><path d="M7.92 4.67c0-.42.33-.75.75-.75H14a.75.75 0 0 1 .75.74V10a.75.75 0 1 1-1.5 0V6.48L9.2 10.53c-.3.3-.77.3-1.06 0L6 8.4l-3.47 3.47a.75.75 0 1 1-1.06-1.07l4-4c.3-.29.77-.29 1.06 0l2.14 2.14 3.52-3.52H8.67a.75.75 0 0 1-.75-.75"/></symbol><symbol id="twist" fill="none" viewBox="0 0 16 17"><clipPath><path d="M0 .001h16v16H0z"/></clipPath><clipPath><path d="M.75.751h14.5v14.5H.75z"/></clipPath><g clip-path="url(#a)"><g clip-path="url(#b)"><path fill="currentColor" fill-rule="evenodd" d="M1.003 2.018c-.19.37-.237.827-.249 1.576l4.468 1.132c.066.017.054.114-.014.114H.75v6.7c0 1.299 0 1.948.253 2.445a2.32 2.32 0 0 0 1.014 1.013c.496.253 1.146.253 2.445.253h7.076c1.3 0 1.949 0 2.445-.253a2.32 2.32 0 0 0 1.014-1.013c.253-.497.253-1.146.253-2.446V4.463c0-1.3 0-1.949-.253-2.445a2.32 2.32 0 0 0-1.014-1.014c-.496-.253-1.146-.253-2.445-.253H4.462c-1.3 0-1.949 0-2.445.253a2.32 2.32 0 0 0-1.014 1.014m1.859 4.1 5.879-.834a.145.145 0 0 1 .165.144v.353a.12.12 0 0 1-.083.11l-4.642 1.38a.36.36 0 0 0-.26.348l.002 1.073c0 .055-.04.103-.094.113l-.938.183a.275.275 0 0 1-.328-.27V6.462c0-.173.127-.32.299-.345m3.27 2.273a.7.7 0 0 0-.394.627v2.517c0 .176.187.288.342.205l2.23-1.063a.09.09 0 0 1 .092.011l.825.661c.036.035.103.01.121-.044l.565-1.458a.2.2 0 0 1 .082-.099l1.22-.766a.73.73 0 0 0 .381-.639V6.1a.217.217 0 0 0-.312-.196z" clip-rule="evenodd"/></g></g></symbol><symbol id="twitter" fill="none" viewBox="0 0 16 17"><path fill="currentColor" d="M14.929 2.227a5.9 5.9 0 0 1-1.912.748A2.97 2.97 0 0 0 10.82 2c-1.66 0-3.008 1.382-3.008 3.086q0 .362.077.702c-2.5-.129-4.717-1.356-6.202-3.225-.26.458-.408.988-.408 1.553 0 1.07.531 2.015 1.34 2.568A2.95 2.95 0 0 1 1.254 6.3v.038c0 1.496 1.038 2.743 2.415 3.026a2.929 2.929 0 0 1-1.36.054c.384 1.225 1.495 2.118 2.812 2.141a5.94 5.94 0 0 1-4.455 1.28 8.38 8.38 0 0 0 4.612 1.384c5.536 0 8.562-4.7 8.562-8.778q0-.202-.008-.4a6.2 6.2 0 0 0 1.5-1.597 5.9 5.9 0 0 1-1.727.486 3.08 3.08 0 0 0 1.323-1.707"/></symbol><symbol id="upload-base" fill="none" viewBox="0 0 16 17"><g fill="currentColor" fill-rule="evenodd" clip-rule="evenodd"><path d="M7.47 1.471a.75.75 0 0 1 1.06 0l3 3a.75.75 0 0 1-1.06 1.061l-1.72-1.72v6.19a.75.75 0 0 1-1.5 0v-6.19l-1.72 1.72a.75.75 0 0 1-1.06-1.06z"/><path d="M1 10.252a.75.75 0 0 1 .75.75v1c0 .69.56 1.25 1.25 1.25h10c.69 0 1.25-.56 1.25-1.25v-1a.75.75 0 0 1 1.5 0v1a2.75 2.75 0 0 1-2.75 2.75H3a2.75 2.75 0 0 1-2.75-2.75v-1a.75.75 0 0 1 .75-.75"/></g></symbol><symbol id="upload-large" fill="none" viewBox="0 0 32 33"><g fill="currentColor" fill-rule="evenodd" clip-rule="evenodd"><path d="M15.294 3.295a1 1 0 0 1 1.414 0l6 6a1 1 0 0 1-1.414 1.415l-4.293-4.293v13.586a1 1 0 1 1-2 0V6.417l-4.293 4.293a1 1 0 0 1-1.414-1.415z"/><path d="M2.001 21.003a1 1 0 0 1 1 1v2a3 3 0 0 0 3 3h20a3 3 0 0 0 3-3v-2a1 1 0 0 1 2 0v2a5 5 0 0 1-5 5h-20a5 5 0 0 1-5-5v-2a1 1 0 0 1 1-1"/></g></symbol><symbol id="view-options" fill="none" viewBox="0 0 20 20"><g fill="currentColor" fill-rule="evenodd" clip-rule="evenodd"><path d="M6.563 9.219a.781.781 0 1 0 0 1.562.781.781 0 0 0 0-1.562m-2.487-.157a2.657 2.657 0 0 1 4.973 0h7.826a.937.937 0 1 1 0 1.876H9.049a2.657 2.657 0 0 1-4.973 0h-.951a.937.937 0 1 1 0-1.876zM13.148 4.063a.781.781 0 1 0 0 1.562.781.781 0 0 0 0-1.562m-2.486-.157a2.657 2.657 0 0 1 4.972 0h1.241a.937.937 0 1 1 0 1.875h-1.24a2.657 2.657 0 0 1-4.973 0H3.125a.937.937 0 1 1 0-1.875zM13.148 14.375a.781.781 0 1 0 0 1.563.781.781 0 0 0 0-1.563m-2.486-.156a2.657 2.657 0 0 1 4.972 0h1.241a.938.938 0 0 1 0 1.875h-1.24a2.657 2.657 0 0 1-4.973 0H3.125a.937.937 0 1 1 0-1.875z"/></g></symbol><symbol id="visualization-large" fill="currentColor" viewBox="0 0 32 22"><g fill-rule="evenodd" clip-rule="evenodd"><path d="M1.5 11.998a1 1 0 0 1 1 1v8a1 1 0 1 1-2 0v-8a1 1 0 0 1 1-1M7.3 3.998a1 1 0 0 1 1 1v16a1 1 0 1 1-2 0v-16a1 1 0 0 1 1-1M13.1 13.998a1 1 0 0 1 1 1v6a1 1 0 1 1-2 0v-6a1 1 0 0 1 1-1M18.9 9.998a1 1 0 0 1 1 1v10a1 1 0 0 1-2 0v-10a1 1 0 0 1 1-1M30.5 9.998a1 1 0 0 1 1 1v10a1 1 0 1 1-2 0v-10a1 1 0 0 1 1-1M24.7-.002a1 1 0 0 1 1 1v20a1 1 0 0 1-2 0v-20a1 1 0 0 1 1-1"/></g></symbol><symbol id="visualization" fill="none" viewBox="0 0 16 17"><clipPath><path d="M0 .001h16v16H0z"/></clipPath><g fill="currentColor" fill-rule="evenodd" clip-path="url(#a)" clip-rule="evenodd"><path d="M.75 8.25A.75.75 0 0 1 1.5 9v4A.75.75 0 0 1 0 13V9a.75.75 0 0 1 .75-.75M3.65 4.25A.75.75 0 0 1 4.4 5v8a.75.75 0 0 1-1.5 0V5a.75.75 0 0 1 .75-.75M6.55 9.25a.75.75 0 0 1 .75.75v3a.75.75 0 0 1-1.5 0v-3a.75.75 0 0 1 .75-.75M9.45 7.25a.75.75 0 0 1 .75.75v5a.75.75 0 0 1-1.5 0V8a.75.75 0 0 1 .75-.75M15.25 7.25A.75.75 0 0 1 16 8v5a.75.75 0 0 1-1.5 0V8a.75.75 0 0 1 .75-.75M12.35 2.25a.75.75 0 0 1 .75.75v10a.75.75 0 0 1-1.5 0V3a.75.75 0 0 1 .75-.75"/></g></symbol><symbol id="warning-large" fill="currentColor" viewBox="0 0 32 32"><path fill-rule="evenodd" d="M12.802 4.882c1.417-2.51 4.979-2.51 6.396 0l9.309 16.5C29.898 23.849 28.182 27 25.309 27H6.69c-2.873 0-4.589-3.151-3.198-5.616zm4.654.984a1.657 1.657 0 0 0-2.912 0l-9.309 16.5c-.678 1.2.192 2.633 1.456 2.633H25.31c1.264 0 2.134-1.432 1.456-2.633zM15 11.106a1 1 0 0 1 2 0v6.045a1 1 0 1 1-2 0zm.983 11.057a1.138 1.138 0 1 0 0-2.277 1.138 1.138 0 0 0 0 2.277" clip-rule="evenodd"/></symbol><symbol id="warning" fill="currentColor" viewBox="0 0 16 16"><path d="M9.82 2.32a2.08 2.08 0 0 0-3.64 0l-4.65 8.25c-.79 1.39.18 3.18 1.82 3.18h9.3c1.64 0 2.6-1.79 1.82-3.18zm-1.31.74 4.65 8.25c.25.44-.07.94-.5.94H3.34c-.44 0-.76-.5-.51-.94l4.65-8.25c.23-.41.79-.41 1.02 0ZM8 5.38a.75.75 0 0 0-.75.75V7.5a.75.75 0 0 0 1.5 0V6.13A.75.75 0 0 0 8 5.38m.75 4.87a.75.75 0 1 0-.76.75H8c.41 0 .75-.34.75-.75"/></symbol><symbol id="watch" fill="none" viewBox="0 0 16 17"><path fill="currentColor" fill-rule="evenodd" d="M2.5 11.016v-6.03c0-1.25.77-2.321 1.86-2.766v-.29C4.36.87 5.22.013 6.28.013h3.44c1.06 0 1.92.859 1.92 1.919v.29a2.99 2.99 0 0 1 1.86 2.766v.242h.125c.422 0 .765.343.765.765v2.309a.765.765 0 0 1-.765.764H13.5v1.949c0 1.25-.77 2.322-1.86 2.766v.29c0 1.06-.86 1.919-1.92 1.919H6.28a1.92 1.92 0 0 1-1.92-1.92v-.289a2.99 2.99 0 0 1-1.86-2.766m8.015-7.735h-5.03c-.942 0-1.706.763-1.706 1.705v6.03c0 .942.764 1.706 1.706 1.706h5.03c.942 0 1.706-.764 1.706-1.706v-6.03c0-.942-.764-1.705-1.706-1.705m-.155-1.35a.64.64 0 0 0-.64-.64H6.28a.64.64 0 0 0-.64.64V2h4.72zM5.64 14.07c0 .354.286.64.64.64h3.44a.64.64 0 0 0 .64-.64v-.07H5.64z" clip-rule="evenodd"/></symbol><symbol id="workspace" fill="none" viewBox="0 0 16 17"><clipPath><path d="M0 .001h16v16H0z"/></clipPath><g fill="currentColor" clip-path="url(#a)"><path fill-rule="evenodd" d="M7.252 5.066a4 4 0 0 0-2.927 4.413c-.374.123-.726.225-1.048.304a9 9 0 0 1-.408.09 5.5 5.5 0 0 1 9.366-4.775c-.338.296-.736.61-1.189.934a4 4 0 0 0-3.794-.966m-2.135 8.358a23 23 0 0 0 1.938-.688c.71.23 1.493.265 2.268.057a4 4 0 0 0 2.776-2.65 26 26 0 0 0 1.69-1.162 5.502 5.502 0 0 1-8.672 4.443M1.67 10.999q.069-.123.172-.267a6.7 6.7 0 0 1-.42-1.79C.97 9.393.6 9.843.36 10.27c-.26.467-.486 1.148-.102 1.76.366.58 1.058.723 1.601.746.596.026 1.316-.077 2.096-.267 1.57-.383 3.538-1.16 5.547-2.232 2.009-1.071 3.724-2.258 4.871-3.326.57-.53 1.034-1.063 1.315-1.568.26-.467.487-1.147.102-1.76-.365-.58-1.057-.723-1.6-.746-.596-.026-1.317.077-2.097.267l-.016.004c.467.366.887.795 1.245 1.28q.476-.067.802-.052c.186.008.296.032.356.052a1.2 1.2 0 0 1-.102.225c-.172.309-.509.718-1.027 1.2-1.026.955-2.624 2.07-4.554 3.1s-3.78 1.753-5.197 2.099c-.714.174-1.28.243-1.676.226a1.4 1.4 0 0 1-.355-.052c.014-.048.044-.121.102-.226" clip-rule="evenodd"/><path d="M0 3.751h1.5v1.5H0z"/><path fill-rule="evenodd" d="M2 .501h2v1.5H2z" clip-rule="evenodd"/></g></symbol><symbol id="x-small" fill="currentColor" viewBox="0 0 16 16"><path d="M3.47 3.47c.3-.3.77-.3 1.06 0L8 6.94l3.47-3.47a.75.75 0 1 1 1.06 1.06L9.06 8l3.47 3.47a.75.75 0 1 1-1.06 1.06L8 9.06l-3.47 3.47a.75.75 0 0 1-1.06-1.06L6.94 8 3.47 4.53a.75.75 0 0 1 0-1.06"/></symbol><symbol id="x" fill="currentColor" viewBox="0 0 16 16"><path fill-rule="evenodd" d="M2.47 2.47a.75.75 0 0 1 1.06 0L8 6.94l4.47-4.47a.75.75 0 0 1 1.06 1.06L9.06 8l4.47 4.47a.75.75 0 0 1-1.06 1.06L8 9.06l-4.47 4.47a.75.75 0 1 1-1.06-1.06L6.94 8 2.47 3.53a.75.75 0 0 1 0-1.06" clip-rule="evenodd"/></symbol><symbol id="youtube" fill="none" viewBox="0 0 16 17"><path fill="currentColor" fill-rule="evenodd" d="M2.399 2.829c2.239-.161 5.598-.161 5.598-.161h.006s3.36 0 5.598.161q.045.006.103.01c.343.034.952.093 1.5.664.48.484.636 1.581.636 1.581S16 6.373 16 7.661V8.87c0 1.289-.16 2.578-.16 2.578s-.156 1.097-.636 1.58c-.548.572-1.157.63-1.5.664l-.103.01c-2.239.162-5.601.167-5.601.167s-4.16-.038-5.44-.16q-.092-.016-.218-.03c-.406-.049-1.042-.125-1.546-.65-.48-.484-.636-1.581-.636-1.581S0 10.158 0 8.869V7.661c0-1.288.16-2.577.16-2.577s.156-1.097.636-1.58c.549-.572 1.157-.631 1.5-.664zm8.272 5.275L6.347 5.86l.001 4.474z" clip-rule="evenodd"/></symbol><symbol id="zoom" fill="currentColor" viewBox="0 0 16 16"><path d="M7.33 2.25a5.08 5.08 0 1 0 0 10.17 5.08 5.08 0 0 0 0-10.17m-4.65.43a6.58 6.58 0 0 1 9.8 8.75l3.05 3.04a.75.75 0 1 1-1.06 1.06l-3.04-3.04a6.58 6.58 0 0 1-8.75-9.81m4.65 1.4c.42 0 .75.34.75.76v1.75h1.75a.75.75 0 0 1 0 1.5H8.08v1.75a.75.75 0 1 1-1.5 0V8.09H4.83a.75.75 0 1 1 0-1.5h1.75V4.84c0-.42.34-.75.75-.75Z"/></symbol></svg>