<svg xmlns="http://www.w3.org/2000/svg" width="0" height="0"><symbol id="activity-complete" fill="none" viewBox="0 0 14 13"><path fill="currentColor" fill-opacity=".66" fill-rule="evenodd" d="M.574 6.547a6.25 6.25 0 1 0 12.498 0 6.25 6.25 0 0 0-12.498 0M3.85 6.7a.52.52 0 0 1 .736 0l1.194 1.194 3.277-3.277a.52.52 0 0 1 .737.736L6.15 8.998a.52.52 0 0 1-.737 0L3.851 7.436a.52.52 0 0 1 0-.736" clip-rule="evenodd"/></symbol><symbol id="alarm-clock-filled" fill="none" viewBox="0 0 24 24"><path fill="currentColor" fill-rule="evenodd" d="m3.621 7.059.141.14a.75.75 0 0 1-1.06 1.061l-.141-.14a3 3 0 0 1 0-4.243l.568-.568a3 3 0 0 1 4.146-.093.75.75 0 0 1-1.013 1.107 1.5 1.5 0 0 0-2.073.047l-.568.568a1.5 1.5 0 0 0 0 2.12M17.74 4.323a1.5 1.5 0 0 1 2.072.047l.568.568a1.5 1.5 0 0 1 0 2.12l-.14.141a.75.75 0 0 0 1.06 1.061l.14-.14a3 3 0 0 0 0-4.243l-.568-.568a3 3 0 0 0-4.145-.093.75.75 0 1 0 1.012 1.107M12 20.248c2.2 0 4.197-.86 5.676-2.263l2.044 2.044a.75.75 0 0 0 1.06-1.061l-2.111-2.112a8.25 8.25 0 1 0-13.337 0L3.22 18.968a.75.75 0 0 0 1.06 1.06l2.044-2.043A8.22 8.22 0 0 0 12 20.248M12 7.5V12h3a.75.75 0 1 1 0 1.5h-3.75a.75.75 0 0 1-.75-.75V7.5a.75.75 0 0 1 1.5 0" clip-rule="evenodd"/></symbol><symbol id="alarm-clock-outline" fill="none" viewBox="0 0 24 24"><path fill="currentColor" fill-rule="evenodd" d="m3.621 7.059.141.14a.75.75 0 0 1-1.06 1.061l-.141-.14a3 3 0 0 1 0-4.243l.568-.568a3 3 0 0 1 4.146-.093.75.75 0 0 1-1.013 1.107 1.5 1.5 0 0 0-2.073.047l-.568.568a1.5 1.5 0 0 0 0 2.12M17.74 4.323a1.5 1.5 0 0 1 2.072.047l.568.568a1.5 1.5 0 0 1 0 2.12l-.14.141a.75.75 0 0 0 1.06 1.061l.14-.14a3 3 0 0 0 0-4.243l-.568-.568a3 3 0 0 0-4.145-.093.75.75 0 1 0 1.012 1.107m-.063 13.662A8.22 8.22 0 0 1 12 20.248c-2.199 0-4.197-.86-5.676-2.263L4.28 20.03a.75.75 0 1 1-1.06-1.061l2.111-2.112a8.25 8.25 0 1 1 13.337 0l2.112 2.112a.75.75 0 0 1-1.06 1.06zM12 18.748a6.75 6.75 0 1 1 0-13.5 6.75 6.75 0 0 1 0 13.5M12 7.5V12h3a.75.75 0 1 1 0 1.5h-3.75a.75.75 0 0 1-.75-.75V7.5a.75.75 0 0 1 1.5 0" clip-rule="evenodd"/></symbol><symbol id="archive" fill="none" viewBox="0 0 24 24"><g fill="currentColor" fill-rule="evenodd" clip-rule="evenodd"><path d="M8.75 11.5a.75.75 0 0 1 .75-.75h5a.75.75 0 0 1 0 1.5h-5a.75.75 0 0 1-.75-.75"/><path d="M18 20.25A2.25 2.25 0 0 0 20.25 18V9.25h1V6A2.25 2.25 0 0 0 19 3.75H5A2.25 2.25 0 0 0 2.75 6v3.25h1V18A2.25 2.25 0 0 0 6 20.25zm-12.75-11V18c0 .415.336.75.75.75h12a.75.75 0 0 0 .75-.75V9.25zm-.25-4a.75.75 0 0 0-.75.75v1.75h15.5V6a.75.75 0 0 0-.75-.75z"/></g></symbol><symbol id="assign" fill="none" viewBox="0 0 24 24"><g fill="currentColor" fill-rule="evenodd" clip-rule="evenodd"><path d="M10.067 6.25a2.48 2.48 0 1 0 0 4.962 2.48 2.48 0 0 0 0-4.962m-3.98 2.481a3.98 3.98 0 1 1 7.961 0 3.98 3.98 0 0 1-7.961 0M4.677 14.701c1.412-.837 3.33-1.335 5.39-1.335s3.978.498 5.391 1.335c1.354.748 2.36 1.863 2.36 3.45 0 .66-.22 1.196-.645 1.562-.42.363-1.015.537-1.725.537H4.687c-.71 0-1.305-.174-1.726-.537-.425-.366-.644-.901-.644-1.562 0-1.587 1.005-2.702 2.36-3.45m5.39.165c-1.842 0-3.49.45-4.635 1.13l-.01.007-.012.006c-1.102.607-1.593 1.311-1.593 2.142 0 .164.026.263.05.319a.3.3 0 0 0 .074.107c.062.054.263.173.746.173h10.76c.484 0 .685-.12.746-.173a.3.3 0 0 0 .075-.107.8.8 0 0 0 .05-.319c0-.83-.491-1.535-1.594-2.142l-.01-.006-.012-.006c-1.144-.681-2.793-1.131-4.635-1.131M19.49 6.635a.75.75 0 0 1 .75.75v1.942h1.943a.75.75 0 0 1 0 1.5H20.24v1.942a.75.75 0 0 1-1.5 0v-1.942h-1.943a.75.75 0 1 1 0-1.5h1.943V7.385a.75.75 0 0 1 .75-.75"/></g></symbol><symbol id="attach" fill="none" viewBox="0 0 24 24"><path fill="currentColor" fill-rule="evenodd" d="M17.511 5.208c-1.075-1.076-2.722-1.079-3.679-.122l-7.767 7.768C4.528 14.39 4.556 17 6.242 18.687s4.297 1.714 5.833.177l4.199-4.198a.75.75 0 1 1 1.06 1.06l-4.198 4.199c-2.173 2.173-5.735 2.042-7.955-.177-2.22-2.22-2.35-5.782-.177-7.955l7.767-7.767c1.594-1.594 4.191-1.488 5.8.121 1.61 1.61 1.716 4.207.122 5.8l-6.087 6.089c-1.014 1.014-2.647.932-3.646-.067s-1.08-2.631-.067-3.645l4.049-4.049a.75.75 0 0 1 1.06 1.06l-4.048 4.05c-.377.377-.399 1.058.066 1.524.466.465 1.148.444 1.525.066l6.088-6.088c.957-.957.954-2.604-.122-3.679" clip-rule="evenodd"/></symbol><symbol id="avatar-lock" fill="none" viewBox="0 0 24 24"><rect fill="currentColor" fill-opacity=".15" rx="12"/><g fill="currentColor" fill-opacity=".65" fill-rule="evenodd" clip-rule="evenodd"><path d="M8.459 7.833a2.71 2.71 0 0 1 2.708-2.708h1.667a2.71 2.71 0 0 1 2.708 2.708v1.459h.625c1.035 0 1.875.84 1.875 1.875v5c0 1.035-.84 1.875-1.875 1.875H7.834a1.875 1.875 0 0 1-1.875-1.875v-5c0-1.036.839-1.875 1.874-1.875h.626zm-.625 2.709a.625.625 0 0 0-.625.625v5c0 .345.28.625.625.625h8.333c.345 0 .625-.28.625-.625v-5a.625.625 0 0 0-.625-.625zm6.458-1.25V7.832c0-.805-.653-1.458-1.458-1.458h-1.667c-.806 0-1.458.653-1.458 1.458v1.458z"/><path d="M12 13.042a.625.625 0 1 0 0 1.25.625.625 0 0 0 0-1.25m-1.875.625a1.875 1.875 0 1 1 3.75 0 1.875 1.875 0 0 1-3.75 0"/></g></symbol><symbol id="board" fill="none" viewBox="0 0 24 24"><g fill="currentColor" fill-rule="evenodd" clip-rule="evenodd"><path d="M3 6a3 3 0 0 1 3-3h12a3 3 0 0 1 3 3v12a3 3 0 0 1-3 3H6a3 3 0 0 1-3-3zm3-1.5A1.5 1.5 0 0 0 4.5 6v12A1.5 1.5 0 0 0 6 19.5h12a1.5 1.5 0 0 0 1.5-1.5V6A1.5 1.5 0 0 0 18 4.5z"/><path d="M8 7.25a.75.75 0 0 1 .75.75v8a.75.75 0 0 1-1.5 0V8A.75.75 0 0 1 8 7.25M12 7.25a.75.75 0 0 1 .75.75v8a.75.75 0 0 1-1.5 0V8a.75.75 0 0 1 .75-.75M16 7.25a.75.75 0 0 1 .75.75v8a.75.75 0 0 1-1.5 0V8a.75.75 0 0 1 .75-.75"/></g></symbol><symbol id="checkmark" fill="none" viewBox="0 0 24 24"><path fill="currentColor" d="M8.457 11.793a1 1 0 0 0-1.414 1.414l2.5 2.5a1 1 0 0 0 1.414 0l6-6a1 1 0 0 0-1.414-1.414l-5.293 5.293z"/></symbol><symbol id="chevron-down" fill="none" viewBox="0 0 24 24"><path fill="currentcolor" fill-rule="evenodd" d="M4.873 8.873a.886.886 0 0 1 1.254 0L12 14.747l5.873-5.874a.886.886 0 1 1 1.254 1.254l-6.5 6.5a.886.886 0 0 1-1.254 0l-6.5-6.5a.886.886 0 0 1 0-1.254" clip-rule="evenodd"/></symbol><symbol id="chevron-left" fill="none" viewBox="0 0 24 24"><path fill="currentcolor" fill-rule="evenodd" d="M15.127 4.623a.886.886 0 0 1 0 1.254L9.254 11.75l5.873 5.873a.886.886 0 0 1-1.254 1.254l-6.5-6.5a.886.886 0 0 1 0-1.254l6.5-6.5a.886.886 0 0 1 1.254 0" clip-rule="evenodd"/></symbol><symbol id="chevron-right" fill="none" viewBox="0 0 24 24"><path fill="currentcolor" fill-rule="evenodd" d="M8.873 4.623a.886.886 0 0 1 1.254 0l6.5 6.5a.886.886 0 0 1 0 1.254l-6.5 6.5a.886.886 0 0 1-1.254-1.254l5.874-5.873-5.874-5.873a.886.886 0 0 1 0-1.254" clip-rule="evenodd"/></symbol><symbol id="chevron-up" fill="none" viewBox="0 0 24 24"><path fill="currentcolor" fill-rule="evenodd" d="M11.373 7.374a.886.886 0 0 1 1.254 0l6.5 6.5a.886.886 0 0 1-1.254 1.253L12 9.254l-5.873 5.873a.886.886 0 1 1-1.254-1.254z" clip-rule="evenodd"/></symbol><symbol id="clock" fill="none" viewBox="0 0 24 24"><path d="M0 0h24v24H0z"/><path d="M-184-304h753v672h-753z"/><g fill="currentColor" fill-rule="evenodd" clip-rule="evenodd"><path d="M12 3.75a8.25 8.25 0 1 0 0 16.5 8.25 8.25 0 0 0 0-16.5M2.25 12c0-5.385 4.365-9.75 9.75-9.75s9.75 4.365 9.75 9.75-4.365 9.75-9.75 9.75S2.25 17.385 2.25 12"/><path d="M11.5 6.75a.75.75 0 0 1 .75.75v4.584l3.648 2.28a.75.75 0 1 1-.796 1.272l-4-2.5a.75.75 0 0 1-.352-.636v-5a.75.75 0 0 1 .75-.75"/></g></symbol><symbol id="comment" fill="none" viewBox="0 0 24 24"><path fill="currentColor" fill-rule="evenodd" d="M11.56 21.69 14.25 19H18a3 3 0 0 0 3-3V7a3 3 0 0 0-3-3H6a3 3 0 0 0-3 3v9a3 3 0 0 0 3 3h3v1.629a1.5 1.5 0 0 0 2.56 1.06M19.5 16a1.5 1.5 0 0 1-1.5 1.5h-4.371L10.5 20.63V17.5H6A1.5 1.5 0 0 1 4.5 16V7A1.5 1.5 0 0 1 6 5.5h12A1.5 1.5 0 0 1 19.5 7z" clip-rule="evenodd"/></symbol><symbol id="complete-filled" fill="none" viewBox="0 0 24 24"><g fill="currentColor" fill-rule="evenodd" clip-rule="evenodd"><path d="M18.5 13.5a8 8 0 1 1-16 0 8 8 0 0 1 16 0m-8 6.5a6.5 6.5 0 1 0 0-13 6.5 6.5 0 0 0 0 13"/><path d="M19.128 15.982A8 8 0 0 0 7.278 5.439a8.46 8.46 0 0 1 3.887-.939c1.935 0 3.719.646 5.147 1.735q.531.385.974.867A8.47 8.47 0 0 1 19.666 13c0 1.05-.19 2.054-.538 2.982"/><path d="M21.1 13.732A8 8 0 0 0 9.25 3.189a8.46 8.46 0 0 1 3.887-.939c1.935 0 3.718.646 5.147 1.735q.53.386.974.867a8.47 8.47 0 0 1 2.379 5.898c0 1.05-.19 2.054-.538 2.982M17 13.5a6.5 6.5 0 1 1-13 0 6.5 6.5 0 0 1 13 0m-2.22-3.03a.75.75 0 0 1 0 1.06l-5 5a.75.75 0 0 1-1.06 0l-2.5-2.5a.75.75 0 0 1 1.06-1.06l1.97 1.97 4.47-4.47a.75.75 0 0 1 1.06 0"/></g></symbol><symbol id="complete" fill="none" viewBox="0 0 24 24"><path fill="currentColor" fill-rule="evenodd" d="M18.5 13.5a8 8 0 1 1-16 0 8 8 0 0 1 16 0m-8 6.5a6.5 6.5 0 1 0 0-13 6.5 6.5 0 0 0 0 13" clip-rule="evenodd"/><path fill="currentColor" fill-rule="evenodd" d="M19.128 15.982A8 8 0 0 0 7.278 5.439a8.46 8.46 0 0 1 3.887-.939c1.935 0 3.719.646 5.147 1.735q.531.386.974.867A8.47 8.47 0 0 1 19.666 13c0 1.05-.19 2.054-.538 2.982" clip-rule="evenodd"/><path fill="currentColor" fill-rule="evenodd" d="M21.1 13.732A8 8 0 0 0 9.25 3.189a8.46 8.46 0 0 1 3.887-.939c1.935 0 3.718.646 5.147 1.735q.53.386.974.867a8.47 8.47 0 0 1 2.379 5.898c0 1.05-.19 2.054-.538 2.982M14.78 10.47a.75.75 0 0 1 0 1.06l-5 5a.75.75 0 0 1-1.06 0l-2.5-2.5a.75.75 0 0 1 1.06-1.06l1.97 1.97 4.47-4.47a.75.75 0 0 1 1.06 0" clip-rule="evenodd"/></symbol><symbol id="date-default" fill="none" viewBox="0 0 24 24"><path fill="currentColor" fill-rule="evenodd" d="M6 8a.75.75 0 0 1 .75-.75h10.5a.75.75 0 0 1 0 1.5H6.75A.75.75 0 0 1 6 8" clip-rule="evenodd"/><path fill="currentColor" fill-rule="evenodd" d="M3 6a3 3 0 0 1 3-3h12a3 3 0 0 1 3 3v12a3 3 0 0 1-3 3H6a3 3 0 0 1-3-3zm3-1.5A1.5 1.5 0 0 0 4.5 6v12A1.5 1.5 0 0 0 6 19.5h12a1.5 1.5 0 0 0 1.5-1.5V6A1.5 1.5 0 0 0 18 4.5z" clip-rule="evenodd"/><path fill="currentColor" d="M17.25 16.125a1.125 1.125 0 1 1-2.25 0 1.125 1.125 0 0 1 2.25 0"/></symbol><symbol id="date-move" fill="none" viewBox="0 0 24 24"><path fill="currentColor" fill-rule="evenodd" d="M6 8a.75.75 0 0 1 .75-.75h10.5a.75.75 0 0 1 0 1.5H6.75A.75.75 0 0 1 6 8M12.47 10.47a.75.75 0 0 1 1.06 0l3 3a.75.75 0 0 1 0 1.06l-3 3a.75.75 0 1 1-1.06-1.06l1.72-1.72H8a.75.75 0 1 1 0-1.5h6.19l-1.72-1.72a.75.75 0 0 1 0-1.06" clip-rule="evenodd"/><path fill="currentColor" fill-rule="evenodd" d="M3 6a3 3 0 0 1 3-3h12a3 3 0 0 1 3 3v12a3 3 0 0 1-3 3H6a3 3 0 0 1-3-3zm3-1.5A1.5 1.5 0 0 0 4.5 6v12A1.5 1.5 0 0 0 6 19.5h12a1.5 1.5 0 0 0 1.5-1.5V6A1.5 1.5 0 0 0 18 4.5z" clip-rule="evenodd"/></symbol><symbol id="date-none" fill="none" viewBox="0 0 24 24"><path fill="currentColor" fill-rule="evenodd" d="M16.03 7.97a.75.75 0 0 1 0 1.06l-7 7a.75.75 0 1 1-1.06-1.06l7-7a.75.75 0 0 1 1.06 0" clip-rule="evenodd"/><path fill="currentColor" fill-rule="evenodd" d="M12 3.75a8.25 8.25 0 1 0 0 16.5 8.25 8.25 0 0 0 0-16.5M2.25 12c0-5.385 4.365-9.75 9.75-9.75s9.75 4.365 9.75 9.75-4.365 9.75-9.75 9.75S2.25 17.385 2.25 12" clip-rule="evenodd"/></symbol><symbol id="date-overdue" fill="none" viewBox="0 0 16 16"><path fill="currentColor" fill-rule="evenodd" d="M4 2h8a2 2 0 0 1 2 2v3.5h-1V4a1 1 0 0 0-1-1H4a1 1 0 0 0-1 1v8a1 1 0 0 0 1 1h3.5v1H4a2 2 0 0 1-2-2V4a2 2 0 0 1 2-2m0 3.5a.5.5 0 0 1 .5-.5h7a.5.5 0 0 1 0 1h-7a.5.5 0 0 1-.5-.5m5.025 4.233 1.768 1.767-1.768 1.768a.5.5 0 1 0 .707.707l1.768-1.767 1.768 1.767a.5.5 0 0 0 .707-.707L12.207 11.5l1.768-1.767a.5.5 0 1 0-.707-.707L11.5 10.793 9.732 9.026a.5.5 0 1 0-.707.707" clip-rule="evenodd"/></symbol><symbol id="date-today-filled" fill="none" viewBox="0 0 24 24"><g fill="currentColor" fill-rule="evenodd" clip-rule="evenodd"><path d="M3 6a3 3 0 0 1 3-3h12a3 3 0 0 1 3 3v12a3 3 0 0 1-3 3H6a3 3 0 0 1-3-3zm3-1.5A1.5 1.5 0 0 0 4.5 6v12A1.5 1.5 0 0 0 6 19.5h12a1.5 1.5 0 0 0 1.5-1.5V6A1.5 1.5 0 0 0 18 4.5z"/><path d="M4.5 6A1.5 1.5 0 0 1 6 4.5h12A1.5 1.5 0 0 1 19.5 6v12a1.5 1.5 0 0 1-1.5 1.5H6A1.5 1.5 0 0 1 4.5 18zM6 8a.75.75 0 0 1 .75-.75h10.5a.75.75 0 0 1 0 1.5H6.75A.75.75 0 0 1 6 8m1.473 8.108V17h4.532v-1.026H9.18v-.045l1.086-1.096q.646-.61 1-1.045.359-.435.5-.79.143-.357.143-.725 0-.553-.281-.984a1.9 1.9 0 0 0-.783-.678q-.505-.246-1.176-.246-.655 0-1.164.256-.504.252-.792.716-.285.462-.285 1.09h1.176q0-.33.128-.566a.9.9 0 0 1 .368-.371 1.14 1.14 0 0 1 .556-.131q.307 0 .546.121a.9.9 0 0 1 .38.34q.141.216.141.52 0 .269-.108.505-.109.237-.323.486-.214.25-.534.569zm8.551.892v-6.545h-1.173l-1.626 1.041v1.122l1.524-.971h.039V17z"/></g></symbol><symbol id="date-today" fill="none" viewBox="0 0 24 24"><path fill="currentColor" fill-rule="evenodd" d="M6 8a.75.75 0 0 1 .75-.75h10.5a.75.75 0 0 1 0 1.5H6.75A.75.75 0 0 1 6 8" clip-rule="evenodd"/><path fill="currentColor" fill-rule="evenodd" d="M3 6a3 3 0 0 1 3-3h12a3 3 0 0 1 3 3v12a3 3 0 0 1-3 3H6a3 3 0 0 1-3-3zm3-1.5A1.5 1.5 0 0 0 4.5 6v12A1.5 1.5 0 0 0 6 19.5h12a1.5 1.5 0 0 0 1.5-1.5V6A1.5 1.5 0 0 0 18 4.5z" clip-rule="evenodd"/><path fill="currentColor" d="M7.473 17v-.892L9.758 13.9q.32-.32.534-.57.214-.248.323-.485.108-.237.108-.505a.94.94 0 0 0-.14-.52.9.9 0 0 0-.38-.34 1.2 1.2 0 0 0-.547-.121q-.316 0-.556.131a.9.9 0 0 0-.368.37 1.2 1.2 0 0 0-.128.566H7.428q0-.625.285-1.09.287-.462.792-.715.51-.255 1.164-.256.671 0 1.176.246t.783.678q.28.43.281.984 0 .367-.144.726-.141.355-.498.789-.355.435-1 1.045L9.18 15.929v.045h2.825V17zM16.024 10.455V17h-1.236v-5.353h-.039l-1.524.971v-1.122l1.627-1.042z"/></symbol><symbol id="date-upcoming-filled" fill="none" viewBox="0 0 24 24"><g fill="currentColor" fill-rule="evenodd" clip-rule="evenodd"><path d="M3 6a3 3 0 0 1 3-3h12a3 3 0 0 1 3 3v12a3 3 0 0 1-3 3H6a3 3 0 0 1-3-3zm3-1.5A1.5 1.5 0 0 0 4.5 6v12A1.5 1.5 0 0 0 6 19.5h12a1.5 1.5 0 0 0 1.5-1.5V6A1.5 1.5 0 0 0 18 4.5z"/><path d="M4.5 6A1.5 1.5 0 0 1 6 4.5h12A1.5 1.5 0 0 1 19.5 6v12a1.5 1.5 0 0 1-1.5 1.5H6A1.5 1.5 0 0 1 4.5 18zM6 8a.75.75 0 0 1 .75-.75h10.5a.75.75 0 0 1 0 1.5H6.75A.75.75 0 0 1 6 8m10.125 9.25a1.125 1.125 0 1 0 0-2.25 1.125 1.125 0 0 0 0 2.25m0-4a1.125 1.125 0 1 0 0-2.25 1.125 1.125 0 0 0 0 2.25m-4 4a1.125 1.125 0 1 0 0-2.25 1.125 1.125 0 0 0 0 2.25m0-4a1.125 1.125 0 1 0 0-2.25 1.125 1.125 0 0 0 0 2.25m-4 4a1.125 1.125 0 1 0 0-2.25 1.125 1.125 0 0 0 0 2.25m0-4a1.125 1.125 0 1 0 0-2.25 1.125 1.125 0 0 0 0 2.25"/></g></symbol><symbol id="date-upcoming" fill="none" viewBox="0 0 24 24"><path fill="currentColor" fill-rule="evenodd" d="M6 8a.75.75 0 0 1 .75-.75h10.5a.75.75 0 0 1 0 1.5H6.75A.75.75 0 0 1 6 8" clip-rule="evenodd"/><path fill="currentColor" fill-rule="evenodd" d="M3 6a3 3 0 0 1 3-3h12a3 3 0 0 1 3 3v12a3 3 0 0 1-3 3H6a3 3 0 0 1-3-3zm3-1.5A1.5 1.5 0 0 0 4.5 6v12A1.5 1.5 0 0 0 6 19.5h12a1.5 1.5 0 0 0 1.5-1.5V6A1.5 1.5 0 0 0 18 4.5z" clip-rule="evenodd"/><path fill="currentColor" d="M17.25 16.125a1.125 1.125 0 1 1-2.25 0 1.125 1.125 0 0 1 2.25 0M17.25 12.125a1.125 1.125 0 1 1-2.25 0 1.125 1.125 0 0 1 2.25 0M13.25 16.125a1.125 1.125 0 1 1-2.25 0 1.125 1.125 0 0 1 2.25 0M13.25 12.125a1.125 1.125 0 1 1-2.25 0 1.125 1.125 0 0 1 2.25 0M9.25 16.125a1.125 1.125 0 1 1-2.25 0 1.125 1.125 0 0 1 2.25 0M9.25 12.125a1.125 1.125 0 1 1-2.25 0 1.125 1.125 0 0 1 2.25 0"/></symbol><symbol id="description" fill="none" viewBox="0 0 24 24"><path fill="currentcolor" fill-rule="evenodd" d="M5.25 6.5A.75.75 0 0 1 6 5.75h12a.75.75 0 0 1 0 1.5H6a.75.75 0 0 1-.75-.75m0 5.5a.75.75 0 0 1 .75-.75h12a.75.75 0 0 1 0 1.5H6a.75.75 0 0 1-.75-.75m0 5.5a.75.75 0 0 1 .75-.75h7a.75.75 0 0 1 0 1.5H6a.75.75 0 0 1-.75-.75" clip-rule="evenodd"/></symbol><symbol id="dismiss" fill="none" viewBox="0 0 24 24"><path fill="currentColor" fill-rule="evenodd" d="m12 11.293 6.146-6.147a.5.5 0 0 1 .708.708L12.707 12l6.147 6.146a.5.5 0 0 1-.708.708L12 12.707l-6.146 6.147a.5.5 0 0 1-.708-.708L11.293 12 5.146 5.854a.5.5 0 1 1 .708-.708z" clip-rule="evenodd"/></symbol><symbol id="edit" fill="none" viewBox="0 0 24 24"><path fill="currentColor" fill-rule="evenodd" d="M18.424 5.06 17.01 3.648a.5.5 0 0 0-.708 0L5.737 14.213a.5.5 0 0 0-.126.21l-.866 2.903 2.902-.867a.5.5 0 0 0 .21-.125L18.425 5.768a.5.5 0 0 0 0-.707m-.354-2.474a2 2 0 0 0-2.828 0L4.676 13.152a2 2 0 0 0-.502.842l-1.13 3.79a1 1 0 0 0 1.243 1.244l3.79-1.131a2 2 0 0 0 .842-.502L19.485 6.829a2 2 0 0 0 0-2.829zM10.246 17.672a.75.75 0 1 0 0 1.5h9.5a.75.75 0 0 0 0-1.5z" clip-rule="evenodd"/></symbol><symbol id="email" fill="none" viewBox="0 0 24 24"><g fill="currentColor" fill-rule="evenodd" clip-rule="evenodd"><path d="M19 5.5H5A1.5 1.5 0 0 0 3.5 7v10A1.5 1.5 0 0 0 5 18.5h14a1.5 1.5 0 0 0 1.5-1.5V7A1.5 1.5 0 0 0 19 5.5M5 4a3 3 0 0 0-3 3v10a3 3 0 0 0 3 3h14a3 3 0 0 0 3-3V7a3 3 0 0 0-3-3z"/><path d="M4.906 7.543a.75.75 0 0 1 1.051-.137L12 12.054l6.043-4.648a.75.75 0 0 1 .914 1.189l-6.5 5a.75.75 0 0 1-.914 0l-6.5-5a.75.75 0 0 1-.137-1.052"/></g></symbol><symbol id="emoji" fill="none" viewBox="0 0 24 24"><g fill="currentColor" fill-rule="evenodd" clip-rule="evenodd"><path d="M9.143 10.786a1.143 1.143 0 1 0 0-2.286 1.143 1.143 0 0 0 0 2.286M16 9.643a1.143 1.143 0 1 1-2.286 0 1.143 1.143 0 0 1 2.286 0m-7.36 4.114a.57.57 0 0 1 .56-.685h5.6c.361 0 .632.331.56.685a3.43 3.43 0 0 1-6.72 0"/><path d="M12 3.75a8.25 8.25 0 1 0 0 16.5 8.25 8.25 0 0 0 0-16.5M2.25 12c0-5.385 4.365-9.75 9.75-9.75s9.75 4.365 9.75 9.75-4.365 9.75-9.75 9.75S2.25 17.385 2.25 12"/></g></symbol><symbol id="extension" fill="none" viewBox="0 0 24 24"><path fill="currentColor" fill-rule="evenodd" d="M1.25 7.25A3.75 3.75 0 0 1 5 3.5h9a3.75 3.75 0 0 1 3.75 3.75V9.7c.452-.366 1.05-.7 1.75-.7a3.25 3.25 0 0 1 0 6.5c-.7 0-1.298-.333-1.75-.698v2.448A3.75 3.75 0 0 1 14 21H5a3.75 3.75 0 0 1-3.75-3.75v-2.966c0-.65.5-1.013.87-1.136.374-.124.932-.122 1.34.278.388.38.75.574 1.04.574a1.75 1.75 0 1 0 0-3.5c-.29 0-.652.194-1.04.575-.408.4-.966.402-1.34.278-.371-.124-.87-.487-.87-1.136zM5 5a2.25 2.25 0 0 0-2.25 2.25V9.7C3.202 9.333 3.8 9 4.5 9a3.25 3.25 0 0 1 0 6.5c-.7 0-1.298-.333-1.75-.698v2.448A2.25 2.25 0 0 0 5 19.5h9a2.25 2.25 0 0 0 2.25-2.25v-2.966c0-.65.5-1.013.87-1.136.374-.124.932-.122 1.34.278.388.38.75.574 1.04.574a1.75 1.75 0 1 0 0-3.5c-.29 0-.652.194-1.04.575-.408.4-.966.402-1.34.278-.371-.124-.87-.487-.87-1.136V7.25A2.25 2.25 0 0 0 14 5z" clip-rule="evenodd"/></symbol><symbol id="filter-circle" fill="none" viewBox="0 0 24 24"><g fill="currentColor" fill-rule="evenodd" clip-rule="evenodd"><path d="M12 3.75a8.25 8.25 0 1 0 0 16.5 8.25 8.25 0 0 0 0-16.5M2.25 12c0-5.385 4.365-9.75 9.75-9.75s9.75 4.365 9.75 9.75-4.365 9.75-9.75 9.75S2.25 17.385 2.25 12"/><path d="M6.75 9.5a.75.75 0 0 1 .75-.75h9a.75.75 0 0 1 0 1.5h-9a.75.75 0 0 1-.75-.75M8.25 12.5a.75.75 0 0 1 .75-.75h6a.75.75 0 0 1 0 1.5H9a.75.75 0 0 1-.75-.75M9.25 15.5a.75.75 0 0 1 .75-.75h4a.75.75 0 0 1 0 1.5h-4a.75.75 0 0 1-.75-.75"/></g></symbol><symbol id="filter-filled" fill="none" viewBox="0 0 24 24"><path fill="currentColor" d="M12 21c3.59 0 6.5-2.878 6.5-6.429 0-1.417-.448-2.57-1.383-3.895-.337-.477-1.839-2.356-2.206-2.861-1.008-1.385-1.74-2.73-2.294-4.375-.198-.587-1.036-.587-1.234 0-.554 1.645-1.286 2.99-2.294 4.375-.367.505-1.87 2.384-2.206 2.86C5.948 12 5.5 13.156 5.5 14.572 5.5 18.121 8.41 21 12 21"/></symbol><symbol id="filter-outline" fill="none" viewBox="0 0 24 24"><path fill="currentColor" fill-rule="evenodd" d="M11.5 19.5c2.777 0 5-2.222 5-4.929 0-1.028-.3-1.885-1.108-3.03-.141-.2-.569-.749-1.048-1.361l-.11-.141c-.418-.534-.849-1.084-1.036-1.341a18 18 0 0 1-1.698-2.8 18 18 0 0 1-1.698 2.8 70 70 0 0 1-1.146 1.482 58 58 0 0 0-1.048 1.36C6.8 12.687 6.5 13.544 6.5 14.572c0 2.707 2.223 4.929 5 4.929m-.796-15.555c-.53 1.42-1.212 2.63-2.115 3.87-.17.234-.586.766-1.016 1.315-.495.633-1.01 1.29-1.19 1.546C5.448 12 5 13.154 5 14.57 5 18.121 7.91 21 11.5 21s6.5-2.878 6.5-6.429c0-1.417-.448-2.57-1.383-3.895-.18-.256-.695-.913-1.19-1.546-.43-.55-.845-1.08-1.016-1.315-.903-1.24-1.584-2.45-2.115-3.87l-.012-.033a17 17 0 0 1-.167-.472c-.198-.587-1.036-.587-1.234 0a17 17 0 0 1-.179.504" clip-rule="evenodd"/></symbol><symbol id="filters-labels-filled" fill="none" viewBox="0 0 24 24"><g fill="currentColor"><g fill-rule="evenodd" clip-rule="evenodd"><path d="M8.857 14.643H6a.5.5 0 0 0-.5.5V18a.5.5 0 0 0 .5.5h2.857a.5.5 0 0 0 .5-.5v-2.857a.5.5 0 0 0-.5-.5M6 13.143a2 2 0 0 0-2 2V18a2 2 0 0 0 2 2h2.857a2 2 0 0 0 2-2v-2.857a2 2 0 0 0-2-2zM18 14.643h-2.857a.5.5 0 0 0-.5.5V18a.5.5 0 0 0 .5.5H18a.5.5 0 0 0 .5-.5v-2.857a.5.5 0 0 0-.5-.5m-2.857-1.5a2 2 0 0 0-2 2V18a2 2 0 0 0 2 2H18a2 2 0 0 0 2-2v-2.857a2 2 0 0 0-2-2zM18 5.5h-2.857a.5.5 0 0 0-.5.5v2.857a.5.5 0 0 0 .5.5H18a.5.5 0 0 0 .5-.5V6a.5.5 0 0 0-.5-.5M15.143 4a2 2 0 0 0-2 2v2.857a2 2 0 0 0 2 2H18a2 2 0 0 0 2-2V6a2 2 0 0 0-2-2zM8.857 5.5H6a.5.5 0 0 0-.5.5v2.857a.5.5 0 0 0 .5.5h2.857a.5.5 0 0 0 .5-.5V6a.5.5 0 0 0-.5-.5M6 4a2 2 0 0 0-2 2v2.857a2 2 0 0 0 2 2h2.857a2 2 0 0 0 2-2V6a2 2 0 0 0-2-2z"/></g><path d="M15.143 5.5H18a.5.5 0 0 1 .5.5v2.857a.5.5 0 0 1-.5.5h-2.857a.5.5 0 0 1-.5-.5V6a.5.5 0 0 1 .5-.5M6 5.5h2.857a.5.5 0 0 1 .5.5v2.857a.5.5 0 0 1-.5.5H6a.5.5 0 0 1-.5-.5V6a.5.5 0 0 1 .5-.5M6 14.643h2.857a.5.5 0 0 1 .5.5V18a.5.5 0 0 1-.5.5H6a.5.5 0 0 1-.5-.5v-2.857a.5.5 0 0 1 .5-.5M15.143 14.643H18a.5.5 0 0 1 .5.5V18a.5.5 0 0 1-.5.5h-2.857a.5.5 0 0 1-.5-.5v-2.857a.5.5 0 0 1 .5-.5"/></g></symbol><symbol id="filters-labels-outline" fill="none" viewBox="0 0 24 24"><g fill="currentColor" fill-rule="evenodd" clip-rule="evenodd"><path d="M8.857 14.643H6a.5.5 0 0 0-.5.5V18a.5.5 0 0 0 .5.5h2.857a.5.5 0 0 0 .5-.5v-2.857a.5.5 0 0 0-.5-.5M6 13.143a2 2 0 0 0-2 2V18a2 2 0 0 0 2 2h2.857a2 2 0 0 0 2-2v-2.857a2 2 0 0 0-2-2zM18 14.643h-2.857a.5.5 0 0 0-.5.5V18a.5.5 0 0 0 .5.5H18a.5.5 0 0 0 .5-.5v-2.857a.5.5 0 0 0-.5-.5m-2.857-1.5a2 2 0 0 0-2 2V18a2 2 0 0 0 2 2H18a2 2 0 0 0 2-2v-2.857a2 2 0 0 0-2-2zM18 5.5h-2.857a.5.5 0 0 0-.5.5v2.857a.5.5 0 0 0 .5.5H18a.5.5 0 0 0 .5-.5V6a.5.5 0 0 0-.5-.5M15.143 4a2 2 0 0 0-2 2v2.857a2 2 0 0 0 2 2H18a2 2 0 0 0 2-2V6a2 2 0 0 0-2-2zM8.857 5.5H6a.5.5 0 0 0-.5.5v2.857a.5.5 0 0 0 .5.5h2.857a.5.5 0 0 0 .5-.5V6a.5.5 0 0 0-.5-.5M6 4a2 2 0 0 0-2 2v2.857a2 2 0 0 0 2 2h2.857a2 2 0 0 0 2-2V6a2 2 0 0 0-2-2z"/></g></symbol><symbol id="folder-closed" fill="none" viewBox="0 0 24 24"><path fill="currentColor" fill-rule="evenodd" d="M5.6 6.25a.863.863 0 0 0-.85.875v9.75c0 .494.391.875.85.875h12.8c.459 0 .85-.38.85-.875V9.292a.863.863 0 0 0-.85-.875h-6.02l-1.082-1.76a.84.84 0 0 0-.718-.407zm-2.35.875c0-1.3 1.041-2.375 2.35-2.375h4.98c.816 0 1.568.427 1.995 1.12l.644 1.047H18.4c1.309 0 2.35 1.074 2.35 2.375v7.583c0 1.3-1.041 2.375-2.35 2.375H5.6c-1.309 0-2.35-1.074-2.35-2.375z" clip-rule="evenodd"/></symbol><symbol id="folder-open" fill="none" viewBox="0 0 24 24"><path fill="currentColor" fill-rule="evenodd" d="M5.6 6.25a.863.863 0 0 0-.85.875v5.118l.186-.512a2.25 2.25 0 0 1 2.115-1.481H19.25v-.958a.863.863 0 0 0-.85-.875h-6.02l-1.082-1.76a.84.84 0 0 0-.718-.407zm15.15 4.157a2.25 2.25 0 0 1 1.303 2.804l-1.322 3.968a2.38 2.38 0 0 1-1.412 1.883 2.25 2.25 0 0 1-.919.188H5.5A2.25 2.25 0 0 1 3.25 17V7.125c0-1.3 1.041-2.375 2.35-2.375h4.98c.816 0 1.568.427 1.995 1.12l.644 1.047H18.4c1.309 0 2.35 1.074 2.35 2.375zm-1.98 7.256a.8.8 0 0 1-.35.087H5.5a.75.75 0 0 1-.75-.75v-.368l1.596-4.388a.75.75 0 0 1 .705-.494h12.868a.75.75 0 0 1 .711.987l-1.379 4.138h-.001v.003l-.12.36a.75.75 0 0 1-.36.425" clip-rule="evenodd"/></symbol><symbol id="group" fill="none" viewBox="0 0 24 24"><path fill="currentColor" fill-rule="evenodd" d="M5.25 8.5a2.25 2.25 0 1 1 4.5 0 2.25 2.25 0 0 1-4.5 0M7.5 4.75a3.75 3.75 0 1 0 0 7.5 3.75 3.75 0 0 0 0-7.5m0 8c-1.92 0-3.71.465-5.032 1.247-1.267.7-2.218 1.75-2.218 3.25 0 .626.208 1.14.617 1.492.403.347.97.511 1.637.511h9.992c.668 0 1.234-.164 1.637-.511.409-.353.617-.866.617-1.491 0-1.501-.951-2.551-2.218-3.25-1.321-.783-3.112-1.248-5.032-1.248m-4.277 2.543c1.054-.626 2.575-1.043 4.277-1.043s3.223.416 4.277 1.043l.01.007.011.006c1.015.558 1.452 1.197 1.452 1.942 0 .146-.023.23-.042.275a.2.2 0 0 1-.054.08c-.045.038-.217.147-.658.147H2.504c-.44 0-.613-.109-.658-.147a.2.2 0 0 1-.054-.08.7.7 0 0 1-.042-.275c0-.745.437-1.385 1.451-1.942l.012-.006z" clip-rule="evenodd"/><path fill="currentColor" fill-rule="evenodd" d="M14.25 8.5a2.25 2.25 0 1 1 4.5 0 2.25 2.25 0 0 1-4.5 0m2.25-3.75a3.75 3.75 0 1 0 0 7.5 3.75 3.75 0 0 0 0-7.5m-2.965 8.39c.52.33 1.014.737 1.42 1.227.491-.076 1.01-.117 1.545-.117 1.702 0 3.223.416 4.276 1.043l.011.007.012.006c1.014.558 1.451 1.197 1.451 1.942 0 .146-.023.23-.042.275a.2.2 0 0 1-.054.08c-.045.038-.217.147-.658.147h-5.529a3.1 3.1 0 0 1-.606 1.5h6.135c.668 0 1.234-.164 1.637-.511.409-.353.617-.866.617-1.491 0-1.501-.951-2.551-2.218-3.25-1.321-.783-3.112-1.248-5.032-1.248a11.2 11.2 0 0 0-2.965.39" clip-rule="evenodd"/></symbol><symbol id="grouping" fill="none" viewBox="0 0 24 24"><g fill="currentColor" fill-rule="evenodd" clip-rule="evenodd"><path d="M3 6a3 3 0 0 1 3-3h12a3 3 0 0 1 3 3v12a3 3 0 0 1-3 3H6a3 3 0 0 1-3-3zm3-1.5A1.5 1.5 0 0 0 4.5 6v12A1.5 1.5 0 0 0 6 19.5h12a1.5 1.5 0 0 0 1.5-1.5V6A1.5 1.5 0 0 0 18 4.5z"/><path d="M6.5 8.25c0-.966.784-1.75 1.75-1.75h5c.966 0 1.75.784 1.75 1.75v5A1.75 1.75 0 0 1 13.25 15h-5a1.75 1.75 0 0 1-1.75-1.75zM8.25 8a.25.25 0 0 0-.25.25v5c0 .138.112.25.25.25h5a.25.25 0 0 0 .25-.25v-5a.25.25 0 0 0-.25-.25z"/><path d="M16 9a1.5 1.5 0 0 1 1.5 1.5v5.25a1.75 1.75 0 0 1-1.75 1.75H10.5A1.5 1.5 0 0 1 9 16h6.75a.25.25 0 0 0 .25-.25z"/></g></symbol><symbol id="inbox-filled" fill="none" viewBox="0 0 24 24"><path fill="currentColor" fill-rule="evenodd" d="M5.246 4.73A2.25 2.25 0 0 1 7.435 3h9.13a2.25 2.25 0 0 1 2.189 1.73l2.226 9.346q.02.086.02.174v4.5A2.25 2.25 0 0 1 18.75 21H5.25A2.25 2.25 0 0 1 3 18.75v-4.5a.8.8 0 0 1 .02-.174zm2.189-.23a.75.75 0 0 0-.73.577L4.521 14.25H9.5a.75.75 0 0 1 .75.75 1.75 1.75 0 1 0 3.5 0 .75.75 0 0 1 .75-.75h4.979l-2.184-9.173a.75.75 0 0 0-.73-.577z" clip-rule="evenodd"/></symbol><symbol id="inbox-outline" fill="none" viewBox="0 0 24 24"><path fill="currentColor" fill-rule="evenodd" d="M5.246 4.73A2.25 2.25 0 0 1 7.435 3h9.13a2.25 2.25 0 0 1 2.189 1.73l2.226 9.346q.02.086.02.174v4.5A2.25 2.25 0 0 1 18.75 21H5.25A2.25 2.25 0 0 1 3 18.75v-4.5a.8.8 0 0 1 .02-.174zm2.189-.23a.75.75 0 0 0-.73.577L4.5 14.338v4.412c0 .415.336.75.75.75h13.5a.75.75 0 0 0 .75-.75v-4.412l-2.205-9.261a.75.75 0 0 0-.73-.577zM6.25 15a.75.75 0 0 1 .75-.75h2.5a.75.75 0 0 1 .75.75 1.75 1.75 0 1 0 3.5 0 .75.75 0 0 1 .75-.75H17a.75.75 0 0 1 0 1.5h-1.837a3.251 3.251 0 0 1-6.326 0H7a.75.75 0 0 1-.75-.75" clip-rule="evenodd"/></symbol><symbol id="label-filled" fill="none" viewBox="0 0 24 24"><path fill="currentColor" fill-rule="evenodd" d="M18 3h-6.257a3 3 0 0 0-2.122.879l-6 6a3 3 0 0 0 0 4.243l6.258 6.257a3 3 0 0 0 4.242 0l6-6A3 3 0 0 0 21 12.258V6a3 3 0 0 0-3-3m-3 7.5a1.5 1.5 0 1 0 0-3 1.5 1.5 0 0 0 0 3" clip-rule="evenodd"/></symbol><symbol id="label-outline" fill="none" viewBox="0 0 24 24"><path fill="currentColor" fill-rule="evenodd" d="M11.743 3H18a3 3 0 0 1 3 3v6.258a3 3 0 0 1-.879 2.12l-6 6a3 3 0 0 1-4.242 0L3.62 14.123a3 3 0 0 1 0-4.243l6-6A3 3 0 0 1 11.743 3m0 1.5a1.5 1.5 0 0 0-1.061.44l-6 6a1.5 1.5 0 0 0 0 2.12l6.257 6.258a1.5 1.5 0 0 0 2.122 0l6-6a1.5 1.5 0 0 0 .439-1.06V6A1.5 1.5 0 0 0 18 4.5zm3.257 6a1.5 1.5 0 1 0 0-3 1.5 1.5 0 0 0 0 3" clip-rule="evenodd"/></symbol><symbol id="link" fill="none" viewBox="0 0 24 24"><path fill="currentColor" fill-rule="evenodd" d="M6.166 14.445a2.75 2.75 0 1 0 3.89 3.889l2.828-2.829a2.75 2.75 0 0 0 0-3.889l1.06-1.06a4.25 4.25 0 0 1 0 6.01l-2.828 2.828a4.25 4.25 0 1 1-6.01-6.01L6.52 11.97l1.06 1.06z" clip-rule="evenodd"/><path fill="currentColor" fill-rule="evenodd" d="M10.055 14.445a4.25 4.25 0 0 1 0-6.01l2.829-2.83a4.25 4.25 0 1 1 6.01 6.011L17.48 13.03l-1.06-1.06 1.414-1.415a2.75 2.75 0 0 0-3.89-3.889l-2.828 2.829a2.75 2.75 0 0 0 0 3.889z" clip-rule="evenodd"/></symbol><symbol id="list" fill="none" viewBox="0 0 24 24"><path fill="currentColor" fill-rule="evenodd" d="M6 4.5A1.5 1.5 0 0 0 4.5 6v12A1.5 1.5 0 0 0 6 19.5h12a1.5 1.5 0 0 0 1.5-1.5V6A1.5 1.5 0 0 0 18 4.5zM3 6a3 3 0 0 1 3-3h12a3 3 0 0 1 3 3v12a3 3 0 0 1-3 3H6a3 3 0 0 1-3-3zm4.25 2A.75.75 0 0 1 8 7.25h8a.75.75 0 0 1 0 1.5H8A.75.75 0 0 1 7.25 8m0 4a.75.75 0 0 1 .75-.75h8a.75.75 0 0 1 0 1.5H8a.75.75 0 0 1-.75-.75m0 4a.75.75 0 0 1 .75-.75h8a.75.75 0 0 1 0 1.5H8a.75.75 0 0 1-.75-.75" clip-rule="evenodd"/></symbol><symbol id="location-filled" fill="none" viewBox="0 0 24 24"><g fill="currentColor"><path fill-rule="evenodd" d="M12.423 20.624 12.006 20c-.376.649-.377.648-.377.648h-.002l-.002-.002-.007-.004-.017-.01-.05-.033a4 4 0 0 1-.168-.116 8 8 0 0 1-.59-.476c-.502-.443-1.222-1.155-2.136-2.26l-.009-.011c-1.711-2.154-3.398-4.67-3.398-7.433 0-3.86 2.988-7.053 6.75-7.053s6.75 3.193 6.75 7.053c0 2.764-1.688 5.28-3.398 7.433l-.025.029c-.963 1.095-1.672 1.798-2.148 2.232a10 10 0 0 1-.543.467 5 5 0 0 1-.19.144l-.014.01-.006.003-.002.002zM6.75 10.303C6.75 7.2 9.135 4.75 12 4.75s5.25 2.45 5.25 5.553c0 2.187-1.351 4.33-3.061 6.485-.927 1.053-1.594 1.711-2.021 2.102l-.182.162a9 9 0 0 1-.202-.172c-.436-.383-1.1-1.035-1.966-2.083-1.714-2.158-3.068-4.304-3.068-6.494" clip-rule="evenodd"/><path d="m12.006 20 .417.624a.75.75 0 0 1-.794.024z"/><path fill-rule="evenodd" d="M12 4.75c-2.865 0-5.25 2.45-5.25 5.553 0 2.19 1.354 4.336 3.068 6.494.867 1.048 1.53 1.7 1.966 2.083q.11.097.202.172l.182-.162c.427-.39 1.094-1.05 2.02-2.102 1.711-2.155 3.062-4.298 3.062-6.486 0-3.101-2.385-5.552-5.25-5.552m0 7a1.75 1.75 0 1 0 0-3.5 1.75 1.75 0 0 0 0 3.5" clip-rule="evenodd"/></g></symbol><symbol id="location" fill="none" viewBox="0 0 24 24"><path fill="currentcolor" d="M12 11.75a1.75 1.75 0 1 0 0-3.5 1.75 1.75 0 0 0 0 3.5"/><path fill="currentcolor" fill-rule="evenodd" d="M12.423 20.624 12.006 20c-.376.649-.377.648-.377.648h-.002l-.002-.002-.007-.004-.017-.01-.05-.033a4 4 0 0 1-.168-.116 8 8 0 0 1-.59-.476c-.502-.443-1.222-1.155-2.136-2.26l-.009-.011c-1.711-2.154-3.398-4.67-3.398-7.433 0-3.86 2.988-7.053 6.75-7.053s6.75 3.193 6.75 7.053c0 2.764-1.688 5.28-3.398 7.433l-.024.029c-.964 1.095-1.673 1.798-2.148 2.232a10 10 0 0 1-.544.467 5 5 0 0 1-.19.144l-.014.01-.005.003-.003.002zM6.75 10.303C6.75 7.2 9.135 4.75 12 4.75s5.25 2.45 5.25 5.553c0 2.187-1.351 4.33-3.061 6.485-.927 1.053-1.594 1.711-2.021 2.102l-.182.162a9 9 0 0 1-.202-.172c-.436-.383-1.1-1.035-1.966-2.083-1.714-2.158-3.068-4.304-3.068-6.494" clip-rule="evenodd"/><path fill="currentcolor" d="m12.006 20 .417.624a.75.75 0 0 1-.794.024z"/></symbol><symbol id="menu" fill="none" viewBox="0 0 24 24"><path fill="currentColor" fill-rule="evenodd" d="M2.25 6A.75.75 0 0 1 3 5.25h18a.75.75 0 0 1 0 1.5H3A.75.75 0 0 1 2.25 6M2.25 12a.75.75 0 0 1 .75-.75h18a.75.75 0 0 1 0 1.5H3a.75.75 0 0 1-.75-.75M2.25 18a.75.75 0 0 1 .75-.75h18a.75.75 0 0 1 0 1.5H3a.75.75 0 0 1-.75-.75" clip-rule="evenodd"/></symbol><symbol id="microphone" fill="none" viewBox="0 0 24 24"><path fill="currentColor" fill-rule="evenodd" d="M7.84 6.41a4.16 4.16 0 0 1 8.32 0v5.67a4.159 4.159 0 1 1-8.32 0zM12 3.75a2.66 2.66 0 0 0-2.66 2.66v5.67a2.66 2.66 0 1 0 5.32 0V6.41A2.66 2.66 0 0 0 12 3.75M5.75 9.564a.75.75 0 0 1 .75.75v1.764a5.5 5.5 0 0 0 11 0v-1.764a.75.75 0 1 1 1.5 0v1.764a7 7 0 0 1-6.25 6.96v1.212h2.993a.75.75 0 1 1 0 1.5H8.257a.75.75 0 0 1 0-1.5h2.993v-1.212A7 7 0 0 1 5 12.078v-1.764a.75.75 0 0 1 .75-.75" clip-rule="evenodd"/></symbol><symbol id="more-filled" fill="none" viewBox="0 0 24 24"><path fill="currentColor" fill-rule="evenodd" d="M7 12a2 2 0 1 1-4 0 2 2 0 0 1 4 0m7 0a2 2 0 1 1-4 0 2 2 0 0 1 4 0m7 0a2 2 0 1 1-4 0 2 2 0 0 1 4 0" clip-rule="evenodd"/></symbol><symbol id="more-outline" fill="none" viewBox="0 0 24 24"><path fill="currentColor" fill-rule="evenodd" d="M7.75 12a2.75 2.75 0 1 1-5.5 0 2.75 2.75 0 0 1 5.5 0M5 13.25a1.25 1.25 0 1 0 0-2.5 1.25 1.25 0 0 0 0 2.5M14.75 12a2.75 2.75 0 1 1-5.5 0 2.75 2.75 0 0 1 5.5 0M12 13.25a1.25 1.25 0 1 0 0-2.5 1.25 1.25 0 0 0 0 2.5M21.75 12a2.75 2.75 0 1 1-5.5 0 2.75 2.75 0 0 1 5.5 0M19 13.25a1.25 1.25 0 1 0 0-2.5 1.25 1.25 0 0 0 0 2.5" clip-rule="evenodd"/></symbol><symbol id="notification" fill="none" viewBox="0 0 24 24"><path fill="currentColor" fill-rule="evenodd" d="M8.638 5.68c.765-.88 1.844-1.43 3.307-1.43s2.542.55 3.307 1.43c.735.849 1.138 1.956 1.39 3.022.22.923.34 1.887.444 2.712l.048.38c.06.461.116.858.186 1.185.072.34.144.537.203.635.22.367.503.726.793 1.087l.077.096c.25.31.524.65.7.953.096.168.206.395.236.652.035.295-.038.626-.297.889-.222.226-.511.328-.755.381a4.3 4.3 0 0 1-.897.078h-1.638a3.75 3.75 0 0 1-7.484 0H6.5c-.34 0-.641-.022-.897-.078-.244-.053-.533-.155-.756-.381a1.07 1.07 0 0 1-.296-.89c.03-.256.14-.483.236-.651.175-.303.45-.644.7-.953l.077-.096c.29-.36.572-.72.792-1.087.06-.098.132-.295.204-.635.07-.328.127-.724.187-1.185l.049-.379c.104-.825.227-1.79.447-2.714.254-1.066.658-2.173 1.395-3.02m-.995 8.706c.19-.318.304-.715.384-1.095.084-.392.148-.842.208-1.303l.05-.394c.106-.83.217-1.706.417-2.545.232-.975.565-1.806 1.068-2.385.475-.546 1.138-.914 2.175-.914s1.7.368 2.174.914c.502.578.833 1.409 1.064 2.384.199.838.309 1.712.413 2.542l.05.397a17 17 0 0 0 .206 1.303c.081.38.194.777.385 1.096.28.466.622.898.91 1.256l.05.06c.173.216.315.393.425.542q-.105.006-.242.006H6.5a5 5 0 0 1-.243-.006c.11-.15.253-.326.426-.541l.05-.061c.287-.358.63-.79.91-1.256m2.12 3.364a2.25 2.25 0 0 0 4.473 0z" clip-rule="evenodd"/></symbol><symbol id="options" fill="none" viewBox="0 0 24 24"><path fill="currentColor" fill-rule="evenodd" d="M14.205 6.667a1.028 1.028 0 1 1 2.055 0 1.028 1.028 0 0 1-2.055 0m-1.387.75H4a.75.75 0 0 1 0-1.5h8.818a2.529 2.529 0 0 1 4.829 0H20a.75.75 0 0 1 0 1.5h-2.353a2.529 2.529 0 0 1-4.83 0M4 12.75h2.272a2.529 2.529 0 0 0 4.83 0H20a.75.75 0 1 0 0-1.5h-8.898a2.529 2.529 0 0 0-4.83 0H4a.75.75 0 0 0 0 1.5m-.75 4.584a.75.75 0 0 1 .75-.75h8.818a2.529 2.529 0 0 1 4.829 0H20a.75.75 0 0 1 0 1.5h-2.353a2.529 2.529 0 0 1-4.83 0H4a.75.75 0 0 1-.75-.75m5.437-6.362a1.028 1.028 0 1 0 0 2.056 1.028 1.028 0 0 0 0-2.056m5.518 6.362a1.028 1.028 0 1 1 2.055 0 1.028 1.028 0 0 1-2.055 0" clip-rule="evenodd"/></symbol><symbol id="padlock" fill="none" viewBox="0 0 24 24"><path fill="currentColor" fill-rule="evenodd" d="M7.75 7A3.25 3.25 0 0 1 11 3.75h2A3.25 3.25 0 0 1 16.25 7v1.75H17A2.25 2.25 0 0 1 19.25 11v6A2.25 2.25 0 0 1 17 19.25H7A2.25 2.25 0 0 1 4.75 17v-6A2.25 2.25 0 0 1 7 8.75h.75zM7 10.25a.75.75 0 0 0-.75.75v6c0 .415.336.75.75.75h10a.75.75 0 0 0 .75-.75v-6a.75.75 0 0 0-.75-.75zm7.75-1.5V7A1.75 1.75 0 0 0 13 5.25h-2A1.75 1.75 0 0 0 9.25 7v1.75z" clip-rule="evenodd"/><path fill="currentColor" fill-rule="evenodd" d="M12 13.25a.75.75 0 1 0 0 1.5.75.75 0 0 0 0-1.5M9.75 14a2.25 2.25 0 1 1 4.5 0 2.25 2.25 0 0 1-4.5 0" clip-rule="evenodd"/></symbol><symbol id="person" fill="none" viewBox="0 0 24 24"><g fill="currentColor" fill-rule="evenodd" clip-rule="evenodd"><path d="M12 3.75a4.25 4.25 0 1 0 0 8.5 4.25 4.25 0 0 0 0-8.5M9.25 8a2.75 2.75 0 1 1 5.5 0 2.75 2.75 0 0 1-5.5 0M12 13.25c-3.35 0-5.902.702-7.591 2.181a2.75 2.75 0 0 0 1.811 4.82h11.56a2.75 2.75 0 0 0 1.812-4.82c-1.69-1.479-4.241-2.18-7.592-2.18m-6.603 3.31c1.348-1.18 3.527-1.81 6.603-1.81 3.077 0 5.256.63 6.604 1.81a1.25 1.25 0 0 1-.824 2.19H6.22a1.25 1.25 0 0 1-.823-2.19"/></g></symbol><symbol id="placeholder" fill="none" viewBox="0 0 24 24"><rect fill="currentColor" fill-opacity=".15" rx="3"/></symbol><symbol id="plus-sm" fill="none" viewBox="0 0 24 24"><path fill="currentColor" fill-rule="evenodd" d="M12 4.75a.75.75 0 0 1 .75.75v5.75h5.75a.75.75 0 0 1 0 1.5h-5.75v5.75a.75.75 0 0 1-1.5 0v-5.75H5.5a.75.75 0 0 1 0-1.5h5.75V5.5a.75.75 0 0 1 .75-.75" clip-rule="evenodd"/></symbol><symbol id="plus" fill="none" viewBox="0 0 24 24"><path fill="currentcolor" fill-rule="evenodd" d="M12 3.75a.75.75 0 0 1 .75.75v6.75h6.75a.75.75 0 0 1 0 1.5h-6.75v6.75a.75.75 0 0 1-1.5 0v-6.75H4.5a.75.75 0 0 1 0-1.5h6.75V4.5a.75.75 0 0 1 .75-.75" clip-rule="evenodd"/></symbol><symbol id="postpone" fill="none" viewBox="0 0 24 24"><path fill="currentColor" d="M18.366 15.25A6.752 6.752 0 0 1 5.25 13 6.75 6.75 0 0 1 12 6.25h5.866l-1.808 1.808a.625.625 0 1 0 .884.884l3-3a.625.625 0 0 0 0-.884l-3-3a.625.625 0 1 0-.884.884l1.808 1.808H12a8.25 8.25 0 1 0 7.78 11 .75.75 0 0 0-1.414-.5"/></symbol><symbol id="priority-flag-filled" fill="none" viewBox="0 0 24 24"><path fill="currentColor" d="M3.415 3.83A.75.75 0 0 0 3 4.5v15.75a.75.75 0 1 0 1.5 0v-5.507c.878-.323 2.131-.493 3.75-.493 1.148 0 1.897.173 3.513.712 1.759.586 2.635.788 3.987.788 2.106 0 3.713-.268 4.835-.829a.75.75 0 0 0 .415-.67V4.5a.75.75 0 0 0-1.085-.672c-.878.439-2.271.671-4.165.671-1.148 0-1.897-.173-3.513-.711C10.478 3.202 9.602 3 8.25 3c-2.106 0-3.713.268-4.835.83"/></symbol><symbol id="priority-flag-outline" fill="none" viewBox="0 0 24 24"><path fill="currentColor" fill-rule="evenodd" d="M3 4.5a.75.75 0 0 1 .415-.67C4.537 3.267 6.144 3 8.25 3c1.352 0 2.228.202 3.987.789 1.616.538 2.365.711 3.513.711 1.894 0 3.287-.232 4.165-.67A.75.75 0 0 1 21 4.5v9.75a.75.75 0 0 1-.415.671c-1.122.562-2.729.83-4.835.83-1.352 0-2.228-.203-3.987-.79-1.616-.538-2.365-.71-3.513-.71-1.619 0-2.872.169-3.75.492v5.507a.75.75 0 1 1-1.5 0zm1.5 8.668V4.993C5.378 4.67 6.631 4.5 8.25 4.5c1.148 0 1.897.173 3.513.712 1.759.586 2.635.788 3.987.788 1.502 0 2.75-.136 3.75-.418v8.175c-.878.324-2.131.493-3.75.493-1.148 0-1.897-.173-3.513-.711-1.759-.587-2.635-.789-3.987-.789-1.502 0-2.75.136-3.75.418" clip-rule="evenodd"/></symbol><symbol id="productivity" fill="none" viewBox="0 0 24 24"><path fill="currentColor" fill-rule="evenodd" d="M12 3.75a8.25 8.25 0 0 0-8.017 10.206L6.97 10.97a.75.75 0 0 1 1.06 0l2.47 2.47 4.19-4.19H13a.75.75 0 0 1 0-1.5h3.5a.75.75 0 0 1 .75.75V12a.75.75 0 0 1-1.5 0v-1.69l-4.72 4.72a.75.75 0 0 1-1.06 0L7.5 12.56l-2.962 2.963A8.25 8.25 0 1 0 12 3.75M2.25 12c0-5.385 4.365-9.75 9.75-9.75s9.75 4.365 9.75 9.75-4.365 9.75-9.75 9.75S2.25 17.385 2.25 12" clip-rule="evenodd"/></symbol><symbol id="project-move" fill="none" viewBox="0 0 24 24"><g fill="currentColor"><path d="M7 5.5a1.5 1.5 0 1 1-3 0 1.5 1.5 0 0 1 3 0"/><path fill-rule="evenodd" d="M9.25 5.5a.75.75 0 0 1 .75-.75h10a.75.75 0 0 1 0 1.5H10a.75.75 0 0 1-.75-.75" clip-rule="evenodd"/><path d="M7 11.5a1.5 1.5 0 1 1-3 0 1.5 1.5 0 0 1 3 0"/><path fill-rule="evenodd" d="M9.25 11.5a.75.75 0 0 1 .75-.75h10a.75.75 0 0 1 0 1.5H10a.75.75 0 0 1-.75-.75" clip-rule="evenodd"/><path d="M7 17.5a1.5 1.5 0 1 1-3 0 1.5 1.5 0 0 1 3 0"/><path fill-rule="evenodd" d="M17.47 14.97a.75.75 0 0 1 1.06 0l2 2a.75.75 0 0 1 0 1.06l-2 2a.75.75 0 1 1-1.06-1.06l.72-.72H10a.75.75 0 0 1 0-1.5h8.19l-.72-.72a.75.75 0 0 1 0-1.06" clip-rule="evenodd"/></g></symbol><symbol id="projects" fill="none" viewBox="0 0 24 24"><path fill="currentColor" fill-rule="evenodd" d="M10.106 4.258a.75.75 0 0 1 .636.848l-.449 3.144h4.485l.48-3.356a.75.75 0 0 1 1.485.212l-.45 3.144H19a.75.75 0 0 1 0 1.5h-2.921l-.643 4.5h2.397a.75.75 0 0 1 0 1.5h-2.611l-.48 3.356a.75.75 0 0 1-1.484-.212l.449-3.144H9.222l-.48 3.356a.75.75 0 1 1-1.484-.212l.449-3.144H5a.75.75 0 0 1 0-1.5h2.921l.643-4.5H6.167a.75.75 0 1 1 0-1.5h2.611l.48-3.356a.75.75 0 0 1 .848-.636M10.08 9.75l-.643 4.5h4.485l.643-4.5z" clip-rule="evenodd"/></symbol><symbol id="quick-add" fill="none" viewBox="0 0 24 24"><path fill="currentColor" fill-rule="evenodd" d="M12 23c6.075 0 11-4.925 11-11S18.075 1 12 1 1 5.925 1 12s4.925 11 11 11m-.711-16.5a.75.75 0 1 1 1.5 0v4.79H17.5a.75.75 0 0 1 0 1.5h-4.711v4.71a.75.75 0 1 1-1.5 0v-4.71H6.5a.75.75 0 1 1 0-1.5h4.789z" clip-rule="evenodd"/></symbol><symbol id="reaction-add" fill="none" viewBox="0 0 24 24"><g fill="currentColor" fill-rule="evenodd" clip-rule="evenodd"><path d="M9.143 10.786a1.143 1.143 0 1 0 0-2.286 1.143 1.143 0 0 0 0 2.286M16 9.643a1.143 1.143 0 1 1-2.286 0 1.143 1.143 0 0 1 2.286 0m-7.36 4.114a.57.57 0 0 1 .56-.685h5.6c.361 0 .632.331.56.685a3.43 3.43 0 0 1-6.72 0"/><path d="M20.804 12.965c.463-.041.872.333.789.79-.827 4.547-4.807 7.995-9.593 7.995-5.385 0-9.75-4.365-9.75-9.75 0-4.786 3.448-8.766 7.995-9.592.458-.084.831.326.79.788a.8.8 0 0 1-.634.709 8.25 8.25 0 1 0 9.694 9.694.8.8 0 0 1 .709-.634M19.5.25a.75.75 0 0 1 .75.75v2.75H23a.75.75 0 0 1 0 1.5h-2.75V8a.75.75 0 0 1-1.5 0V5.25H16a.75.75 0 0 1 0-1.5h2.75V1a.75.75 0 0 1 .75-.75"/></g></symbol><symbol id="repeat" fill="none" viewBox="0 0 24 24"><path fill="currentColor" fill-rule="evenodd" d="M8.85 6.6a.75.75 0 0 1 .75-.75h4.2a4.35 4.35 0 0 1 4.35 4.35v1.79l1.12-1.12a.75.75 0 1 1 1.06 1.06l-2.4 2.4a.75.75 0 0 1-1.06 0l-2.4-2.4a.75.75 0 1 1 1.06-1.06l1.12 1.12V10.2a2.85 2.85 0 0 0-2.85-2.85H9.6a.75.75 0 0 1-.75-.75M15.15 17.4a.75.75 0 0 1-.75.75h-4.2a4.35 4.35 0 0 1-4.35-4.35v-1.79l-1.12 1.12a.75.75 0 0 1-1.06-1.06l2.4-2.4a.75.75 0 0 1 1.06 0l2.4 2.4a.75.75 0 1 1-1.06 1.06l-1.12-1.12v1.79a2.85 2.85 0 0 0 2.85 2.85h4.2a.75.75 0 0 1 .75.75" clip-rule="evenodd"/></symbol><symbol id="search" fill="none" viewBox="0 0 24 24"><g fill="currentColor"><path fill-rule="evenodd" d="M10.5 16.5a6 6 0 1 0 0-12 6 6 0 0 0 0 12m0 1.5a7.5 7.5 0 1 0 0-15 7.5 7.5 0 0 0 0 15" clip-rule="evenodd"/><path d="M16.307 15.247a7.5 7.5 0 0 1-1.06 1.06l4.723 4.723a.75.75 0 1 0 1.06-1.06z"/></g></symbol><symbol id="section" fill="none" viewBox="0 0 24 24"><path fill="currentcolor" fill-rule="evenodd" d="M4.75 3a.75.75 0 0 1 .75-.75h13a.75.75 0 0 1 0 1.5h-13A.75.75 0 0 1 4.75 3m0 6A2.75 2.75 0 0 1 7.5 6.25h9A2.75 2.75 0 0 1 19.25 9v6a2.75 2.75 0 0 1-2.75 2.75h-9A2.75 2.75 0 0 1 4.75 15zM7.5 7.75c-.69 0-1.25.56-1.25 1.25v6c0 .69.56 1.25 1.25 1.25h9c.69 0 1.25-.56 1.25-1.25V9c0-.69-.56-1.25-1.25-1.25zM4.75 21a.75.75 0 0 1 .75-.75h13a.75.75 0 0 1 0 1.5h-13a.75.75 0 0 1-.75-.75" clip-rule="evenodd"/></symbol><symbol id="settings" fill="none" viewBox="0 0 24 24"><g fill="currentColor" fill-rule="evenodd" clip-rule="evenodd"><path d="M6.018 4.548a1.5 1.5 0 0 1 2.03-.084l.56.474q.388-.184.797-.324l.06-.737A1.5 1.5 0 0 1 10.96 2.5h2.08a1.5 1.5 0 0 1 1.494 1.377l.067.81q.368.138.72.313l.63-.536a1.5 1.5 0 0 1 2.031.084l1.47 1.47a1.5 1.5 0 0 1 .084 2.03l-.603.712q.137.309.248.628l.942.078A1.5 1.5 0 0 1 21.5 10.96v2.079a1.5 1.5 0 0 1-1.377 1.495l-1.017.083a8 8 0 0 1-.233.552l.663.782a1.5 1.5 0 0 1-.083 2.03l-1.47 1.47a1.5 1.5 0 0 1-2.031.084l-.782-.663a8 8 0 0 1-.552.234l-.084 1.016A1.5 1.5 0 0 1 13.04 21.5h-2.08a1.5 1.5 0 0 1-1.494-1.377l-.078-.942a8 8 0 0 1-.628-.248l-.712.603a1.5 1.5 0 0 1-2.03-.083l-1.47-1.47a1.5 1.5 0 0 1-.084-2.031L5 15.32a8 8 0 0 1-.313-.719l-.81-.066A1.5 1.5 0 0 1 2.5 13.04v-2.08a1.5 1.5 0 0 1 1.377-1.494l.737-.06q.14-.41.324-.799l-.474-.559a1.5 1.5 0 0 1 .083-2.03zm1.06 1.06 1.076.913a.5.5 0 0 0 .58.048 6.2 6.2 0 0 1 1.727-.7.5.5 0 0 0 .382-.446L10.96 4h2.08l.12 1.475a.5.5 0 0 0 .368.441c.582.158 1.136.4 1.646.718a.5.5 0 0 0 .588-.043l1.16-.983 1.47 1.47-1.031 1.216a.5.5 0 0 0-.054.57c.278.494.488 1.026.622 1.581a.5.5 0 0 0 .445.382L20 10.96v2.079l-1.679.138a.5.5 0 0 0-.441.366 6.2 6.2 0 0 1-.637 1.503.5.5 0 0 0 .05.578l1.099 1.297-1.47 1.47-1.297-1.1a.5.5 0 0 0-.578-.049c-.47.278-.975.492-1.503.637a.5.5 0 0 0-.366.441l-.138 1.68h-2.08l-.133-1.627a.5.5 0 0 0-.382-.445 6.2 6.2 0 0 1-1.582-.622.5.5 0 0 0-.569.054l-1.216 1.031-1.47-1.47.983-1.16a.5.5 0 0 0 .043-.587 6.2 6.2 0 0 1-.718-1.646.5.5 0 0 0-.442-.368L4 13.04v-2.08l1.422-.116a.5.5 0 0 0 .446-.383c.145-.61.381-1.192.7-1.728a.5.5 0 0 0-.048-.579l-.912-1.076z"/><path d="M15.5 12a3.5 3.5 0 1 1-7 0 3.5 3.5 0 0 1 7 0M12 14a2 2 0 1 0 0-4 2 2 0 0 0 0 4"/></g></symbol><symbol id="sidebar-left" fill="none" viewBox="0 0 24 24"><path fill="currentColor" fill-rule="evenodd" d="M5.5 5.25c-.69 0-1.25.56-1.25 1.25v11c0 .69.56 1.25 1.25 1.25h3.25V5.25zm4.75 0v13.5h8.25c.69 0 1.25-.56 1.25-1.25v-11c0-.69-.56-1.25-1.25-1.25zM2.75 6.5A2.75 2.75 0 0 1 5.5 3.75h13a2.75 2.75 0 0 1 2.75 2.75v11a2.75 2.75 0 0 1-2.75 2.75h-13a2.75 2.75 0 0 1-2.75-2.75z" clip-rule="evenodd"/></symbol><symbol id="sidebar-right" fill="none" viewBox="0 0 24 24"><path fill="currentColor" fill-rule="evenodd" d="M18.5 5.25c.69 0 1.25.56 1.25 1.25v11c0 .69-.56 1.25-1.25 1.25h-3.25V5.25zm-4.75 0v13.5H5.5c-.69 0-1.25-.56-1.25-1.25v-11c0-.69.56-1.25 1.25-1.25zm7.5 1.25a2.75 2.75 0 0 0-2.75-2.75h-13A2.75 2.75 0 0 0 2.75 6.5v11a2.75 2.75 0 0 0 2.75 2.75h13a2.75 2.75 0 0 0 2.75-2.75z" clip-rule="evenodd"/></symbol><symbol id="sofa" fill="none" viewBox="0 0 24 24"><path fill="currentColor" fill-rule="evenodd" d="M3.75 8A3.75 3.75 0 0 1 7.5 4.25h9A3.75 3.75 0 0 1 20.25 8v1.25a2.5 2.5 0 0 1 2.5 2.5v4.5a2.5 2.5 0 0 1-2.5 2.5h-1v.75a.75.75 0 1 1-1.5 0v-.75H6.25v.75a.75.75 0 1 1-1.5 0v-.75h-1a2.5 2.5 0 0 1-2.5-2.5v-4.5a2.5 2.5 0 0 1 2.5-2.5zm1.5 1.75c.606.456 1 1.181 1 2v2h11.5v-2c0-.819.394-1.544 1-2V8a2.25 2.25 0 0 0-2.25-2.25h-9A2.25 2.25 0 0 0 5.25 8zm-1.5 1a1 1 0 0 0-1 1v4.5a1 1 0 0 0 1 1h16.5a1 1 0 0 0 1-1v-4.5a1 1 0 0 0-2 0v2.75a.75.75 0 0 1-.75.75h-13a.75.75 0 0 1-.75-.75v-2.75a1 1 0 0 0-1-1" clip-rule="evenodd"/></symbol><symbol id="sort" fill="none" viewBox="0 0 24 24"><path fill="currentColor" fill-rule="evenodd" d="M7.5 4.75a.75.75 0 0 1 .75.75v10.69l2.22-2.22a.75.75 0 1 1 1.06 1.06l-3.5 3.5a.75.75 0 0 1-1.06 0l-3.5-3.5a.75.75 0 1 1 1.06-1.06l2.22 2.22V5.5a.75.75 0 0 1 .75-.75m9.5 14a.75.75 0 0 1-.75-.75V7.31l-2.22 2.22a.75.75 0 1 1-1.06-1.06l3.5-3.5a.75.75 0 0 1 1.06 0l3.5 3.5a.75.75 0 0 1-1.06 1.06l-2.22-2.22V18a.75.75 0 0 1-.75.75" clip-rule="evenodd"/></symbol><symbol id="submit-android" fill="none" viewBox="0 0 24 24"><path fill="currentColor" fill-rule="evenodd" d="M5.427 4.174A1 1 0 0 0 4 5.078V10l12.268 1.753c.286.04.286.454 0 .495L4 14v4.922a1 1 0 0 0 1.427.904l14.658-6.921a1 1 0 0 0 0-1.809z" clip-rule="evenodd"/></symbol><symbol id="submit-ios" fill="none" viewBox="0 0 24 24"><path stroke="currentColor" stroke-linecap="round" stroke-linejoin="round" stroke-width="2.5" d="M12 19.75V4m-6.25 6.25L12 4l6.25 6.25"/><g fill="currentColor" fill-rule="evenodd" clip-rule="evenodd"><path d="M12 2.75c.69 0 1.25.56 1.25 1.25v15.75a1.25 1.25 0 1 1-2.5 0V4c0-.69.56-1.25 1.25-1.25"/><path d="M11.116 3.116a1.25 1.25 0 0 1 1.768 0l6.25 6.25a1.25 1.25 0 0 1-1.768 1.768L12 5.768l-5.366 5.366a1.25 1.25 0 0 1-1.768-1.768z"/></g></symbol><symbol id="subtask" fill="none" viewBox="0 0 24 24"><path fill="currentColor" fill-rule="evenodd" d="M10 6.5a3.5 3.5 0 0 1-2.75 3.42v3.58a3.25 3.25 0 0 0 3.25 3.25h3.58a3.501 3.501 0 0 1 6.92.75 3.5 3.5 0 0 1-6.92.75H10.5a4.75 4.75 0 0 1-4.75-4.75V9.92A3.501 3.501 0 0 1 6.5 3 3.5 3.5 0 0 1 10 6.5m-3.5 2a2 2 0 1 0 0-4 2 2 0 0 0 0 4m13 9a2 2 0 1 1-4 0 2 2 0 0 1 4 0" clip-rule="evenodd"/></symbol><symbol id="sun" fill="none" viewBox="0 0 24 24"><path fill="currentColor" fill-rule="evenodd" d="M16.027 2.033a.75.75 0 0 1 .415.976l-1.03 2.548a.75.75 0 1 1-1.39-.562l1.029-2.547a.75.75 0 0 1 .976-.415M7.8 2.105a.75.75 0 0 1 .983.397l1.074 2.53a.75.75 0 1 1-1.38.586l-1.075-2.53a.75.75 0 0 1 .398-.983M12 8.25a3.75 3.75 0 1 0 0 7.5 3.75 3.75 0 0 0 0-7.5M6.75 12a5.25 5.25 0 1 1 10.5 0 5.25 5.25 0 0 1-10.5 0m15.145-4.2a.75.75 0 0 1-.397.983l-2.53 1.074a.75.75 0 0 1-.586-1.38l2.53-1.074a.75.75 0 0 1 .983.397m-19.862.173a.75.75 0 0 1 .976-.414l2.548 1.03a.75.75 0 0 1-.562 1.39l-2.548-1.03a.75.75 0 0 1-.414-.976m15.996 6.463a.75.75 0 0 1 .976-.415l2.548 1.03a.75.75 0 1 1-.562 1.39l-2.548-1.029a.75.75 0 0 1-.415-.976m-12.014.105a.75.75 0 0 1-.397.983l-2.53 1.074a.75.75 0 0 1-.586-1.38l2.53-1.075a.75.75 0 0 1 .983.398m8.526 3.444a.75.75 0 0 1 .983.398l1.074 2.53a.75.75 0 0 1-1.381.585l-1.074-2.53a.75.75 0 0 1 .398-.983m-4.977.044a.75.75 0 0 1 .415.976l-1.03 2.548a.75.75 0 1 1-1.39-.562l1.03-2.548a.75.75 0 0 1 .975-.414" clip-rule="evenodd"/></symbol><symbol id="task-circle" fill="none" viewBox="0 0 24 24"><path fill="currentcolor" fill-rule="evenodd" d="M12 3.75a8.25 8.25 0 1 0 0 16.5 8.25 8.25 0 0 0 0-16.5M2.25 12c0-5.385 4.365-9.75 9.75-9.75s9.75 4.365 9.75 9.75-4.365 9.75-9.75 9.75S2.25 17.385 2.25 12" clip-rule="evenodd"/><path fill="currentcolor" fill-rule="evenodd" d="M17.146 8.393a.75.75 0 0 1 0 1.06l-6.154 6.154a.75.75 0 0 1-1.06 0L6.853 12.53a.75.75 0 0 1 1.061-1.06l2.547 2.546 5.623-5.623a.75.75 0 0 1 1.06 0" clip-rule="evenodd"/></symbol><symbol id="themes" fill="none" viewBox="0 0 24 24"><g fill="currentColor"><path fill-rule="evenodd" d="M2.75 12.25c0-5.017 3.91-9.5 9.5-9.5 3.03 0 5.42 1.126 7.047 2.98 1.616 1.842 2.432 4.343 2.453 7.03.017 2.306-.522 4.496-1.434 6.134-.895 1.609-2.261 2.856-3.949 2.856-.918 0-1.567-.433-2.029-1-.418-.513-.71-1.17-.952-1.716l-.02-.046c-.268-.603-.487-1.081-.765-1.423-.246-.302-.497-.447-.866-.447-1.387 0-2.173.336-2.967.703l-.124.057c-.801.372-1.69.784-3.085.784-.39 0-.803-.1-1.186-.369-.377-.264-.678-.656-.91-1.16-.456-.988-.713-2.537-.713-4.883m9.5-8c-4.704 0-8 3.753-8 8 0 2.286.258 3.569.574 4.254.153.331.303.486.409.56.099.07.201.098.326.098 1.06 0 1.69-.292 2.481-.657l.1-.046c.878-.406 1.894-.841 3.595-.841.918 0 1.567.433 2.03 1 .417.513.709 1.17.951 1.716l.02.045c.269.604.487 1.082.765 1.423.246.302.498.448.866.448.886 0 1.853-.674 2.638-2.085.77-1.381 1.26-3.31 1.245-5.395-.018-2.4-.747-4.53-2.08-6.05-1.322-1.506-3.289-2.47-5.92-2.47" clip-rule="evenodd"/><path d="M8.167 11.783a1.05 1.05 0 1 1-2.1 0 1.05 1.05 0 0 1 2.1 0m10.266 0a1.05 1.05 0 1 1-2.1 0 1.05 1.05 0 0 1 2.1 0M9.8 8.516a1.05 1.05 0 1 1-2.1 0 1.05 1.05 0 0 1 2.1 0m3.5-1.399a1.05 1.05 0 1 1-2.1 0 1.05 1.05 0 0 1 2.1 0m3.5 1.399a1.05 1.05 0 1 1-2.1 0 1.05 1.05 0 0 1 2.1 0m1.167 7.001a1.05 1.05 0 1 1-2.1 0 1.05 1.05 0 0 1 2.1 0"/></g></symbol><symbol id="upload" fill="none" viewBox="0 0 24 24"><path fill="currentColor" fill-rule="evenodd" d="M11.97 3.97a.75.75 0 0 1 1.06 0l3 3a.75.75 0 0 1-1.06 1.06l-1.72-1.72V15a.75.75 0 1 1-1.5 0V6.31l-1.72 1.72a.75.75 0 1 1-1.06-1.06zM4.5 10.75a.75.75 0 0 1 .75.75v5c0 .69.56 1.25 1.25 1.25h12c.69 0 1.25-.56 1.25-1.25v-5a.75.75 0 0 1 1.5 0v5a2.75 2.75 0 0 1-2.75 2.75h-12a2.75 2.75 0 0 1-2.75-2.75v-5a.75.75 0 0 1 .75-.75" clip-rule="evenodd"/></symbol><symbol id="views" fill="none" viewBox="0 0 24 24"><path fill="currentColor" fill-rule="evenodd" d="M8.857 14.643H6a.5.5 0 0 0-.5.5V18a.5.5 0 0 0 .5.5h2.857a.5.5 0 0 0 .5-.5v-2.857a.5.5 0 0 0-.5-.5M6 13.143a2 2 0 0 0-2 2V18a2 2 0 0 0 2 2h2.857a2 2 0 0 0 2-2v-2.857a2 2 0 0 0-2-2zM18 14.643h-2.857a.5.5 0 0 0-.5.5V18a.5.5 0 0 0 .5.5H18a.5.5 0 0 0 .5-.5v-2.857a.5.5 0 0 0-.5-.5m-2.857-1.5a2 2 0 0 0-2 2V18a2 2 0 0 0 2 2H18a2 2 0 0 0 2-2v-2.857a2 2 0 0 0-2-2zM18 5.5h-2.857a.5.5 0 0 0-.5.5v2.857a.5.5 0 0 0 .5.5H18a.5.5 0 0 0 .5-.5V6a.5.5 0 0 0-.5-.5M15.143 4a2 2 0 0 0-2 2v2.857a2 2 0 0 0 2 2H18a2 2 0 0 0 2-2V6a2 2 0 0 0-2-2zM8.857 5.5H6a.5.5 0 0 0-.5.5v2.857a.5.5 0 0 0 .5.5h2.857a.5.5 0 0 0 .5-.5V6a.5.5 0 0 0-.5-.5M6 4a2 2 0 0 0-2 2v2.857a2 2 0 0 0 2 2h2.857a2 2 0 0 0 2-2V6a2 2 0 0 0-2-2z" clip-rule="evenodd"/></symbol><symbol id="visibility" fill="none" viewBox="0 0 24 24"><g fill="currentColor" fill-rule="evenodd" clip-rule="evenodd"><path d="M12 9.75a2.25 2.25 0 1 0 0 4.5 2.25 2.25 0 0 0 0-4.5M8.25 12a3.75 3.75 0 1 1 7.5 0 3.75 3.75 0 0 1-7.5 0"/><path d="M12 6.988c-1.992 0-4.402 1.5-7.233 4.966a.07.07 0 0 0 0 .092c2.83 3.466 5.24 4.966 7.233 4.966s4.403-1.5 7.234-4.966a.07.07 0 0 0 0-.092C16.402 8.488 13.993 6.988 12 6.988m-8.395 4.017C6.482 7.482 9.282 5.488 12 5.488s5.518 1.994 8.395 5.517c.474.579.474 1.411 0 1.99-2.877 3.523-5.677 5.517-8.395 5.517s-5.518-1.994-8.395-5.517a1.57 1.57 0 0 1 0-1.99"/></g></symbol><symbol id="x" fill="none" viewBox="0 0 24 24"><path fill="currentcolor" fill-rule="evenodd" d="M5.47 5.47a.75.75 0 0 1 1.06 0L12 10.94l5.47-5.47a.75.75 0 1 1 1.06 1.06L13.06 12l5.47 5.47a.75.75 0 1 1-1.06 1.06L12 13.06l-5.47 5.47a.75.75 0 0 1-1.06-1.06L10.94 12 5.47 6.53a.75.75 0 0 1 0-1.06" clip-rule="evenodd"/></symbol></svg>